<svg width="78" height="21" viewBox="0 0 78 21" fill="none" xmlns="http://www.w3.org/2000/svg">
<path fill-rule="evenodd" clip-rule="evenodd" d="M41.6 8.79981C40.8 7.79981 39.7 7.29981 38.3 7.29981C37.3 7.29981 36.2 7.79981 35.2 8.69981V2.7998L33 3.9998V19.7998H35.3V18.5998C36.1 19.4998 37.1 19.9998 38.3 19.9998C39.6 19.9998 40.7 19.4998 41.6 18.4998C42.5 17.3998 43 15.7998 43 13.7998C43 11.6998 42.5 9.99981 41.6 8.79981ZM35.2 11.0998C36 9.9998 36.9 9.4998 37.9 9.4998C39.7 9.4998 40.6 10.9998 40.6 13.9998C40.6 16.5998 39.8 17.8998 38 17.8998C37 17.8998 36.1 17.3998 35.2 16.2998V11.0998Z" fill="#32347F"/>
<path fill-rule="evenodd" clip-rule="evenodd" d="M45.7999 10.2002C46.6999 9.7002 47.6999 9.4002 48.8999 9.4002C50.3999 9.4002 51.1999 10.1002 51.1999 11.5002V12.4002C50.4999 12.1002 49.6999 11.9002 48.5999 11.9002C47.1999 11.9002 45.9999 12.2002 45.1999 12.9002C44.2999 13.6002 43.8999 14.6002 43.8999 15.9002C43.8999 17.3002 44.2999 18.4002 45.1999 19.1002C45.8999 19.7002 46.7999 20.0002 47.9999 20.0002C49.1999 20.0002 50.2999 19.5002 51.2999 18.5002V19.7002H53.5999V11.3002C53.5999 10.0002 53.1999 8.9002 52.3999 8.2002C51.5999 7.5002 50.5999 7.2002 49.1999 7.2002C47.5999 7.2002 46.2999 7.6002 45.0999 8.3002L45.7999 10.2002ZM51.0999 14.6002V16.3002C50.3999 17.3002 49.3999 17.9002 48.1999 17.9002C46.6999 17.9002 45.8999 17.2002 45.8999 15.9002C45.8999 14.7002 46.6999 14.1002 48.3999 14.1002C49.4999 14.0002 50.3999 14.2002 51.0999 14.6002Z" fill="#32347F"/>
<path fill-rule="evenodd" clip-rule="evenodd" d="M58.1999 7.4998H55.8999V19.7998H58.1999V12.5998C58.1999 10.4998 58.9999 9.4998 60.5999 9.4998C62.1999 9.4998 63.0999 10.5998 63.0999 12.8998V19.8998H65.4999V12.7998C65.4999 9.0998 64.0999 7.2998 61.1999 7.2998C59.8999 7.2998 58.7999 7.7998 58.1999 8.6998V7.4998Z" fill="#32347F"/>
<path fill-rule="evenodd" clip-rule="evenodd" d="M73.9 7.4998L71.5 11.0998L70.1 13.0998L70.2 2.7998L67.8 4.0998V19.7998H70.2V16.1998L72 13.6998L74.6 19.7998H77.1L73.6 11.6998L76.5 7.4998H73.9Z" fill="#32347F"/>
<path fill-rule="evenodd" clip-rule="evenodd" d="M14.9 7.5H12.3V19.8H14.9V7.5Z" fill="#32347F"/>
<path fill-rule="evenodd" clip-rule="evenodd" d="M17.2 7.5V9.8H19.4V16.8C19.4 17.7 19.7 18.5 20.2 19.2C20.7 19.8 21.4 20.1 22.2 20.1C23.1 20.1 23.9 19.9 24.5 19.5L25 17.3V17.1H24.9C24.2 17.5 23.6 17.7 23 17.7C22.2 17.7 21.7999 17.3 21.7999 16.3V9.7H24.4V7.4H21.7999V3.5L19.2999 4.8V7.3H17.2V7.5Z" fill="#32347F"/>
<path fill-rule="evenodd" clip-rule="evenodd" d="M29.4 7.5H26.8V19.8H29.4V7.5Z" fill="#32347F"/>
<path fill-rule="evenodd" clip-rule="evenodd" d="M6.5 7.2998C4.7 7.2998 3.2 7.8998 2 8.9998C0.6 10.0998 0 11.6998 0 13.6998C0 15.5998 0.6 17.2998 1.9 18.3998C3.2 19.4998 4.7 20.0998 6.5 20.0998C8.2 20.0998 9.7 19.3998 10.9 17.9998L9.6 16.3998L9.5 16.2998V16.3998C8.6 17.2998 7.6 17.7998 6.5 17.7998C5.4 17.7998 4.5 17.3998 3.7 16.6998C3 15.9998 2.6 14.9998 2.6 13.7998C2.6 12.5998 3 11.6998 3.7 10.8998C4.4 10.0998 5.3 9.7998 6.5 9.7998C7.6 9.7998 8.7 10.2998 9.5 11.1998V11.2998V11.0998L10.8 9.4998C9.7 7.9998 8.2 7.2998 6.5 7.2998Z" fill="#32347F"/>
<path fill-rule="evenodd" clip-rule="evenodd" d="M13.6 5.4C15.6 3.3 18 2.3 20.8 2.3C23.6 2.3 26 3.3 28 5.4H28.1H31L30.9 5.2C29.8 3.6 28.3 2.3 26.5 1.4C24.7 0.5 22.9 0 20.9 0C19 0 17.1 0.4 15.3 1.4C13.5 2.3 12 3.6 10.9 5.2L10.8 5.4H13.6Z" fill="#EB2D2E"/>
</svg>
