<svg width="77" height="16" viewBox="0 0 77 16" fill="none" xmlns="http://www.w3.org/2000/svg">
<g clip-path="url(#clip0_401_564)">
<path d="M6.19742 7.88669C6.13668 5.91837 5.54316 5.90342 4.18774 5.90342H3.51785V10.8236H4.8883V11.1417H0.457031V10.8236H1.82748V0.770969H0.457031V0.452881H8.2071L8.3899 3.48129H8.13133C7.97919 2.57247 7.73565 1.74018 7.09582 1.20983C6.56304 0.756021 6.07595 0.770969 4.96407 0.770969H3.51785V5.57039H4.15707C5.37539 5.55544 5.81677 5.53989 6.02965 4.88877C6.13668 4.58623 6.18239 3.85977 6.18239 3.52613H6.47163V7.88669H6.19742Z" fill="#CA1647"/>
<path d="M10.359 0.695312C10.8611 0.695312 11.2568 1.08874 11.2568 1.58859C11.2568 2.08784 10.8611 2.48187 10.359 2.48187C9.85624 2.48187 9.46056 2.08784 9.46056 1.58859C9.46056 1.08874 9.85624 0.695312 10.359 0.695312ZM8.6686 4.904H11.1353V10.8239H12.1251V11.142H8.65356V10.8239H9.70411V5.22208H8.6686V4.904Z" fill="#CA1647"/>
<path d="M16.3928 5.22197H14.7631V9.73379C14.7631 10.2032 14.7481 10.8387 15.5094 10.8387C16.2707 10.8387 16.3771 10.2187 16.4228 9.97595H16.7578C16.682 10.3395 16.4685 11.3236 15.0524 11.3236C14.3067 11.3236 13.6976 11.036 13.4691 10.4304C13.347 10.1428 13.347 9.80973 13.347 9.03783V5.22197H12.3572V5.01031C12.9212 4.76756 13.3777 4.34424 13.7583 3.87488C14.3524 3.16337 14.4589 2.70896 14.5346 2.39087H14.7631V4.90448H16.3928V5.22197Z" fill="#CA1647"/>
<path d="M22.8325 9.1131C22.619 10.1881 21.812 11.3236 20.1679 11.3236C18.3862 11.3236 17.0308 9.87006 17.0308 8.0835C17.0308 6.13013 18.5534 4.72266 20.3502 4.72266C21.7663 4.72266 22.6346 5.60039 22.6346 6.35794C22.6346 6.84224 22.2991 7.20577 21.8577 7.20577C21.4163 7.20577 21.1427 6.81175 21.1427 6.40278C21.1427 6.0548 21.3249 5.81264 21.4464 5.69127C21.4927 5.63088 21.5228 5.60039 21.5228 5.54C21.5228 5.40367 21.1427 5.0252 20.3201 5.0252C19.8937 5.0252 19.2539 5.13103 18.9496 5.87303C18.7061 6.46317 18.6905 7.8563 18.6905 8.53792C18.6905 9.05272 18.6905 9.6279 18.8432 10.0518C19.0104 10.5517 19.4217 10.9905 20.2137 10.9905C21.4927 10.9905 22.2384 10.0213 22.4518 9.1131H22.8325Z" fill="#CA1647"/>
<path d="M23.1344 0.452881H25.5554V5.79759C25.8145 5.46456 26.5151 4.72255 27.8699 4.72255C28.7226 4.72255 29.2861 5.01015 29.5753 5.32823C29.9253 5.72166 29.9409 6.34229 29.9409 6.75126V10.8236H30.9458V11.1417H27.4736V10.8236H28.4484V6.66038C28.4484 6.0242 28.4634 5.17636 27.4279 5.17636C27.2758 5.17636 26.6059 5.17636 26.0887 5.82749C25.6167 6.43317 25.586 7.03885 25.5554 8.26516V10.8236H26.5301V11.1417H23.0586V10.8236H24.0785V0.770969H23.1344V0.452881Z" fill="#CA1647"/>
<path d="M34.8048 0.785916V5.28279H35.3532C36.0074 5.28279 36.9215 5.28279 37.4693 4.88877C38.0328 4.49535 38.2005 3.76889 38.2005 3.07232C38.2005 2.61791 38.0935 1.93689 37.8042 1.52792C37.2564 0.770969 36.2516 0.785916 35.3225 0.785916H34.8048ZM41.185 10.945C40.7586 11.1722 40.3166 11.2176 40.0424 11.2176C39.571 11.2176 39.0232 11.0813 38.5812 10.6879C37.8499 10.0517 37.8199 9.14349 37.8042 8.31061L37.7742 7.64453C37.7435 7.03885 37.6828 6.17607 36.7844 5.81254C36.343 5.63078 35.8553 5.61583 34.8198 5.64632V10.8236H36.1752V11.1417H31.7439V10.8236H33.1144V0.770969H31.6982V0.452881H35.916C37.1193 0.452881 38.2462 0.468427 39.129 1.104C39.8145 1.60386 40.0581 2.28487 40.0581 2.92105C40.0581 4.4499 38.6419 5.38862 36.7687 5.51C37.8806 5.66127 38.5048 6.13063 38.749 6.34229C39.7388 7.20567 39.7225 8.29566 39.7081 9.00717V9.43109C39.6925 9.82451 39.7081 10.0517 39.7538 10.2484C39.8296 10.5366 40.0424 10.8392 40.4387 10.8392C40.5752 10.8392 40.7586 10.7937 41.0779 10.6723L41.185 10.945Z" fill="#636B73"/>
<path d="M45.3863 7.96237C44.198 7.97792 43.026 8.3259 43.026 9.56716C43.026 10.3092 43.4981 10.6273 43.9852 10.6273C44.4115 10.6273 44.7008 10.4001 44.8379 10.2793C45.3256 9.80932 45.3556 9.27957 45.3863 8.50767V7.96237ZM46.8018 10.0066C46.8018 10.5214 46.8018 10.8844 47.1518 10.8844C47.3503 10.8844 47.518 10.7026 47.6245 10.6123L47.8067 10.824C47.6551 10.9752 47.3046 11.3238 46.6653 11.3238C46.3304 11.3238 46.0105 11.2174 45.782 11.0362C45.4314 10.748 45.3863 10.3696 45.3556 10.067C45.0207 10.7331 44.3508 11.3238 43.3153 11.3238C42.3555 11.3238 41.5942 10.7785 41.5942 9.83981C41.5942 8.91664 42.2948 8.26551 43.3153 7.94743C43.9852 7.75071 44.8228 7.68973 45.3863 7.68973V6.17582C45.3556 5.73695 45.3256 5.02544 44.3201 5.02544C43.6352 5.02544 43.0711 5.43381 43.0711 5.66102C43.0711 5.84278 43.391 6.0395 43.391 6.38808C43.391 6.72111 43.1018 7.0392 42.6905 7.0392C42.2798 7.0392 42.0206 6.70557 42.0206 6.32709C42.0206 5.58568 43.0104 4.7229 44.5486 4.7229C45.2792 4.7229 45.9948 4.96446 46.3761 5.32798C46.8018 5.76745 46.8018 6.2667 46.8018 6.84189V10.0066Z" fill="#636B73"/>
<path d="M51.7268 5.22197H50.0977V9.73379C50.0977 10.2032 50.0821 10.8387 50.8434 10.8387C51.6047 10.8387 51.7111 10.2187 51.7568 9.97595H52.0918C52.016 10.3395 51.8031 11.3236 50.3864 11.3236C49.6407 11.3236 49.0315 11.036 48.803 10.4304C48.681 10.1428 48.681 9.80973 48.681 9.03783V5.22197H47.6912V5.01031C48.2552 4.76756 48.7116 4.34424 49.0923 3.87488C49.6864 3.16337 49.7928 2.70896 49.8686 2.39087H50.0977V4.90448H51.7268V5.22197Z" fill="#636B73"/>
<path d="M54.3211 0.695312C54.8238 0.695312 55.2195 1.08874 55.2195 1.58859C55.2195 2.08784 54.8238 2.48187 54.3211 2.48187C53.8184 2.48187 53.4227 2.08784 53.4227 1.58859C53.4227 1.08874 53.8184 0.695312 54.3211 0.695312ZM52.6308 4.904H55.0974V10.8239H56.0873V11.142H52.6157V10.8239H53.6663V5.22208H52.6308V4.904Z" fill="#636B73"/>
<path d="M60.2124 11.1418H56.7559V10.8237H57.7451V5.22191H56.7559V4.90442H59.1919V5.81265C59.9538 4.75255 60.9893 4.72266 61.2473 4.72266C61.857 4.72266 62.4505 4.96421 62.8162 5.34329C63.0296 5.57049 63.3189 5.90353 63.3189 6.96302V10.8237H64.3231V11.1418H60.9123V10.8237H61.8721V6.75136C61.857 6.13013 61.842 6.00936 61.8113 5.85809C61.6592 5.23746 61.1414 5.16152 60.9123 5.16152C60.5774 5.16152 60.2274 5.29784 59.9388 5.52505C59.2226 6.11519 59.2069 7.02401 59.1919 8.17439V10.8237H60.2124V11.1418Z" fill="#636B73"/>
<path d="M68.9053 5.57044C68.7832 5.2374 68.5096 5.02514 67.9612 5.02514C66.987 5.02514 66.9564 5.72171 66.9263 6.28195C66.9101 6.7812 66.9101 6.87209 66.9101 7.70497C66.9101 8.15879 66.9263 8.93128 67.9161 8.93128C68.2504 8.93128 68.5397 8.82546 68.6924 8.64369C68.9203 8.41649 68.951 8.21977 68.9666 6.84219C68.9666 6.38778 68.9817 5.82754 68.9053 5.57044ZM68.129 12.2622C67.5649 12.2622 66.88 12.2622 66.4386 12.2317C66.1951 12.4894 65.9058 12.8374 65.9058 13.4581C65.9058 14.1851 66.4236 15.1388 67.8397 15.1388C70.0472 15.1388 70.7021 13.6398 70.7021 12.8978C70.7021 12.2013 70.2758 12.2013 69.4074 12.2168L68.129 12.2622ZM69.1494 10.8386C69.9558 10.8237 71.2048 10.8237 71.2048 12.5193C71.2048 14.2605 69.8644 15.5472 67.8397 15.5472C66.1951 15.5472 64.916 14.6694 64.916 13.6099C64.916 12.9887 65.3881 12.3986 66.1644 12.1714C65.4338 11.9292 64.9617 11.4897 64.9617 10.7633C64.9617 10.3699 65.1289 9.83951 65.6773 9.32471C65.9208 9.11305 66.1187 8.97673 66.3929 8.80991C65.7224 8.3561 65.3881 7.76536 65.3881 6.96297C65.3881 5.525 66.6364 4.73755 67.9768 4.73755C68.7832 4.73755 69.301 4.9797 69.773 5.40362C70.0929 5.08553 70.4742 4.81348 70.915 4.81348C71.357 4.81348 71.6919 5.10108 71.6919 5.47955C71.6919 5.76715 71.4784 6.06969 71.0978 6.06969C70.7021 6.06969 70.6107 5.79704 70.565 5.64577L70.5349 5.51005C70.5193 5.44906 70.4886 5.34323 70.3521 5.34323C70.215 5.34323 70.0929 5.4945 69.9865 5.60033C70.3215 6.02425 70.5043 6.49361 70.5043 7.0389C70.5043 8.40154 69.301 9.23442 67.9161 9.23442C67.4891 9.23442 67.0478 9.15849 66.6822 8.96178C66.0736 9.43114 65.6166 9.79407 65.6166 10.2634C65.6166 10.8847 66.3015 10.8691 66.88 10.8542L69.1494 10.8386Z" fill="#636B73"/>
<path d="M72.3557 11.1418H72.1428V8.76452H72.4164L72.6449 9.49158C72.9498 10.3544 73.589 10.9302 74.5025 10.9302C75.3708 10.9302 75.9493 10.3089 75.9493 9.73373C75.9493 8.99173 75.2181 8.84046 74.6853 8.73463L74.2132 8.65869C73.7713 8.58336 73.3756 8.50742 73.0713 8.32566C72.5836 8.05361 72.2036 7.46287 72.2036 6.70592C72.2036 5.63088 72.9799 4.72266 74.1218 4.72266C74.7617 4.72266 75.3245 5.01025 75.6751 5.31279L75.9493 4.81354H76.2079V6.69097H75.9186C75.7815 5.81264 75.0966 5.10113 74.1068 5.10113C73.2541 5.10113 72.7514 5.73671 72.7514 6.19112C72.7514 6.90263 73.6804 6.94807 74.0461 7.0539L74.5939 7.15973C75.173 7.28111 76.5428 7.52326 76.5428 9.18844C76.5428 10.3089 75.7358 11.3236 74.4718 11.3236C73.6804 11.3236 73.132 10.96 72.7363 10.642L72.3557 11.1418Z" fill="#636B73"/>
</g>
<defs>
<clipPath id="clip0_401_564">
<rect width="77" height="16" fill="white"/>
</clipPath>
</defs>
</svg>
