<svg width="58" height="16" viewBox="0 0 58 16" fill="none" xmlns="http://www.w3.org/2000/svg">
<path d="M57.165 15.9999C47.8964 14.343 38.3689 13.5145 28.6343 13.5145C18.8997 13.5145 9.37217 14.3947 0.10356 15.9999C0.0517799 15.9999 0 15.9999 0 15.9481C0 15.8964 0 15.8446 0.0517799 15.8446C9.06149 13.1003 18.6926 11.5986 28.5825 11.5986C38.5243 11.5986 48.1036 13.1003 57.165 15.8446C57.2168 15.8446 57.2686 15.8964 57.2168 15.9481C57.2168 15.9999 57.2168 15.9999 57.165 15.9999Z" fill="url(#paint0_linear_402_582)"/>
<path d="M11.5469 0C11.0808 1.13916 10.6148 2.27832 10.1488 3.41748L9.47567 4.91909L8.80253 3.41748C8.28473 2.27832 7.81871 1.13916 7.35269 0H3.67631V0.31068C4.09055 0.31068 4.45301 0.673139 4.45301 1.08738C4.40123 1.86408 4.34945 2.64078 4.24589 3.41748L3.98699 5.79935C3.88343 6.93851 3.72809 8.07767 3.57275 9.21683H4.76369C4.81547 8.07767 4.91903 6.93851 5.02259 5.79935L5.38505 2.17476C5.90285 3.26214 6.42065 4.34951 6.88667 5.48867L7.04201 5.79935C7.55981 6.93851 8.02583 8.07767 8.49185 9.21683H8.85431C9.32033 8.07767 9.78635 6.93851 10.2524 5.79935L10.4595 5.33333C10.9255 4.24595 11.4433 3.1068 11.9611 2.01942L12.3236 5.79935C12.4271 6.93851 12.5307 8.07767 12.5825 9.21683H15.3268C15.1715 8.07767 15.0161 6.93851 14.9126 5.79935L14.6537 3.41748C14.6019 2.27832 14.4983 1.13916 14.4465 0H11.5469Z" fill="#140078"/>
<path d="M23.8188 8.28492C24.1295 7.71534 24.4401 7.14577 24.7508 6.57619L28.0647 1.08751V0.828613H20.7638V2.53735H21.0744C21.0744 2.12311 21.3851 1.81243 21.7994 1.76065C22.0065 1.76065 22.2654 1.76065 22.4725 1.76065H24.8026C24.4919 2.33023 24.1812 2.84803 23.8706 3.41761L20.5566 8.95806V9.16518H28.4272V8.18136C27.8576 8.28492 27.288 8.28492 26.7185 8.28492H23.8188Z" fill="#140078"/>
<path d="M37.2816 9.21696H37.3334C37.2816 8.64738 37.2816 8.0778 37.2816 7.50822V5.43703H40.5437V7.50822C40.5437 8.0778 40.5437 8.64738 40.4919 9.21696H42.9774C42.9256 8.64738 42.9256 8.0778 42.9256 7.50822V2.53735C42.9256 1.96777 42.9256 1.39819 42.9774 0.828613H39.767V1.08751H39.8188C40.1813 1.08751 40.4402 1.34641 40.4919 1.70887C40.4919 1.96777 40.4919 2.22667 40.4919 2.53735V4.50499H37.2816V2.53735C37.2816 1.96777 37.2816 1.39819 37.3334 0.828613H34.123V1.08751H34.1748C34.5373 1.08751 34.7962 1.34641 34.8479 1.70887C34.8479 1.96777 34.8479 2.22667 34.8479 2.53735V8.3367C34.5373 8.38848 34.1748 8.38848 33.8641 8.38848C33.5017 8.38848 33.1392 8.3367 32.7767 8.28492C31.7929 8.0778 31.6376 7.14576 31.6376 6.57619V2.53735C31.6376 1.96777 31.6376 1.44997 31.6894 0.880393H28.479V1.13929H28.5308C28.8932 1.13929 29.1521 1.39819 29.2039 1.76065C29.2039 2.01955 29.2039 2.27845 29.2039 2.58913V6.21373C29.2039 7.0422 29.4628 8.8545 31.6894 9.16518C32.3625 9.26874 33.0874 9.32052 33.8123 9.32052C35.0033 9.32052 36.1424 9.32052 37.2816 9.21696Z" fill="#140078"/>
<path d="M53.6958 5.02259C53.6958 7.87048 51.2104 9.32032 48.8285 9.32032C46.3948 9.32032 43.9612 7.87048 43.9612 5.02259C43.9612 2.17469 46.4466 0.724854 48.8285 0.724854C51.2104 0.724854 53.6958 2.17469 53.6958 5.02259ZM51.3139 5.02259C51.3139 3.46919 50.6408 1.65689 48.8285 1.65689C46.9644 1.65689 46.3431 3.46919 46.3431 5.02259C46.3431 6.57599 47.0162 8.38828 48.8285 8.38828C50.6408 8.44006 51.3139 6.57599 51.3139 5.02259Z" fill="#140078"/>
<path d="M19.4174 2.53735C19.4174 1.96777 19.4174 1.39819 19.4692 0.828613H16.207V1.13929H16.2588C16.6731 1.13929 17.0355 1.50175 17.0355 1.91599C17.0355 2.12311 17.0355 2.33023 17.0355 2.53735V7.50822C17.0355 8.0778 17.0355 8.64738 16.9837 9.21696H19.4692C19.4174 8.64738 19.4174 8.0778 19.4174 7.50822V2.53735Z" fill="#140078"/>
<defs>
<linearGradient id="paint0_linear_402_582" x1="-0.0912815" y1="13.7817" x2="57.1625" y2="13.7817" gradientUnits="userSpaceOnUse">
<stop stop-color="#FC0019" stop-opacity="0"/>
<stop offset="0.15" stop-color="#FC0019" stop-opacity="0"/>
<stop offset="0.4" stop-color="#FC0019"/>
<stop offset="1" stop-color="#FC0019"/>
</linearGradient>
</defs>
</svg>
