<svg width="84" height="19" viewBox="0 0 84 19" fill="none" xmlns="http://www.w3.org/2000/svg">
<path fill-rule="evenodd" clip-rule="evenodd" d="M21 7.8999H21.9C22.3 7.8999 23.1001 7.8999 23.1001 6.7999C23.1001 6.0999 22.8 5.6999 22 5.6999H21V7.8999ZM79.4 9.1999V1.0999H81.1001V7.7999H83.6001V9.1999H79.4ZM74.4 2.5999L73.6001 6.1999H75.2L74.4 2.5999ZM71.2 9.1999L73.5 1.0999H75.7L77.9 9.1999H76.1001L75.6001 7.3999H73.3L72.8 9.1999H71.2ZM65.6001 9.1999V1.0999H70V2.2999H67.3V4.2999H69.9V5.4999H67.3V7.7999H70.2V9.0999H65.6001V9.1999ZM60.4 4.5999H61.2C61.9 4.5999 62.1001 3.8999 62.1001 3.3999C62.1001 2.5999 61.7 2.2999 61.2 2.2999H60.4V4.5999ZM60.4 9.1999H58.7V1.0999H61.8C63 1.0999 63.7 1.8999 63.7 3.1999C63.7 4.1999 63.3 4.9999 62.2 5.1999C62.6 5.2999 63.7 5.3999 63.7 6.7999C63.7 7.2999 63.7 8.7999 63.9 9.1999H62.2C62 8.6999 62 8.0999 62 7.5999C62 6.5999 62.1 5.8999 60.8 5.8999H60.3V9.1999H60.4ZM52.3 5.0999C52.3 3.0999 52.1 2.0999 51.2 2.0999C50.2 2.0999 50.1001 2.9999 50.1001 5.0999C50.1001 7.1999 50.3 8.0999 51.2 8.0999C52.1 8.0999 52.3 7.1999 52.3 5.0999ZM48.4 5.0999C48.4 2.9999 48.4 0.899902 51.2 0.899902C54 0.899902 54 2.8999 54 5.0999C54 7.1999 54 9.2999 51.2 9.2999C48.4 9.2999 48.4 7.1999 48.4 5.0999ZM41.7 5.0999C41.7 2.9999 41.7 0.899902 44.5 0.899902C46.2 0.899902 46.9 1.8999 46.8 3.5999H45.1001C45.1001 2.4999 44.9 2.0999 44.4 2.0999C43.5 2.0999 43.3 2.9999 43.3 5.0999C43.3 7.1999 43.5 8.0999 44.4 8.0999C45.2 8.0999 45.2 6.9999 45.2 6.3999H46.9C46.9 8.4999 46 9.2999 44.4 9.2999C41.7 9.2999 41.7 7.1999 41.7 5.0999ZM33.9 9.1999V1.0999H36.2L38.3 6.6999H38.4V1.0999H40V9.1999H37.7L35.5 3.2999V9.1999H33.9ZM29 2.5999L28.2 6.1999H29.8L29 2.5999ZM25.8 9.1999L28.1001 1.0999H30.3L32.6001 9.1999H30.8L30.3 7.3999H28L27.5 9.1999H25.8ZM21 4.3999H22.1001C22.5001 4.3999 22.9 4.0999 22.9 3.2999C22.9 2.6999 22.5 2.1999 22 2.1999H20.9V4.3999H21ZM19.3 9.1999V1.0999H22.3C23.6 1.0999 24.6001 1.4999 24.6001 3.1999C24.6001 4.0999 24.1 4.7999 23.2 4.8999C24.4 5.0999 24.7 5.8999 24.7 6.9999C24.7 8.9999 22.9 9.0999 22.2 9.0999H19.3V9.1999Z" fill="#A0A0A4"/>
<path fill-rule="evenodd" clip-rule="evenodd" d="M20.3 13.7001L19.6 15.9001H21L20.3 13.7001ZM47.3 15.9001V14.5001C47.3 13.6001 46.7 13.6001 46.5 13.6001C46.3 13.6001 45.7 13.6001 45.7 14.5001V15.9001C45.7 16.8001 46 17.0001 46.5 17.0001C47 17.0001 47.3 16.8001 47.3 15.9001ZM45.2 15.9001V14.5001C45.2 13.7001 45.7 13.1001 46.5 13.1001C47.4 13.1001 47.8999 13.6001 47.8999 14.5001V15.9001C47.8999 17.0001 47.4 17.5001 46.5 17.5001C45.7 17.4001 45.2 17.0001 45.2 15.9001ZM42.1 14.9001H42.8999C43.2999 14.9001 43.5 14.6001 43.5 14.2001C43.5 13.9001 43.2999 13.5001 42.8999 13.5001H42.1V14.9001ZM42.1 15.4001V17.4001H41.6V13.2001H43.1C43.9 13.2001 44.1 13.7001 44.1 14.3001C44.1 14.8001 43.8 15.2001 43.3 15.3001C43.8 15.4001 44 15.5001 44 16.4001C44 16.6001 44.1 17.3001 44.2 17.5001H43.6C43.4 17.2001 43.4999 16.7001 43.3999 16.1001C43.3999 15.6001 42.9 15.6001 42.8 15.6001H42.1V15.4001ZM36.8999 17.4001H36.3999V13.2001H37.3L38.3999 16.8001L39.5 13.2001H40.3999V17.4001H39.8999V13.6001L38.7 17.4001H38.2L37.1 13.6001V17.4001H36.8999ZM33.8 13.7001L33.1 15.9001H34.5L33.8 13.7001ZM33.5 13.1001H34.2L35.6 17.3001H35L34.7 16.3001H33L32.7 17.3001H32.1L33.5 13.1001ZM29.6 13.1001V17.3001H28.8L27.1 13.6001V17.3001H26.6V13.1001H27.3999L29.1 16.7001V13.1001H29.6ZM23.5 16.9001H24.3C24.8 16.9001 25.1 16.4001 25.1 16.1001C25.1 15.4001 24.6 15.3001 24.1 15.3001H23.6V16.9001H23.5ZM23.5 14.9001H24.3C24.8 14.9001 24.8999 14.6001 24.8999 14.2001C24.8999 13.8001 24.7 13.5001 24.3 13.5001H23.5V14.9001ZM22.8999 17.4001V13.2001H24.3C24.8 13.2001 25.1 13.4001 25.2 13.7001C25.4 13.9001 25.3999 14.2001 25.3999 14.2001C25.3999 14.7001 25.2 15.1001 24.7 15.2001V15.3001C25.3 15.4001 25.5 15.8001 25.5 16.3001C25.5 17.4001 24.7 17.5001 24.2 17.5001H22.8999V17.4001ZM20 13.1001H20.7L22.1 17.3001H21.5L21.2 16.3001H19.5L19.2 17.3001H18.7L20 13.1001Z" fill="#A0A0A4"/>
<path fill-rule="evenodd" clip-rule="evenodd" d="M0 0H13.9V11.5L6.9 18.5L0 11.5V0Z" fill="white"/>
<path fill-rule="evenodd" clip-rule="evenodd" d="M13.8999 11.5001L6.8999 18.5001V4.6001L13.8999 11.5001Z" fill="#FDB924"/>
<path fill-rule="evenodd" clip-rule="evenodd" d="M0 0H13.9V11.5L6.9 4.7V18.5L0 11.5V0Z" fill="#00AF9D"/>
</svg>
