<svg width="87" height="16" viewBox="0 0 87 16" fill="none" xmlns="http://www.w3.org/2000/svg">
<path fill-rule="evenodd" clip-rule="evenodd" d="M86.2999 6.80019C86.2999 7.30019 86.2 7.9002 86.2 8.2002C85.8 8.2002 85.3999 8.10019 84.9999 8.10019C84.5999 8.10019 84.1999 8.1002 83.7999 8.2002V14.6002H82.2V7.10019C82.9 6.80019 84.0999 6.7002 84.9999 6.7002C85.3999 6.7002 85.9999 6.70019 86.2999 6.80019Z" fill="#EA1D25"/>
<path fill-rule="evenodd" clip-rule="evenodd" d="M75.2999 10.0002H78.9999C78.9999 8.80019 78.3 8.00019 77.2 8.00019C76 8.10019 75.3999 8.70019 75.2999 10.0002ZM80.5999 11.4002H75.3999C75.5999 12.7002 76.3999 13.4002 77.8999 13.4002C78.7999 13.4002 79.6999 13.2002 80.4999 12.8002C80.3999 13.2002 80.4 13.8002 80.2 14.3002C79.4 14.6002 78.6999 14.8002 77.7999 14.8002C75.0999 14.8002 73.7 13.3002 73.7 10.7002C73.7 8.5002 74.6999 6.7002 77.2999 6.7002C79.6999 6.7002 80.7 8.20019 80.7 10.1002C80.6 10.6002 80.5999 11.0002 80.5999 11.4002Z" fill="#EA1D25"/>
<path fill-rule="evenodd" clip-rule="evenodd" d="M70.7001 12.9002V8.30019C70.3001 8.20019 69.8001 8.2002 69.4001 8.2002C67.8001 8.2002 67.0001 9.20019 67.0001 10.9002C67.0001 12.4002 67.6001 13.5002 69.1001 13.5002C69.7001 13.4002 70.3001 13.2002 70.7001 12.9002ZM72.3 4.2002V14.6002H70.8L70.7001 13.7002C70.3001 14.4002 69.7001 14.8002 68.6001 14.8002C66.6001 14.8002 65.3 13.4002 65.3 10.9002C65.3 8.30019 66.7001 6.80019 69.5001 6.80019C69.9001 6.80019 70.3001 6.80019 70.7001 6.90019V4.40019C71.2001 4.20019 71.8 4.2002 72.3 4.2002Z" fill="#EA1D25"/>
<path fill-rule="evenodd" clip-rule="evenodd" d="M64 9.60019V14.6002H62.3V9.90019C62.3 8.70019 61.9 8.2002 60.3 8.2002C59.9 8.2002 59.5 8.20019 59 8.30019V14.6002H57.4V7.10019C58.4 6.80019 59.6 6.7002 60.4 6.7002C63.1 6.7002 64 7.80019 64 9.60019Z" fill="#EA1D25"/>
<path fill-rule="evenodd" clip-rule="evenodd" d="M54 12.9002V8.2002C53.7 8.1002 53.3 8.1002 52.8 8.1002C51.1 8.1002 50.3 9.1002 50.3 10.8002C50.3 12.3002 50.9 13.4002 52.4 13.4002C53 13.4002 53.6 13.2002 54 12.9002ZM55.6 7.1002V14.6002H54.1L54 13.7002C53.6 14.4002 53 14.8002 51.9 14.8002C49.9 14.8002 48.6 13.4002 48.6 10.9002C48.6 8.3002 50 6.8002 52.8 6.8002C53.9 6.7002 54.8 6.8002 55.6 7.1002Z" fill="#EA1D25"/>
<path fill-rule="evenodd" clip-rule="evenodd" d="M46.8 13.4002C47.3 13.4002 47.7 13.3002 48.1 13.2002C48.1 13.6002 48 14.1002 47.9 14.6002C47.5 14.8002 47 14.9002 46.5 14.9002C44.9 14.9002 43.9 14.2002 43.9 12.4002V4.50019C44.4 4.30019 45 4.2002 45.5 4.2002V7.00019H48.1C48.1 7.50019 48 8.00019 48 8.40019H45.5V12.1002C45.6 13.0002 46 13.4002 46.8 13.4002Z" fill="#EA1D25"/>
<path fill-rule="evenodd" clip-rule="evenodd" d="M42.3 9.60019V14.6002H40.7001V9.90019C40.7001 8.70019 40.3001 8.2002 38.7001 8.2002C38.3001 8.2002 37.9001 8.20019 37.4001 8.30019V14.6002H35.8V7.10019C36.8 6.80019 38 6.7002 38.8 6.7002C41.4 6.7002 42.3 7.80019 42.3 9.60019Z" fill="#EA1D25"/>
<path fill-rule="evenodd" clip-rule="evenodd" d="M32.2999 12.9002V8.2002C31.9999 8.1002 31.5999 8.1002 31.0999 8.1002C29.3999 8.1002 28.5999 9.1002 28.5999 10.8002C28.5999 12.3002 29.1999 13.4002 30.6999 13.4002C31.2999 13.4002 31.7999 13.2002 32.2999 12.9002ZM33.8999 7.1002V14.6002H32.3999L32.2999 13.7002C31.8999 14.4002 31.2999 14.8002 30.1999 14.8002C28.1999 14.8002 26.8999 13.4002 26.8999 10.9002C26.8999 8.3002 28.2999 6.8002 31.0999 6.8002C32.1999 6.7002 33.0999 6.8002 33.8999 7.1002Z" fill="#EA1D25"/>
<path fill-rule="evenodd" clip-rule="evenodd" d="M19 14.2C19 13.6 19.1 13.2 19.3 12.7C20.1 13.1 21.2 13.3 22 13.3C23.4 13.3 24.2 12.9 24.2 12C24.2 11.1 23.6 10.7 22.2 10.1L21.4 9.8C20 9.2 19 8.4 19 6.8C19 5.1 20.2 4 22.6 4C23.6 4 24.5 4.1 25.3 4.4C25.3 5 25.2 5.4 25 5.9C24.2 5.6 23.2 5.5 22.5 5.5C21.2 5.5 20.6 6 20.6 6.8C20.6 7.6 21.2 8 22.2 8.5L23 8.8C24.9 9.6 25.7 10.5 25.7 11.9C25.7 13.6 24.4 14.8 21.9 14.8C20.9 14.8 19.9 14.6 19 14.2Z" fill="#EA1D25"/>
<path fill-rule="evenodd" clip-rule="evenodd" d="M11.5 6.9C11.5 6.4 11.3 5.8 11 5.3L8.5 1C8.3 0.7 8.20001 0.3 8.10001 0L8 0.200001C7.4 1.2 7.4 2.6 8 3.6L10 7C10.6 8 10.6 9.4 10 10.4L9.89999 10.6C9.79999 10.2 9.7 9.9 9.5 9.6L7.7 6.5L6.5 4.5C6.3 4.2 6.20001 3.8 6.10001 3.5L6 3.7C5.4 4.7 5.4 6.1 6 7.1L8 10.5C8.6 11.5 8.6 12.9 8 13.9L7.89999 14.1C7.79999 13.7 7.7 13.4 7.5 13.1L5 8.8C4.7 8.2 4.5 7.6 4.5 6.9C1.9 7.6 0 9.1 0 10.8C0 13.2 3.49999 15.1 7.89999 15.1C12.3 15.1 15.8 13.2 15.8 10.8C16 9.1 14.2 7.6 11.5 6.9Z" fill="#EA1D25"/>
</svg>
