<svg width="74" height="16" viewBox="0 0 74 16" fill="none" xmlns="http://www.w3.org/2000/svg">
<path d="M31.3373 10.0356L28.8757 0.0947266H30.1065L31.5266 6.62727C31.716 7.28999 31.8106 7.95272 31.9053 8.61544C32.0947 7.57402 32.284 6.9113 32.284 6.81662L34.0828 0.0947266H35.5976L36.9231 5.11248C37.2071 6.34325 37.4911 7.57402 37.6805 8.61544C37.7751 7.95272 37.9645 7.28999 38.1538 6.43792L39.5739 0.0947266H40.8047L38.2485 10.0356H37.1124L35.1243 2.46159C34.9349 1.79887 34.8402 1.42017 34.8402 1.3255C34.7455 1.79887 34.6509 2.17757 34.5562 2.46159L32.568 10.0356H31.3373Z" fill="#017060"/>
<path d="M41.8462 10.0356V0.0947266H48.4734V1.23082H42.9823V4.26041H48.0947V5.49118H42.9823V8.89946H48.6628V10.0356H41.8462Z" fill="#017060"/>
<path d="M50.1775 10.0356V0.0947266H54.2485C55.1006 0.0947266 55.6686 0.1894 56.142 0.37875C56.6153 0.568099 56.8994 0.852122 57.1834 1.3255C57.4674 1.79887 57.5621 2.27224 57.5621 2.84029C57.5621 3.50301 57.3728 4.16573 56.8994 4.63911C56.5207 5.11248 55.858 5.3965 54.9112 5.58585C55.1952 5.7752 55.4793 5.96455 55.6686 6.05922C56.0473 6.43792 56.3313 6.81662 56.71 7.38467L58.3195 10.1302H56.8047L55.5739 8.04739C55.1952 7.47934 54.9112 7.00597 54.7219 6.72195C54.5325 6.43792 54.2485 6.1539 54.0592 6.05922C53.8698 5.96455 53.6804 5.86988 53.4911 5.7752C53.3964 5.7752 53.1124 5.68053 52.8284 5.68053H51.4082V10.1302H50.1775V10.0356ZM51.4082 4.44976H54.0592C54.6272 4.44976 55.1006 4.35508 55.3846 4.26041C55.6686 4.16573 55.9526 3.97638 56.142 3.69236C56.3313 3.40834 56.426 3.12431 56.426 2.84029C56.426 2.36692 56.2367 1.98822 55.9526 1.7042C55.6686 1.42017 55.1006 1.23082 54.4378 1.23082H51.5029V4.44976H51.4082Z" fill="#017060"/>
<path d="M61.0652 10.0356V1.32555H58.0356V0.189453H65.3256V1.32555H62.296V10.0356H61.0652Z" fill="#017060"/>
<path d="M66.3669 10.0356V0.0947266H72.9942V1.23082H67.5977V4.26041H72.7101V5.49118H67.5977V8.89946H73.2782V10.0356H66.3669Z" fill="#017060"/>
<path d="M33.7043 14.8638L34.083 14.9585C33.9883 15.3372 33.7989 15.5266 33.6096 15.7159C33.4202 15.9053 33.1362 15.9999 32.7575 15.9999C32.4735 15.9999 32.1895 15.9053 32.0001 15.8106C31.8108 15.7159 31.6214 15.5266 31.5267 15.2425C31.4321 14.9585 31.3374 14.6745 31.3374 14.3905C31.3374 14.1065 31.4321 13.8224 31.5267 13.5384C31.6214 13.2544 31.8108 13.1597 32.0001 12.9704C32.1895 12.8757 32.4735 12.781 32.7575 12.781C33.0415 12.781 33.3256 12.8757 33.5149 12.9704C33.7043 13.065 33.8936 13.3491 33.9883 13.6331L33.6096 13.7278C33.5149 13.5384 33.4202 13.3491 33.3255 13.2544C33.2309 13.1597 33.0415 13.065 32.8522 13.065C32.6628 13.065 32.3788 13.1597 32.2841 13.2544C32.0948 13.3491 32.0001 13.5384 31.9054 13.7278C31.8108 13.9171 31.8108 14.1064 31.8108 14.2958C31.8108 14.5798 31.8108 14.7692 31.9054 14.9585C32.0001 15.1479 32.0948 15.3372 32.2841 15.4319C32.4735 15.5266 32.6628 15.6212 32.7575 15.6212C32.9469 15.6212 33.1362 15.5266 33.3255 15.4319C33.5149 15.3372 33.7043 15.1479 33.7043 14.8638Z" fill="#B5B9BA"/>
<path d="M34.5562 16L35.6922 12.9705H36.1656L37.3964 16H36.923L36.5443 15.0533H35.3135L34.9348 16H34.5562ZM35.4082 14.6746H36.4496L36.1656 13.8225C36.0709 13.5385 35.9763 13.3492 35.9763 13.1598C35.9763 13.3492 35.8816 13.5385 35.7869 13.7279L35.4082 14.6746Z" fill="#B5B9BA"/>
<path d="M37.9646 16V12.9705H39.1007C39.29 12.9705 39.4794 12.9705 39.574 12.9705C39.7634 12.9705 39.8581 13.0651 39.9527 13.1598C40.0474 13.2545 40.1421 13.3492 40.2368 13.4438C40.3315 13.5385 40.3315 13.7279 40.3315 13.8225C40.3315 14.1066 40.2368 14.2959 40.0474 14.4853C39.8581 14.6746 39.5741 14.7693 39.1954 14.7693H38.438V16H37.9646ZM38.3433 14.3906H39.1007C39.3847 14.3906 39.5741 14.2959 39.6687 14.2012C39.7634 14.1066 39.8581 14.0119 39.8581 13.8225C39.8581 13.7279 39.8581 13.5385 39.7634 13.5385C39.6687 13.4438 39.574 13.3492 39.4794 13.3492C39.3847 13.3492 39.29 13.3492 39.1007 13.3492H38.3433V14.3906Z" fill="#B5B9BA"/>
<path d="M41.1833 16V12.9705H41.562V16H41.1833Z" fill="#B5B9BA"/>
<path d="M43.2663 16V13.3492H42.2249V12.9705H44.6864V13.3492H43.645V16H43.2663Z" fill="#B5B9BA"/>
<path d="M44.6865 16L45.8226 12.9705H46.296L47.5268 16H47.0534L46.6747 15.0533H45.4439L45.0652 16H44.6865ZM45.6333 14.6746H46.6747L46.3907 13.8225C46.296 13.5385 46.2013 13.3492 46.2013 13.1598C46.2013 13.3492 46.1067 13.5385 46.012 13.7279L45.6333 14.6746Z" fill="#B5B9BA"/>
<path d="M48.0947 16V12.9705H48.4734V15.6213H49.9882V16H48.0947Z" fill="#B5B9BA"/>
<path d="M52.0712 16H51.6925V13.6332C51.5978 13.7279 51.5031 13.8225 51.3138 13.9172C51.1244 14.0119 51.0297 14.1066 50.9351 14.1066V13.7279C51.1244 13.6332 51.3138 13.5385 51.5031 13.3492C51.6925 13.2545 51.7871 13.0651 51.8818 12.9705H52.1658V16H52.0712Z" fill="#B5B9BA"/>
<path d="M2.84024 4.92308L5.68047 0H0L2.84024 4.92308Z" fill="#B5B9BA"/>
<path d="M6.15402 0.0947266L3.40845 5.01781H8.99426L6.15402 0.0947266Z" fill="#B5B9BA"/>
<path d="M6.05899 10.4143L8.89922 5.49121H3.21875L6.05899 10.4143Z" fill="#B5B9BA"/>
<path d="M9.37271 5.49121L6.53247 10.4143H12.2129L9.37271 5.49121Z" fill="#B5B9BA"/>
<path d="M9.1835 15.8108L12.0237 10.8877H6.34326L9.1835 15.8108Z" fill="#B5B9BA"/>
<path d="M22.4379 4.92308L19.5977 0H25.2781L22.4379 4.92308Z" fill="#B5B9BA"/>
<path d="M19.1242 0.0947266L21.9644 4.92313H16.2839L19.1242 0.0947266Z" fill="#B5B9BA"/>
<path d="M19.3136 10.3196L16.4734 5.39648H22.1539L19.3136 10.3196Z" fill="#B5B9BA"/>
<path d="M16.0946 15.8108L13.2544 10.8877H18.9349L16.0946 15.8108Z" fill="#B5B9BA"/>
<path d="M12.7812 0.0947266L9.94092 4.92313H15.6214L12.7812 0.0947266Z" fill="#B5B9BA"/>
<path d="M12.6862 10.3196L15.5264 5.39648H9.84595L12.6862 10.3196Z" fill="#B5B9BA"/>
<path d="M15.9999 5.49121L13.1597 10.4143H18.8401L15.9999 5.49121Z" fill="#B5B9BA"/>
</svg>
