<?xml version="1.0" encoding="utf-8"?>
<!-- Generator: Adobe Illustrator 26.0.3, SVG Export Plug-In . SVG Version: 6.00 Build 0)  -->
<svg version="1.1" id="Layer_1" xmlns="http://www.w3.org/2000/svg" xmlns:xlink="http://www.w3.org/1999/xlink" x="0px" y="0px"
	 viewBox="0 0 344.1 71.7" style="enable-background:new 0 0 344.1 71.7;" xml:space="preserve">
<style type="text/css">
	.st0{fill:#FFFFFF;}
</style>
<g>
	<g>
		<g>
			<polygon class="st0" points="173.8,35.9 192.8,54.9 211.9,35.9 208.1,32.1 192.8,47.3 189,43.5 189,43.5 185.2,39.7 185.2,39.7 
				181.4,35.9 208.1,9.2 211.9,13 211.9,13 230.9,32.1 230.9,32.1 234.7,35.9 204.3,66.3 208.1,70.1 242.4,35.9 208.1,1.6 			"/>
			<polygon class="st0" points="192.8,39.7 204.3,28.3 204.3,28.3 208.1,24.4 219.5,35.9 219.4,36 219.4,36 215.8,39.6 215.7,39.7 
				215.7,39.7 192.8,62.5 192.2,61.9 192.2,61.9 166.3,36 166.3,36 166.2,35.9 196.6,5.4 192.8,1.6 158.6,35.9 192.8,70.2 
				227.1,35.9 208.1,16.8 189,35.9 			"/>
		</g>
	</g>
	<g>
		<path class="st0" d="M5,44.5c1.1,1.2,2.4,2.2,3.8,2.9c1.5,0.7,3,1.1,4.7,1.1c2.6,0,4.9-1,6.9-3.1v2.9h4.2V35h-9.4v3.7h5.2v1.8
			c-1.9,2.4-4.1,3.6-6.5,3.6c-1.1,0-2.1-0.2-2.9-0.7c-0.9-0.5-1.7-1.1-2.3-1.8c-0.7-0.8-1.2-1.7-1.5-2.8c-0.4-1.1-0.5-2.2-0.5-3.4
			c0-1.2,0.2-2.3,0.5-3.3c0.3-1,0.8-2,1.4-2.8c0.6-0.8,1.4-1.4,2.2-1.9c0.9-0.5,1.8-0.7,2.9-0.7c1.3,0,2.6,0.3,3.7,1
			c1.1,0.7,2,1.7,2.6,3l3.8-2.8c-0.9-1.7-2.1-3.1-3.8-4.1c-1.7-1-3.7-1.5-6.1-1.5c-1.8,0-3.4,0.3-4.9,1C7.5,23.9,6.1,24.8,5,26
			c-1.1,1.2-2,2.6-2.6,4.1c-0.6,1.6-0.9,3.3-0.9,5c0,1.7,0.3,3.4,0.9,5S3.9,43.3,5,44.5"/>
		<path class="st0" d="M39.8,48.5c1.8,0,3.4-0.4,4.9-1.1c1.5-0.7,2.8-1.7,3.9-2.9s2-2.6,2.6-4.2c0.6-1.6,0.9-3.2,0.9-5
			c0-1.6-0.3-3.2-0.9-4.8c-0.6-1.6-1.4-3-2.5-4.2c-1.1-1.2-2.4-2.3-3.9-3c-1.5-0.8-3.2-1.2-5-1.2c-1.8,0-3.4,0.4-4.9,1.1
			c-1.5,0.7-2.8,1.7-3.9,2.9c-1.1,1.2-2,2.6-2.6,4.2c-0.6,1.6-0.9,3.2-0.9,5c0,1.7,0.3,3.3,0.9,4.9c0.6,1.6,1.4,3,2.5,4.2
			c1.1,1.2,2.4,2.2,3.9,3C36.3,48.2,37.9,48.5,39.8,48.5 M33.1,38.6c-0.3-1-0.5-2.1-0.5-3.3c0-1.1,0.2-2.1,0.5-3.2
			c0.3-1,0.8-2,1.4-2.8c0.6-0.8,1.4-1.5,2.3-2c0.9-0.5,1.9-0.8,3.1-0.8c1.1,0,2.1,0.2,3,0.7c0.9,0.5,1.6,1.1,2.3,1.9
			c0.6,0.8,1.1,1.7,1.4,2.8c0.3,1.1,0.5,2.1,0.5,3.3c0,1.1-0.2,2.1-0.5,3.2c-0.3,1-0.8,2-1.4,2.8c-0.6,0.8-1.4,1.5-2.3,2
			c-0.9,0.5-1.9,0.8-3.1,0.8c-1.1,0-2.2-0.2-3.1-0.7c-0.9-0.5-1.7-1.1-2.3-1.9C33.9,40.6,33.4,39.7,33.1,38.6"/>
		<polygon class="st0" points="74.4,43.9 61.1,43.9 61.1,22.3 56.1,22.3 56.1,48.3 74.4,48.3 		"/>
		<path class="st0" d="M96.7,26.2c-1.1-1.2-2.4-2.1-4-2.8c-1.6-0.7-3.5-1-5.6-1h-9.5v26h9.5c2,0,3.7-0.3,5.3-0.9
			c1.6-0.6,2.9-1.5,4-2.6c1.1-1.1,2-2.5,2.6-4.1c0.6-1.6,0.9-3.4,0.9-5.4c0-1.8-0.3-3.5-0.8-5C98.6,28.7,97.8,27.3,96.7,26.2
			 M94.3,38.7c-0.3,1.1-0.8,2-1.5,2.7c-0.6,0.8-1.5,1.4-2.4,1.8c-1,0.4-2.1,0.7-3.3,0.7h-4.4V26.8h4.4c1.2,0,2.3,0.2,3.3,0.6
			c1,0.4,1.8,1,2.4,1.8c0.7,0.8,1.2,1.7,1.5,2.7c0.3,1.1,0.5,2.2,0.5,3.4C94.8,36.5,94.7,37.7,94.3,38.7"/>
		<polygon class="st0" points="109,37.1 119.9,37.1 119.9,33 109,33 109,26.8 121.7,26.8 121.7,22.3 103.9,22.3 103.9,48.3 
			122,48.3 122,43.9 109,43.9 		"/>
		<polygon class="st0" points="143.5,22.4 143.5,39.4 130,22.3 126.1,22.3 126.1,48.3 131.1,48.3 131.1,31.7 144.5,48.3 148.6,48.3 
			148.6,22.4 		"/>
	</g>
	<g>
		<path class="st0" d="M259.8,44.8c0.2-0.5,0.3-1.1,0.3-1.7c0-0.5-0.1-1.1-0.3-1.6c-0.2-0.5-0.5-1-0.9-1.4l0,0
			c-0.4-0.4-0.8-0.8-1.3-1c-0.5-0.3-1.1-0.4-1.7-0.4H250v13.9h1.9v-4.9h4c0.6,0,1.2-0.1,1.7-0.4c0.5-0.3,0.9-0.6,1.3-1
			C259.3,45.8,259.6,45.3,259.8,44.8z M251.9,40.4h3.9c0.3,0,0.6,0.1,0.9,0.2c0.3,0.1,0.5,0.3,0.8,0.6c0.2,0.2,0.4,0.5,0.5,0.9
			c0.1,0.3,0.2,0.7,0.2,1c0,0.4-0.1,0.7-0.2,1c-0.1,0.3-0.3,0.6-0.5,0.9c-0.2,0.2-0.4,0.4-0.7,0.6c-0.3,0.1-0.6,0.2-0.9,0.2h-4V40.4
			z"/>
		<path class="st0" d="M264.8,38.6l-5.9,13.9h2.1l1.8-4.3h5.5l1.8,4.3h2.1l-5.9-13.9H264.8z M263.3,46.5l2.1-5l2.1,5H263.3z"/>
		<path class="st0" d="M281,47c0.4-0.3,0.8-0.6,1.1-1c0.3-0.4,0.5-0.8,0.7-1.3c0.2-0.5,0.2-1,0.2-1.5c0-0.5-0.1-1.1-0.3-1.6
			c-0.2-0.5-0.5-1-0.9-1.4c-0.4-0.4-0.8-0.8-1.3-1c-0.5-0.3-1.1-0.4-1.7-0.4h-5.9v13.9h1.9v-4.9h3.4l3.1,4.9h2.3l-3.3-5.2
			C280.5,47.2,280.7,47.1,281,47z M274.8,40.4h3.9c0.3,0,0.6,0.1,0.9,0.2c0.3,0.1,0.5,0.3,0.8,0.6c0.2,0.2,0.4,0.5,0.5,0.9
			c0.1,0.3,0.2,0.7,0.2,1c0,0.3-0.1,0.7-0.2,1c-0.1,0.3-0.3,0.6-0.5,0.9c-0.2,0.2-0.4,0.4-0.7,0.6c-0.3,0.1-0.6,0.2-0.9,0.2h-4V40.4
			z"/>
		<polygon class="st0" points="283.2,40.4 287.9,40.4 287.9,52.5 289.8,52.5 289.8,40.4 294.6,40.4 294.6,38.6 283.2,38.6 		"/>
		<polygon class="st0" points="305.4,49 297.1,38.6 295.7,38.6 295.7,52.5 297.6,52.5 297.6,42.3 305.8,52.5 307.4,52.5 307.4,38.6 
			305.4,38.6 		"/>
		<polygon class="st0" points="311.7,46.3 318.3,46.3 318.3,44.5 311.7,44.5 311.7,40.4 319.2,40.4 319.2,38.6 309.8,38.6 
			309.8,52.5 319.4,52.5 319.4,50.7 311.7,50.7 		"/>
		<path class="st0" d="M329.1,47c0.4-0.3,0.8-0.6,1.1-1c0.3-0.4,0.5-0.8,0.7-1.3c0.2-0.5,0.2-1,0.2-1.5c0-0.5-0.1-1.1-0.3-1.6
			c-0.2-0.5-0.5-1-0.9-1.4c-0.4-0.4-0.8-0.8-1.3-1c-0.5-0.3-1.1-0.4-1.7-0.4H321v13.9h1.9v-4.9h3.4l3.1,4.9h2.3l-3.3-5.2
			C328.6,47.2,328.9,47.1,329.1,47z M322.9,40.4h3.9c0.3,0,0.6,0.1,0.9,0.2c0.3,0.1,0.5,0.3,0.8,0.6c0.2,0.2,0.4,0.5,0.5,0.9
			c0.1,0.3,0.2,0.7,0.2,1c0,0.3-0.1,0.7-0.2,1c-0.1,0.3-0.3,0.6-0.5,0.9c-0.2,0.2-0.4,0.4-0.7,0.6c-0.3,0.1-0.6,0.2-0.9,0.2h-4V40.4
			z"/>
		<path class="st0" d="M342.3,47c-0.2-0.5-0.6-0.8-1.1-1.2c-0.4-0.3-1-0.5-1.6-0.7c-0.6-0.2-1.2-0.3-1.9-0.5
			c-0.6-0.1-1.2-0.3-1.7-0.4c-0.4-0.1-0.8-0.3-1.1-0.4c-0.2-0.1-0.4-0.3-0.5-0.5c-0.1-0.2-0.2-0.5-0.2-0.8c0-0.7,0.2-1.2,0.7-1.6
			c0.5-0.4,1.3-0.6,2.4-0.6c1.4,0,2.4,0.4,3.2,1.2l0.4,0.5l1.1-1.6l-0.3-0.3c-0.6-0.6-1.2-1-2-1.2c-1.3-0.5-3.1-0.5-4.4-0.1
			c-0.6,0.2-1.2,0.4-1.6,0.8c-0.5,0.4-0.8,0.8-1.1,1.3c-0.3,0.5-0.4,1.1-0.4,1.8c0,0.6,0.1,1.1,0.3,1.6c0.2,0.4,0.5,0.8,1,1.1
			c0.4,0.3,0.9,0.5,1.5,0.7c0.6,0.2,1.2,0.3,1.9,0.5c0.7,0.1,1.2,0.3,1.7,0.4c0.5,0.1,0.8,0.3,1.1,0.5c0.3,0.2,0.5,0.4,0.6,0.6
			c0.1,0.2,0.2,0.5,0.2,0.8c0,0.7-0.2,1.1-0.7,1.5c-0.5,0.4-1.3,0.5-2.4,0.5c-0.9,0-1.7-0.2-2.5-0.5c-0.7-0.3-1.3-0.7-1.8-1.2
			l-0.4-0.5l-1.1,1.6l0.3,0.3c1.5,1.4,3.3,2.1,5.5,2.1c0.7,0,1.4-0.1,2-0.2c0.6-0.2,1.2-0.4,1.6-0.7c0.5-0.3,0.8-0.7,1.1-1.2
			c0.3-0.5,0.4-1.1,0.4-1.7C342.6,48,342.5,47.5,342.3,47z"/>
		<path class="st0" d="M253.6,33.9c0.9,0.5,2,0.7,3.1,0.7c0.6,0,1.3-0.1,1.9-0.2c0.6-0.2,1.3-0.4,1.8-0.7c0.6-0.3,1.1-0.7,1.6-1.2
			c0.5-0.5,0.8-1,1.1-1.7l0.2-0.4l-1.8-0.9l-0.2,0.4c-0.2,0.5-0.5,0.9-0.9,1.2c-0.3,0.3-0.7,0.6-1.1,0.8c-0.4,0.2-0.8,0.4-1.3,0.5
			c-1.2,0.3-2.4,0.2-3.4-0.3c-0.7-0.3-1.3-0.8-1.8-1.4c-0.5-0.6-0.9-1.2-1.2-2c-0.3-0.7-0.4-1.5-0.4-2.4c0-0.7,0.1-1.5,0.4-2.2
			c0.2-0.7,0.6-1.4,1.1-2c0.5-0.6,1-1,1.7-1.4c1-0.5,2.2-0.7,3.5-0.4c0.4,0.1,0.8,0.2,1.2,0.4c0.4,0.2,0.7,0.5,1,0.8
			c0.3,0.3,0.6,0.7,0.8,1.2l0.2,0.5l1.8-1l-0.2-0.4c-0.5-1-1.3-1.9-2.3-2.6c-1-0.7-2.3-1-3.7-1c-1.2,0-2.3,0.2-3.2,0.7
			c-0.9,0.5-1.7,1.1-2.4,1.8c-0.6,0.8-1.1,1.6-1.5,2.6c-0.3,0.9-0.5,1.9-0.5,2.9c0,1,0.2,2,0.6,3c0.4,1,0.9,1.9,1.5,2.6
			C251.9,32.7,252.7,33.4,253.6,33.9z"/>
		<path class="st0" d="M268.3,29.5h6.5l2.1,5h2.3l-6.8-16.1h-1.6L264,34.5h2.2L268.3,29.5z M269,27.6l2.6-6.1l2.5,6.1H269z"/>
		<path class="st0" d="M283.7,28.8h4.8c0.7,0,1.4-0.2,2-0.4c0.6-0.3,1.1-0.7,1.5-1.2c0.4-0.5,0.7-1,1-1.7c0.2-0.6,0.3-1.3,0.3-1.9
			c0-0.6-0.1-1.3-0.4-1.9c-0.2-0.6-0.6-1.2-1-1.7c-0.4-0.5-1-0.9-1.5-1.2c-0.6-0.3-1.3-0.5-2-0.5h-6.7v16.1h2.1V28.8z M290.8,22.4
			c0.2,0.4,0.2,0.8,0.2,1.2c0,0.4-0.1,0.8-0.2,1.2c-0.1,0.4-0.3,0.7-0.6,1c-0.2,0.3-0.5,0.5-0.8,0.7c-0.3,0.2-0.7,0.3-1.1,0.3h-4.7
			v-6.4h4.6c0.4,0,0.7,0.1,1.1,0.2c0.3,0.2,0.6,0.4,0.9,0.7C290.5,21.6,290.7,22,290.8,22.4z"/>
		<rect x="296" y="18.4" class="st0" width="2.1" height="16"/>
		<polygon class="st0" points="313.9,18.4 300.8,18.4 300.8,20.4 306.3,20.4 306.3,34.5 308.4,34.5 308.4,20.4 313.9,20.4 		"/>
		<path class="st0" d="M315.5,34.5l2.1-5h6.5l2.1,5h2.3l-6.8-16.1h-1.6l-6.8,16.1H315.5z M318.2,27.6l2.6-6.1l2.5,6.1H318.2z"/>
		<polygon class="st0" points="341.9,32.5 332.9,32.5 332.9,18.4 330.8,18.4 330.8,34.5 341.9,34.5 		"/>
	</g>
</g>
</svg>
