<?xml version="1.0" encoding="utf-8"?>
<!-- Generator: Adobe Illustrator 25.3.1, SVG Export Plug-In . SVG Version: 6.00 Build 0)  -->
<svg version="1.1" id="Layer_1" xmlns="http://www.w3.org/2000/svg" xmlns:xlink="http://www.w3.org/1999/xlink" x="0px" y="0px"
	 viewBox="0 0 500 300" style="enable-background:new 0 0 500 300;" xml:space="preserve">
<style type="text/css">
	.st0{fill:#289E6D;}
	.st1{fill-rule:evenodd;clip-rule:evenodd;fill:#FFD300;}
	.st2{fill-rule:evenodd;clip-rule:evenodd;fill:#FFFFFF;}
</style>
<g>
	<path class="st0" d="M172.7,206.1c0.3,2.2,1.1,4.3,2.4,6.1c0.9,1.2,2,1.8,3,2.1c1.1,0.3,2.3,0.3,3.3,0.3c1.9,0,3.2-1.1,4-1.9l0,0
		l0,0c1.3-1.2,1.4-1.5,1.6-2c0.2-0.4,0.3-0.9,1-1.9c1.8-2.7,5.7-3.3,8.2-3.7c0.7-0.1,1.2-0.2,1.5-0.3c0.1-0.3,0.2-0.6,0.2-0.8
		c0-0.4-0.1-0.8-0.3-1.1c-0.2-0.3-0.5-0.6-0.9-0.8c-0.4-0.2-0.8-0.3-1.3-0.3h0h0c-1,0-2.2,0.4-3.2,0.8c0,0,0,0-0.1,0l-0.4,0.1l0,0
		l0,0c-0.1,0-0.2,0.1-0.3,0.1c-0.3,0.1-0.7,0.2-1,0.3c-1,0.2-1.9,0-2.2-1.3c-0.1-0.7,0.1-1.3,0.6-1.8c0.5-0.5,1.2-0.9,2-1.2
		c1.3-0.5,3-0.9,4.7-1.1c1.6-0.2,3.2-0.1,4.6,0.1c4.1,0.8,4.1,4.8,4.1,8.4h0v0.1l0,3.2c0,1.1,0,2.1,0,3.2c0,1.9,0.5,2,1.1,2.2
		c0.5,0.1,1,0.3,1.5,0.8c0.1,0.1,0.2,0.3,0.2,0.5c0.1,0.9-0.2,1.5-0.9,1.8c-0.5,0.2-1.1,0.3-1.7,0.3c-0.5,0-1,0-1.6,0
		c-0.9,0-1.8,0-2.6-0.1c-1.1-0.1-1.5-0.5-1.8-0.9l0,0c-0.1,0-0.2,0.1-0.3,0.2c-0.5,0.3-1.2,0.8-2.5,1c-1,0.2-2,0.3-3,0.2l0,0
		c-1-0.1-2-0.5-2.9-1.1c-0.4-0.3-0.8-0.7-1.1-0.9c-0.3-0.3-0.5-0.5-0.6-0.6c-0.4,0.2-0.9,0.5-1.4,0.8c-0.6,0.4-1.2,0.8-2,1.2
		c-1.8,0.8-4,1.1-6.3,0.9c-2.2-0.2-4.5-0.8-6.2-1.8c-1.3-0.8-2.4-1.7-3.3-2.6c-0.9-0.9-1.6-2-2.1-3.1c-0.6-1.2-1-2.5-1.3-3.9
		c-0.3-1.4-0.5-2.9-0.5-4.3c0-2.6,0.4-5.8,1.5-8.7c0.9-2.4,2.3-4.5,4.2-5.8c1.3-0.9,2.4-1.5,3.7-1.9c1.3-0.4,2.6-0.5,4.3-0.5
		c1.2,0,2,0.1,2.9,0.2c0.5,0.1,1.1,0.2,1.7,0.2c1.1,0.1,1.6-0.1,1.9-0.3c0.6-0.3,1-0.5,2.1-0.3c0.2,0,0.3,0.1,0.4,0.3
		c0,0.1,0.3,1.1,0.7,2.2c0.3,0.9,0.5,1.9,0.7,2.6l0.1,0.2l0,0c0.1,0.4,0.3,1.1,0.4,1.7h0l0,0c0.1,1-0.1,1.8-1.2,1.9v0l0,0
		c-0.4,0-0.8-0.1-1.2-0.4c-0.3-0.2-0.6-0.5-1-0.8c-0.5-0.5-0.9-1-1.2-1.4l0,0l0,0c-0.2-0.3-0.4-0.5-0.5-0.5
		c-0.3-0.2-0.6-0.4-0.9-0.6l0,0l0,0c-1.5-0.8-3.1-1.1-4.7-0.9c-1.5,0.2-2.9,0.9-3.8,2.2c-0.1,0.2-0.3,0.4-0.4,0.6l0,0l0,0
		c-0.4,0.7-0.7,1.5-1,2.3c-0.3,0.8-0.5,1.6-0.6,2.5C172.4,200.5,172.2,203.4,172.7,206.1L172.7,206.1z M197.7,210.9
		c0.1-1,0-1.8-0.2-2.3c-0.5,0.2-0.9,0.3-1.3,0.4c-0.9,0.3-1.8,0.5-2.4,1.4l0,0l0,0l0,0c-0.3,0.6-0.5,1.4-0.4,2.1
		c0.1,0.7,0.4,1.4,0.9,1.7l0,0l0,0l0,0c1.3,0.7,2.1,0.3,2.6-0.5C197.4,213,197.6,211.9,197.7,210.9L197.7,210.9z M209.5,218.8
		c-0.4,0-0.7,0-0.8,0l0,0c-0.2,0-0.3-0.1-0.4-0.2c-0.4-0.3-1.2-2.3-1.5-3.9c-0.1-0.6-0.2-1.2-0.2-1.7c0-0.7,0.2-1.2,0.7-1.5
		c0.2-0.1,0.5-0.2,0.7-0.2c0.5,0,1.2,0.7,2,1.5c0.9,0.9,2,2,2.9,2.4l0,0l0,0c0,0,0.1,0,0.2,0.1c0.7,0.2,1.4,0.2,2,0
		c0.6-0.2,1-0.5,1.2-1l0,0l0,0l0,0l0,0c0.2-0.5,0.1-0.8,0-1.2c-0.2-0.4-0.5-0.7-0.9-1c-0.7-0.5-1.5-0.9-2.2-1.3
		c-1.6-0.9-3.1-1.8-4.4-3.4c-1-1.3-1.7-2.7-1.6-4.2c0-1.3,0.6-2.6,1.8-3.7c0.6-0.5,1.1-0.8,1.7-1.1c0.6-0.2,1.2-0.4,2-0.4
		c0.9-0.1,1.8,0,2.8,0c1,0,1.9,0.1,2.6,0c0.5-0.1,1,0.1,1.4,0.3l0,0c0.4,0.3,0.7,0.7,1,1.1c0.3,0.6,0.5,1.3,0.6,2
		c0.1,0.8,0.1,1.6,0.1,2.1l0,0c0.1,0.2,0,0.5-0.1,0.7l0,0l0,0c-0.1,0.1-0.2,0.2-0.3,0.2c-1.3,0.5-2.1-0.4-2.9-1.4
		c-0.1-0.1-0.2-0.2-0.3-0.4c-0.2-0.2-0.3-0.4-0.5-0.5c-0.1-0.1-0.3-0.2-0.4-0.3c-0.1-0.1-0.3-0.1-0.5-0.2c-0.6-0.1-1.3-0.2-2,0
		c-0.6,0.1-1,0.3-1.2,0.7c0,0,0,0.1,0,0.1l0,0c-0.3,1.3,2.1,2.6,4.1,3.7c0.9,0.5,1.8,1,2.3,1.4l0,0c1.2,0.9,2,2.2,2.4,3.6
		c0.4,1.4,0.3,2.9-0.4,4.1l0,0l0,0c-0.3,0.7-0.8,1.2-1.4,1.7c-0.5,0.5-1.1,0.8-1.7,1.1c-0.4,0.2-0.8,0.4-1.3,0.5
		c-0.4,0.1-0.9,0.1-1.4,0.2c-1.1,0-2.1,0-3.2,0c-0.6,0-1.2,0-1.8,0C210.2,218.8,209.8,218.8,209.5,218.8L209.5,218.8z M228.1,218.7
		c-1-0.1-2-0.5-2.9-1.1c-1.5-1.2-2.5-2.6-2.7-4.1c-0.2-1.5,0.2-3.1,1.3-4.7c0,0,0,0,0,0c0.3-0.4,0.6-0.7,0.9-1
		c0.4-0.3,0.7-0.6,1.2-0.9c1.9-1.1,4.2-1.4,5.9-1.7c0.7-0.1,1.2-0.2,1.5-0.3c0.1-0.3,0.2-0.6,0.2-0.8c0-0.4-0.1-0.8-0.3-1.1
		c-0.2-0.3-0.5-0.6-0.9-0.8c-0.4-0.2-0.8-0.3-1.3-0.3h0h0c-1,0-2.2,0.4-3.2,0.8c0,0,0,0-0.1,0l-0.4,0.1l0,0l0,0
		c-0.1,0-0.2,0.1-0.3,0.1c-0.3,0.1-0.7,0.2-1,0.3c-1,0.2-1.9,0-2.2-1.3c-0.1-0.7,0.1-1.3,0.6-1.8c0.5-0.5,1.2-0.9,2-1.2
		c1.3-0.5,3-0.9,4.7-1.1c1.6-0.2,3.2-0.1,4.6,0.1c4.1,0.8,4.1,4.8,4.1,8.4h0v0.1l0,3.2c0,1.1,0,2.1,0,3.2c0,1.9,0.5,2,1.1,2.2
		c0.5,0.1,1,0.3,1.5,0.8c0.1,0.1,0.2,0.3,0.2,0.5c0.1,0.9-0.2,1.5-0.9,1.8c-0.5,0.2-1.1,0.3-1.7,0.3c-0.5,0-1,0-1.6,0
		c-0.9,0-1.8,0-2.6-0.1c-1.1-0.1-1.5-0.5-1.8-0.9l0,0c-0.1,0-0.2,0.1-0.3,0.2c-0.5,0.3-1.2,0.8-2.5,1
		C230.1,218.7,229.1,218.8,228.1,218.7L228.1,218.7L228.1,218.7z M233.3,210.9c0.1-1,0-1.8-0.2-2.3c-0.5,0.2-0.9,0.3-1.3,0.4
		c-0.9,0.3-1.8,0.5-2.4,1.4l0,0l0,0l0,0c-0.3,0.6-0.5,1.4-0.4,2.1c0.1,0.7,0.4,1.4,0.9,1.7l0,0l0,0l0,0c1.3,0.7,2.1,0.3,2.6-0.5
		C233,213,233.2,211.9,233.3,210.9L233.3,210.9z M258.6,196.2c0.4,0,0.8,0.1,1,0.4c0.1,0.1,0.1,0.2,0.1,0.3l-0.1,18
		c0,0.1,0,0.2,0,0.2v0v0c0,0.3,0,0.5,0.3,0.5c0.2,0,0.5,0,0.8,0.1c0.3,0.1,0.7,0.2,0.9,0.4c0.3,0.3,0.4,0.6,0.4,0.9
		c0,0.2,0,0.4-0.1,0.5c-0.1,0.2-0.2,0.3-0.3,0.5c-0.3,0.3-0.7,0.5-1.2,0.5l-3.3,0.1c-0.8,0-1.1-0.5-1.4-1.1
		c-0.3,0.2-0.6,0.4-0.9,0.5c-0.4,0.2-0.9,0.3-1.3,0.3c-0.3,0-0.5,0.1-0.8,0.1c-1.8,0.1-3.2-0.4-4.2-1.3c-1-0.9-1.7-2.3-1.9-4.1
		c0-0.3-0.1-0.6-0.1-1c0-1.2,0.1-2.5,0.5-3.6c0.3-1.1,0.9-2.1,1.6-2.9c0.6-0.7,1.5-1.1,2.5-1.2c0.9-0.2,2-0.1,3,0
		c0.5,0.1,0.9,0.2,1.3,0.3l0-4.1c-0.1,0-0.2,0.1-0.3,0.1c-0.3,0-0.5,0.1-0.8,0c-0.3-0.1-0.6-0.3-0.9-0.5c-0.2-0.2-0.3-0.4-0.3-0.6
		c0-0.2,0-0.5,0.3-0.7c0.2-0.2,0.5-0.5,1.1-0.7l0,0l3.2-1.5C257.8,196.3,258.2,196.2,258.6,196.2L258.6,196.2z M253.4,207
		c-0.2,0-0.4,0-0.6,0.1l0,0c-0.8,0.4-1.4,1.8-1.6,3.4c-0.1,0.9-0.1,1.8,0,2.6c0.1,0.8,0.4,1.5,0.8,2c0.4,0.4,0.9,0.7,1.5,0.6v0l0,0
		c0.4,0,0.8-0.2,1.1-0.5c0.2-0.2,0.3-0.5,0.3-0.9l-0.1-6.1c0-0.1,0-0.3-0.1-0.4c-0.1-0.2-0.3-0.4-0.5-0.6
		C254,207,253.7,207,253.4,207L253.4,207z M272.4,204.9c2.2,1.4,3.6,3.9,2.9,7.6c-0.6,3.2-2.7,5.1-5.2,5.8c-1,0.3-2.2,0.3-3.2,0.2
		c-1.1-0.2-2.1-0.5-3.1-1.1c-2.2-1.4-3.7-3.9-3.3-7.5c0.3-3.2,2.6-5.1,5.3-5.8c1.1-0.3,2.3-0.3,3.4-0.2
		C270.4,204,271.5,204.3,272.4,204.9L272.4,204.9z M270.2,208.1c-0.3-0.6-0.7-1.1-1.3-1.3c-0.2-0.1-0.4-0.1-0.6-0.2
		c-0.6-0.1-1.1-0.1-1.6,0.2c-0.4,0.3-0.8,0.7-1.1,1.3c-0.1,0.2-0.2,0.5-0.2,0.8c-0.2,1-0.3,2.2-0.2,3.3c0.1,1,0.4,2,0.8,2.7
		c0.2,0.3,0.4,0.5,0.7,0.7c0.3,0.2,0.7,0.3,1.1,0.3c0.4,0,0.7-0.1,1.1-0.3c0.3-0.2,0.5-0.4,0.7-0.7c0.3-0.5,0.5-1.1,0.7-1.7
		c0.2-0.7,0.3-1.5,0.3-2.2C270.7,209.8,270.5,208.9,270.2,208.1L270.2,208.1z M278.9,190.3c-0.3-0.8,0.2-1.6,2.3-2.5
		c1.9-0.8,4.9-1.3,7.8-1.5c3-0.2,6-0.1,7.9,0.5c2.6,0.7,4.4,2.3,5.4,4.5c1.1,2.3,1.4,5.2,0.9,8.1c-1.3,7.7-10.4,7.6-13.7,7.6
		c-0.5,0-0.4-0.3-0.6-0.2l0,0c0,0,0,0-0.1,0.1l0.2,7.6c0.5,0,1,0,1.4,0.1c0.5,0.1,0.9,0.2,1.2,0.3l0,0c0.5,0.2,0.8,0.6,0.9,1
		c0.1,0.3,0.1,0.6,0,0.9c-0.1,0.3-0.2,0.5-0.4,0.7c-0.3,0.4-0.8,0.6-1.4,0.6h-10.5c-0.6,0-1.1-0.2-1.4-0.6c-0.2-0.2-0.3-0.5-0.3-0.8
		c0-0.3,0-0.5,0.2-0.8c0.2-0.5,0.7-0.9,1.5-1.1c0.4-0.1,0.8-0.2,1-0.4c0.2-0.2,0.3-0.4,0.3-0.8v-20.5c0-0.8-0.9-1.3-1.6-1.7
		C279.7,191.1,279.2,190.8,278.9,190.3L278.9,190.3z M293.8,202.4c0.6-0.3,1.1-0.8,1.5-1.3c0.6-0.8,0.9-2.1,1-3.5
		c0.1-1.6-0.1-3.2-0.5-4.4c-0.3-0.9-0.8-1.7-1.5-2.3c-0.6-0.5-1.3-0.8-2.1-0.9c-1.4-0.1-2.2,0.3-2.6,0.8c-0.4,0.6-0.5,1.6-0.5,2.7
		c0,1.1,0,2.2,0,3.3c0,1.5,0,3.1,0,4.6c0,1.2,0.1,1.4,0.5,1.4c0.2,0,0.5,0,0.8,0v0l0,0c0.4,0,0.8,0,1.4,0
		C292.5,202.9,293.2,202.7,293.8,202.4L293.8,202.4z M307.9,218.7c-1-0.1-2-0.5-2.9-1.1c-1.5-1.2-2.5-2.6-2.7-4.1
		c-0.2-1.5,0.2-3.1,1.3-4.7c0,0,0,0,0,0c0.3-0.4,0.6-0.7,0.9-1c0.4-0.3,0.7-0.6,1.2-0.9c1.9-1.1,4.2-1.4,5.9-1.7
		c0.7-0.1,1.2-0.2,1.5-0.3c0.1-0.3,0.2-0.6,0.2-0.8c0-0.4-0.1-0.8-0.3-1.1c-0.2-0.3-0.5-0.6-0.9-0.8c-0.4-0.2-0.8-0.3-1.3-0.3h0h0
		c-1,0-2.2,0.4-3.2,0.8c0,0,0,0-0.1,0l-0.4,0.1l0,0l0,0c-0.1,0-0.2,0.1-0.3,0.1c-0.3,0.1-0.7,0.2-1,0.3c-1,0.2-1.9,0-2.2-1.3
		c-0.1-0.7,0.1-1.3,0.6-1.8c0.5-0.5,1.2-0.9,2-1.2c1.3-0.5,3-0.9,4.7-1.1c1.6-0.2,3.2-0.1,4.6,0.1c4.1,0.8,4.1,4.8,4.1,8.4h0v0.1
		l0,3.2c0,1.1,0,2.1,0,3.2c0,1.9,0.5,2,1.1,2.2c0.5,0.1,1,0.3,1.5,0.8c0.1,0.1,0.2,0.3,0.2,0.5c0.1,0.9-0.2,1.5-0.9,1.8
		c-0.5,0.2-1.1,0.3-1.7,0.3c-0.5,0-1,0-1.6,0c-0.9,0-1.8,0-2.6-0.1c-1.1-0.1-1.5-0.5-1.8-0.9l0,0c-0.1,0-0.2,0.1-0.3,0.2
		c-0.5,0.3-1.2,0.8-2.5,1C310,218.7,309,218.8,307.9,218.7L307.9,218.7L307.9,218.7z M313.2,210.9c0.1-1,0-1.8-0.2-2.3
		c-0.5,0.2-0.9,0.3-1.3,0.4c-0.9,0.3-1.8,0.5-2.4,1.4l0,0l0,0l0,0c-0.3,0.6-0.5,1.4-0.4,2.1c0.1,0.7,0.4,1.4,0.9,1.7l0,0l0,0l0,0
		c1.3,0.7,2.1,0.3,2.6-0.5C312.9,213,313.1,211.9,313.2,210.9L313.2,210.9z M337.9,199.4c3.1,1.9,5.2,5.6,4.2,10.9
		c-0.8,4.6-3.9,7.4-7.5,8.4c-1.5,0.4-3.1,0.5-4.7,0.3c-1.6-0.2-3.1-0.8-4.4-1.6c-3.2-2-5.4-5.6-4.8-10.8c0.5-4.6,3.8-7.4,7.7-8.4
		c1.6-0.4,3.2-0.5,4.9-0.3C335,198,336.6,198.5,337.9,199.4L337.9,199.4z M334.7,204c-0.4-0.9-1-1.6-1.8-1.9
		c-0.3-0.1-0.5-0.2-0.8-0.3c-0.9-0.2-1.6-0.1-2.3,0.3c-0.6,0.4-1.2,1.1-1.5,1.9c-0.1,0.3-0.3,0.7-0.4,1.1c-0.3,1.4-0.4,3.1-0.2,4.7
		c0.2,1.5,0.6,2.8,1.2,3.8c0.3,0.4,0.6,0.8,1,1c0.5,0.3,1,0.5,1.5,0.4c0.5,0,1.1-0.2,1.5-0.5c0.4-0.3,0.8-0.6,1.1-1.1
		c0.4-0.7,0.8-1.5,1-2.5c0.2-1,0.4-2.1,0.4-3.2C335.5,206.4,335.2,205.1,334.7,204L334.7,204z M253.9,199.4
		C253.9,199.4,253.9,199.3,253.9,199.4C253.9,199.4,253.9,199.4,253.9,199.4L253.9,199.4z M310.9,194.9c-1-0.4-1.9-0.9-2.6,0
		c-0.1,0.1-0.2,0.3-0.4,0.4c0,0,0,0-0.1,0c-0.2,0.1-0.4,0.2-0.6,0.3l0,0c-0.6,0.2-1.3,0.1-1.8-0.1c-0.2-0.1-0.4-0.2-0.5-0.4
		c-0.2-0.2-0.3-0.4-0.3-0.6c-0.1-0.3-0.1-0.7,0.2-1.1c0.1-0.2,0.2-0.4,0.4-0.7l0,0c0.2-0.3,0.4-0.5,0.5-0.7c0.4-0.4,0.7-0.8,1.1-1
		c0.4-0.2,0.9-0.4,1.5-0.5c0.8-0.1,1.6-0.1,2.3,0.1c0.7,0.2,1.4,0.5,2.1,0.8c1.8,0.8,2.3,0.2,2.8-0.2c0.6-0.6,1.1-1.2,2.3-0.7
		c0.4,0.1,0.7,0.4,0.8,0.7c0.2,0.4,0.3,0.9,0.1,1.4c-0.1,0.4-0.3,0.8-0.6,1.2c-0.6,0.8-1.6,1.6-2.6,1.9c-2,0.5-2.8,0.2-4.1-0.4
		l-0.1-0.1C311.3,195.1,311.1,195,310.9,194.9L310.9,194.9z M256.2,200.3c0,0.2-0.1,0.4-0.3,0.4L256.2,200.3L256.2,200.3z"/>
	<g>
		<path class="st1" d="M191.3,153.2c-0.9,37.4,119.2,37,120,0v-52.6c0-72.8-120-73-120,0V153.2L191.3,153.2z"/>
		<path class="st2" d="M254.9,36c2.7,0,8.8,1.2,9.8,3.6c3,7.1,10.7-0.9,12.5,7.4c0.5,2,2.2,3.9,0.2,4.2c0,0-0.5,2.4,0.6,4.1
			c2.8,1.2,3.2,4.2,2.9,6.8c0.1,2.4-1.2,2.8-1.1,5.2c0.1,1.1-0.2,3.7-0.5,5.8c-0.4,3.2,0.4,7-1,10c-1,2.3-3.3,3.7-4.1,4.7
			c-0.3,1.4-1.2,1.2-2.4,1.8c-1.9,2-1.1,2.3-2.6,4.5c0,1.2-0.5,6.5,0.2,7.3c1,1.3,3.4,0.8,4.7,1.9c0.9,0.9,2.4,3,3.4,3.3
			c2,0.7,3.3-0.3,4.1,1c1.7,2.7,4.8,1.5,7.1,1.7c7.2,0.4,17.5,3.5,20,10.2c0.7,1.9,0.1,4.6,0.1,7.8v26.4c0.4,31.2-114.1,34-114.5,0
			v-36.6c0-4.5-0.4-6.7,4.7-10.3c7.9-5.5,16-4.2,24.1-3.1c2.8,0.4,5.9,0.9,8.3,0c2.5-0.9,7.7-6.4,6.9-8.9c-0.5-1.6-4,0.6-4.9-1.9
			c-0.9-3.3-4.8-5-7.2-7.2c-2.1-1.4,0.5-3.7-1-5.4c-2.3-1-4.9-3.6-5-6.2c1-3.1-0.1-6.2-1-9.1c0.2-3.5,1-6.9,4.6-8.1
			c-0.7-2.1,0.9-6.8,2.3-8.1c1.3-1.3,1.9-0.3,2.8-1.3c1.2-1.4,2.9-4.3,4.1-5.7c5.7-6.3,9.3-1.1,14.8-3.7C250.4,37,250.9,36,254.9,36
			L254.9,36z"/>
		<path class="st0" d="M263.3,149c1.8,1.4,4.2,2.8,6.8,3.1c3.8,0.3,6.5,0.6,10-1.2c1.4-0.7,2.6-1.5,3.7-2c0.6,0,1,0.4,1,0.9
			c-3.6,4.1-11.7,5.3-18.1,3.7c-3-0.7-5.7-2.7-7.4-4.2c-0.6-1-0.3-0.8,0.2-1.8c0.4-0.5,1.3-0.8,2-0.5
			C262.5,147.9,262.3,148,263.3,149L263.3,149z"/>
		<path class="st0" d="M263.7,155.6c-0.2,1.3-1.5,1.2-2.7,1.3c-0.9-0.1-2.4-0.4-4-0.9c-3.5-1.1-6.6-3-8.6-6.1
			c-0.5-0.9-0.5-2.4-0.3-3.2c0.3-0.8,3-1.3,3,1.3c0,0.5,0.3,1.2,0.8,2c1.5,2.4,4.1,3.8,6.7,4.8C260.6,155.6,262.6,155.9,263.7,155.6
			L263.7,155.6z"/>
		<path class="st0" d="M241.9,106.1c2.1,5,9.4,5.3,9.5,11.3c0.3,2.1,2,4,3.3,5.4c0.2,0.6-0.2,1.4-0.9,1.4c-2-0.2-3.6-2-5.2-3.6
			c-2.1-2.3-4.6-5.3-7.9-4.1c-2.7,1-4.3,4.1-4.5,7.1c0.2,1.5,0.3,4.5,1.5,5.4c1.2,1.1,2.6,0.5,4.1,0.5c6.7-1,13.2-1.1,20-1
			c0.9-1.5-1.4-3.6-1.8-4.8c-0.2-2.2,3.3-3.7,4.3-5.2c3.6-3.8,5-7.4,5.6-12.8c0.4-1.6,1.8-0.2,2.4,0.2c0.9,0.8,1.7,1.6,1.5,2.8
			c-0.9,5.4-4,10.6-8.2,13c-0.9,0.5-1.3,0.9-0.3,1.3c2.5,0.9,4.2,4.3,4.7,6c0.9,0.2,1.6,0.6,2.6,0.4c3.4-4.2,3.9-11,4.8-16.4
			c0.2-1.4-0.4-3.2,0.6-3.8c0.7-0.4,3,0.4,3.4,2.1c-0.3,1.8,3,3.3,0.1,4.3c-0.4,0.1-0.9,0.4-1.1,0.8c-0.1,1.7,2,2.5,1,4.2
			c-0.5,1-3.1,1-1.8,2.5c0.8,0.4,1.3,2,1.4,2.8c-0.1,1.8-4.3,1.7-1.9,3.9c-0.5,2.5-2,5.4-4.6,6.2c-15.5-2.6-33.2-3.3-47,3.8
			c-4.3,2.6-9.8,6.1-5.8,11.1c9.7,12.3,61.4,14.4,69.2-0.7c0.3-0.8,0.2-1.3,0.8-2c0.6-0.4,1.6,0.1,2.2-0.4c3.1-3.3-1.8-7.6,1.4-11
			c2.4,0.3,0.2,2.7,0.7,4.1c2,4.8-1.4,9.9-4.6,13.3c-1.5,1.6-3.1,3.1-0.7,4.8c3,0.4,10.2-9.4,10.9-11.6c0.6-2.1-0.1-4.8,1-6.6
			c0.5-0.6,1.4-0.2,2,0.1c0.9,0.9,2,2,1.9,3.4l0.2,8.8c0,1.6,0.3,2.9-0.5,4.4c-2.3,4.3-8.3,8-13.8,10.8c-11.3,5.7-26.7,8-40,8
			c-11.8,0-30.1-2.2-43.4-8.6c-4.7-2.3-9.1-6-11.3-9.2c-1.2-1.7-1.3-2.7-1.3-4.7v-7.6c0.3-1.4,6.7-2.8,8.1-8.9
			c0.7-0.9,1.9-1.3,2.8-0.7c2.2,2.2,0.1,5.9,0.9,8.8c1.5,4.2,6.1,7.1,8.3,10.5c0.8,1.2,2.1,2.2,3.4,1.1c0.7-1,0.4-1.9,0-2.9
			c-2.1-4.2-8.1-7.2-6.2-12.9c0.7-2,0.5-4.4,0.6-6.5c0.3-0.2,0.9-0.3,1.2,0.1c1.9,2.8-0.1,6-0.3,9c0.1,0.6,0.8,1.4,1.5,1.4
			c4.3,0.1,2.8-5.3,4.2-7.9c1.2-2.8,0.2-6.7-1.5-8.8c-2.2-2-5.8-2.7-8.7-1.5c-4.8,3.1-6.8,7.3-13,6.3c-1-0.3-0.9-1.5-1.2-2.5v-17.1
			c0-0.8-0.5-1.4,0.1-1.7c5.3-3.4,7.8-6.2,13.2-7c4.5-0.6,12,0.8,12,0.8c0.8,0.3,1.2,1.2,0.8,1.9c-0.4,0.4-1.2,0.6-1.3,1.3
			c0.3,1.2,2.2,1.8,1.5,3.4c-0.5,1.6-3.7,1.3-2.5,3.6c1,0.7,2.5,1.9,1.8,3.3c-0.6,1.6-4.8,2-3.3,4.3c1.1,0.7,2.4,1.4,2.2,2.9
			c2,1.3,3,2.6,3.2,5.3c0.5,1,2.9,0,3.6,0c1.3-0.8,3.2-0.2,3.9-1.7c0.2-2.4-4.3-2.1-2.6-5c0.9-1.1,3,0.4,3.2-1.4
			c-0.2-2-3.8-3.2-2.2-5.8c0.8-1.1,2.6-0.3,2.9-1.8c0.2-2.4-3.9-2-2.2-4.7c0.6-1,2.6-0.5,2.2-2.2c-0.6-0.8-1.6-0.9-1.9-1.9
			c0.3-2.2,3.1-1.7,4.3-3c1.5-0.9,1.9-3.2,4.1-2.3L241.9,106.1L241.9,106.1z"/>
		<path class="st0" d="M294.5,112.6c8.3,3.7,11.9,3.5,12,12v8.4c0,0.9-1.3,1.3-2.2,0.4c-2.6-2.9-6.2-5.5-10.3-4.6
			c-1.3,0.1-2.6,0.6-3.2,1.6c-3.5,4.2-0.9,8.1-1.6,12.7c-0.5,0.5-0.8-0.4-1.2-0.5c-3.1-2.6-2.7-3.3-6.9-3.2l-3.1,4.1
			c0.4,1.1,2.7,2.1,1.5,3.8c-1.8,2.4-5,2.6-7.6,1.7c-1.4-0.3-2.8-1.3-3.5-2.7c0-0.5,0-1,0.5-1.2c1.3,0.1,2.3,1.6,3.7,1
			c5.8-7.5,9.8-13.7,14.9-21.6c0.4-0.7,0.2-1.5-0.2-2.1c-0.3-0.4-0.9-0.4-1.1-1c0-0.7,0.6-0.9,1.2-1c2.2-0.6,1.3,2.7,2-2.1
			c-0.9-0.5-2.3-1.3-1.9-2.1c0.6-0.2,3.1,0,3.6-0.6c0.4-0.5-1.9-2.9-1.5-3.2C291.1,112.3,293.5,111.8,294.5,112.6L294.5,112.6z"/>
		<path class="st0" d="M265.9,43.7c-1.6-0.9-2.3-2.7-4.1-3.3c-4.2-1-9.9-2.8-13.5,0.4c-4.1,1.6-8.7-0.6-12.5,1.8
			c-3.4,1.2-2.9,6.5-6.8,7.2c-1.2,0.3-1.7,1.5-2.3,2.3c-0.6,1.7-0.8,3.8,0.2,5.4c-1.4,0.3-2.6,0.9-3.6,1.7c-1.2,1.4-1.9,3.3-1.4,5.5
			c0.7,2.8,1.5,4.8,0.8,7.5c-0.8,4.1,4,6.1,5,7.5c0.8,1.2-0.2,2.6,0.6,3.9c1,1.6,3.1,2.6,4.5,4.1c1.4,0.8,1.2,3.7,3.3,3.4
			c2.1-1.5,0.3-4.3,0-6.2c0.9-0.3,1.8,0.4,2.8,0.6c1.4,0.5,3.3-0.1,4.3,0.5c-0.2,2.3-2.8,2.7-4.1,4.1c-0.1,1.9,0.7,5,2.5,6
			c1.7,0.5,2.7-1.2,3.6-2.3c1.4-0.9,3,1,4.7,0.9c1,0.4,2.2-0.4,3.1,0.3c-1.2,3.3,3.8,3.4,2.7,6.8c-0.6,1.5-1.9,2.4-3.6,2.3
			c-2,0.3-3.9-0.9-5.7-0.1c-0.5,0.6-0.1,1.3,0.4,1.7c3.8,2.4,8.8,2,12.6-0.1c3.2-1.8,3.6-6.2,3.4-9.8c1.4-1.9,3.2-2.7,3.3-5.1
			c0.3-3.9-4.3-2.6-5.9-4.8c-0.5-0.7-0.1-1.7,0.3-2.3c2.4-1.1,6.2-2.8,7.5-5.5c1.5-0.6,1.4,2.4,3,2.5c1.1,0.2,2.5,1.1,3.5,0
			c0.3-1.7-2.6-2.7-3.2-4.1c-2.4-3.2,1.5-7.7-2.1-10.3c-0.7-1.5,1-2.5,0.7-4.2c-0.4-1.3-2-0.8-3-1.2c-0.2-0.9,0.6-2.4-0.7-3
			c-0.8-0.3-1.9-0.2-2.6,0.3c-1.7,0.3-3,4.2-4.9,2.2c-0.2-1.3,0.4-2.5,1.2-3.5c2.6-3.2,7.4-1.9,11-1.6c1.1-0.2,1.7-1.3,2.1-2.1
			c0.8-2.5-1.7-3.7-1-6.4C271.2,44.5,268.3,44.3,265.9,43.7L265.9,43.7z M261.3,70.3c0,0,4.5-0.8,4.9,1.8c0.4,2.5-1.4,1.3-1.7,1.2
			C264.2,73.1,262,70.6,261.3,70.3L261.3,70.3z M256.8,92.9c-1.9,1-5.6,1-8.4,0C250.7,92,254.2,92.1,256.8,92.9L256.8,92.9z
			 M251.4,79.6c0.4,1.7,2.6,3.5,1.1,5.2c-1.8,1-3.8-0.1-5.7,0.3c-0.3-1.4,1.7-2,2-3.2c0.9-1.6,0.9-3.8,0.8-5.6
			c0.3-0.3,0.7-0.4,0.9-0.2C251.3,77.1,250.8,78.6,251.4,79.6L251.4,79.6z M241.4,74.2c-0.1,1.5-2,1.2-2.4,2.7
			c-0.3,0.8,0.3,1.4,0.8,1.7c2.4-1,1.5,2,3.4,1.7c0.9-0.1,2-0.4,2.6-1.4c0.8-0.6,0.7-1.6,0.9-2.4c0.8,0.8,0.8,2.3,0.4,3.4
			c-1,2.4-3,3.7-5.4,3.9c-1.9,0.3-3.6-0.2-4.9-1.2c-1.2-1.3-2-3-1.6-5c0.3-1.4,1.3-2.7,2.6-3.3C239.1,73.9,240.5,73.1,241.4,74.2
			L241.4,74.2z M258.1,75.6c-0.3,0.6-1.2,1-0.9,2.1c1.2,1.3,2.7,1.6,4.4,1.6c1.2-0.1,2.1-1,2.8-1.8c0.5,0.7-0.4,1.3-0.7,1.8
			c-1.6,1.5-3.9,2.2-6.2,1.8c-1.5-0.3-2.8-0.9-3.5-2.3c-0.7-0.8-0.5-2-0.4-2.9C255.1,76.2,256.6,75.6,258.1,75.6L258.1,75.6z
			 M256.8,62.8c1.4,2.2,4.6-0.3,5.9,1.8l0.3,3c-2.7-0.8-6.4-0.4-8.8,1.3c-1.6,1.3-2.4,3-3.2,4.5l-2.7,0.5c-2.6-2.2-6-3-9.6-2.4
			c-0.4-0.2-0.7-0.7-0.4-1c1.3-1.1,3.4-0.4,4.9-1c5.1-1.1,7.7-6.6,12.6-8.1L256.8,62.8L256.8,62.8z"/>
		<path class="st2" d="M252.1,89.1c0,0.3-0.1,0.5-0.3,0.7c-2.5-0.1-4.5,2.1-7,1.7c-0.4-0.3-0.3-1.1-0.1-1.5c1.5-1.9,4-2.5,6.5-1.8
			C251.4,88.4,251.8,88.6,252.1,89.1L252.1,89.1z"/>
	</g>
	<path class="st0" d="M198.7,252.5c-0.2-0.2-0.5-0.3-0.9-0.4c-0.3,0-0.6-0.1-0.8-0.1c-0.3,0-0.3-0.2-0.3-0.5v0v0c0-0.1,0-0.2,0-0.2
		l0.1-18c0-0.1,0-0.2-0.1-0.3c-0.2-0.3-0.6-0.5-1-0.4c-0.3,0-0.8,0.1-1.2,0.3l-3.2,1.5l0,0c-0.5,0.2-0.9,0.5-1.1,0.7
		c-0.2,0.2-0.3,0.5-0.3,0.7c0,0.2,0.2,0.4,0.3,0.6c0.2,0.2,0.5,0.4,0.9,0.5c0.3,0.1,0.5,0.1,0.8,0c0.1,0,0.2-0.1,0.3-0.1l0,4.1
		c-0.3-0.1-0.8-0.3-1.3-0.3c-1.1-0.1-2.1-0.2-3,0c-1,0.2-1.8,0.6-2.5,1.2c-0.7,0.8-1.3,1.8-1.6,2.9c-0.4,1.2-0.5,2.4-0.5,3.6
		c0,0.4,0,0.7,0.1,1c0.2,1.8,0.9,3.2,1.9,4.1c1,0.9,2.4,1.4,4.2,1.3c0.3,0,0.6,0,0.8-0.1c0.4-0.1,0.9-0.2,1.3-0.3
		c0.3-0.1,0.6-0.3,0.9-0.5c0.3,0.5,0.6,1.1,1.4,1.1l3.3-0.1c0.5,0,1-0.2,1.2-0.5c0.1-0.1,0.2-0.3,0.3-0.5c0.1-0.2,0.1-0.4,0.1-0.5
		C199.1,253.1,198.9,252.7,198.7,252.5z M191.8,251.6c-0.3,0.3-0.7,0.4-1.1,0.5l0,0v0c-0.6,0.1-1.1-0.2-1.5-0.6
		c-0.4-0.5-0.7-1.2-0.8-2c-0.1-0.8-0.2-1.8,0-2.6c0.2-1.6,0.8-3,1.6-3.4l0,0c0.2-0.1,0.4-0.1,0.6-0.1c0.3,0,0.6,0.1,0.9,0.2
		c0.2,0.1,0.4,0.3,0.5,0.6c0,0.1,0.1,0.3,0.1,0.4l0.1,6.1C192.2,251.1,192.1,251.4,191.8,251.6z"/>
	<path class="st0" d="M210.3,251L210.3,251L210.3,251L210.3,251C210.3,251,210.3,251,210.3,251c-0.3-0.2-0.6-0.2-0.9-0.2
		c-0.3,0-0.6,0.1-0.9,0.2c-0.5,0.2-0.9,0.4-1.3,0.5c-0.2,0.1-0.5,0.2-0.7,0.3c-0.5,0.2-1,0.3-1.5,0.3c-0.5,0-0.9-0.2-1.4-0.5
		c-0.3-0.2-0.6-0.5-0.8-0.7c-0.1-0.2-0.2-0.3-0.2-0.4c0-0.2,1.1-0.8,1.8-1.1c0.2-0.1,0.3-0.2,0.4-0.2l0,0c0.1-0.1,0.3-0.2,0.6-0.3
		c1.5-0.8,4.6-2.5,4.9-3.4c0.1-0.3,0.1-0.7,0.1-1c0-1-0.5-1.9-1.2-2.6c-0.7-0.6-1.6-1.1-2.7-1.4c-0.7-0.2-1.4-0.2-2.1-0.2
		c-1.8,0-3.4,0.6-4.6,1.6c-1.2,1-2.1,2.5-2.4,4.3c-0.4,1.9-0.1,3.7,0.8,5.2c0.9,1.5,2.3,2.7,4.1,3.4c1,0.3,2,0.5,3,0.4
		c1-0.1,1.9-0.3,2.9-0.8l0,0c0.4-0.2,0.7-0.4,1-0.6c0.3-0.2,0.6-0.5,0.8-0.7l0,0c0.1-0.1,0.2-0.2,0.2-0.3c0.2-0.3,0.4-0.6,0.4-0.8
		C210.7,251.5,210.6,251.2,210.3,251z M201.9,247.7c0,0,0-0.4,0.2-1.6c0-0.2,0.1-0.5,0.2-0.9l0,0c0.1-0.3,0.2-0.5,0.3-0.8
		c0.1-0.3,0.3-0.5,0.4-0.7c0.1-0.2,0.3-0.3,0.4-0.4c0.3-0.2,0.7-0.3,1.1-0.2c0.3,0,0.7,0.1,0.9,0.3c0.2,0.1,0.4,0.3,0.5,0.6
		c0.1,0.2,0.1,0.4,0,0.7c-0.3,0.9-1.3,1.5-2.1,2.1l0,0c-0.1,0.1-0.3,0.2-0.4,0.2l-0.2,0.1C202.6,247.4,202.1,247.7,201.9,247.7z"/>
	<path class="st0" d="M242.6,248c1.3-2.3,2.1-5.2,2.3-8.1c0.2-2.8-0.2-5.6-1.2-8c-1.6-3.7-4.1-6.3-7.1-7.8c-3.1-1.6-6.8-2-10.8-1.2
		c-2.8,0.5-5.3,1.8-7.2,3.7c-1.9,1.9-3.3,4.3-4,7c-0.6,2.6-0.8,5.7-0.4,8.6c0.4,2.5,1.2,5,2.6,6.9c0.8,1,1.7,1.9,2.6,2.6
		c1,0.8,2.1,1.4,3.2,2c1,0.5,2,0.8,2.9,1c0.6,0.1,1,0.2,1,0.2c0.1,0.1-0.5,0-1.4,0.5c-0.5,0.3-2,1.1-3.1,2.1c-1.4,1.2-2.2,2.7-0.7,4
		c1.4,1.2,2.4,0.4,3.6-0.5c0.9-0.7,2-1.5,3.6-1.1c0.5,0.1,1.4,0.6,2.4,1.1c0.5,0.3,1.1,0.5,1.5,0.7c2.1,1,4.4,1.3,6.5,0.7
		c1.9-0.5,3.7-1.7,4.9-3.7c0.5-0.9,0.9-1.8,0.9-2.4c0-0.4-0.1-0.7-0.2-0.9c-0.2-0.3-0.5-0.5-1-0.5c-0.4,0-0.9,0.2-1.6,0.6
		c-2.9,1.9-5,1.3-7.8,0.5c-0.3-0.1-0.7-0.2-1.1-0.3c0.6-0.6,1.6-1.1,2.7-1.7C237.9,252.7,240.8,251.1,242.6,248z M233,249.2
		c-1.2,0.9-2.6,1.4-4,1.3c-0.9,0-1.9-0.2-2.8-0.7c-0.9-0.5-1.9-1.3-2.7-2.6l0,0c-0.7-1.2-1.3-2.9-1.6-4.9c-0.3-2-0.4-4.3-0.2-6.5
		c0.2-2,0.7-3.9,1.5-5.5c0.7-1.3,1.5-2.3,2.7-2.9c1-0.5,2.4-0.7,3.8-0.6c1.4,0.1,2.7,0.5,3.5,1.1c1.8,1.4,2.8,3.2,3.4,5.3
		c0.6,2.1,0.7,4.4,0.7,6.6c0,0.9-0.1,1.8-0.3,2.7c-0.2,0.9-0.5,1.7-0.8,2.5C235.4,246.8,234.3,248.2,233,249.2z"/>
	<path class="st0" d="M324.5,235.7c-1.4-0.8-2.9-1.4-4.6-1.6c-1.6-0.2-3.3-0.1-4.9,0.3c-3.9,1-7.2,3.8-7.7,8.4
		c-0.6,5.2,1.6,8.9,4.8,10.8c1.3,0.8,2.9,1.4,4.4,1.6c1.6,0.2,3.2,0.1,4.7-0.3c3.6-1,6.6-3.7,7.5-8.4
		C329.6,241.3,327.6,237.6,324.5,235.7z M321.6,247.4c-0.2,1-0.6,1.8-1,2.5c-0.3,0.5-0.7,0.8-1.1,1.1c-0.5,0.3-1,0.5-1.5,0.5
		c-0.5,0-1.1-0.1-1.5-0.4c-0.4-0.2-0.7-0.6-1-1c-0.6-1-1-2.4-1.2-3.8c-0.2-1.6-0.1-3.3,0.2-4.7c0.1-0.4,0.2-0.8,0.4-1.1
		c0.4-0.8,0.9-1.5,1.5-1.9c0.6-0.4,1.4-0.5,2.3-0.3c0.3,0.1,0.5,0.1,0.8,0.3c0.8,0.4,1.4,1,1.8,1.9c0.5,1.1,0.7,2.5,0.7,3.9
		C322,245.3,321.9,246.4,321.6,247.4z"/>
	<path class="st0" d="M286,249.4L286,249.4L286,249.4L286,249.4L286,249.4L286,249.4c-0.4-0.3-0.8-0.4-1.3-0.3
		c-0.4,0-0.8,0.1-1.3,0.3c-0.7,0.3-1.2,0.5-1.8,0.7c-0.3,0.1-0.6,0.3-0.9,0.4c-0.8,0.3-1.5,0.5-2.2,0.5c-0.7,0-1.3-0.2-2-0.6l0,0
		c-0.4-0.3-0.9-0.7-1.2-1c-0.2-0.2-0.3-0.5-0.3-0.6c0-0.3,1.6-1.1,2.5-1.6c0.2-0.1,0.4-0.2,0.6-0.3c0.1-0.1,0.5-0.3,0.9-0.5
		c2.2-1.2,6.6-3.6,6.9-4.9c0.1-0.5,0.2-1,0.2-1.4c0-1.5-0.7-2.7-1.7-3.7c0,0,0,0,0,0c-1-0.9-2.3-1.5-3.8-1.9c-1-0.2-2-0.3-3.1-0.3
		c-2.6,0-4.8,0.9-6.5,2.3c-1.7,1.5-2.9,3.6-3.4,6.1c-0.5,2.7-0.1,5.3,1.2,7.4c1.2,2.2,3.3,3.9,5.8,4.8c1.4,0.5,2.8,0.7,4.3,0.6
		c1.4-0.1,2.8-0.4,4.1-1.1c0.5-0.3,1-0.6,1.5-0.9c0.5-0.3,0.9-0.7,1.2-1.1l0,0l0,0c0.1-0.1,0.2-0.3,0.3-0.4c0.3-0.5,0.5-0.8,0.6-1.2
		v0l0,0C286.5,250.1,286.4,249.7,286,249.4z M274,244.7c-0.1,0,0-0.6,0.3-2.3c0.1-0.3,0.1-0.7,0.3-1.2c0,0,0,0,0-0.1
		c0.1-0.4,0.3-0.7,0.4-1.1c0.2-0.4,0.4-0.7,0.6-1c0.2-0.3,0.4-0.5,0.6-0.6c0.4-0.3,1-0.4,1.6-0.3c0.5,0,0.9,0.2,1.3,0.4
		c0.3,0.2,0.6,0.5,0.7,0.8c0.1,0.3,0.1,0.6,0,0.9c-0.4,1.3-1.8,2.2-3,2.9l0,0l0,0c-0.2,0.1-0.4,0.2-0.6,0.4l-0.2,0.1
		C275,244.3,274.3,244.8,274,244.7z"/>
	<path class="st0" d="M298.8,227.2c0.2-1.4,1-2.6,2.8-3c1.9-0.4,3.3,0.2,4.1,1.3c0.3,0.4,0.6,1,0.7,1.5c0.1,0.5,0.1,1.1,0,1.6
		c-0.2,1.4-1.2,2.8-2.9,3.2l0,0c-1.7,0.4-3.1-0.3-3.9-1.6c-0.3-0.4-0.5-1-0.7-1.5C298.7,228.3,298.7,227.7,298.8,227.2L298.8,227.2z
		"/>
	<path class="st0" d="M288.1,227.2c0.2-1.4,1-2.6,2.8-3c1.9-0.4,3.3,0.2,4.1,1.3c0.3,0.4,0.6,1,0.7,1.5c0.1,0.5,0.1,1.1,0,1.6
		c-0.2,1.4-1.2,2.8-2.9,3.2l0,0c-1.7,0.4-3.1-0.3-3.9-1.6c-0.3-0.4-0.5-1-0.7-1.5C288.1,228.3,288.1,227.7,288.1,227.2L288.1,227.2z
		"/>
	<path class="st0" d="M288.3,236.1c1.7-0.7,5-2.1,6.2-1.7c0.2,0,0.5,0.2,0.6,0.4c0.3,0.8,0.3,6,0.2,8.9c0,0.6,0,1.1,0,1.6
		c0,0.2,0,0.7,0,1.3c0,1.3-0.1,2.9,0.1,3.7c0.2,0.9,0.6,1.1,1.1,1.3c0.5,0.2,1,0.3,1.5,0.8l0,0c0.1,0.1,0.2,0.3,0.2,0.5l0,0.8
		c0,0.4-0.3,0.7-0.7,0.8l-10.5,0.2c-0.4,0-0.7-0.3-0.8-0.7l0-0.2c-0.4-1.3,0.3-1.6,1.2-1.9c0.7-0.2,1.6-0.6,1.6-3.2v-6.3
		c0-0.1,0-0.3,0-0.5c0-0.9,0-1.5-0.9-1.8c-0.5-0.2-1.2-0.5-1.6-0.8c-0.3-0.2-0.4-0.5-0.5-0.8c-0.1-0.4,0-0.7,0.3-1.1l0,0l0,0
		c0.2-0.3,0.6-0.5,1.2-0.7C287.6,236.3,287.9,236.2,288.3,236.1L288.3,236.1z"/>
	<path class="st0" d="M191.1,235.7C191.1,235.7,191.1,235.7,191.1,235.7C191.1,235.7,191.1,235.7,191.1,235.7L191.1,235.7z"/>
	<path class="st0" d="M299.6,235.8c1.7-0.8,4.4-1.9,5.6-1.4c0.1,0,0.1,0.1,0.1,0.1c0.5,0.4,0.6,3.4,0.7,6.9c0,4.7-0.1,10.4-0.2,11.4
		c-0.2,1.5-0.5,2.7-0.9,3.7c-0.4,1-1,2-1.7,3.1c-0.2,0.3-0.7,1-1.3,1.7c-0.6,0.7-1.3,1.4-2,1.9c-0.8,0.6-1.7,0.9-2.4,0.5
		c0,0,0,0-0.1,0c0,0,0,0-0.1,0c-0.1,0-0.1-0.1-0.1-0.1c-0.8-0.9,0.2-3,0.9-4.4l0,0c0.2-0.4,0.4-0.7,0.5-0.9c0.2-0.4,0.4-1.5,0.6-2.6
		c0.2-1.1,0.3-2.3,0.3-2.9v-11.9c0-0.6-0.9-1.1-1.6-1.4c-0.6-0.3-1.2-0.6-1.4-1.1c-0.3-0.7,0.2-1.4,2.1-2.1
		C298.9,236.1,299.2,236,299.6,235.8L299.6,235.8z"/>
	<path class="st0" d="M259.7,252.9L259.7,252.9L259.7,252.9C259.7,252.9,259.7,252.9,259.7,252.9L259.7,252.9z"/>
	<path class="st0" d="M247.3,239.6c0-0.4,0,0.1,0,0.4l0-0.2L247.3,239.6L247.3,239.6L247.3,239.6z"/>
	<path class="st0" d="M257.9,236.1l5.6-1.9c0.9-0.3,1.5-0.4,2-0.1c0.5,0.3,0.8,0.9,0.8,1.9l0,14.7c0,0.3,0.5,0.4,0.8,0.4
		c0.4,0.1,0.7,0.1,1,0.3c0.5,0.3,0.8,0.7,0.9,1.2c0.1,0.3,0.1,0.7,0,1c-0.1,0.3-0.2,0.6-0.5,0.8c-0.3,0.3-0.7,0.5-1.1,0.5l-6,0
		c-0.1,0-0.1,0-0.2,0h0c-0.9,0-1.3,0-1.6-1.2c-0.1-0.3-0.1-0.5-0.1-0.7c0,0,0,0,0,0l0,0l0,0c-0.2-0.3,0.1,0.5-0.5,0.9
		c-0.8,0.6-1.9,1-3,1.2c-1.2,0.2-2.4,0.2-3.5,0.1c-1.8-0.3-3.1-1-3.9-2.3c-0.8-1.2-1.2-3-1.2-5.4l-0.2-7.6l0,0.2c0,0.1,0,0.1,0,0.1
		c-0.7-0.1-1.6-0.3-2-0.9c0-0.1-0.1-0.1-0.1-0.2c0,0,0,0,0-0.1c-0.2-0.4-0.1-0.9,0.1-1.3c0.2-0.3,0.4-0.6,0.7-0.8
		c0.1-0.1,0.2-0.2,0.4-0.2l4.2-1.8c0.2-0.1,0.5-0.2,0.8-0.3c0.3-0.1,0.5-0.1,0.8-0.1l0.8,0c0.5,0,0.8,0.3,1.1,0.7
		c0.2,0.3,0.3,0.8,0.3,1.1l0,10c0,1.3,0,2.4,0.2,3.1c0.1,0.5,0.4,0.8,0.9,0.9c0.5,0.1,1.1,0,1.7-0.2c0.5-0.2,1.1-0.4,1.4-0.7
		c0.2-0.2,0.4-0.4,0.5-0.7c0.1-0.3,0.2-0.6,0.2-0.9v-8.6c-0.1,0-0.1,0.3-0.3,0.3c-0.5,0-1-0.1-1.5-0.3c0,0,0,0-0.1,0
		c-0.3-0.2-0.6-0.4-0.8-0.7c-0.2-0.3-0.3-0.6-0.3-0.9c0-0.3,0.1-0.6,0.4-0.9C257.1,236.6,257.4,236.3,257.9,236.1L257.9,236.1z"/>
	<path class="st0" d="M193.4,236.7c0,0.2-0.1,0.4-0.3,0.4L193.4,236.7L193.4,236.7z"/>
	<polygon class="st0" points="249,247.3 249,247.3 249,247.3 	"/>
	<polygon class="st0" points="248.8,239.6 248.8,239.6 248.8,239.6 	"/>
</g>
</svg>
