<?xml version="1.0" encoding="utf-8"?>
<!-- Generator: Adobe Illustrator 25.3.1, SVG Export Plug-In . SVG Version: 6.00 Build 0)  -->
<svg version="1.1" id="Layer_1" xmlns="http://www.w3.org/2000/svg" xmlns:xlink="http://www.w3.org/1999/xlink" x="0px" y="0px"
	 viewBox="0 0 500 300" style="enable-background:new 0 0 500 300;" xml:space="preserve">
<style type="text/css">
	.st0{fill-rule:evenodd;clip-rule:evenodd;fill:url(#SVGID_1_);}
	.st1{fill-rule:evenodd;clip-rule:evenodd;fill:url(#SVGID_2_);}
	.st2{fill-rule:evenodd;clip-rule:evenodd;fill:#FFFFFF;}
</style>
<g>
	
		<radialGradient id="SVGID_1_" cx="286.5806" cy="167.2688" r="110.1446" fx="278.446" fy="177.5823" gradientTransform="matrix(1 0 0 -1 0 302)" gradientUnits="userSpaceOnUse">
		<stop  offset="0" style="stop-color:#FFFFFF"/>
		<stop  offset="0.1265" style="stop-color:#9ADBF8"/>
		<stop  offset="1" style="stop-color:#0066B3"/>
	</radialGradient>
	<path class="st0" d="M380.5,212.8c-33.3,33.3-84.3,36.4-113.8,6.9s-26.4-80.5,6.9-113.8s84.3-36.4,113.8-6.9
		C416.9,128.6,413.8,179.5,380.5,212.8z"/>
	
		<radialGradient id="SVGID_2_" cx="148.7969" cy="204.5853" r="152.273" gradientTransform="matrix(1 0 0 -1 0 302)" gradientUnits="userSpaceOnUse">
		<stop  offset="0" style="stop-color:#FFFFFF"/>
		<stop  offset="0.1265" style="stop-color:#9ADBF8"/>
		<stop  offset="1" style="stop-color:#0066B3"/>
	</radialGradient>
	<path class="st1" d="M259.9,216.8c-41.6,41.6-105.3,45.5-142.2,8.6s-33-100.6,8.6-142.2s105.3-45.5,142.2-8.6
		S301.5,175.2,259.9,216.8z"/>
	<g>
		<path class="st2" d="M365,151.3c4.9-5.4,8.3-9.1,10-11.1l7.9-8.5c-2.3,0.1-4.5,0.1-6.5,0.1c-2.3,0-4.3,0-6.3-0.1l-10.1,11
			l-2.6-4.6c-1.3-2.3-2.5-4.5-3.6-6.4c-1.8,0.1-4,0.1-6.4,0.1c-1.8,0-4.2,0-7.3-0.1l4.2,7.3c1.6,2.9,3,5.3,4,7.2l3.1,5.6
			c-4.7,5.2-9.3,10.3-13.9,15.2l-15,0.1c-1.6,0-3.3-0.2-4.9-0.8s-2.9-1.3-4-2.4c-1.1-1.1-1.8-2.4-2.3-3.9c-0.4-1.6-0.5-3.3-0.3-5.1
			c-0.2,1,0-0.5,0,0h30.2c0.4-1.4,1.1-5.1,1.2-6.4c0.3-2.7,0.1-5.2-0.5-7.5c-0.7-2.3-1.7-4.1-3.3-5.8c-1.5-1.6-3.5-2.8-6-3.5
			c-2.4-0.8-5-1.1-7.8-1.1c-2.9,0-5.9,0.4-8.7,1.3c-2.8,0.8-5.4,2.2-7.8,4.2c-2.4,2.1-4.3,4.7-5.9,7.8c-1.5,3.1-2.5,6.4-2.9,9.8
			c-0.3,3.1-0.1,6,0.5,8.8c0.7,2.8,2,5.1,3.9,7.1c2,1.8,4.3,3.1,7.1,3.9c2.8,0.8,6,1.1,9.6,1.1l23.1-0.1l1.3-1.6
			c2.3-2.5,4.5-5,6.4-7c2.2-2.3,3.8-4.1,5.1-5.5c0.7,1.3,1.7,3.1,3.1,5.4c1.4,2.3,2.8,4.9,4.2,7.6c2.3-0.1,4.7-0.1,7.1-0.1
			c2,0,4.1,0,6.5,0.1l-7.3-12.6L365,151.3z M313.5,144.4c0.3-0.8,0.9-1.5,1.5-2.4c0.7-0.9,1.5-1.6,2.5-2.3s2.1-1.2,3.1-1.5
			c1.2-0.3,2.3-0.5,3.5-0.5c1,0,1.8,0.1,2.7,0.3c0.9,0.2,1.6,0.5,2.2,1c0.5,0.4,1.1,0.9,1.5,1.5c0.4,0.7,0.8,1.3,1,2.2
			s0.3,1.5,0.3,2.2s-0.1,1.6-0.2,2.9h-19.3C312.8,146.4,313.2,145.4,313.5,144.4z"/>
		<path class="st2" d="M298.8,135.6c-1.1-1.6-2.5-2.9-4.6-3.7s-4.2-1.2-6.6-1.2c-1.4,0-2.8,0.2-4.1,0.4s-2.5,0.7-3.6,1.1
			c-1.1,0.4-2.1,1.1-3,1.7c-1,0.7-1.7,1.3-2.3,2c-0.7,0.7-1.2,1.4-2,2.4c-0.4-1.3-0.8-2.3-1.2-2.9c-0.4-0.7-0.9-1.3-1.5-1.8
			c-0.7-0.5-1.4-1-2.3-1.4s-2-0.8-3-1c-1.2-0.2-2.4-0.3-3.6-0.3c-1.6,0-3.3,0.1-4.9,0.5s-3,1-4.2,1.6c-1.2,0.8-2.2,1.5-3,2.3
			c-0.9,0.9-1.8,1.8-2.8,3.1l1.1-6.6c-2,0.1-3.8,0.1-5.4,0.1c-1.4,0-3.4,0-5.6-0.1c-0.5,4.7-1.5,11.7-3,21s-2.8,16.3-3.7,21
			c2.5,0,4.6-0.1,6.1-0.3c1.3,0,3.3,0,5.8,0.1c0.4-3.6,1.2-8.5,2.2-14.6c1.1-6.2,2.1-10.3,2.9-12.4c1-2.2,2.2-3.8,3.8-5.1
			c1.6-1.2,3.4-1.8,5.3-1.8c1.1,0,2,0.2,2.7,0.5c0.8,0.3,1.3,0.9,1.8,1.6c0.4,0.8,0.8,1.5,0.9,2.4c0,0.8,0,1.8-0.1,3
			c-0.2,2.3-1,6.7-2.1,13.3c-1.2,6.5-2,10.9-2.4,12.9c2.5-0.1,4.6-0.1,6.1-0.1s3.4,0,5.6,0.1l1.6-11.4c0.5-4.1,1.1-7.4,1.6-9.9
			s1.1-4.5,1.7-5.9c0.5-1.4,1.4-2.6,2.4-3.7c1-1.1,2-1.8,3-2.3c1.1-0.4,2.3-0.7,3.5-0.7s2.3,0.2,3.1,0.7c0.9,0.4,1.5,1.2,2.1,2.2
			c0.5,1,0.7,2.5,0.4,4.5c-0.1,1.6-0.4,3.7-0.9,6.1l-1.6,9.4c-0.7,3.8-1.3,7.5-2,11.1c2.5-0.1,4.6-0.1,6.4-0.1c1.5,0,3.4,0,5.3,0.1
			c0.3-3.1,1-7.6,2-13.4c1-5.8,1.7-9.9,2.2-12.5c0.5-2.5,0.9-4.5,1-5.8C300.2,139.4,299.7,137.3,298.8,135.6z"/>
		<path class="st2" d="M230.9,143.2c-0.8-2.6-2-4.9-3.8-6.7c-1.7-1.8-4-3.3-6.8-4.2c-2.8-1-5.8-1.4-8.9-1.4c-3.4,0-6.7,0.7-10,1.5
			c-3.4,1.2-6.2,2.8-8.5,5s-4,4.7-5.3,7.4c-1.3,2.8-2.2,5.6-2.5,8.7c-0.3,3-0.1,5.9,0.7,8.6c0.8,2.7,2,5.1,3.8,7
			c1.8,1.8,4.1,3.3,6.8,4.2c2.7,1,5.8,1.4,8.9,1.4c3.5,0,6.7-0.5,9.9-1.6c3.1-1.1,5.9-2.6,8.1-4.8c2.3-2.1,4.1-4.6,5.5-7.5
			c1.3-2.8,2.3-5.9,2.6-9C231.8,148.7,231.5,145.9,230.9,143.2z"/>
		<path class="st2" d="M188,131.2c-1.2-0.3-2.3-0.4-3.4-0.4c-1.1,0-2.3,0.2-3.5,0.4c-1.1,0.3-2.2,0.7-3.1,1.2c-1,0.4-2,1.1-2.7,1.8
			c-0.8,0.7-1.8,1.7-3,3.3l0.9-5.8c-2.3,0.1-4.1,0.1-5.5,0.1c-1.2,0-3.1,0-5.6-0.1c-0.1,2.2-0.3,3.5-0.3,3.9
			c-0.2,2.4-0.5,4.8-0.9,7.1l-1.6,11.4l-3.5,19.6c2.4,0,4.5-0.1,5.9-0.1c1.7,0,3.7,0,5.8,0.1c0.1-2,0.3-3.6,0.4-4.9
			c0.4-3.4,0.9-6.7,1.4-10.2s1.1-6,1.4-7.4c0.4-1.8,1-3.3,1.6-4.5c0.8-1.4,1.7-2.6,2.8-3.6s2.3-1.7,3.6-2.2s2.7-0.8,4.3-0.8
			c1.3,0,2.8,0.2,4.3,0.7C187.4,137,187.7,133.8,188,131.2z"/>
		<path class="st2" d="M131.8,148.1c0.8-1.7,1.8-3.4,3.1-4.7c1.4-1.4,2.9-2.4,4.7-3c1.7-0.7,3.6-1,5.4-1c3,0,6.5,0.7,10.4,2.1l0.4-9
			c-2.6-0.7-4.8-1.1-6.6-1.3s-3.7-0.3-5.4-0.3c-3.3,0-6.2,0.3-8.9,1.1s-5.2,2.1-7.6,4.1c-2.4,2.1-4.2,4.7-5.8,7.8
			c-1.5,3.3-2.4,6.5-2.8,10c-0.3,2.6-0.3,5.1,0.1,7.6c0.3,2.5,1.1,4.6,2.3,6.3c1.2,1.7,2.6,3,4.2,4.1c1.7,1.1,3.5,1.7,5.5,2.2
			c2,0.4,4,0.7,6.3,0.7c3.8,0,7.7-0.5,11.7-1.4c0.5-2.2,1.1-3.9,1.5-5.3c0.4-1.4,0.9-2.7,1.1-3.8c-2.1,0.8-4,1.3-6,1.6
			c-1.8,0.3-3.4,0.4-4.6,0.4c-2.5,0-4.7-0.4-6.5-1.5s-3.1-2.5-3.7-4.5c-0.5-1.8-0.8-4.1-0.4-6.7
			C130.6,151.7,131.1,149.8,131.8,148.1z"/>
	</g>
</g>
</svg>
