<?xml version="1.0" encoding="utf-8"?>
<!-- Generator: Adobe Illustrator 25.3.1, SVG Export Plug-In . SVG Version: 6.00 Build 0)  -->
<svg version="1.1" id="Layer_1" xmlns="http://www.w3.org/2000/svg" xmlns:xlink="http://www.w3.org/1999/xlink" x="0px" y="0px"
	 viewBox="0 0 500 300" style="enable-background:new 0 0 500 300;" xml:space="preserve">
<style type="text/css">
	.st0{fill:#282828;}
	.st1{fill:#2C2D2D;}
	.st2{fill:#212121;}
	.st3{fill:#3A4096;}
	.st4{fill:#123352;}
</style>
<g>
	<g>
		<path class="st0" d="M400.4,136c-1.4,0.4-1.3-0.5-1.4-1.5c-0.1-1.4,0.6-1.3,1.6-1.4c1.4-0.1,1.4,0.6,1.4,1.6
			C402.2,136.1,401.4,136.2,400.4,136z"/>
		<path class="st1" d="M319.8,136c-1.4,0.3-1.3-0.5-1.4-1.5c-0.1-1.2,0.4-1.4,1.4-1.4c1.2,0,1.6,0.3,1.6,1.5
			C321.4,135.9,321,136.2,319.8,136z"/>
		<path class="st0" d="M208.8,133.2c1.5-0.4,1.2,0.6,1.3,1.5c0.2,1.4-0.7,1.3-1.6,1.4c-1.1,0.1-1.4-0.3-1.4-1.4
			C207.1,133.4,207.5,132.9,208.8,133.2z"/>
		<g>
			<path class="st2" d="M394.7,133.6c-4.6,0-9.3,0.1-13.9,0c-1.1,0-1.4,0.3-1.4,1.5c0.1,3.3,0,6.7,0,10c0,3.5,0,6.9,0,10.4
				c0,1,0.3,1.4,1.3,1.4c1,0,1.4-0.3,1.4-1.3c-0.1-2.3,0.1-4.6-0.1-6.9c-0.1-1.5,0.3-2,1.9-1.9c3,0.1,6,0.1,9,0
				c0.8,0,1.9,0.4,1.8-1.2c0-1.6-1.1-1.1-1.9-1.1c-3.1,0-6.2-0.1-9.3,0c-1,0-1.4-0.3-1.4-1.3c0.1-1.8,0.1-3.6,0-5.5
				c-0.1-1.2,0.2-1.6,1.5-1.5c3.7,0.1,7.4,0,11.2,0c0.9,0,1.5,0,1.4-1.2S395.7,133.6,394.7,133.6z"/>
			<path class="st2" d="M314.1,133.6c-4.6,0-9.3,0.1-13.9,0c-1.1,0-1.5,0.3-1.4,1.4c0.1,3.4,0,6.8,0,10.2c0,3.5,0,6.9,0,10.4
				c0,1,0.3,1.2,1.3,1.2c0.9,0,1.5,0,1.4-1.2c-0.1-2.4,0-4.9,0-7.3c0-1.2,0.3-1.7,1.6-1.6c3.2,0.1,6.5,0,9.7,0.1
				c1,0,1.2-0.3,1.3-1.2c0-1.1-0.4-1.2-1.3-1.1c-3.3,0-6.6,0-9.9,0c-1,0-1.4-0.3-1.4-1.4c0.1-1.8,0.1-3.6,0-5.5
				c-0.1-1.2,0.4-1.5,1.6-1.5c3.7,0.1,7.4,0,11.1,0c0.9,0,1.4-0.1,1.4-1.2C315.5,133.7,315,133.6,314.1,133.6z"/>
			<path class="st2" d="M178.7,141c0-1-0.2-1.4-1.3-1.4c-1.1,0-1.3,0.4-1.3,1.4c0.1,2.8,0.1,5.6,0,8.4c-0.1,3.3-2.1,5.3-5.2,5.3
				c-2.9,0-4.5-1.8-4.5-5.2c0-2.9,0-5.8,0-8.8c0-0.9-0.4-1.2-1.2-1.1c-0.7,0.1-1.6-0.3-1.5,1c0.1,3.8-0.3,7.5,0.2,11.3
				c0.4,2.8,2.2,4.5,5,5c2.8,0.5,5.1-0.4,7.1-2.8c0,0.6,0.1,0.8,0.1,1c0,0.9-0.2,1.8,1.3,1.7c1.6,0,1.2-1,1.2-1.8
				C178.6,150.4,178.6,145.7,178.7,141z"/>
			<path class="st2" d="M202.9,134c0-1-0.3-1.3-1.3-1.3c-1.1,0-1.3,0.4-1.3,1.4c0.1,3.5,0,7,0,10.6c0,3.6,0,7.3,0,10.9
				c0,1,0.3,1.3,1.2,1.2c0.9,0,1.4-0.1,1.4-1.3C202.9,148.3,202.9,141.2,202.9,134z"/>
			<path class="st2" d="M319.9,139.7c-0.8,0-1.4,0-1.3,1.1c0.1,2.5,0,5,0,7.5s0.1,5,0,7.5c0,1.2,0.7,1,1.4,1.1
				c0.8,0,1.2-0.1,1.2-1.1c0-5-0.1-9.9,0-14.9C321.2,139.7,320.7,139.7,319.9,139.7z"/>
			<path class="st2" d="M208.6,139.7c-0.9,0-1.3,0.1-1.3,1.2c0.1,2.4,0,4.8,0,7.3c0,2.5,0,5,0,7.5c0,0.9,0.2,1.3,1.2,1.2
				c1,0,1.4-0.2,1.4-1.3c-0.1-4.9,0-9.8,0-14.7C210,139.7,209.4,139.7,208.6,139.7z"/>
			<path class="st2" d="M401.8,148.2c0-2.4,0-4.8,0-7.3c0-0.9-0.2-1.3-1.2-1.2c-0.9,0-1.4,0.1-1.4,1.2c0.1,4.9,0,9.8,0,14.7
				c0,1,0.4,1.2,1.3,1.2c0.9,0,1.3-0.1,1.3-1.2C401.7,153.1,401.8,150.7,401.8,148.2z"/>
			<path class="st2" d="M160.7,145.1c0-6-4-10.7-9.9-11.7c-5.1-0.8-10,1.6-12.4,6.1c-2.4,4.7-1.6,10.6,2.1,14.3
				c3.4,3.4,9.3,4.5,13.6,2c1.7-1,2.8-0.8,3.9,0.6c0.6,0.7,1.1,1.1,2,0.1c0.8-1,0.8-1.5-0.2-2.1c-1.6-0.9-1.8-1.9-0.7-3.5
				C160.4,149.3,160.7,147.2,160.7,145.1z M156.5,150.3c-0.5,0.7-0.8,0.7-1.4,0.2c-0.8-0.8-1.7-1.4-2.4-2.2
				c-0.8-0.9-1.3-0.8-2.1,0.1c-0.9,0.9-0.4,1.4,0.3,2c1,0.8,2,1.7,3.1,2.7c-4.3,2.6-8.8,2.1-11.8-1.2c-3.1-3.4-3.3-9.1-0.4-12.7
				c2.8-3.4,7.4-4.3,11.3-2.2C157.7,139.2,159.4,146.1,156.5,150.3z"/>
			<path class="st2" d="M266.8,132.7c-1.6,0-1.3,0.9-1.3,1.8c0,2.6,0,5.3,0,8.2c-4-4-8.7-4.3-12-1c-3.5,3.4-3.5,9.8-0.1,13.2
				s7.9,3.1,12-0.9c0,0.6,0.1,1,0.1,1.3c-0.1,1-0.1,1.7,1.4,1.7s1.3-0.8,1.3-1.7c0-6.9,0-13.7,0-20.6
				C268.3,133.5,268.4,132.7,266.8,132.7z M259.6,154.7c-3.5,0-6-2.7-6-6.6c0-3.8,2.5-6.5,5.9-6.5c3.3-0.1,6.2,3,6.2,6.6
				C265.7,151.8,263,154.7,259.6,154.7z"/>
			<path class="st2" d="M229.2,132.7c-0.9,0-1.3,0.2-1.2,1.2c0.1,2.8,0,5.7,0,8.6c-5-4.1-9.3-4.2-12.6-0.4c-3,3.4-2.8,9.7,0.5,12.8
				c3.5,3.3,7.7,2.9,12.1-1.3c0,0.9,0.1,1.5,0,2.1c-0.1,1,0.4,1.1,1.2,1.1s1.4,0,1.4-1.1c0-7.3,0-14.6,0-21.9
				C230.6,132.7,230,132.7,229.2,132.7z M221.8,154.8c-3.5-0.1-5.9-2.8-5.9-6.7c0.1-3.8,2.5-6.4,6-6.4c3.4,0,6.2,3.1,6.1,6.6
				C228,151.9,225.2,154.8,221.8,154.8z"/>
			<path class="st2" d="M277.5,139.6c-3.4,0.8-5.8,3.7-6.2,7.2c-0.5,4.3,1.1,7.6,4.5,9.4c3.2,1.7,7.2,1.2,9.9-1.2
				c0.4-0.3,1.7-0.6,0.6-1.6c-0.7-0.7-1.1-0.9-2-0.1c-3.6,3.1-8.9,1.6-10.2-2.8c-0.3-0.9-0.2-1.3,0.9-1.3c1.9,0.1,3.8,0,5.7,0
				s3.8,0,5.7,0c0.6,0,1.1,0,1.1-0.8C287.5,142.2,283,138.3,277.5,139.6z M283.5,147.2c-1.5-0.1-2.9,0-4.4,0l0,0c-1.3,0-2.7-0.1-4,0
				s-1.4-0.4-1-1.5c0.9-2.7,3-4.3,5.5-4.2c2.4,0.1,4.4,1.9,4.9,4.4C284.7,146.8,284.6,147.3,283.5,147.2z"/>
			<path class="st2" d="M196.2,144.4c-0.4-2.6-2-4.1-4.5-4.7c-2.6-0.6-5.2-0.3-7.7,0.7c-0.8,0.3-1.2,0.5-0.8,1.5
				c0.4,1,0.7,1,1.6,0.6c1.6-0.8,3.4-0.9,5.2-0.7c2.1,0.2,3.3,1.4,3.8,3.4c0.4,1.3,0,1.6-1.3,1.3c-2.4-0.5-4.8-0.6-7.2,0.1
				c-2.6,0.8-3.9,2.7-3.9,5.3c0.1,2.4,1.7,4.3,4.3,4.9c3,0.7,5.6,0,8.2-2.5c0,0.8,0,1.2,0,1.5c-0.1,1,0.6,0.9,1.2,0.9
				c0.6,0,1.4,0.2,1.4-0.9C196.4,152.1,196.8,148.2,196.2,144.4z M193.8,151.3c-0.9,3.4-6.2,5-8.8,2.6c-1.5-1.4-1.3-3.7,0.4-4.8
				c1.2-0.8,2.5-0.9,3.8-1c0.9,0.1,1.8,0.2,2.7,0.4C194.1,148.8,194.4,149.2,193.8,151.3z"/>
			<path class="st2" d="M248.2,145.8c0-3-1.7-5.2-4.4-6c-2.8-0.8-5.5-0.3-8.2,0.7c-0.9,0.3-0.8,0.8-0.5,1.5c0.3,0.8,0.6,1,1.4,0.6
				c1.8-0.8,3.7-1,5.7-0.7c1.9,0.3,3.2,1.7,3.4,3.5c0.2,1-0.1,1.4-1.2,1.1c-2.5-0.6-5.1-0.7-7.6,0.1c-2.6,0.9-3.8,2.8-3.6,5.4
				c0.1,2.3,1.9,4.1,4.4,4.7c3,0.7,5.6-0.1,8-2.3c0.1,0.4,0.1,0.6,0.1,0.7c-0.1,1.1,0.1,1.6,1.4,1.6c1.3,0,1.1-0.8,1.1-1.6
				C248.2,152.1,248.3,148.9,248.2,145.8z M245.6,151.6c-0.6,1.9-2,2.8-3.8,3.2c-1.9,0.4-3.7,0.3-5.1-1.2c-1.5-1.5-1-3.8,1-4.8
				c1.1-0.5,2.3-0.7,3.6-0.7c0.8,0.1,1.6,0.2,2.3,0.3C245.7,148.8,246.2,149.5,245.6,151.6z"/>
			<path class="st2" d="M362.7,139.8c-2.8-0.8-5.5-0.4-8.2,0.6c-0.9,0.3-0.9,0.7-0.6,1.5s0.6,1,1.4,0.7c1.7-0.8,3.5-0.9,5.4-0.7
				c2.1,0.2,3.4,1.5,3.7,3.4c0.2,1.1,0,1.6-1.3,1.3c-2.3-0.5-4.7-0.6-7,0.1c-2.7,0.8-4.2,2.7-4.1,5.3c0.1,2.5,1.8,4.4,4.5,5
				c2.9,0.6,5.5-0.1,7.9-2.4c0,0.8,0,1.1,0,1.5c0,1.1,0.8,0.8,1.4,0.9c0.6,0,1.2,0.1,1.2-0.9c-0.1-3.6,0-7.3-0.1-10.9
				C366.8,142.3,365.2,140.5,362.7,139.8z M358.9,155c-0.9,0-1.7-0.2-2.4-0.6c-1.3-0.7-1.8-1.7-1.7-3.1c0.1-1.5,1.1-2.3,2.4-2.7
				c2.3-0.8,4.6-0.4,6.8,0.2c0.8,0.2,0.7,0.8,0.7,1.3C364.7,152.9,362.3,155,358.9,155z"/>
			<path class="st2" d="M414,139.3c-5,0-9,3.8-9,8.8c0,5,3.7,9,8.7,9.1s9.1-3.9,9.1-8.9C423,143.3,419,139.4,414,139.3z M414,154.8
				c-3.5,0-6.3-2.9-6.4-6.6c0-3.6,2.7-6.6,6.1-6.6c3.5-0.1,6.4,3,6.4,6.7C420.2,151.9,417.5,154.8,414,154.8z"/>
			<path class="st2" d="M333.3,139.3c-5,0-8.9,3.8-9,8.8c0,5.1,3.8,9,8.9,9c5,0,9-4.1,8.9-9.1C342.1,143.1,338.2,139.3,333.3,139.3z
				 M333.2,154.8c-3.5,0-6.3-2.9-6.3-6.6s2.8-6.6,6.3-6.6c3.5,0.1,6.1,3,6.1,6.8C339.4,152.1,336.8,154.8,333.2,154.8z"/>
		</g>
		<g>
			<path class="st3" d="M282.7,75c10.2,0,20.5,0,30.7,0c0.7-0.1,1.8,0.6,1.9-0.6c0.1-2.4,0.4-4.9-1.5-6.8l0,0l0,0
				c-1.7-2.6-4.1-3.6-7.1-3.6c-9.6,0-19.1,0-28.7,0c-5.2,0-8.7,3.5-8.7,8.7c0,5.1,0,10.2,0,15.3c0,6,3.3,9.3,9.4,9.3
				c7.7,0,15.3,0,23,0c0.8,0,1.6-0.3,2.3,0.4c0,3-0.1,5.9-0.1,8.9c0,1.5-0.3,2-1.9,1.9c-7.9-0.1-15.8,0-23.7,0c-2.6,0-5.1,0-7.7,0
				c-0.6,0-1.3-0.2-1.4,0.7c-0.1,2.7-0.1,5.4,2.1,7.4l0,0l0,0c1.6,1.9,3.6,2.9,6,2.9c9.9,0,19.8,0.1,29.8,0c3,0,5.5-1.4,7-4.2
				c1-1.1,1.1-2.5,1.2-3.9c0-5.7,0-11.4,0-17.1c0-1.9-0.7-3.6-2-5c-0.5-1-1.5-1.6-2.5-2.1c-1.1-0.4-2.1-1.1-3.3-0.9l0,0l0,0
				c-0.6-0.1-1.2-0.1-1.8-0.1c-7.8,0-15.6,0-23.4,0c-1.2,0-1.6-0.3-1.6-1.5c0.1-2.6,0.1-5.2,0-7.8C280.6,75.3,281.2,75,282.7,75z"/>
			<path class="st3" d="M369,64.9c0.2-0.8-0.2-0.9-0.9-0.9c-3.3,0-6.5,0-9.8,0c-0.4,0-1-0.1-0.7,0.6l0,0c0,0.6-0.1,1.2-0.1,1.8
				c0,13.3,0,26.6,0,40.1c0,0.7,0.1,1.5-0.2,2.2c-7.5,0-15,0-22.6,0c-0.2-0.2-0.3-0.5-0.5-0.7c0-14.3,0.1-28.6,0.1-43.1
				c0-0.8-0.4-1-1.1-1c-1.5,0-2.9,0-4.4,0c-1.9,0-4.5-0.7-5.6,0.3c-1.2,1-0.3,3.6-0.3,5.6c0,13.6,0,27.2,0,40.9
				c0,2.3,0.3,4.4,2.2,6.1l0,0l0,0c1.7,2.1,4,2.9,6.6,2.9c9.4,0,18.7,0,28.1,0c5.7,0,9.2-3.4,9.2-9.2c0-11.2,0-22.5,0-33.8
				C369.1,72.7,369,68.8,369,64.9z"/>
			<path class="st3" d="M422.7,110.3c0.1-1.4-0.3-1.8-1.8-1.8c-10.2,0.1-20.5,0-30.7,0.1c-1.7,0-2.1-0.5-2.1-2.1
				c0.1-13.6,0-27.2,0.1-40.9c0-1.2-0.3-1.7-1.6-1.6c-2.8,0.1-5.6,0.1-8.4,0c-1.3,0-1.6,0.4-1.6,1.6c0.1,8.7,0,17.4,0,26.1
				c0,8.8,0,17.5,0,26.3c0,1,0,1.7,1.4,1.7c14.4-0.1,28.9,0,43.4,0c1.2,0,1.4-0.4,1.4-1.5C422.6,115.5,422.6,112.9,422.7,110.3z"/>
			<path class="st3" d="M200.7,63.9c-2.7,0.1-5.4,0.1-8,0c-1.5-0.1-1.9,0.3-1.9,1.9c0.1,8.6,0,17.3,0,25.9l0,0c0,8.8,0,17.5,0,26.3
				c0,1.3,0.3,1.7,1.6,1.6c2.9-0.1,5.7-0.1,8.6,0c1.2,0,1.4-0.4,1.4-1.5c0-17.5,0-35.1,0-52.6C202.3,64.3,202,63.9,200.7,63.9z"/>
			<path class="st3" d="M180.3,88.2L180.3,88.2c0-0.2,0-0.4,0-0.7c0.2-0.9,0-1.4-1-1.4c-8.8,0-17.7,0-26.5,0c-0.9,0-1.3,0.2-1.3,1.2
				c0.1,2.9,0,5.8,0,8.7c0,0.8,0.1,1.2,1.1,1.2c8.9,0,17.8,0,26.7,0c0.9,0,1.2-0.3,1.1-1.2C180.4,93.5,180.4,90.8,180.3,88.2
				L180.3,88.2z"/>
			<path class="st3" d="M181.6,63.9c-6.8,0.1-13.5,0-20.3,0c-7.6,0-15.1,0-22.7,0c-0.7,0-1.5-0.3-1.5,0.9c0.1,5.8,0.1,11.7,0.1,17.5
				c0,1.4,0,2.8,0,4.3c-0.2,0-0.4,0-0.7,0c-8.3-5-14.9-11.6-19.9-19.8c-0.6-1-1.2-1.9-2.3-2.5l0,0c-0.1-0.5-0.5-0.4-0.9-0.4
				c-5.5,0-11,0-16.5,0c-0.6,0-1.2,0.1-1.7,0.6l0,0l0,0C94,65,93.6,65.9,93.7,67c0.1,1,1.2,0.9,1.9,1.2c1.1,0.5,2.3,0.8,3.4,1.3
				c1,0.4,1.9,0.4,2.6-0.4c1.3-1.5,3-1.4,5-1.1c-0.6,0.5-1.1,0.9-1.5,1.3c-1.3,1.1-1.2,1.4,0.3,2.1c2.3,1.2,4.5,1.6,6.7-0.3
				c0.4-0.3,0.9-0.5,1.6-0.8c0.4,1.9,0.8,3.7,1.3,5.7c-0.8-0.3-1.3-0.4-1.8-0.6c-6-2.1-11.9-4.1-17.9-6.2c-1.4-0.5-2.1-0.2-2.3,1.2
				c-0.5,3.7-1.3,2.9,2.4,4.3c0.7,0.3,1.5,0.5,2.2,0.7c5.7,2.2,11.4,4.4,17.1,6.5c1.5,0.6,2.3,1.3,2.3,2.9
				c-7.7-2.4-15.4-4.9-23.1-7.3c-2.2-0.7-2.2-0.7-2.5,1.5c-0.1,0.9-0.2,1.8-0.3,2.7c-0.1,0.7,0.1,1.1,0.9,1.4
				c5.4,1.8,10.8,3.6,16.2,5.5l0,0c2.9,1,5.8,2.2,8.7,3.1c1.7,0.5,3,1.1,3.1,3.1l0,0l0,0c-0.8,0.8-1.6,0-2.3-0.2
				c-8.6-2.6-17.2-5.2-25.8-8c-1.5-0.5-2-0.1-2.2,1.3c-0.2,1.6-0.4,3.3-0.6,4.9c-0.2,1.5,0.4,1.8,1.7,1c0.7-0.3,1.5-0.5,2.2-0.9
				c1.4-0.9,2.8-1.1,4.3,0c-1.9,1.1-3.7,2.4-5.7,3.3c-2.6,1.1-3.8,2.9-3.7,5.7c0,0.5-0.3,1.1,0.3,1.5c0.6,0.5,1.2,0,1.7-0.2
				c4.8-2.4,9.6-4.7,14.4-7.1c1.3-0.7,2.4-0.7,3.6,0.3c-5.9,3.1-11.6,6.3-17.5,9.2c-2.7,1.3-4.5,2.8-4.1,6.1c0.1,0.7-0.5,1.5,0.3,2
				c0.7,0.4,1.3-0.2,1.8-0.5c8.6-4.4,17.3-8.6,25.9-13.1c2.1-1.1,3.8-1,5.7,0.1c-0.1,0.5-0.5,0.5-0.8,0.7
				c-10.7,5.6-21.4,11.2-32.2,16.8c-0.7,0.3-1.6,0.5-1.6,1.5c-0.1,1.5-0.1,3-0.1,4.6c0,1,0.5,1.1,1.3,0.8c0.4-0.2,0.9-0.4,1.3-0.6
				c11.1-5.6,22.3-11.2,33.5-16.8c1.3-0.7,1.8-0.6,1.9,0.9c0,0.3,0.1,0.6,0.2,1.3c-1.7-1.2-3.1-0.6-4.4,0.1c-1.3,0.7-2.7,1.3-4.1,2
				c-0.5,0.3-1.3,0.3-1.2,1.1c0.1,0.9,0.9,0.8,1.5,1c2.6,0.7,5.2,1.4,7.8,2c1.1,0.2,1.7,0.7,1.5,1.8c-0.3,1.2-1.2,0.4-1.8,0.3
				c-4.5-0.8-9-1.7-13.4-2.6c-0.7-0.1-1.3-0.2-1.9,0.1c-2.1,1.1-4.3,2.2-6.5,3.4c-0.5,0.2-1.1,0.5-1,1.1c0.1,0.8,0.8,0.8,1.4,0.9
				c3.4,0.8,6.9,1.6,10.3,2.4c3.9,0.9,7.8,1.8,11.8,2.7c1.9,0.4,1.4,1.8,1.3,2.9c-0.1,1.4-1.2,0.4-1.7,0.3c-8.3-1.6-16.7-3-24.9-4.9
				c-3.9-0.9-7.2-0.7-10.4,1.8c-0.5,0.4-1.6,0.5-1.5,1.4c0.1,1,1.1,0.8,1.7,1c11.8,2.8,23.6,5.6,35.5,8.3c1.5,0.3,1.9,1,1.6,2.2
				c-0.3,1.5-1.5,0.5-2.1,0.3c-11.1-2.1-22.2-4.2-33.4-6.4c-4.6-0.9-4.6-0.9-4.5,3.7c0,2.1,0.1,2.2,2.3,1.5c3.1-0.9,5-0.8,7.7,0.5
				l-0.1,0.1c-1.8,0.8-3.7,1.6-5.5,2.4c-4.6,2.1-3.7,0.9-2.8,5.4c0.3,1.7,1.1,1.8,2.6,1.3c5.1-2,10.4-3.8,15.5-6
				c2.4-1,4.5-0.1,6.7,0.4c-0.2,0.3-0.4,0.4-0.6,0.5c-6,2.4-11.9,4.8-17.9,7.2c-1.8,0.7-1.8,1-0.3,2.4c2.4,2.2,5.1,2,7.8,1.1
				c2.8-1,5.6-2.1,8.3-3.2c4.5-1.8,9-3.6,13.6-5.4c0.6-0.2,1.4-0.8,1.7,0.1c0.3,0.7-0.3,1.4-0.9,1.8c-0.2,0.1-0.3,0.2-0.5,0.2
				c-4,1.7-8,3.5-12.1,5.1c-0.5,0.2-1,0.3-1.2,0.7c-0.4,0.6-0.5,1.3,0.5,1.2c2.9-0.2,6,0.7,8.8-0.8l0,0c0.9-0.1,1.5-1,2.5-0.7
				c-0.3,0.3-0.7,0.6-1,1c-1.7,2.1-3.8,2.8-6.6,2.7c-10.4-0.2-20.8-0.1-31.3,0c-1.3,0-2.4-0.1-3.1-1.4c-0.2-0.5-0.6-0.9-1.1-0.5
				c-0.6,0.4-0.5,0.9-0.2,1.4c0.8,1.5,2.1,2.2,3.9,2.2c11.1,0,22.2,0,33.4,0c3.2,0,5.3-1.8,6.9-4.3c1-0.7,1.7-1.6,2.4-2.6
				c0.3-0.4,0.8-0.8,0.3-1.3c-0.3-0.3-0.8-0.1-1.2-0.1c-0.3,0.1-0.5,0.2-0.8,0.3c-2,0.3-3.6,1.3-5.3,2.1l0,0
				c-0.4,0.1-0.9,0.3-1.3,0.4l0,0l0,0c-0.6,0-1.2-0.1-1.8-0.1c0.2-0.2,0.3-0.4,0.5-0.6l0,0c3-1.2,6.1-2.4,9.1-3.8
				c1.6-0.7,2.5-2.9,1.7-4.2c-1-1.7-2.4-1.2-3.9-0.6c-4.3,1.7-8.6,3.5-12.9,5.1c-3.5,1.3-6.9,3-10.6,3.9c-2,0.5-2.9,0.2-4-1.2
				c0.6-0.2,1.1-0.5,1.7-0.7c6-2.4,12.1-4.8,18.1-7.3c0.7-0.3,1.8-0.3,1.7-1.4c-0.1-0.9-1.1-0.7-1.8-0.9c-1.7-0.4-3.4-0.6-5-1
				c-1.5-0.4-2.8-0.2-4.3,0.4c-4.8,1.9-9.6,3.8-14.5,5.6c-0.6,0.2-1.4,1.2-1.9-0.2c-0.4-1-0.8-2,0.8-2.6c3.1-1.2,6-2.6,9.1-3.9
				c0.4-0.2,1-0.3,1-0.9c0-0.4-0.2-0.7-0.6-0.8c-3.5-0.4-6.8-2.6-10.5-1.2c-0.7,0.3-1.2,0.3-1.2-0.8c-0.1-1.4,0.3-1.6,1.6-1.3
				c11.6,2.3,23.2,4.5,34.9,6.6c3.6,0.7,3.6,0.6,3.6-3.1c0-1.5-0.5-2.1-2-2.4c-8.4-1.9-16.8-3.9-25.3-5.9c-3.3-0.8-6.5-1.6-10.3-2.5
				c2.1-0.8,3.2-2.3,5.3-1.9c3.9,0.9,7.9,1.6,11.8,2.4c6.2,1.2,12.4,2.4,18.6,3.7c0.8,0.2,1.6,0.3,1.6-0.8c0-1.6-0.2-3.1-0.4-4.7
				c-0.1-0.7-0.6-0.8-1.2-0.9c-2.1-0.5-4.1-1-6.2-1.4c-5.1-1.2-10.1-2.3-15.3-3.5c3.4-2.6,4.7-3,7.8-2.4c4.4,0.9,8.8,1.7,13.3,2.6
				c1.1,0.2,2.1,0.3,1.9-1.4c-0.1-0.5-0.1-1-0.1-1.5c0.1-1.6-0.5-2.4-2.2-2.7c-2.3-0.4-4.5-1.1-7-1.8c2.4-1.2,4.3-2.8,7-1.4
				c1,0.5,1.6,0,1.4-1.3c-0.3-1.2-0.4-2.4-0.7-3.6c-0.4-1.9-0.6-2-2.4-1.1c-9.6,4.8-19.2,9.7-28.8,14.5c-2,1-4.1,2-6.1,3
				c-0.6-2.1,0.1-3.2,1.9-4c5.8-2.9,11.6-6,17.3-9c4.9-2.6,9.8-5.1,14.7-7.7c1.2-0.7,1.6-1.8,0.9-2.6c-0.9-1-5.6-1.8-6.8-1.1
				c-5.8,2.9-11.5,5.8-17.3,8.7c-3.2,1.6-6.5,3.3-9.7,4.9c-0.4-2,0.3-3.1,2-4c6.5-3.3,13-6.8,19.5-10.3c0.5-0.3,1.3-0.4,1.3-1.2
				c0-0.9-0.9-0.8-1.5-1.1c-2.5-1.3-4.9-1.3-7.3,0.4c-1.6,1-3.4,1.7-5,2.5c-2.4,1.2-4.8,2.3-7.2,3.5c-0.4-1.5,0.1-2.4,1.4-3.1
				c2.8-1.5,5.5-3.1,8.2-4.7c0.4-0.2,0.9-0.4,0.9-1s-0.6-0.7-1-0.9c-2.8-1.3-5.6-1.6-8.2,0.4c-0.3-0.8,0.1-1.6,0.1-2.5
				c0-1.1,0.3-1.5,1.5-1.1c2.7,0.9,5.4,1.7,8.1,2.6c5.7,1.7,11.5,3.5,17.2,5.2c1.2,0.4,2.4,1.5,3.5,0.7c0.9-0.8-0.1-2.1-0.2-3.2
				c0-0.5-0.1-1-0.2-1.4c-0.1-0.6-0.4-0.9-1-1.1c-5.5-1.8-10.9-3.7-16.4-5.5l0,0c-3.2-1.1-6.3-2.4-9.6-3.3c-1.8-0.5-1.4-1.7-1.1-2.7
				c0.4-1.2,1.2-0.2,1.8-0.1c7.6,2.3,15.2,4.7,22.7,7.1c1.1,0.3,1.5-0.1,1.3-1.2c-0.2-1-0.4-2-0.5-3c-0.1-0.7-0.5-1.1-1.1-1.3
				c-6.9-2.5-13.7-5.1-20.6-7.6l0,0c-0.2-0.1-0.4-0.3-0.6-0.3c-0.9-0.3-2.1-0.5-1.5-1.9c0.6-1.4,1.4-0.2,2.1,0
				c6.2,2.1,12.3,4.2,18.5,6.3c1.7,0.6,2.1,0.3,1.7-1.5c-0.3-1.5-0.7-3.1-1-4.6c-0.8-3.9-0.8-3.9-4.2-2c-0.3,0.2-0.7,0.3-0.9,0.5
				c-1.2,1-2.4,1-3.7-0.1c0.8-0.6,1.5-1.2,2.3-1.8c0.4-0.4,1.1-0.7,0.8-1.4c-0.3-0.7-0.9-0.5-1.4-0.5c-1.5,0-3,0-4.6,0
				c-1,0-1.8,0.1-2.5,0.9c-0.9,1-1.9,1.1-3.1,0.5c-0.6-0.3-1.3-0.4-1.9-0.7c-0.3-0.2-1-0.1-0.9-0.6c0-0.4,0.6-0.6,1-0.7l0,0
				c5.5,0,11,0,16.5,0c1.5,0.9,2.3,2.3,3.2,3.7c4.1,6.6,9.2,12.2,15.7,16.5c1.7,1.1,3.4,2.3,5.2,3.4l0,0c0,9.8,0,19.6-0.1,29.3
				c0,1,0.4,1.2,1.3,1.2c2.8,0,5.6-0.1,8.4,0c1.4,0.1,1.8-0.3,1.8-1.8c-0.1-13.6,0-27.1-0.1-40.8c0-1.8,0.5-2.1,2.2-2.1
				c9.3,0.1,18.5,0,27.8,0c1.2,0,2.3,0,3.5,0.1c1,0.1,1.3-0.3,1.2-1.2c-0.1-2.7-0.1-5.5,0-8.2C183.4,64.2,182.9,63.9,181.6,63.9z
				 M137.1,86.7L137.1,86.7L137.1,86.7L137.1,86.7z"/>
			<path class="st3" d="M257.8,103.4L257.8,103.4c-0.1-0.3-0.2-0.7-0.3-1c-5.1-12.3-10.2-24.5-15.2-36.9c-0.6-1.5-1.4-1.9-2.9-1.5
				c-2.9,0-5.8-0.1-8.7-0.1c-0.4,0-0.7,0-0.8,0.5l0,0l0,0c-0.2,0.3-0.4,0.6-0.5,1c-2.9,7-5.9,14.1-8.8,21.2
				c-2.3,5.6-4.6,11.2-6.9,16.8c-2.1,4.6-4,9.3-5.8,14l0,0l0,0c-1,2.2-1,2.2,1.4,2.2c3.5,0,6.9,0,10.4-0.1c2.2,0.6,2.1-1.2,2.5-2.5
				l0,0c1.1-2.7,2.2-5.5,3-8.4c1.3-3.4,2.6-6.9,3.9-10.3c2.2-6,4.3-12,6.4-18.1l0,0c1.3,0.7,0.8,2.3,1.7,3.2c1,3.4,2.2,6.7,3.6,10
				l0,0c0,0.1,0,0.2,0.1,0.2l0,0c0.4,1.1,0.7,2.3,1.1,3.6c-2.5,0-4.9,0.2-7.2-0.1c-2.1-0.2-3.2,0.6-3.4,2.6l0,0
				c-0.9,2.4-1.7,4.8-2.7,7.1c-0.5,1.3-0.2,1.5,1.1,1.5c4.9-0.1,9.9,0,14.8,0c1.2,0,1.7,0.4,2.1,1.5c0.7,2.1,1.5,4.2,2.3,6.3l0,0
				c0.3,0.7,0.5,1.5,0.8,2.2c0.2,0.6,0.3,1.1,1.2,1.1c4.5,0,8.9,0,13.5,0c-0.3-1.2-0.7-2.1-1.3-3
				C261.6,112.1,259.8,107.7,257.8,103.4z"/>
		</g>
	</g>
	<g>
		<polygon class="st4" points="134.9,186.1 124.9,186.1 124.9,236.1 157.2,236.1 157.2,228.4 134.9,228.4 		"/>
		<path class="st4" d="M191.4,210.1c2.3-0.9,4.1-2.3,5.3-4.1c1.2-1.8,1.8-3.9,1.8-6.2c0-4.6-1.6-8-4.9-10.3
			c-3.3-2.3-7.9-3.4-13.8-3.4h-16.9v50h19.3c5.8,0,10.3-1.2,13.4-3.7s4.7-6.1,4.7-10.9c0-2.8-0.8-5.2-2.2-7.3
			C196.6,212.1,194.4,210.8,191.4,210.1z M172.9,193.8h6.9c2.9,0,5.1,0.5,6.5,1.6c1.5,1.1,2.2,2.8,2.2,5.1c0,2.1-0.7,3.7-2.2,4.8
			s-3.5,1.6-6.2,1.6h-7.2V193.8z M188.3,226.7c-1.4,1.2-3.4,1.7-6.1,1.7h-9.2V214h10c2.6,0,4.4,0.6,5.6,1.9c1.2,1.3,1.8,3.2,1.8,5.6
			C190.4,223.8,189.7,225.5,188.3,226.7z"/>
		<path class="st4" d="M301.7,210.1c2.3-0.9,4.1-2.3,5.3-4.1c1.2-1.8,1.8-3.9,1.8-6.2c0-4.6-1.6-8-4.9-10.3
			c-3.3-2.3-7.9-3.4-13.8-3.4h-16.9v50h19.3c5.8,0,10.3-1.2,13.4-3.7s4.7-6.1,4.7-10.9c0-2.8-0.8-5.2-2.2-7.3
			C306.9,212.1,304.7,210.8,301.7,210.1z M283.3,193.8h6.9c2.9,0,5.1,0.5,6.5,1.6s2.2,2.8,2.2,5.1c0,2.1-0.7,3.7-2.2,4.8
			s-3.5,1.6-6.2,1.6h-7.2V193.8z M298.6,226.7c-1.4,1.2-3.4,1.7-6.1,1.7h-9.2V214h10c2.6,0,4.4,0.6,5.6,1.9c1.2,1.3,1.8,3.2,1.8,5.6
			C300.7,223.8,300,225.5,298.6,226.7z"/>
		<polygon class="st4" points="365.3,186.1 358.1,220.4 357.9,220.4 348.5,186.1 341.1,186.1 331.7,220.4 331.5,220.4 324.3,186.1 
			314.5,186.1 326.2,236.1 335.5,236.1 344.7,203.1 344.9,203.1 354.1,236.1 363.4,236.1 375.1,186.1 		"/>
		<rect x="210" y="184.5" class="st4" width="51.3" height="10.4"/>
		<rect x="210" y="205.3" class="st4" width="51.3" height="10.4"/>
		<rect x="210" y="226" class="st4" width="51.3" height="10.4"/>
	</g>
</g>
</svg>
