<?xml version="1.0" encoding="utf-8"?>
<!-- Generator: Adobe Illustrator 25.3.1, SVG Export Plug-In . SVG Version: 6.00 Build 0)  -->
<svg version="1.1" id="Layer_1" xmlns="http://www.w3.org/2000/svg" xmlns:xlink="http://www.w3.org/1999/xlink" x="0px" y="0px"
	 viewBox="0 0 500 300" style="enable-background:new 0 0 500 300;" xml:space="preserve">
<style type="text/css">
	.st0{fill:#393BEE;}
	.st1{fill:#7EBBFC;}
	.st2{fill:#002A83;}
	.st3{fill:#FFFFFF;}
</style>
<rect x="119.4" y="63.6" class="st0" width="6.3" height="101.2"/>
<polygon class="st1" points="114.5,87.6 102.6,115.3 102.7,126.9 109.9,157.8 54.4,157.8 54.4,164.8 116,164.8 116,158.6 116,157.8 
	116,87.6 "/>
<polygon class="st1" points="131.1,87.6 143,115.3 142.9,126.9 135.7,157.8 191.2,157.8 191.2,164.8 129.6,164.8 129.6,158.6 
	129.6,157.8 129.6,87.6 "/>
<g>
	<path d="M58.8,190.7l3.3-18.1l5.4,13.1l5.5-13.1l3,18.1h-2.4l-1.6-10.1l-4.6,10.9l-4.5-10.9l-1.6,10.2H58.8z"/>
	<path d="M90.2,176.3H84v4.3H90v2.4H84v5.3h6.2v2.4h-8.6v-16.8h8.6V176.3z"/>
	<path d="M95.2,190.7l3.3-18.1l5.4,13.1l5.5-13.1l3,18.1h-2.4l-1.6-10.1l-4.6,10.9l-4.5-10.9l-1.6,10.2H95.2z"/>
	<path d="M133.5,182.3c0,4.9-3.4,8.7-8.1,8.7c-4.7,0-8.1-3.8-8.1-8.7c0-4.9,3.4-8.7,8.1-8.7C130.1,173.5,133.5,177.3,133.5,182.3z
		 M131.1,182.3c0-3.7-2.4-6.4-5.7-6.4c-3.4,0-5.7,2.6-5.7,6.4c0,3.7,2.4,6.4,5.7,6.4C128.7,188.6,131.1,186,131.1,182.3z"/>
	<path d="M141.7,173.8c1.9,0,3.1,0.3,4.1,1c1.7,1.2,1.9,3.2,1.9,4c0,2.4-1.4,4.2-3.5,4.7l4.9,7.2h-2.9l-4.5-6.9h-0.4v6.9h-2.4v-16.8
		H141.7z M141.3,181.6h0.8c0.7,0,3.3-0.1,3.3-2.7c0-2.4-2.1-2.6-3.3-2.6h-0.8V181.6z"/>
	<path d="M156.1,173.8v16.8h-2.4v-16.8H156.1z"/>
	<path d="M171.4,186.6h-6.7l-1.7,4.1h-2.6l7.8-17.8l7.4,17.8h-2.6L171.4,186.6z M170.5,184.2l-2.3-5.7l-2.4,5.7H170.5z"/>
	<path d="M182.4,173.8v14.4h4.6v2.4h-7v-16.8H182.4z"/>
</g>
<g>
	<path d="M64.4,204h5.7v0.3c0,1.6-0.4,3.4-1.3,4.6c-0.4,0.6-1.9,2.6-5,2.6c-4,0-7-3.3-7-7.5s3-7.5,7.1-7.5c1.3,0,2.8,0.3,4.1,1.4
		c0.6,0.5,1.2,1.2,1.6,1.7l-1.1,1.1c-0.4-0.6-0.8-1.1-1.3-1.5c-0.7-0.6-1.7-1.2-3.3-1.2c-3.3,0-5.5,2.6-5.5,6c0,4,2.9,6,5.5,6
		c1.8,0,3.4-1,4.1-2.4c0.2-0.5,0.5-1.2,0.5-2.1h-4V204z"/>
	<path d="M76.8,205.7c0,1.2,0,2.6,1.1,3.5c0.5,0.5,1.5,0.8,2.2,0.8s1.7-0.3,2.2-0.8c1.1-1,1.1-2.3,1.1-3.5v-8.9h1.5v9.4
		c0,1.2-0.1,2.4-0.9,3.5c-0.8,1.2-2.2,2-4,2s-3.2-0.8-4-2c-0.7-1.1-0.9-2.3-0.9-3.5v-9.4h1.5V205.7z"/>
	<path d="M98.3,207.2h-5.8l-1.6,4.1h-1.7l6.2-15.3l6.1,15.3h-1.7L98.3,207.2z M97.7,205.7l-2.3-5.8l-2.3,5.8H97.7z"/>
	<path d="M108.1,196.7c0.9,0,2.3,0.1,3.3,0.8c0.8,0.6,1.5,1.7,1.5,3.2c0,2.2-1.4,3.9-3.4,4l4.3,6.5H112l-4.1-6.4h-0.4v6.4h-1.5
		v-14.6H108.1z M107.5,203.5h1c1.9,0,3-1,3-2.7c0-0.8-0.2-1.6-1.1-2.1c-0.6-0.4-1.3-0.4-2-0.4h-0.9V203.5z"/>
	<path d="M120.1,205.7c0,1.2,0,2.6,1.1,3.5c0.5,0.5,1.5,0.8,2.2,0.8c0.8,0,1.7-0.3,2.2-0.8c1.1-1,1.1-2.3,1.1-3.5v-8.9h1.5v9.4
		c0,1.2-0.1,2.4-0.9,3.5c-0.8,1.2-2.2,2-4,2c-1.7,0-3.2-0.8-4-2c-0.7-1.1-0.9-2.3-0.9-3.5v-9.4h1.5V205.7z"/>
	<path d="M135.7,196.7v13.1h3.7v1.5h-5.2v-14.6H135.7z"/>
	<path d="M145.4,202.6h7v-5.9h1.5v14.6h-1.5v-7.1h-7v7.1h-1.5v-14.6h1.5V202.6z"/>
	<path d="M159.1,204c0-4.4,3.2-7.5,7.1-7.5s7.1,3.2,7.1,7.5c0,4.3-3.1,7.5-7.1,7.5C162.2,211.6,159.1,208.3,159.1,204z M160.6,204
		c0,3.3,2.5,6,5.5,6c3,0,5.5-2.7,5.5-6s-2.5-6-5.5-6C163.1,198,160.6,200.7,160.6,204z"/>
	<path d="M184.4,199.6c-0.2-0.4-0.5-0.8-0.8-1.1c-0.3-0.2-0.8-0.5-1.5-0.5c-1.3,0-2.3,0.9-2.3,2.3c0,0.6,0.1,0.9,0.5,1.3
		c0.4,0.4,0.9,0.7,1.4,0.9l1.3,0.6c0.8,0.4,1.5,0.8,2.1,1.4c0.7,0.7,1,1.6,1,2.6c0,2.7-1.8,4.5-4.3,4.5c-0.9,0-2-0.2-2.9-1.2
		c-0.7-0.7-1.1-1.7-1.3-2.6l1.5-0.4c0.1,0.8,0.4,1.4,0.8,1.9c0.6,0.6,1.3,0.8,2,0.8c1.8,0,2.7-1.4,2.7-2.9c0-0.7-0.2-1.2-0.7-1.7
		c-0.4-0.4-0.9-0.7-1.6-1l-1.2-0.6c-0.5-0.3-1.2-0.6-1.8-1.2c-0.6-0.6-0.9-1.3-0.9-2.4c0-2.3,1.6-3.8,3.8-3.8c0.8,0,1.5,0.2,2.2,0.7
		c0.5,0.4,1,1,1.3,1.6L184.4,199.6z"/>
</g>
<g>
	<path d="M75.2,231.1h3v0.2c0,0.9-0.2,1.8-0.7,2.5c-0.2,0.3-1,1.4-2.7,1.4c-2.2,0-3.8-1.8-3.8-4.1c0-2.3,1.6-4.1,3.8-4.1
		c0.7,0,1.5,0.2,2.2,0.8c0.3,0.3,0.6,0.6,0.8,0.9l-0.6,0.6c-0.2-0.3-0.5-0.6-0.7-0.8c-0.4-0.3-0.9-0.7-1.8-0.7c-1.8,0-3,1.4-3,3.3
		c0,2.1,1.6,3.2,3,3.2c1,0,1.8-0.5,2.2-1.3c0.1-0.2,0.3-0.6,0.3-1.1h-2.2V231.1z"/>
	<path d="M83.3,227.2c0.5,0,1.2,0,1.8,0.4c0.4,0.3,0.8,0.9,0.8,1.7c0,1.2-0.7,2.1-1.8,2.2l2.3,3.5h-1l-2.2-3.4H83v3.4h-0.8v-7.9
		H83.3z M83,230.8h0.5c1,0,1.6-0.5,1.6-1.4c0-0.4-0.1-0.9-0.6-1.2c-0.3-0.2-0.7-0.2-1.1-0.2H83V230.8z"/>
	<path d="M90.9,232c0,0.7,0,1.4,0.6,1.9c0.3,0.3,0.8,0.4,1.2,0.4s0.9-0.2,1.2-0.4c0.6-0.5,0.6-1.2,0.6-1.9v-4.8h0.8v5.1
		c0,0.7-0.1,1.3-0.5,1.9c-0.4,0.6-1.2,1.1-2.1,1.1s-1.7-0.4-2.1-1.1c-0.4-0.6-0.5-1.2-0.5-1.9v-5.1h0.8V232z"/>
	<path d="M100.9,227.2c0.7,0,1.3,0.1,1.8,0.6c0.5,0.5,0.7,1.2,0.7,1.7c0,1.1-0.6,2.2-2.3,2.2h-0.7v3.4h-0.8v-7.9H100.9z
		 M100.3,230.8h0.7c1,0,1.5-0.5,1.5-1.4c0-1.2-1.1-1.4-1.6-1.4h-0.6V230.8z"/>
	<path d="M106.5,231.1c0-2.3,1.7-4.1,3.8-4.1c2.1,0,3.8,1.7,3.8,4.1c0,2.3-1.7,4.1-3.8,4.1C108.2,235.2,106.5,233.5,106.5,231.1z
		 M107.4,231.1c0,1.8,1.3,3.2,3,3.2c1.6,0,3-1.4,3-3.2c0-1.8-1.3-3.2-3-3.2C108.7,227.9,107.4,229.3,107.4,231.1z"/>
	<path d="M126.3,228.8c-0.1-0.2-0.3-0.4-0.4-0.6c-0.1-0.1-0.4-0.3-0.8-0.3c-0.7,0-1.2,0.5-1.2,1.2c0,0.3,0.1,0.5,0.3,0.7
		c0.2,0.2,0.5,0.4,0.8,0.5l0.7,0.3c0.4,0.2,0.8,0.4,1.1,0.7c0.4,0.4,0.5,0.9,0.5,1.4c0,1.4-1,2.4-2.3,2.4c-0.5,0-1.1-0.1-1.6-0.6
		c-0.4-0.4-0.6-0.9-0.7-1.4l0.8-0.2c0.1,0.4,0.2,0.8,0.4,1c0.3,0.3,0.7,0.4,1.1,0.4c1,0,1.5-0.8,1.5-1.6c0-0.4-0.1-0.7-0.4-0.9
		c-0.2-0.2-0.5-0.4-0.9-0.5l-0.7-0.3c-0.3-0.1-0.6-0.3-1-0.6c-0.3-0.3-0.5-0.7-0.5-1.3c0-1.2,0.9-2,2-2c0.4,0,0.8,0.1,1.2,0.4
		c0.3,0.2,0.5,0.5,0.7,0.9L126.3,228.8z"/>
	<path d="M132.3,231.7l-2.4-4.5h0.9l1.9,3.5l1.9-3.5h0.9l-2.4,4.5v3.4h-0.8V231.7z"/>
	<path d="M142.4,231.1h3v0.2c0,0.9-0.2,1.8-0.7,2.5c-0.2,0.3-1,1.4-2.7,1.4c-2.2,0-3.8-1.8-3.8-4.1c0-2.3,1.6-4.1,3.8-4.1
		c0.7,0,1.5,0.2,2.2,0.8c0.3,0.3,0.6,0.6,0.8,0.9l-0.6,0.6c-0.2-0.3-0.5-0.6-0.7-0.8c-0.4-0.3-0.9-0.7-1.8-0.7c-1.8,0-3,1.4-3,3.3
		c0,2.1,1.6,3.2,3,3.2c1,0,1.8-0.5,2.2-1.3c0.1-0.2,0.3-0.6,0.3-1.1h-2.2V231.1z"/>
	<path d="M149.4,235.1v-8.2l5.7,6.4v-6.1h0.8v8.2l-5.7-6.4v6.1H149.4z"/>
	<path d="M159.8,231.1c0-2.3,1.7-4.1,3.8-4.1s3.8,1.7,3.8,4.1c0,2.3-1.7,4.1-3.8,4.1C161.5,235.2,159.8,233.5,159.8,231.1z
		 M160.6,231.1c0,1.8,1.3,3.2,3,3.2c1.6,0,3-1.4,3-3.2c0-1.8-1.3-3.2-3-3.2C161.9,227.9,160.6,229.3,160.6,231.1z"/>
	<path d="M174.6,228.8c-0.1-0.2-0.3-0.4-0.4-0.6c-0.1-0.1-0.4-0.3-0.8-0.3c-0.7,0-1.2,0.5-1.2,1.2c0,0.3,0.1,0.5,0.3,0.7
		c0.2,0.2,0.5,0.4,0.8,0.5l0.7,0.3c0.4,0.2,0.8,0.4,1.1,0.7c0.4,0.4,0.5,0.9,0.5,1.4c0,1.4-1,2.4-2.3,2.4c-0.5,0-1.1-0.1-1.6-0.6
		c-0.4-0.4-0.6-0.9-0.7-1.4l0.8-0.2c0.1,0.4,0.2,0.8,0.4,1c0.3,0.3,0.7,0.4,1.1,0.4c1,0,1.5-0.8,1.5-1.6c0-0.4-0.1-0.7-0.4-0.9
		c-0.2-0.2-0.5-0.4-0.9-0.5l-0.7-0.3c-0.3-0.1-0.6-0.3-1-0.6c-0.3-0.3-0.5-0.7-0.5-1.3c0-1.2,0.9-2,2-2c0.4,0,0.8,0.1,1.2,0.4
		c0.3,0.2,0.5,0.5,0.7,0.9L174.6,228.8z"/>
</g>
<g>
	<path class="st2" d="M350.6,222.5c-0.8,0-1.5,0-2.3,0c-0.5,0-0.9,0.4-0.9,0.8v10.6c0,0.5,0.4,0.8,0.8,0.8h43.4
		c0.5,0,0.8-0.4,0.8-0.8v-20.1c0-0.6-0.7-1-1.2-0.7C379,219.1,365.2,222.5,350.6,222.5z"/>
	<g>
		<g>
			<path class="st3" d="M354.2,230.1c-0.2,0.5-0.6,1-1.4,1c-1,0-1.5-0.7-1.5-1.6c0-0.9,0.6-1.6,1.5-1.6c0.9,0,1.3,0.6,1.4,1h-0.3
				c-0.1-0.3-0.4-0.7-1.1-0.7c-0.7,0-1.2,0.5-1.2,1.3c0,0.7,0.4,1.3,1.2,1.3c0.6,0,0.9-0.3,1.1-0.7H354.2z"/>
			<path class="st3" d="M356.9,228.8c0-0.3,0-0.5,0-0.8h0.3c0,0.1,0,0.4,0,0.7c0.2-0.5,0.7-0.8,1.3-0.8v0.4c-0.7,0-1.3,0.5-1.3,1.4
				v1.3h-0.3V228.8z"/>
			<path class="st3" d="M361.1,229.6c0,0.7,0.5,1.2,1.2,1.2c0.5,0,0.8-0.2,1-0.6h0.3c-0.2,0.4-0.6,0.9-1.4,0.9c-1,0-1.5-0.8-1.5-1.6
				c0-0.9,0.6-1.6,1.5-1.6c1.1,0,1.5,0.9,1.5,1.6c0,0,0,0.1,0,0.1H361.1z M363.3,229.3c0-0.4-0.3-1.1-1.1-1.1
				c-0.7,0-1.1,0.5-1.1,1.1H363.3z"/>
			<path class="st3" d="M366.5,230.1c0.1,0.4,0.5,0.7,1.1,0.7c0.7,0,0.9-0.2,0.9-0.6c0-0.3-0.2-0.5-1-0.6c-1-0.1-1.2-0.5-1.2-0.8
				c0-0.3,0.3-0.8,1.2-0.8c1,0,1.3,0.6,1.3,0.9h-0.4c0-0.2-0.2-0.6-1-0.6c-0.7,0-0.8,0.3-0.8,0.5c0,0.3,0.2,0.4,0.9,0.5
				c1.1,0.1,1.3,0.4,1.3,0.9c0,0.5-0.4,0.9-1.3,0.9c-0.9,0-1.3-0.4-1.5-1H366.5z"/>
			<path class="st3" d="M374.3,230.1c-0.2,0.5-0.6,1-1.4,1c-1,0-1.5-0.7-1.5-1.6c0-0.9,0.6-1.6,1.5-1.6c0.9,0,1.3,0.6,1.4,1H374
				c-0.1-0.3-0.4-0.7-1.1-0.7c-0.7,0-1.2,0.5-1.2,1.3c0,0.7,0.4,1.3,1.2,1.3c0.6,0,0.9-0.3,1.1-0.7H374.3z"/>
			<path class="st3" d="M377.1,229.6c0,0.7,0.5,1.2,1.2,1.2c0.5,0,0.8-0.2,1-0.6h0.3c-0.2,0.4-0.6,0.9-1.4,0.9c-1,0-1.5-0.8-1.5-1.6
				c0-0.9,0.6-1.6,1.5-1.6c1.1,0,1.5,0.9,1.5,1.6c0,0,0,0.1,0,0.1H377.1z M379.4,229.3c0-0.4-0.3-1.1-1.1-1.1
				c-0.7,0-1.1,0.5-1.1,1.1H379.4z"/>
			<path class="st3" d="M382.5,228.8c0-0.3,0-0.5,0-0.8h0.3c0,0.1,0,0.4,0,0.7c0.2-0.5,0.7-0.8,1.3-0.8v0.4c-0.7,0-1.3,0.5-1.3,1.4
				v1.3h-0.3V228.8z"/>
			<path class="st3" d="M389,230.3c0,0.2,0,0.6,0,0.7h-0.3c0-0.1,0-0.4,0-0.5c-0.2,0.3-0.5,0.6-1.2,0.6c-0.9,0-1.2-0.5-1.2-1
				c0-0.8,0.7-1,1.5-1c0.4,0,0.7,0,0.8,0v-0.2c0-0.4-0.2-0.8-0.9-0.8c-0.7,0-0.8,0.3-0.9,0.6h-0.3c0-0.4,0.3-1,1.3-1
				c1,0,1.2,0.5,1.2,1V230.3z M388.7,229.4c-0.1,0-0.3,0-0.8,0c-0.8,0-1.2,0.2-1.2,0.7c0,0.4,0.3,0.7,0.8,0.7c1,0,1.1-0.6,1.1-1.2
				V229.4z"/>
		</g>
	</g>
	<g>
		<path d="M260.9,225.4v3.9c0,0.6,0.2,1.2,0.9,1.2c0.7,0,0.9-0.5,0.9-1.2v-3.9h0.6v3.9c0,1-0.4,1.7-1.5,1.7c-1.1,0-1.5-0.7-1.5-1.7
			v-4H260.9z"/>
		<path d="M266.2,228.1c0-0.7,0-1.1,0-1.2h0.6c0,0.1,0,0.3,0,0.5c0.2-0.4,0.5-0.6,0.9-0.6c0.4,0,0.7,0.2,0.9,0.6
			c0.1-0.3,0.5-0.6,1-0.6c0.5,0,1,0.3,1,1.2v3H270v-2.9c0-0.4-0.1-0.8-0.6-0.8c-0.5,0-0.7,0.5-0.7,1v2.7h-0.6v-2.9
			c0-0.5-0.2-0.8-0.6-0.8c-0.5,0-0.7,0.5-0.7,1.1v2.6h-0.6V228.1z"/>
		<path d="M275.9,230.2c0,0.3,0,0.6,0,0.7h-0.5c0-0.1,0-0.3,0-0.5c-0.2,0.3-0.5,0.5-1,0.5c-0.8,0-1.1-0.6-1.1-1.2
			c0-0.8,0.5-1.3,1.6-1.3c0.2,0,0.3,0,0.4,0V228c0-0.3-0.1-0.7-0.6-0.7c-0.6,0-0.6,0.4-0.7,0.7h-0.6c0-0.6,0.3-1.2,1.3-1.2
			c0.8,0,1.2,0.4,1.2,1.2V230.2z M275.3,229c-0.1,0-0.2,0-0.4,0c-0.7,0-1,0.4-1,0.8c0,0.4,0.2,0.7,0.6,0.7c0.6,0,0.8-0.4,0.8-1.3
			V229z"/>
		<path d="M282.4,226.8h0.6v4.2h-0.6V226.8z M282.4,225.1h0.6v0.9h-0.6V225.1z"/>
		<path d="M285.9,228.1c0-0.9,0-1.1,0-1.3h0.6c0,0.1,0,0.3,0,0.5c0.1-0.3,0.4-0.6,1-0.6c0.6,0,1.1,0.3,1.1,1.3v3H288v-2.8
			c0-0.5-0.2-0.9-0.6-0.9c-0.6,0-0.8,0.4-0.8,1.2v2.5h-0.6V228.1z"/>
		<path d="M291.7,226.8c0.3,1.3,0.8,3,0.8,3.5h0c0.1-0.5,0.7-2.6,0.9-3.5h0.6l-1.2,4.2h-0.7l-1.1-4.2H291.7z"/>
		<path d="M296.9,229c0,0.8,0.1,1.5,0.8,1.5c0.7,0,0.7-0.6,0.8-0.7h0.6c0,0.1-0.1,1.3-1.4,1.3c-1.2,0-1.4-1.1-1.4-2.2
			c0-1.3,0.5-2.1,1.4-2.1c1.1,0,1.4,0.9,1.4,1.9c0,0.1,0,0.2,0,0.3H296.9z M298.5,228.5c0-0.7-0.2-1.3-0.8-1.3c-0.8,0-0.8,1-0.8,1.3
			H298.5z"/>
		<path d="M302.2,229.8c0,0.4,0.3,0.8,0.7,0.8c0.5,0,0.7-0.3,0.7-0.7c0-0.4-0.2-0.6-0.8-0.8c-0.9-0.3-1.1-0.6-1.1-1.2
			c0-0.6,0.3-1.1,1.2-1.1c0.9,0,1.2,0.6,1.2,1.2h-0.6c0-0.2-0.1-0.7-0.6-0.7c-0.4,0-0.6,0.2-0.6,0.6c0,0.3,0.1,0.5,0.7,0.7
			c0.8,0.3,1.2,0.6,1.2,1.3c0,0.8-0.5,1.2-1.3,1.2c-0.9,0-1.3-0.5-1.3-1.3H302.2z"/>
		<path d="M306.4,226.8h0.6v-1.1h0.6v1.1h0.7v0.5h-0.7v2.7c0,0.3,0.1,0.5,0.4,0.5c0.1,0,0.2,0,0.3,0v0.5c-0.1,0.1-0.4,0.1-0.5,0.1
			c-0.5,0-0.8-0.2-0.8-0.9v-2.8h-0.6V226.8z"/>
		<path d="M310.9,226.8h0.6v4.2h-0.6V226.8z M310.9,225.1h0.6v0.9h-0.6V225.1z"/>
		<path d="M317.1,225.1v4.8c0,0.4,0,0.8,0,1.1h-0.6c0-0.1,0-0.4,0-0.6c-0.1,0.4-0.4,0.6-1,0.6c-0.9,0-1.2-0.7-1.2-2.2
			c0-1.3,0.5-2.1,1.4-2.1c0.5,0,0.7,0.2,0.8,0.4v-2H317.1z M314.9,228.9c0,1.2,0.3,1.7,0.8,1.7c0.6,0,0.8-0.6,0.8-1.7
			c0-1.2-0.2-1.6-0.8-1.6C315.2,227.3,314.9,227.7,314.9,228.9z"/>
		<path d="M322.4,230.2c0,0.3,0,0.6,0,0.7h-0.5c0-0.1,0-0.3,0-0.5c-0.2,0.3-0.5,0.5-1,0.5c-0.8,0-1.1-0.6-1.1-1.2
			c0-0.8,0.5-1.3,1.6-1.3c0.2,0,0.3,0,0.4,0V228c0-0.3-0.1-0.7-0.6-0.7c-0.6,0-0.6,0.4-0.7,0.7h-0.6c0-0.6,0.3-1.2,1.3-1.2
			c0.8,0,1.2,0.4,1.2,1.2V230.2z M321.8,229c-0.1,0-0.2,0-0.4,0c-0.7,0-1,0.4-1,0.8c0,0.4,0.2,0.7,0.6,0.7c0.6,0,0.8-0.4,0.8-1.3
			V229z"/>
		<path d="M331.5,225.1v4.8c0,0.4,0,0.8,0,1.1h-0.6c0-0.1,0-0.4,0-0.6c-0.1,0.4-0.4,0.6-1,0.6c-0.9,0-1.2-0.7-1.2-2.2
			c0-1.3,0.5-2.1,1.4-2.1c0.5,0,0.7,0.2,0.8,0.4v-2H331.5z M329.3,228.9c0,1.2,0.3,1.7,0.8,1.7c0.6,0,0.8-0.6,0.8-1.7
			c0-1.2-0.2-1.6-0.8-1.6C329.6,227.3,329.3,227.7,329.3,228.9z"/>
		<path d="M336.8,230.2c0,0.3,0,0.6,0,0.7h-0.5c0-0.1,0-0.3,0-0.5c-0.2,0.3-0.5,0.5-1,0.5c-0.8,0-1.1-0.6-1.1-1.2
			c0-0.8,0.5-1.3,1.6-1.3c0.2,0,0.3,0,0.4,0V228c0-0.3-0.1-0.7-0.6-0.7c-0.6,0-0.6,0.4-0.7,0.7h-0.6c0-0.6,0.3-1.2,1.3-1.2
			c0.8,0,1.2,0.4,1.2,1.2V230.2z M336.2,229c-0.1,0-0.2,0-0.4,0c-0.7,0-1,0.4-1,0.8c0,0.4,0.2,0.7,0.6,0.7c0.6,0,0.8-0.4,0.8-1.3
			V229z"/>
	</g>
	<g>
		<g>
			<path class="st2" d="M399.1,229.9c0,0.2-0.1,1.2-1.1,1.2c-1.1,0-1.2-1.1-1.2-2.1c0-1.2,0.3-2.1,1.2-2.1c1,0,1,0.9,1,1.2h-0.5
				c0-0.1,0-0.8-0.6-0.8c-0.6,0-0.7,0.9-0.7,1.7c0,0.9,0.1,1.7,0.7,1.7c0.5,0,0.6-0.6,0.6-0.8H399.1z"/>
			<path class="st2" d="M403.8,229.7l-0.3,1.3H403l1-4.1h0.6l1,4.1h-0.5l-0.3-1.3H403.8z M404.8,229.3c-0.2-1-0.4-1.6-0.4-2h0
				c-0.1,0.4-0.2,1.1-0.4,2H404.8z"/>
			<path class="st2" d="M409.7,226.9h1.1c0.6,0,1.1,0.4,1.1,1.1c0,0.7-0.4,1.2-1.1,1.2h-0.5v1.8h-0.4V226.9z M410.1,228.8h0.5
				c0.5,0,0.7-0.3,0.7-0.8c0-0.5-0.2-0.8-0.7-0.8h-0.5V228.8z"/>
			<path class="st2" d="M416.4,226.9v4.1H416v-4.1H416.4z"/>
			<path class="st2" d="M421.4,227.3h-0.9v-0.4h2.3v0.4h-0.9v3.7h-0.4V227.3z"/>
			<path class="st2" d="M426.8,229.7l-0.3,1.3h-0.4l1-4.1h0.6l1,4.1h-0.5l-0.3-1.3H426.8z M427.8,229.3c-0.2-1-0.4-1.6-0.4-2h0
				c-0.1,0.4-0.2,1.1-0.4,2H427.8z"/>
			<path class="st2" d="M432.7,226.9h0.4v3.7h1.5l-0.1,0.4h-1.8V226.9z"/>
		</g>
	</g>
</g>
<g>
	<g>
		<path class="st2" d="M439.3,160.8c0-0.6,0.2-1.2-0.4-1.6c-0.7-0.4-1.2,0.1-1.7,0.4c-8.1,4.8-16.1,9.8-24.2,14.5
			c-17.2,9.9-34.9,10.4-52.6,1.6c-8.5-4.2-16.7-8.9-25.1-13.4c-8.7-4.7-18-7.2-27.8-7.4c-1.6,0-1.6,0-1-1.5
			c6.5-17.5,13-35,19.6-52.5c1.4-3.8,2.3-7.5,2-11.5c-0.1-1.5-0.2-1.7-1.8-1.7c-4.4,0-8.7,0-13.1,0c-4.5,0-8.9,0-13.4,0
			c-1.2,0-1.7,0.4-1.6,1.6c0.1,1.3,0,2.6,0,3.9c0,2.3,0,2.3,2.2,2.3c5.7,0,11.5,0,17.2,0c1.6,0,1.9,0.4,1.3,1.9
			c-6.4,17.3-12.9,34.6-19.3,51.9c-1.4,3.8-3.1,7.5-2.6,11.8c0.1,1.1,0.4,1.7,1.6,1.6c2.1-0.1,4.2,0,6.4,0
			c9.6-0.1,18.5,2.2,26.9,6.7c8,4.3,15.9,8.7,24,12.9c19,9.8,38.2,10.1,57.3,0.6c8.7-4.4,16.8-10,25.3-14.9c0.6-0.3,0.8-0.8,0.7-1.4
			C439.3,164.6,439.3,162.7,439.3,160.8z"/>
		<path class="st2" d="M337.3,158.1c2.5,0,4.9,0,7.4,0c6.4,0,12.7,0,19.1,0c1.2,0,1.7-0.4,1.6-1.6c-0.1-1.5,0-2.9,0-4.4
			c0-1.8-0.1-1.8-1.8-1.8c-6.2,0-12.3,0-18.5,0c-1.6,0-1.7-0.2-1.7-1.7c0-6.8,0-13.7,0-20.5c0-1.5,0.2-1.7,1.6-1.7
			c3.5,0,7.1,0,10.6,0c1.1,0,1.5-0.4,1.5-1.5c-0.1-1.6-0.1-3.2,0-4.7c0.1-1.2-0.4-1.6-1.6-1.6c-3.5,0.1-6.9,0-10.4,0
			c-1.7,0-1.8-0.1-1.8-1.8c0-6.5,0-13,0-19.5c0-1.9,0.1-2,2-2c6.2,0,12.4,0,18.6,0c1.1,0,1.5-0.4,1.5-1.5c-0.1-1.5,0-3,0-4.5
			c0-1.8-0.1-1.8-1.8-1.8c-8.7,0-17.4,0-26.1,0c-1.8,0-1.8,0.1-1.8,1.8c0,11.1,0,22.2,0,33.4c0,11.2,0,22.3,0,33.5
			C335.6,157.9,335.7,158.1,337.3,158.1z"/>
		<path class="st2" d="M375.1,158.1c9.1,0,18.2,0,27.3,0c0.9,0,1.3-0.4,1.3-1.3c0-1.6,0-3.2,0-4.7c0-1.6-0.1-1.8-1.8-1.8
			c-6.1,0-12.3,0-18.4,0c-1.8,0-1.9-0.1-1.9-1.9c0-10.1,0-20.2,0-30.3c0-9.6,0-19.3,0-28.9c0-1.2-0.4-1.7-1.6-1.6
			c-1.4,0.1-2.7,0-4.1,0c-2,0-2.1,0-2.1,2c0,11.1,0,22.2,0,33.3c0,3.5,0,6.9,0,10.4c0,7.7,0,15.4,0,23.1
			C373.8,157.4,373.9,158.1,375.1,158.1z"/>
		<path class="st2" d="M245.4,118.1c1.1-0.1,1.7,0.6,1.7,1.7c0.1,1.2,1,0.6,1.5,0.7c0.6,0.1,0.9-0.1,0.9-0.8c0-2.1-1.4-3.6-3.7-3.7
			c-2.5-0.1-4.2,1.2-4.3,3.3c-0.1,1.1,0,2.2,0,3.4c0,1,0,2.1,0,3.1c0,1.7,1,2.9,2.5,3.3c3.1,0.9,5.4-0.8,5.4-4c0-3,0-3-3-2.9
			c-0.5,0-1.1-0.1-1,0.7c0.1,0.6-0.4,1.6,0.9,1.5c0.5,0,0.7,0.2,0.7,0.8c0,1.2-0.4,1.9-1.4,2c-1,0.1-1.7-0.5-1.7-1.8
			c0-1.7,0-3.5,0-5.2C244,119,244.3,118.2,245.4,118.1z"/>
		<path class="st2" d="M268.4,116c-1.1-0.1-1.4,0.3-1.4,1.4c0.1,2.6,0.1,5.2,0,7.7c0,1.5-1.1,2.3-2.2,1.8c-0.8-0.4-0.9-1.1-0.9-1.9
			c0-2.7,0-5.4,0-8.1c0-0.9-0.5-0.9-1.1-0.8c-0.6,0-1.3-0.3-1.3,0.8c0,3-0.1,6,0.1,9c0.1,2.2,1.7,3.5,4.1,3.4
			c2.3-0.1,3.8-1.3,3.8-3.5c0.1-1.5,0-2.9,0-4.4c0,0,0,0,0,0c0-1.4,0-2.8,0-4.2C269.4,116.3,269.2,116,268.4,116z"/>
		<path class="st2" d="M414.5,157.5c11.6,5.5,24.8-3.1,24.9-16c0-6,0-12.1,0-18.1c0-6.1,0-12.2,0-18.2c0-9.6-7.7-17.4-17.2-17.5
			c-9.6-0.1-17.6,7.7-17.7,17.3c-0.1,12.3-0.2,24.6,0,36.9C404.6,148.8,408,154.4,414.5,157.5z M412.2,105c0-5.7,4.2-9.7,9.8-9.7
			c5.4,0,9.6,4.4,9.6,9.9c0,6,0,12.1,0,18.1c0,6.1,0,12.2,0,18.4c0,4-2.6,7.5-6.3,8.9c-3.8,1.4-8.2,0.3-10.7-2.6
			c-1.6-1.8-2.3-4-2.3-6.4C412.1,129.5,412.1,117.3,412.2,105z"/>
		<path class="st2" d="M259.1,118.2c-0.5-1.5-1.9-2-3.4-2.1c-1-0.1-2.1,0-3.1,0c-0.8-0.1-1.2,0.2-1.2,1.1c0.1,1.8,0,3.6,0,5.4
			c0,2,0,3.9,0,5.9c0,1,0.7,0.8,1.2,0.8c0.5,0,1.2,0.2,1.2-0.8c0-1,0-2.1,0-3.1c0-0.5-0.2-1.1,0.6-1.1c0.6,0,1.2-0.1,1.4,0.8
			c0.2,1.1,0.6,2.2,0.9,3.4c0.3,1.3,1.3,0.8,2,0.7c0.9-0.1,0.3-0.8,0.2-1.2c-0.2-1.1-0.5-2.2-0.8-3.3c-0.2-0.7-0.1-1.2,0.4-1.8
			C259.8,121.5,259.7,119.8,259.1,118.2z M255,122c-1.7,0.1-0.9-1.2-1.1-1.9c0.2-0.7-0.6-2,1.1-1.9c1.4,0.1,2.1,0.6,2.1,1.9
			C257.1,121.4,256.4,121.9,255,122z"/>
		<path class="st2" d="M285.1,115.9c-2.1,0.1-3.5,1.3-3.6,3.3c-0.1,1.1,0,2.2,0,3.4c0,0,0,0,0,0c0,1.2-0.1,2.3,0,3.5
			c0.1,1.9,1.5,3.1,3.6,3.2c2.2,0.1,3.9-0.9,4.1-2.8c0.3-2.6,0.3-5.2,0-7.7C289.1,116.8,287.4,115.8,285.1,115.9z M287,125.4
			c-0.1,0.9-0.5,1.6-1.5,1.7c-1.1,0-1.6-0.7-1.6-1.6c-0.1-1.9-0.1-3.7,0-5.6c0-1,0.5-1.7,1.6-1.7c1,0,1.5,0.7,1.5,1.6
			c0.1,1,0,1.9,0,2.9C287,123.5,287,124.5,287,125.4z"/>
		<path class="st2" d="M276.2,116.1c-1.2-0.1-2.4,0-3.6-0.1c-0.8,0-1,0.3-1,1c0,1.8,0,3.7,0,5.5c0,1.8,0,3.7,0,5.5
			c0,0.8,0.2,1.1,1.1,1.2c1.1,0.1,1.5-0.3,1.3-1.4c-0.1-0.5,0-1,0-1.5c-0.2-1.2,0.3-1.5,1.4-1.4c2.8,0,4.1-1.4,4.1-4.1
			c0-0.3,0-0.6,0-0.9C279.6,117.7,278.3,116.3,276.2,116.1z M275.4,122.7c-1.1,0.1-1.5-0.3-1.4-1.4c0-0.3,0-0.6,0-0.9
			c0-0.2,0-0.4,0-0.6c0.1-0.6-0.5-1.5,0.8-1.6c1.4-0.1,2.1,0.3,2.4,1.5C277.6,121.5,276.9,122.5,275.4,122.7z"/>
	</g>
</g>
</svg>
