<?xml version="1.0" encoding="utf-8"?>
<!-- Generator: Adobe Illustrator 25.2.3, SVG Export Plug-In . SVG Version: 6.00 Build 0)  -->
<svg version="1.1" id="Layer_1" xmlns="http://www.w3.org/2000/svg" xmlns:xlink="http://www.w3.org/1999/xlink" x="0px" y="0px"
	 viewBox="0 0 500 300" style="enable-background:new 0 0 500 300;" xml:space="preserve">
<style type="text/css">
	.st0{fill:#231F20;}
	.st1{fill:#EC1C24;}
	.st2{fill:#FFFFFF;}
</style>
<g>
	<g>
		<path class="st0" d="M135.8,223.7l5.3-0.5c0.3,1.8,1,3.1,1.9,3.9c1,0.8,2.3,1.2,3.9,1.2c1.7,0,3.1-0.4,3.9-1.1
			c0.9-0.7,1.3-1.6,1.3-2.6c0-0.6-0.2-1.2-0.6-1.6c-0.4-0.4-1-0.8-2-1.2c-0.6-0.2-2.1-0.6-4.3-1.2c-2.9-0.7-4.9-1.6-6.1-2.7
			c-1.6-1.5-2.5-3.3-2.5-5.4c0-1.4,0.4-2.6,1.2-3.8c0.8-1.2,1.9-2.1,3.4-2.7c1.5-0.6,3.2-0.9,5.3-0.9c3.4,0,5.9,0.7,7.6,2.2
			c1.7,1.5,2.6,3.4,2.7,5.9l-5.4,0.2c-0.2-1.4-0.7-2.4-1.5-3c-0.8-0.6-1.9-0.9-3.4-0.9c-1.6,0-2.8,0.3-3.7,1c-0.6,0.4-0.9,1-0.9,1.7
			c0,0.6,0.3,1.2,0.8,1.6c0.7,0.6,2.3,1.2,5,1.8c2.6,0.6,4.6,1.3,5.9,1.9c1.3,0.7,2.3,1.6,3,2.7c0.7,1.2,1.1,2.6,1.1,4.3
			c0,1.5-0.4,3-1.3,4.3c-0.9,1.3-2.1,2.3-3.6,3c-1.6,0.7-3.5,1-5.8,1c-3.4,0-6-0.8-7.8-2.4C137.2,229,136.1,226.7,135.8,223.7z"/>
		<path class="st0" d="M186.4,232.5h-5.9l-2.3-6.1h-10.7l-2.2,6.1h-5.8l10.5-26.8h5.7L186.4,232.5z M176.5,221.8l-3.7-10l-3.6,10
			H176.5z"/>
		<path class="st0" d="M198.4,232.5v-26.8h8.7c3.3,0,5.4,0.1,6.4,0.4c1.5,0.4,2.8,1.3,3.9,2.6c1,1.3,1.6,3.1,1.6,5.2
			c0,1.6-0.3,3-0.9,4.2c-0.6,1.1-1.4,2-2.3,2.6c-0.9,0.6-1.9,1.1-2.8,1.3c-1.3,0.3-3.2,0.4-5.6,0.4h-3.5v10.1H198.4z M203.8,210.2
			v7.6h3c2.1,0,3.6-0.1,4.3-0.4s1.3-0.7,1.7-1.3c0.4-0.6,0.6-1.3,0.6-2.1c0-1-0.3-1.8-0.9-2.4s-1.3-1-2.2-1.2
			c-0.6-0.1-1.9-0.2-3.9-0.2H203.8z"/>
		<path class="st0" d="M244.9,232.5H239l-2.3-6.1h-10.7l-2.2,6.1H218l10.5-26.8h5.7L244.9,232.5z M234.9,221.8l-3.7-10l-3.6,10
			H234.9z"/>
		<path class="st0" d="M247.8,205.6h5.4v14.5c0,2.3,0.1,3.8,0.2,4.5c0.2,1.1,0.8,2,1.7,2.6c0.9,0.7,2.1,1,3.6,1
			c1.5,0,2.7-0.3,3.5-0.9c0.8-0.6,1.3-1.4,1.4-2.3c0.2-0.9,0.2-2.4,0.2-4.6v-14.9h5.4v14.1c0,3.2-0.1,5.5-0.4,6.8
			c-0.3,1.3-0.8,2.5-1.6,3.4c-0.8,0.9-1.8,1.6-3.2,2.2c-1.3,0.5-3,0.8-5.2,0.8c-2.6,0-4.5-0.3-5.8-0.9c-1.3-0.6-2.4-1.4-3.1-2.3
			c-0.8-0.9-1.3-1.9-1.5-3c-0.4-1.5-0.5-3.8-0.5-6.8V205.6z"/>
		<path class="st0" d="M275.1,232.5v-26.6h5.4v22.1H294v4.5H275.1z"/>
		<path class="st0" d="M297.7,232.5v-26.8h5.4v26.8H297.7z"/>
		<path class="st0" d="M307,223.7l5.3-0.5c0.3,1.8,1,3.1,1.9,3.9c1,0.8,2.3,1.2,3.9,1.2c1.7,0,3.1-0.4,3.9-1.1
			c0.9-0.7,1.3-1.6,1.3-2.6c0-0.6-0.2-1.2-0.6-1.6c-0.4-0.4-1-0.8-2-1.2c-0.6-0.2-2.1-0.6-4.3-1.2c-2.9-0.7-4.9-1.6-6.1-2.7
			c-1.6-1.5-2.5-3.3-2.5-5.4c0-1.4,0.4-2.6,1.2-3.8c0.8-1.2,1.9-2.1,3.4-2.7c1.5-0.6,3.2-0.9,5.3-0.9c3.4,0,5.9,0.7,7.6,2.2
			c1.7,1.5,2.6,3.4,2.7,5.9l-5.4,0.2c-0.2-1.4-0.7-2.4-1.5-3c-0.8-0.6-1.9-0.9-3.4-0.9c-1.6,0-2.8,0.3-3.7,1c-0.6,0.4-0.9,1-0.9,1.7
			c0,0.6,0.3,1.2,0.8,1.6c0.7,0.6,2.3,1.2,5,1.8c2.6,0.6,4.6,1.3,5.9,1.9c1.3,0.7,2.3,1.6,3,2.7c0.7,1.2,1.1,2.6,1.1,4.3
			c0,1.5-0.4,3-1.3,4.3c-0.9,1.3-2.1,2.3-3.6,3c-1.6,0.7-3.5,1-5.8,1c-3.4,0-6-0.8-7.8-2.4C308.4,229,307.3,226.7,307,223.7z"/>
		<path class="st0" d="M339.4,232.5v-22.3h-8v-4.5h21.3v4.5h-7.9v22.3H339.4z"/>
		<path class="st0" d="M377.8,232.5h-5.9l-2.3-6.1h-10.7l-2.2,6.1h-5.8l10.5-26.8h5.7L377.8,232.5z M367.8,221.8l-3.7-10l-3.6,10
			H367.8z"/>
	</g>
	<rect x="134.5" y="64.5" class="st1" width="241.5" height="134.8"/>
	<path class="st2" d="M325,69.4H138.7v38.9v11.5h181c3.2,0,5.9,2.6,5.9,5.9v1.4c0,3.2-2.6,5.9-5.9,5.9h-181v32v31h94.2v-31H325
		c26.3,0,47.8-21.5,47.8-47.8v0C372.7,90.9,351.2,69.4,325,69.4z"/>
</g>
<g>
</g>
<g>
</g>
<g>
</g>
<g>
</g>
<g>
</g>
<g>
</g>
<g>
</g>
<g>
</g>
<g>
</g>
<g>
</g>
<g>
</g>
<g>
</g>
<g>
</g>
<g>
</g>
<g>
</g>
</svg>
