<?xml version="1.0" encoding="utf-8"?>
<!-- Generator: Adobe Illustrator 25.3.1, SVG Export Plug-In . SVG Version: 6.00 Build 0)  -->
<svg version="1.1" id="Layer_1" xmlns="http://www.w3.org/2000/svg" xmlns:xlink="http://www.w3.org/1999/xlink" x="0px" y="0px"
	 viewBox="0 0 500 300" style="enable-background:new 0 0 500 300;" xml:space="preserve">
<style type="text/css">
	.st0{fill:#99CD35;}
</style>
<g>
	<g>
		<circle class="st0" cx="108.7" cy="146.9" r="23.3"/>
		<path d="M108.7,129.4c9.6,0,17.5,7.8,17.5,17.5c0,9.6-7.8,17.5-17.5,17.5s-17.5-7.8-17.5-17.5C91.2,137.3,99.1,129.4,108.7,129.4
			 M108.7,123.6c-12.9,0-23.3,10.4-23.3,23.3c0,12.9,10.4,23.3,23.3,23.3c12.9,0,23.3-10.4,23.3-23.3
			C132,134,121.6,123.6,108.7,123.6L108.7,123.6z"/>
	</g>
	<g>
		<circle class="st0" cx="155.3" cy="120" r="23.3"/>
		<path d="M155.3,102.5c9.6,0,17.5,7.8,17.5,17.5s-7.8,17.5-17.5,17.5s-17.5-7.8-17.5-17.5S145.7,102.5,155.3,102.5 M155.3,96.7
			c-12.9,0-23.3,10.4-23.3,23.3s10.4,23.3,23.3,23.3c12.9,0,23.3-10.4,23.3-23.3S168.2,96.7,155.3,96.7L155.3,96.7z"/>
	</g>
	<g>
		<circle class="st0" cx="155.3" cy="176.1" r="23.3"/>
		<path d="M155.3,158.6c9.6,0,17.5,7.8,17.5,17.5c0,9.6-7.8,17.5-17.5,17.5s-17.5-7.8-17.5-17.5
			C137.8,166.5,145.7,158.6,155.3,158.6 M155.3,152.8c-12.9,0-23.3,10.4-23.3,23.3c0,12.9,10.4,23.3,23.3,23.3
			c12.9,0,23.3-10.4,23.3-23.3C178.6,163.2,168.2,152.8,155.3,152.8L155.3,152.8z"/>
	</g>
	<g>
		<path d="M239.4,123c-0.9,0-1.6,0.3-2.1,0.8c-0.5,0.6-0.7,1.2-0.7,2v5.9c-0.9-1.7-2.1-3.3-3.6-4.7c-1.7-1.6-3.8-2.9-6.1-3.8
			c-2.3-0.9-4.8-1.4-7.5-1.4c-4.1,0-7.8,1.1-11.1,3.2c-3.3,2.1-5.9,5-7.8,8.7c-1.9,3.7-2.9,8-2.9,12.8c0,4.7,0.9,9,2.8,12.8
			c1.9,3.8,4.5,6.8,7.8,8.9c3.3,2.2,7.1,3.3,11.2,3.3c2.7,0,5.1-0.5,7.4-1.4c2.3-1,4.2-2.2,5.9-3.8c1.6-1.5,2.9-3.1,3.8-4.8v6.3
			c0,0.7,0.2,1.4,0.7,2c0.5,0.6,1.2,0.8,2.1,0.8c0.7,0,1.4-0.3,2-0.8c0.6-0.6,0.8-1.2,0.8-2v-41.9c0-0.8-0.3-1.5-0.8-2
			C240.9,123.2,240.2,123,239.4,123z M228.8,163.7c-2.5,1.7-5.5,2.6-8.8,2.6c-3.3,0-6.2-0.9-8.8-2.6c-2.6-1.7-4.6-4.1-6-7.1
			c-1.4-3-2.1-6.4-2.1-10.1c0-3.8,0.7-7.1,2.2-10.1c1.5-2.9,3.5-5.2,6.1-6.9c2.6-1.7,5.5-2.5,8.7-2.5c3.3,0,6.2,0.9,8.8,2.6
			c2.5,1.7,4.6,4.1,6,7c1.5,2.9,2.2,6.2,2.2,9.9c0,3.7-0.7,7.1-2.2,10.1C233.4,159.7,231.4,162,228.8,163.7z"/>
		<path d="M292.5,145.9h-13c-0.8,0-1.4,0.2-2,0.7c-0.6,0.5-0.9,1.2-0.9,2c0,0.7,0.3,1.4,0.8,1.9c0.5,0.5,1.2,0.8,2,0.8h10l0.3,12.1
			c-1.4,0.9-3,1.5-4.8,2.1c-2,0.6-4,0.9-5.9,0.9c-3.7,0-7.1-0.9-10-2.6c-2.9-1.7-5.2-4-6.9-7c-1.7-3-2.5-6.4-2.5-10.1
			c0-3.8,0.8-7.2,2.5-10.1c1.6-3,4-5.3,6.9-7c2.9-1.7,6.3-2.6,10-2.6c2,0,3.8,0.2,5.6,0.7c1.7,0.5,3.4,1.1,4.9,2
			c0.2,0.1,0.4,0.2,0.7,0.3c0.9,0.3,1.9,0.1,2.7-0.6c0.6-0.5,0.8-1.2,0.8-2.1c0-0.4-0.1-0.9-0.3-1.3c-0.2-0.4-0.5-0.7-1-1
			c-1.8-1.2-3.9-2.1-6.2-2.6c-2.3-0.6-4.7-0.9-7.1-0.9c-3.6,0-6.9,0.6-10,1.9c-3.1,1.3-5.8,3-8,5.3c-2.3,2.3-4,5-5.3,8
			c-1.3,3.1-1.9,6.4-1.9,10c0,3.6,0.6,6.9,1.9,10c1.3,3.1,3,5.8,5.3,8c2.3,2.3,5,4,8,5.3c3.1,1.3,6.4,1.9,10,1.9
			c2.7,0,5.4-0.4,7.9-1.2c2.5-0.8,4.8-1.9,6.9-3.3c0.4-0.3,0.7-0.6,1-1c0.2-0.4,0.4-0.9,0.4-1.4v-16.4c0-0.8-0.3-1.5-0.8-2
			C293.9,146.1,293.2,145.9,292.5,145.9z"/>
		<path d="M343.5,127.6c-2-1.9-4.3-3.3-6.8-4.3c-2.6-1-5.2-1.4-8-1.4c-3.7,0-7.3,1-10.6,3c-3.3,2-6,4.9-8.1,8.6
			c-2.1,3.7-3.1,8.2-3.1,13.5c0,4.9,1,9.2,3.1,12.9c2,3.7,4.9,6.5,8.6,8.6c3.7,2,7.9,3.1,12.7,3.1c3.5,0,6.8-0.8,9.8-2.5
			c3-1.6,5.4-3.6,7.3-5.8c0.6-0.6,0.9-1.2,0.9-2c0-0.6-0.2-1.2-0.7-1.7c-0.5-0.5-1-0.7-1.7-0.7c-0.6,0-1.3,0.3-2,0.8
			c-0.9,1.1-2,2.2-3.3,3.2c-1.3,1-2.9,1.8-4.6,2.5c-1.7,0.6-3.7,0.9-5.8,0.9c-4,0-7.4-0.9-10.2-2.6c-2.8-1.7-4.9-4.1-6.4-7.1
			c-1.5-3-2.2-6.2-2.2-9.9h35.2c0.7,0,1.4-0.3,2-0.8c0.6-0.5,0.8-1.2,0.8-1.9c-0.1-3.6-0.7-6.8-2-9.5
			C347.1,131.8,345.5,129.5,343.5,127.6z M313.7,137.9c1-2.5,2.3-4.5,3.9-6.1c1.6-1.6,3.4-2.7,5.3-3.5c2-0.7,3.9-1.1,5.7-1.1
			c2.5,0,4.9,0.5,7.1,1.6c2.3,1.1,4.2,2.6,5.8,4.7c1.6,2,2.6,4.5,2.9,7.5v0.7h-31.8C312.9,140.3,313.3,139.1,313.7,137.9z"/>
		<path d="M404.6,134c-2.1-3.7-4.9-6.7-8.4-8.9s-7.5-3.3-12-3.3c-4.4,0-8.4,1.1-12,3.3s-6.4,5.1-8.5,8.9c-2.1,3.7-3.1,8-3.1,12.8
			c0,4.7,1,9,3.1,12.7c2.1,3.8,4.9,6.7,8.5,8.9c3.6,2.1,7.6,3.2,12,3.2c4.5,0,8.5-1.1,12-3.2c3.5-2.1,6.4-5.1,8.4-8.9
			c2.1-3.8,3.1-8,3.1-12.7C407.7,141.9,406.6,137.7,404.6,134z M399.8,156.8c-1.6,2.9-3.7,5.2-6.4,6.9c-2.7,1.7-5.8,2.6-9.3,2.6
			c-3.4,0-6.5-0.9-9.2-2.6c-2.7-1.7-4.8-4-6.4-6.9c-1.6-2.9-2.4-6.3-2.4-10.1c0-3.8,0.8-7.2,2.4-10.1c1.6-3,3.7-5.3,6.4-7
			c2.7-1.7,5.8-2.6,9.2-2.6c3.5,0,6.6,0.9,9.3,2.6c2.7,1.7,4.8,4,6.4,7c1.6,3,2.3,6.3,2.3,10.1C402.1,150.5,401.3,153.9,399.8,156.8
			z"/>
	</g>
</g>
</svg>
