<?xml version="1.0" encoding="utf-8"?>
<!-- Generator: Adobe Illustrator 25.3.1, SVG Export Plug-In . SVG Version: 6.00 Build 0)  -->
<svg version="1.1" id="Layer_1" xmlns="http://www.w3.org/2000/svg" xmlns:xlink="http://www.w3.org/1999/xlink" x="0px" y="0px"
	 viewBox="0 0 500 300" style="enable-background:new 0 0 500 300;" xml:space="preserve">
<style type="text/css">
	.st0{fill:#72BF44;}
	.st1{fill:#005D8D;}
</style>
<g>
	<g>
		<path class="st0" d="M122.4,201l5.2-28.1c1-5.3,1.6-9.8,2.2-13.6h10.5l-0.7,6.8h0.1c3.8-5.4,8.9-7.7,14.2-7.7
			c6.6,0,9.5,4.2,9.8,7.9c3.7-5.4,9-7.8,14.3-7.9c6.4,0,10.2,4.1,10.2,11.2c0,1.7-0.3,5-0.7,7.2L183,201h-11.9l4.2-22.7
			c0.3-1.7,0.6-3.4,0.6-5c0-2.9-1.3-4.9-4.1-4.9c-4.1,0-8.2,5.5-9.7,13.9l-3.5,18.8h-11.8l4.3-22.9c0.3-1.7,0.6-3.3,0.6-4.8
			c0-2.8-0.9-5.1-3.9-5.1c-4.1,0-8.5,5.8-10,14l-3.4,18.7H122.4z"/>
		<path class="st0" d="M191.4,201l7.9-41.6h12.2l-7.9,41.6H191.4z M201.1,148.3c0-4.1,3.3-6.9,7-6.9c3.6,0,6.1,2.4,6.1,6
			c0,4.4-3.3,6.9-7.2,6.9C203.5,154.3,201,151.9,201.1,148.3z"/>
		<path class="st0" d="M212.2,201l4.7-24.8c1.2-6.3,1.7-13.3,2.1-16.9h10.6c-0.2,2.8-0.4,5.6-0.8,8.5h0.3c2.9-5.5,7.6-9.5,13.3-9.5
			c0.8,0,1.6,0,2.3,0.1l-2.4,11.9c-0.5,0-1.2-0.1-1.9-0.1c-7.8,0-11.5,7-13,15.1l-2.9,15.5H212.2z"/>
		<path class="st0" d="M268.5,201c0.1-2.4,0.3-5.3,0.5-8.2h-0.2c-3.8,6.9-9.2,9.2-14,9.2c-7.5,0-12.6-5.8-12.6-14.5
			c0-14,9.3-29,29.8-29c5,0,10.3,1,13.8,2.1l-4.4,21.8c-1,5.4-1.8,13.5-1.7,18.7H268.5z M272,168.1c-0.9-0.2-2.1-0.4-3.3-0.4
			c-7.9,0-13.7,9.7-13.7,17.4c0,4.1,1.7,6.9,5,6.9c3.7,0,8.2-4.2,10.1-14.4L272,168.1z"/>
		<path class="st0" d="M287.1,201l5.3-28.1c1-5.3,1.7-9.8,2.3-13.6h10.8l-0.8,6.9h0.2c3.9-5.4,9-7.8,14.5-7.8
			c6.8,0,10.7,4.2,10.7,11.4c0,1.9-0.4,5-0.7,7l-4.6,24.2h-12.2l4.3-23c0.3-1.5,0.5-3.1,0.5-4.7c0-2.9-1-5-4.1-5
			c-4,0-8.6,5-10.4,14.2l-3.5,18.5H287.1z"/>
		<path class="st0" d="M356.8,147.8l-2.2,11.6h8.9l-1.8,9.3h-8.9l-2.8,14.1c-0.3,1.6-0.7,3.8-0.7,5.3c0,2,0.9,3.5,3.5,3.5
			c1.1,0,2.3,0,3.4-0.2l-1.4,9.6c-1.6,0.6-4.6,0.9-7.2,0.9c-7.4,0-10.8-3.8-10.8-9c0-2.3,0.2-4.5,0.9-7.7l3.2-16.5h-5.3l1.8-9.3h5.3
			l1.7-8.7L356.8,147.8z"/>
		<path class="st0" d="M395.5,198.6c-4.8,2.4-10.9,3.3-15.5,3.3c-11.9,0-18-6.7-18-17.6c0-12.6,9.2-25.9,24.2-25.9
			c8.4,0,14.5,4.7,14.5,12.5c0,10.6-10.3,14.4-27,14c0,1.2,0.5,3.1,1.3,4.3c1.6,2.1,4.4,3.2,8,3.2c4.5,0,8.4-1,11.7-2.6L395.5,198.6
			z M384.7,167.4c-5.7,0-9,4.7-9.8,8.6c9.5,0.1,14.3-1.2,14.3-5C389.2,168.9,387.5,167.4,384.7,167.4z"/>
	</g>
	<g>
		<path class="st1" d="M350.4,100.3l-5.1,26.5c-0.5,2.8-0.9,6-1.1,8.6H339l0.5-4.3h-0.1c-2.1,3.3-5.1,4.8-8.2,4.8
			c-4.3,0-7.3-3.5-7.3-8.9c0-8.5,6.2-16.2,15-16.2c1.2,0,2.7,0.2,3.7,0.7l2.1-11.2H350.4z M341.7,116.2c-0.7-0.5-1.9-0.9-3.3-0.9
			c-4.9,0-8.6,5.5-8.6,10.9c0,2.9,1.1,5.2,3.9,5.2c2.5,0,5.7-2.8,6.6-7.8L341.7,116.2z"/>
		<path class="st1" d="M374.6,120.8c0,8.2-5.7,15.2-13.9,15.2c-6.1,0-9.9-4.2-9.9-9.9c0-8.2,5.7-15.2,13.9-15.2
			C371.3,110.8,374.6,115.5,374.6,120.8z M356.8,125.9c0,3.3,1.8,5.6,4.7,5.6c4.3,0,7.2-6,7.2-10.7c0-2.5-1.1-5.5-4.6-5.5
			C359.5,115.3,356.8,121.4,356.8,125.9z"/>
	</g>
	<path class="st1" d="M122.1,219.2c13.6-3.3,83-17.5,274.8-15.8c1.3,0,2.2,1.3,1.7,2.5l-4.2,10.6c-0.3,0.8-1,1.2-1.8,1.2
		c-14.5-1.2-143.7-11.1-269.6,5.9c-1,0.1-1.9-0.4-2.3-1.2l0,0C120,221.1,120.7,219.6,122.1,219.2z"/>
	<g>
		<polygon class="st1" points="146.1,70.8 133.8,70.8 126.5,80.6 135.9,80.6 		"/>
		<path class="st1" d="M156.9,121.7c0,7.4,4.6,13.5,12.1,13.5c4.5,0,7.9-1.8,10.8-5.6h0.2l-0.7,3.2c-1.6,7.6-5.7,10-11.2,10
			c-3.2,0-7.8-0.8-9.9-2.1l-2.6,8.5c2.6,1.5,7.3,2.4,12.3,2.4c5.1,0,10.5-1,14.6-4.3c4.5-3.6,6.7-9.8,8-16.8l5.7-31.2
			c-4-1.6-8.6-2.6-14-2.6C165.7,96.8,156.8,109.2,156.9,121.7z M182.2,116.2c-1.2,6.4-4.9,10.5-8.5,10.5c-3.4,0-5.1-2.8-5.1-6.6
			c0-7.2,4.8-14.7,11.5-14.7c1.6,0,3.2,0.3,4,0.7L182.2,116.2z"/>
		<path class="st1" d="M228.7,97.6l-3.3,17.5c-1.4,7.5-5.4,12.1-9.1,12.1c-2.8,0-3.8-1.9-3.8-4.4c0-1.4,0.2-3.3,0.6-5l3.8-20.3
			h-11.1l-4,21.1c-0.5,2.6-0.8,4.9-0.8,7c0,7.1,3.7,10.6,9.7,10.6c4.6,0,9.1-2.1,13-7l0.2,0l-0.7,6.2h9.8c0.5-3.4,1.1-7.5,2-12.3
			l4.8-25.5H228.7z"/>
		<path class="st1" d="M278.7,98.7c-3.2-1-8-1.9-12.5-1.9c-18.6,0-27.1,13.6-27.1,26.4c0,7.9,4.7,13.2,11.5,13.2
			c4.4,0,9.3-2.1,12.7-8.3h0.2c-0.2,2.7-0.4,5.3-0.5,7.5h10.2c-0.1-4.7,0.6-12.1,1.5-17L278.7,98.7z M264.4,114.3
			c-1.7,9.3-5.8,13.1-9.2,13.1c-3.1,0-4.6-2.6-4.6-6.3c0-7,5.2-15.8,12.4-15.8c1.1,0,2.2,0.1,3,0.3L264.4,114.3z"/>
		<path class="st1" d="M297.1,112.6c-3.1-1.5-4.6-2.8-4.6-4.3c0-2,2-3.3,4.9-3.3c3.3,0,6,0.9,7.6,1.6l2.6-7.9c-1.9-1-5.3-2-9.7-2
			c-9.7,0-16.6,5.2-16.6,13c0,4.7,3.6,7.9,8,10c3.5,1.7,4.7,3,4.7,4.8c0,1.9-1.6,3.4-4.8,3.4c-3.7,0-7.7-1.5-9.9-2.6l-2.7,7.8
			c2.2,1.6,6.8,3,11.5,3c10,0,17.4-4.7,17.4-13.3C305.6,117.7,301.3,114.7,297.1,112.6z"/>
		<path class="st1" d="M154.7,110.6c-4.5-0.1-8.7,0-12.6,0.1L139,83.4h-14.3l-25.4,52.1h11.9l6.1-13.5l1.9-5
			c3.9-0.3,8.4-0.3,12.8-0.2l0.3,5.2l1.1,13.5h11.7l-2.1-18.2c4.2,0.3,7.5,0.6,8.8,0.7c0.4,0,0.8-0.2,0.9-0.5l2.9-5.5
			C155.9,111.4,155.5,110.6,154.7,110.6z M121.1,112.5l4.7-10.2c1.4-3,2.8-7,4.2-10.2h0.2c0.3,3.2,0.5,7.4,0.7,10.2l0.8,9
			C127.5,111.6,124,112,121.1,112.5z"/>
	</g>
</g>
</svg>
