<?xml version="1.0" encoding="utf-8"?>
<!-- Generator: Adobe Illustrator 25.3.1, SVG Export Plug-In . SVG Version: 6.00 Build 0)  -->
<svg version="1.1" id="Layer_1" xmlns="http://www.w3.org/2000/svg" xmlns:xlink="http://www.w3.org/1999/xlink" x="0px" y="0px"
	 viewBox="0 0 500 300" style="enable-background:new 0 0 500 300;" xml:space="preserve">
<style type="text/css">
	.st0{fill:#1975C2;}
</style>
<g>
	<rect x="96.6" y="195.8" class="st0" width="1.9" height="13.9"/>
	<path class="st0" d="M116.2,201.6c0,2.2,0,4.3,0.1,6.2h0c-1-1.4-7.6-8.1-11.2-12h-2.3v13.9h1.9v-6c0-2.5,0-4.4-0.1-6.2h0
		c1.3,1.6,8.5,9.3,11.3,12.2h2.2v-13.9h-1.9V201.6z"/>
	<polygon class="st0" points="120,197.2 126.8,197.2 126.8,209.7 128.8,209.7 128.8,197.2 135.5,197.2 135.5,195.8 120,195.8 	"/>
	<polygon class="st0" points="139.5,203.1 150.1,203.1 150.1,201.7 139.5,201.7 139.5,197.2 150.6,197.2 150.6,195.8 137.5,195.8 
		137.5,209.7 150.9,209.7 151.1,208.3 139.5,208.3 	"/>
	<path class="st0" d="M161.8,196.9c3.5,0,5.2,1.3,5.9,2.7h2c-0.7-2-2.9-4.1-8-4.1c-5.7,0-9.2,3.2-9.2,7.3c0,4.4,3.4,7.2,8.8,7.2
		c3.4,0,5.3-0.9,6.5-2.5c0,0.7,0.1,1.9,0.2,2.2h1.5v-7.5h-7.9v1.4h6v0.5c0,3-2.3,4.6-6.1,4.6c-4.5,0-7-2.5-7-5.9
		C154.7,199.5,157.2,196.9,161.8,196.9z"/>
	<path class="st0" d="M187,199.5c0-2.5-2.4-3.7-5.8-3.7h-7.9v13.9h1.9v-6.2h5.1c3.2,0,4.3,0.7,4.3,2.9v0.5c0,1.1,0,2.2,0.2,2.8h2
		c-0.2-0.6-0.2-1.8-0.2-2.9v-0.6c0-2.4-1.5-3.1-2.8-3.4C186,202.4,187,201.2,187,199.5z M180.7,202.2h-5.5v-5h5.6
		c2.8,0,4.2,0.8,4.2,2.4C185,201.4,183.6,202.2,180.7,202.2z"/>
	<path class="st0" d="M196,195.8l-7.6,13.9h2.1l2.4-4.5h8.6l2.6,4.5h2.1l-7.9-13.9H196z M193.6,203.8c1.9-3.5,3.1-5.9,3.5-6.8h0
		c0.4,0.9,1.4,2.8,3.7,6.8H193.6z"/>
	<path class="st0" d="M221.6,201.6c0,2.2,0,4.3,0.1,6.2h0c-1-1.4-7.6-8.1-11.2-12h-2.3v13.9h1.9v-6c0-2.5,0-4.4-0.1-6.2h0
		c1.3,1.6,8.5,9.3,11.3,12.2h2.2v-13.9h-1.9V201.6z"/>
	<path class="st0" d="M234.6,195.8h-6.9v13.9h6.9c5,0,8.8-2.7,8.8-7.2C243.5,198.7,240.2,195.8,234.6,195.8z M234.1,208.4h-4.5
		v-11.2h4.7c4.2,0,7,2,7,5.4C241.4,205.8,239.1,208.4,234.1,208.4z"/>
	<path class="st0" d="M254.6,195.5c-5.5,0-9.1,3.3-9.1,7.2c0,4.1,3.5,7.3,9,7.3c5.7,0,9-3.3,9-7.3
		C263.6,198.9,260,195.5,254.6,195.5z M254.6,208.6c-4.6,0-7-2.9-7-6c0-3.1,2.6-5.8,6.8-5.8c4.6,0,7.1,2.9,7.1,5.9
		C261.5,206,259.1,208.6,254.6,208.6z"/>
	<path class="st0" d="M279.3,201.7c-4.1-0.5-4.8-1.3-4.8-2.6c0-1.5,1.8-2.3,4.4-2.3c3.9,0,4.7,1.3,5,2.4h2c-0.2-1.3-1.4-3.7-7-3.7
		c-3.7,0-6.5,1.4-6.5,3.7c0,1.9,1.3,3.1,6.3,3.8c4.7,0.6,5.7,1.6,5.7,3c0,1.4-1.4,2.6-5.1,2.6c-3.6,0-5.1-1.2-5.8-3h-2
		c0.6,2.6,3,4.3,7.7,4.3c5,0,7.2-1.9,7.2-4C286.5,204.1,285.5,202.5,279.3,201.7z"/>
	<path class="st0" d="M297.4,195.5c-5.5,0-9.1,3.3-9.1,7.2c0,4.1,3.5,7.3,9,7.3c5.7,0,9-3.3,9-7.3
		C306.4,198.9,302.8,195.5,297.4,195.5z M297.4,208.6c-4.6,0-7-2.9-7-6c0-3.1,2.6-5.8,6.8-5.8c4.6,0,7.1,2.9,7.1,5.9
		C304.3,206,301.9,208.6,297.4,208.6z"/>
	<polygon class="st0" points="311.3,195.8 309.4,195.8 309.4,209.7 321.7,209.7 322,208.3 311.3,208.3 	"/>
	<path class="st0" d="M336.3,203.7c0,3.6-2,4.9-5.5,4.9c-2.8,0-5.7-1.1-5.7-4.9v-7.9h-1.9v8c0,4.3,3,6.2,7.5,6.2
		c4.6,0,7.5-1.7,7.5-6.3v-7.8h-1.9V203.7z"/>
	<path class="st0" d="M349.9,196.9c3.6,0,5.1,1.4,5.9,3h2c-0.7-2.3-3-4.4-7.9-4.4c-5.4,0-8.9,3.2-8.9,7.3c0,3.8,2.9,6.9,8,7.2
		l-1.4,1.3v0.5c1.7,0,3.2,0.1,3.2,1c0,0.5-0.6,0.8-1.8,0.8c-0.5,0-1.2-0.1-1.8-0.2l0,1c0.4,0.1,1,0.2,2,0.2c1.4,0,3.3-0.4,3.3-1.9
		c0-1.3-1.7-1.7-2.8-1.8l0.9-0.8c4.3-0.2,6.2-2,7.2-4.2h-2c-1,1.7-2.4,2.9-5.9,2.9c-4.2,0-6.8-2.6-6.8-5.9
		C343.1,199.4,345.7,196.9,349.9,196.9z"/>
	<path class="st0" d="M366.1,193c1.3,0,2.9,1.2,4.6,1.2c1.2,0,2.1-0.5,2.1-2.1v-0.4h-1.4v0.2c0,0.8-0.3,1-0.9,1
		c-1.1,0-2.8-1.2-4.5-1.2c-1.2,0-2.1,0.5-2.1,2v0.4h1.4v-0.3C365.3,193.3,365.6,193,366.1,193z"/>
	<path class="st0" d="M368.6,195.5c-5.5,0-9.1,3.3-9.1,7.2c0,4.1,3.5,7.3,9,7.3c5.7,0,9-3.3,9-7.3
		C377.6,198.9,374,195.5,368.6,195.5z M368.6,208.6c-4.6,0-7-2.9-7-6c0-3.1,2.6-5.8,6.8-5.8c4.6,0,7.1,2.9,7.1,5.9
		C375.5,206,373.1,208.6,368.6,208.6z"/>
	<polygon class="st0" points="382.5,203.1 393.1,203.1 393.1,201.7 382.5,201.7 382.5,197.2 393.7,197.2 393.7,195.8 380.6,195.8 
		380.6,209.7 393.9,209.7 394.2,208.3 382.5,208.3 	"/>
	<path class="st0" d="M403.2,201.7c-4.1-0.5-4.8-1.3-4.8-2.6c0-1.5,1.8-2.3,4.4-2.3c3.9,0,4.7,1.3,5,2.4h2c-0.2-1.3-1.4-3.7-7-3.7
		c-3.7,0-6.5,1.4-6.5,3.7c0,1.9,1.3,3.1,6.3,3.8c4.7,0.6,5.7,1.6,5.7,3c0,1.4-1.4,2.6-5.1,2.6c-3.6,0-5.1-1.2-5.8-3h-2
		c0.6,2.6,3,4.3,7.7,4.3c5,0,7.2-1.9,7.2-4C410.4,204.1,409.4,202.5,403.2,201.7z"/>
	<path class="st0" d="M199.4,91.3h-4.6l-1.4,5.3h5c2.6,0,4.9-0.6,4.9-2.9C203.3,92.1,201.9,91.3,199.4,91.3z"/>
	<path class="st0" d="M217.6,91c-4.3,0-7.2,3.1-7.2,6.7c0,2.8,1.9,4.8,5.6,4.8c4.7,0,7.2-3.1,7.2-6.7C223.1,92.9,221.1,91,217.6,91z
		"/>
	<path class="st0" d="M162.8,91.3H158l-1.3,4.8h4.5c2.4,0,5-0.4,5-2.7C166.3,92.1,165.2,91.3,162.8,91.3z"/>
	<path class="st0" d="M244.6,85.4H123.9l-5.3,22.9h120.7L244.6,85.4z M141,102.5c4.3,0,5.8-2.1,6.4-4.5l0.1-0.3h-5.7l0.5-1.6h7.9
		l-2,7.6h-1.7c0-0.3,0.1-1,0.3-2.1c-1.2,1.5-3,2.4-6.3,2.4c-4.6,0-7.1-2.6-7.1-6.2c0-4.2,3.5-8.4,10-8.4c4.7,0,7,1.9,7.3,4.4h-2.4
		c-0.4-1.6-1.9-2.9-5.1-2.9c-4.6,0-7.3,3.1-7.3,6.8C135.7,100.5,137.4,102.5,141,102.5z M164.9,97c1.1,0.3,2.3,1.2,1.7,3.6
		c-0.4,1.4-0.6,2.6-0.5,3.1h-2.4c-0.1-0.6,0.1-1.7,0.5-3.1c0.6-2.1,0-3-2.8-3h-5l-1.6,6.1h-2.3l3.7-14h7.3c3.3,0,5.4,1.4,5.3,3.5
		C168.7,95.4,167.1,96.5,164.9,97z M186,98.1c-1.2,4.5-3.5,6-8.6,6c-4,0-7.4-1.5-6.2-6.2l2.2-8.1h2.4l-2.2,8.1
		c-1,3.7,1.6,4.6,4.2,4.6c3.6,0,5-1.4,5.8-4.4l2.2-8.2h2.4L186,98.1z M198.4,98.2H193l-1.4,5.6h-2.3l3.7-14h7.1
		c3.1,0,5.6,1.2,5.6,3.9C205.7,96.6,203.1,98.2,198.4,98.2z M215.6,104.1c-4.9,0-7.8-2.6-7.8-6.3c0-4.2,3.4-8.3,10-8.3
		c4.7,0,7.7,2.5,7.7,6.3C225.6,100,222.4,104.1,215.6,104.1z"/>
	<path class="st0" d="M101.8,170.7h25.6c6.1,0,11.2-0.3,15.6-0.9c4.3-0.6,8.5-1.7,12.5-3.4c6.6-2.9,12-7,16.2-12.5
		c4.2-5.4,6.3-11.3,6.3-17.8c0-4-0.9-7.4-2.7-10.2c-1.8-2.9-4.5-5.3-8-7.2c-2.5-1.4-5.9-2.5-10-3.4c-4.1-0.8-9.6-1.3-16.3-1.3h-22.9
		L101.8,170.7z M134.2,124.4c1.4,0,3,0,4.9,0s3.5,0.1,5,0.2c1.5,0.1,2.9,0.3,4.1,0.6c1.2,0.3,2.3,0.7,3.5,1.2
		c2.5,1.1,4.3,2.6,5.5,4.5c1.2,1.9,1.8,4.1,1.8,6.7c0,4.4-1.2,8.5-3.7,12.2c-2.5,3.7-6,6.5-10.5,8.4c-1.6,0.7-3.1,1.1-4.4,1.4
		c-1.3,0.3-2.9,0.5-4.5,0.6c-1.3,0.1-3,0.2-5.1,0.2c-2.1,0-4.1,0-5.9,0h-1.7l10.4-35.9H134.2z"/>
	<polygon class="st0" points="226.9,145.7 230.1,134.9 199.5,134.9 202.4,124.8 235.4,124.8 238.5,114.1 187.2,114.1 170.9,170.7 
		222.1,170.7 225.2,159.9 192.2,159.9 196.3,145.7 	"/>
	<polygon class="st0" points="242,114.1 225.7,170.7 276.8,170.7 279.9,159.7 247.2,159.7 260.3,114.1 	"/>
	<path class="st0" d="M399.6,114.1h-21.1l-38.9,51.8l7.6-26.4h-32.6l-3.1,10.7h14.1l-3.2,11.1c-0.7,0.1-1.5,0.1-2.3,0.1
		c-0.8,0-1.6,0-2.3,0c-7,0-12.1-1.1-15.2-3.2c-3.1-2.1-4.7-5.5-4.7-10c0-3.3,0.6-6.4,1.9-9.4c1.3-3,3-5.6,5.3-7.7
		c2.4-2.3,5.2-4.1,8.6-5.5c3.4-1.4,7.1-2,11.3-2c4.1,0,7.8,0.6,11.2,1.7c3.4,1.1,7,3.1,10.8,6h2l4-13.3c-4.7-2-9.2-3.3-13.6-4
		c-4.4-0.7-9.1-1-14.2-1c-13.5,0-24.6,3.4-33.4,10.3c-8.8,6.9-13.2,15.8-13.2,26.7c0,7,2.8,12.4,8.5,16.2s13.6,5.7,23.6,5.7
		c5.1,0,10-0.4,14.8-1.3c4.4-0.8,8.6-1.8,12.6-2.8l-2.2,3h19.1l8.3-11.6h25.9l3.1,16.5H100.4l-3.8,12.1h298.1h16h2.4L399.6,114.1z
		 M370.6,149l14.5-20.2L388,149H370.6z"/>
</g>
</svg>
