<?xml version="1.0" encoding="utf-8"?>
<!-- Generator: Adobe Illustrator 25.3.1, SVG Export Plug-In . SVG Version: 6.00 Build 0)  -->
<svg version="1.1" id="Layer_1" xmlns="http://www.w3.org/2000/svg" xmlns:xlink="http://www.w3.org/1999/xlink" x="0px" y="0px"
	 viewBox="0 0 500 300" style="enable-background:new 0 0 500 300;" xml:space="preserve">
<style type="text/css">
	.st0{fill:#545759;}
	.st1{fill:url(#SVGID_1_);}
	.st2{fill:#E30613;}
</style>
<g>
	<path class="st0" d="M168.7,137.8c0,0-1.1-0.3-1.6-0.3c-2.6,0.2-3.5,2-3.5,3.1c0,1.1,0,12.3,0,13c0,0.3,0,0.5,0,0.8
		c-0.1,3.2-0.5,6.2-4,7.6c-1.4,0.6-7.6,1.5-7.8-4.2c-0.1-3.6,0.1-18,0.1-21c0-1.7-2-3.5-4-3.5c-0.8,0-2.7,0.5-2.7,0.5
		c0,0.4,0.8,3.3,0.8,19.3c0,9.8,6.8,11.4,11.5,11.4c3,0,10.8-2.9,10.8-11.7c0-0.2,0-0.3,0-0.5C168.3,141.7,168.7,138,168.7,137.8"/>
	<path class="st0" d="M175.6,153.6c0-2.1-0.1-4.3-0.2-6.3c-0.2-4.1-0.8-4.4-0.8-4.4c0.7-0.2,1.4-0.4,2.1-0.4c1.9,0,3.3,1,3.3,2.3
		c0,0.5-0.2,1-0.2,1l0.2,0c1-2.2,4.3-3.6,7.3-3.6c5.5,0,6.1,3,6.1,6c0,3.1-0.2,5.8-0.2,9.4c0,1.9,0,4.4,2.1,4.4
		c0.8,0,1.6-0.6,1.6-0.6l0.2,0.1c0,0-1,2.6-4.7,2.6c-1.8,0-3.8-0.9-3.8-3.4c0-3.6,0.1-6.1,0.1-10.4c0-2.9-0.1-5.7-3.7-5.7
		c-2.3,0-5,2.1-5,6c0,3.8,0.2,6.6,0.2,10.6c0,2.3-1.2,2.9-2.6,2.9c-0.9,0-2-0.2-3-0.4C174.9,163.7,175.6,161.1,175.6,153.6"/>
	<path class="st0" d="M200.4,135.8c0-1.6,1.3-2.9,2.8-2.9c1.6,0,2.9,1.3,2.9,2.9c0,1.5-1.3,2.8-2.9,2.8
		C201.7,138.6,200.4,137.3,200.4,135.8 M200.6,153.4c0-9.6-0.5-10.9-0.5-10.9c0.7-0.2,1.4-0.4,2.1-0.4c1.9,0,3.6,1,3.6,2.7
		c0,4.4-0.2,9.5-0.2,12.6c0,1.9,0,4.4,2.1,4.4c0.8,0,1.6-0.6,1.6-0.6l0.2,0.1c0,0-1,2.6-4.7,2.6c-1.8,0-4.2-0.5-4.2-3
		C200.5,158.6,200.6,155.8,200.6,153.4"/>
	<path class="st0" d="M220.3,161.5c1.4,0,3.7-1.3,3.7-2.9c0-1.7,0.1-3.9,0.1-6c-1.7,0.3-6.7,1-6.7,5.5
		C217.5,160.6,218.8,161.5,220.3,161.5 M218.8,134.2c3,0,4.8,2,7.1,2c0.9,0,1.8-0.4,3-1.4c-0.4,2.3-2.2,4-4.9,4c-3,0-4.9-2-7.1-2
		c-0.9,0-1.8,0.4-3,1.4C214.3,135.8,216.1,134.2,218.8,134.2 M224.1,150.9v-0.4c0-3.5-0.8-5.5-4-5.5c-2.1,0-4.2,1.1-5.8,2.5
		l-0.2-0.2c0.7-2.5,4.1-5.1,7.8-5.1c6,0,6.8,3.6,6.8,7.4c0,2.2-0.1,5-0.1,7.3v0.5c0,1.6,0,4.7,2.1,4.7c0.8,0,1.6-0.6,1.6-0.6
		l0.2,0.1c0,0-1,2.6-4.7,2.6c-1.7,0-3.5-0.7-3.6-2.9l-0.2-0.1c-1,1.8-3.1,3.2-5.7,3.2c-3.5,0-5.6-2.6-5.6-5.6
		C212.7,152.8,219.5,151,224.1,150.9"/>
	<path class="st0" d="M245.3,162.6c3.7,0,5.5-4.8,5.5-9.6c0-4.4-2-8.8-6-8.8c-3.7,0-5.5,4.5-5.5,9
		C239.3,157.9,241.3,162.6,245.3,162.6 M245.3,142.3c7,0,10.7,4.9,10.7,10c0,6.3-3.9,12.2-11.1,12.2c-7,0-10.7-5.2-10.7-10.6
		C234.2,147.9,238,142.3,245.3,142.3"/>
	<path class="st0" d="M283.5,162.2c6,0,9.2-6.8,9.2-13.5c0-6.2-3.4-12.5-9.8-12.5c-6,0-9.1,6.4-9.1,12.7
		C273.7,155.6,277.2,162.2,283.5,162.2 M283.5,133.9c9.7,0,14.6,6.8,14.6,13.8c0,8.2-4.7,16.1-13.8,16.8c0,0-0.7,0.1-1.5,0.1
		c-0.7,0-1.4,0-1.4,0c-8.7-0.7-13-7.4-13-14.5C268.3,141.6,273.5,133.9,283.5,133.9"/>
	<path class="st0" d="M282,155.9c2.8,2.2,7.6,4.3,12.5,4.3c2,0,3.7-0.2,4.9-0.8l0.2,0.1c0.1,0.7,0.2,1.3,0.2,1.8
		c0,2.8-1.8,3.1-5.2,3.1c-3.5,0-11-1.9-15.2-8.7c0,0,0.4-0.1,1.5-0.1C281.4,155.7,282,155.9,282,155.9"/>
	<path class="st0" d="M303.7,152.1c0-1,0-3.2-0.1-5.2c-0.1-1.7-0.3-3.3-0.8-4c0.7-0.2,1.4-0.4,2.1-0.4c1.9,0,3.6,1,3.6,2.7
		c0,3.5-0.1,6.1-0.1,10.3c0,3.4,0.3,6.4,3.5,6.4c3.9,0,5.1-5.1,5.1-8.7c0-2.7-0.1-5-0.2-6.5c-0.3-2.9-0.7-3.8-0.7-3.8
		c0.7-0.2,1.4-0.4,2.1-0.4c2,0,3.6,1,3.6,2.7c0,3.9-0.3,7.8-0.3,12.6c0,1.7,0.1,4.4,2.1,4.4c0.8,0,1.6-0.6,1.6-0.6l0.2,0.1
		c0,0-1,2.6-4.7,2.6c-1.6,0-3.4-0.8-3.4-3c0-0.1,0-0.4,0-0.4l-0.2,0c0,0-1.6,3.6-6.7,3.6c-5.4,0-6.5-3.2-6.5-6.7
		C303.6,156.1,303.7,154.2,303.7,152.1"/>
	<path class="st0" d="M327.8,153.7c0-9.6-1-10.9-1-10.9c0.7-0.2,1.4-0.4,2.1-0.4c1.9,0,3.6,1,3.6,2.7c0,4.4-0.2,9.5-0.2,12.6
		c0,1.9,0,4.4,2.1,4.4c0.8,0,1.6-0.6,1.6-0.6l0.2,0.1c0,0-1.1,2.6-4.7,2.6c-1.8,0-3.8-0.9-3.8-3.4
		C327.6,158.5,327.8,156.1,327.8,153.7 M325.5,139.8v-0.2c3.5-1.9,5.3-6,5.8-7.1c2.3,0,3.2,2,3.2,2c-0.7,2.8-5.2,5.5-7.7,5.5
		C326.5,139.9,325.8,139.9,325.5,139.8"/>
	<path class="st0" d="M338.6,153.6c0-2.1-0.1-4.3-0.2-6.3c-0.2-4.1-0.8-4.4-0.8-4.4c0.7-0.2,1.4-0.4,2.1-0.4c1.9,0,3.3,1,3.3,2.3
		c0,0.5-0.2,1-0.2,1l0.2,0c0.8-2.1,3.8-3.4,6.5-3.4c3.9,0,5.5,1.5,5.7,3.4l0.2,0c0.9-2.1,3.9-3.4,6.6-3.4c5.5,0,6.1,2.9,6.1,5.8
		c0,3.1-0.2,5.8-0.2,9.4c0,1.9,0,4.4,2.1,4.4c0.8,0,1.6-0.6,1.6-0.6l0.2,0.1c0,0-1,2.6-4.7,2.6c-1.8,0-3.8-0.9-3.8-3.4
		c0-3.6,0.1-6.1,0.1-10.4c0-2.8-0.1-5.5-3.6-5.5c-3.8,0-4.4,5.4-4.4,7.4c0,0.1,0.1,7.3,0.1,7.5c0,3-1,3.6-1.6,4.4
		c-1.5-0.2-3.1-0.3-3.1-3.2c0-3.6,0.1-6.3,0.1-10.6c0-2.8-0.1-5.5-3.7-5.5c-1.8,0-4.2,2-4.2,5.8c0,3.8,0.2,6.6,0.2,10.6
		c0,2.3-1.2,2.9-2.6,2.9c-0.9,0-2-0.2-3-0.4C337.9,163.7,338.6,161.1,338.6,153.6"/>
	<path class="st0" d="M373.2,136.1c0-1.6,1.3-2.9,2.8-2.9c1.6,0,2.9,1.3,2.9,2.9c0,1.5-1.3,2.8-2.9,2.8
		C374.5,138.9,373.2,137.6,373.2,136.1 M373.9,153.7c0-9.6-1-10.9-1-10.9c0.7-0.2,1.4-0.4,2.1-0.4c1.9,0,3.6,1,3.6,2.7
		c0,4.4-0.2,9.5-0.2,12.6c0,1.9,0,4.4,2.1,4.4c0.8,0,1.6-0.6,1.6-0.6l0.2,0.1c0,0-1,2.6-4.7,2.6c-1.8,0-3.8-0.9-3.8-3.4
		C373.7,158.5,373.9,156.1,373.9,153.7"/>
	<path class="st0" d="M395,142.3c1.8,0,6.8,0.8,6.8,3c0,0.8-0.8,2.1-1.5,2.8H400c0,0-2.4-3.8-6-3.8c-4.2,0-5.6,4.6-5.6,8.2
		c0,4.9,2.7,8.9,7,8.9c3.2,0,6.8-2.7,6.8-2.7l0.2,0.2c0,0-1.8,5.7-8.7,5.7c-5.6,0-10.1-4.6-10.1-10.4
		C383.6,147.6,388.2,142.3,395,142.3"/>
	<path class="st0" d="M412.8,161.5c1.4,0,3.7-1.3,3.7-2.9c0-1.7,0.1-3.9,0.1-6c-1.7,0.3-6.7,1-6.7,5.5
		C410,160.6,411.4,161.5,412.8,161.5 M416.7,150.9v-0.4c0-3.5-0.8-5.5-4-5.5c-2.1,0-4.2,1.1-5.8,2.5l-0.2-0.2
		c0.7-2.5,4.1-5.1,7.8-5.1c6,0,6.8,3.6,6.8,7.4c0,2.2-0.1,5-0.1,7.3v0.5c0,1.6,0,4.7,2.1,4.7c0.8,0,1.6-0.6,1.6-0.6l0.2,0.1
		c0,0-1,2.6-4.7,2.6c-1.7,0-3.5-0.7-3.6-2.9l-0.2-0.1c-1,1.8-3.1,3.2-5.7,3.2c-3.5,0-5.6-2.6-5.6-5.6
		C405.3,152.8,412.1,151,416.7,150.9"/>
	<linearGradient id="SVGID_1_" gradientUnits="userSpaceOnUse" x1="89.9737" y1="111.2581" x2="89.9737" y2="188.8445">
		<stop  offset="0" style="stop-color:#E40421"/>
		<stop  offset="0.7284" style="stop-color:#E40421"/>
		<stop  offset="1" style="stop-color:#6D0F0A"/>
	</linearGradient>
	<path class="st1" d="M104.9,187.2c-2.6,0-4.3-1.7-4.3-3.8v-46.4c0-12.7-10.4-23.1-23.1-23.1H75v5.8v37.6
		C75,173.7,88.5,187.1,104.9,187.2"/>
	<path class="st2" d="M90,183.1c12.2,2.7,18-2.9,18-16.4v-29.8c0-12.7,10.4-23.1,23.1-23.1h2.5v5.8v37.6c0,16.1-12.6,29.4-28.6,29.9
		C99.5,187.1,94.4,185.7,90,183.1"/>
	<g>
		<g>
			<path class="st0" d="M146.9,178.5l-1.4-0.1v-1h1.4v-1.1c0-1.6,1.1-2.7,2.8-2.7c0.5,0,1,0.1,1.5,0.2l-0.2,1.3
				c-0.4-0.1-0.8-0.2-1.2-0.2c-0.7,0-1.3,0.3-1.3,1.4v1h1.9v1.2h-1.9v7.2c0,0.2-0.1,0.4-0.4,0.4h-1.2V178.5z"/>
			<path class="st0" d="M160.3,185.2c-0.7,0.7-1.5,1.1-2.5,1.1c-1.8,0-2.8-1.1-2.8-2.7c0-1.9,1.6-2.6,3.8-2.6h1.3v-0.6
				c0-1.3-0.5-2-1.8-2c-0.9,0-1.5,0.2-2.4,0.4l-0.4-1.3c1-0.3,1.8-0.5,2.7-0.5c2.3,0,3.4,1.3,3.4,3.1v5.8h-1.3L160.3,185.2z
				 M160.1,182.3h-1.2c-1.4,0-2.4,0.3-2.4,1.4c0,0.8,0.5,1.3,1.5,1.3c0.7,0,1.5-0.4,2.1-0.9V182.3z"/>
			<path class="st0" d="M167.7,177.3h1.3l0.2,1.2c0.5-0.7,1.4-1.4,2.3-1.4c0.3,0,0.6,0,0.8,0.1l-0.2,1.3c-0.2-0.1-0.4-0.1-0.7-0.1
				c-0.7,0-1.6,0.8-2.1,1.4v6.2h-1.6V177.3z"/>
			<path class="st0" d="M177.5,177.3h1.3l0.1,0.9c0.6-0.6,1.5-1.1,2.4-1.1c1.2,0,2,0.5,2.4,1.2c0.7-0.6,1.6-1.2,2.7-1.2
				c1.9,0,2.9,1.2,2.9,3v5.6c0,0.2-0.2,0.4-0.4,0.4h-1.2v-5.7c0-1.3-0.4-1.9-1.6-1.9c-0.7,0-1.4,0.4-2,1c0.1,0.2,0.1,0.4,0.1,0.6v6
				h-1.6v-5.7c0-1.3-0.4-1.9-1.6-1.9c-0.8,0-1.4,0.5-2,1v6.6h-1.6V177.3z"/>
			<path class="st0" d="M200.1,185.2c-0.7,0.7-1.5,1.1-2.5,1.1c-1.8,0-2.8-1.1-2.8-2.7c0-1.9,1.6-2.6,3.8-2.6h1.3v-0.6
				c0-1.3-0.5-2-1.8-2c-0.9,0-1.5,0.2-2.4,0.4l-0.4-1.3c1-0.3,1.8-0.5,2.7-0.5c2.3,0,3.4,1.3,3.4,3.1v5.8h-1.3L200.1,185.2z
				 M200,182.3h-1.2c-1.4,0-2.4,0.3-2.4,1.4c0,0.8,0.5,1.3,1.5,1.3c0.7,0,1.5-0.4,2.1-0.9V182.3z"/>
			<path class="st0" d="M207.3,181c0-2.3,1.2-3.9,3.6-3.9c1,0,1.8,0.2,2.8,0.5l-0.4,1.3c-0.8-0.3-1.5-0.4-2.3-0.4
				c-1.6,0-2.1,1.1-2.1,2.7v1.1c0,1.6,0.5,2.7,2.1,2.7c0.9,0,1.5-0.2,2.3-0.4l0.4,1.3c-0.9,0.3-1.8,0.5-2.8,0.5
				c-2.4,0-3.6-1.6-3.6-3.9V181z"/>
			<path class="st0" d="M219,180.7c0-1.9,1.3-3.6,3.5-3.6c2.2,0,3.5,1.8,3.5,3.6v1c0,0.2-0.2,0.4-0.4,0.4h-5.1v0.6
				c0,1,0.4,2.2,2.1,2.2c0.9,0,1.7-0.2,2.6-0.5l0.3,1.3c-1,0.3-1.9,0.5-2.9,0.5c-2.5,0-3.7-1.8-3.7-3.6V180.7z M220.1,175.1l2.3-1.3
				l2.3,1.3l-0.7,1l-1.6-1l-1.6,1L220.1,175.1z M224.5,180.9v-0.3c0-1-0.5-2.1-2-2.1s-2,1.1-2,2.1v0.3H224.5z"/>
			<path class="st0" d="M231.7,177.7c0-0.2,0.1-0.4,0.4-0.4h1.2v5.7c0,1.2,0.4,1.9,1.6,1.9c0.8,0,1.4-0.4,2.1-1v-6.6h1.6v8.8h-1.3
				l-0.1-0.9c-0.8,0.7-1.7,1.1-2.6,1.1c-1.9,0-2.9-1.2-2.9-3V177.7z"/>
			<path class="st0" d="M245,178.5l-1.4-0.1v-1h1.4v-2.8h1.6v2.8h2.1v1.2h-2.1v5c0,1.1,0.5,1.4,1.3,1.4c0.4,0,0.8-0.1,1.2-0.2
				l0.2,1.3c-0.5,0.1-1,0.2-1.5,0.2c-1.7,0-2.8-1-2.8-2.6V178.5z"/>
			<path class="st0" d="M254.2,174.9c0-0.5,0.4-0.9,1-0.9s1,0.4,1,0.9c0,0.5-0.4,0.9-1,0.9S254.2,175.4,254.2,174.9z M254.4,177.3
				h1.6v8.4c0,0.2-0.2,0.4-0.4,0.4h-1.2V177.3z"/>
			<path class="st0" d="M261.8,181c0-2.3,1.2-3.9,3.6-3.9c1,0,1.8,0.2,2.8,0.5l-0.4,1.3c-0.8-0.3-1.5-0.4-2.3-0.4
				c-1.6,0-2.1,1.1-2.1,2.7v1.1c0,1.6,0.5,2.7,2.1,2.7c0.8,0,1.5-0.2,2.3-0.4l0.4,1.3c-0.9,0.3-1.8,0.5-2.8,0.5
				c-2.4,0-3.6-1.6-3.6-3.9V181z"/>
			<path class="st0" d="M278.7,185.2c-0.7,0.7-1.5,1.1-2.5,1.1c-1.8,0-2.8-1.1-2.8-2.7c0-1.9,1.6-2.6,3.8-2.6h1.3v-0.6
				c0-1.3-0.5-2-1.8-2c-0.9,0-1.5,0.2-2.4,0.4l-0.4-1.3c1-0.3,1.8-0.5,2.7-0.5c2.3,0,3.4,1.3,3.4,3.1v5.8h-1.3L278.7,185.2z
				 M278.5,182.3h-1.2c-1.4,0-2.4,0.3-2.4,1.4c0,0.8,0.5,1.3,1.5,1.3c0.7,0,1.5-0.4,2.1-0.9V182.3z"/>
			<path class="st0" d="M293.7,177.3h1.3l0.1,0.9c0.8-0.7,1.7-1.1,2.6-1.1c1.9,0,2.9,1.2,2.9,3v5.6c0,0.2-0.2,0.4-0.4,0.4H299v-5.7
				c0-1.3-0.4-1.9-1.6-1.9c-0.8,0-1.4,0.4-2.1,1v6.6h-1.6V177.3z"/>
			<path class="st0" d="M311.4,185.2c-0.7,0.7-1.5,1.1-2.5,1.1c-1.8,0-2.8-1.1-2.8-2.7c0-1.9,1.6-2.6,3.8-2.6h1.3v-0.6
				c0-1.3-0.5-2-1.8-2c-0.9,0-1.5,0.2-2.4,0.4l-0.4-1.3c1-0.3,1.8-0.5,2.7-0.5c2.3,0,3.4,1.3,3.4,3.1v5.8h-1.3L311.4,185.2z
				 M311.2,182.3H310c-1.4,0-2.4,0.3-2.4,1.4c0,0.8,0.5,1.3,1.5,1.3c0.7,0,1.5-0.4,2.1-0.9V182.3z"/>
			<path class="st0" d="M318.6,181c0-2.3,1.2-3.9,3.6-3.9c1,0,1.8,0.2,2.8,0.5l-0.4,1.3c-0.8-0.3-1.5-0.4-2.3-0.4
				c-1.6,0-2.1,1.1-2.1,2.7v1.1c0,1.6,0.5,2.7,2.1,2.7c0.8,0,1.5-0.2,2.3-0.4l0.4,1.3c-0.9,0.3-1.8,0.5-2.8,0.5
				c-2.4,0-3.6-1.6-3.6-3.9V181z"/>
			<path class="st0" d="M330.4,174.9c0-0.5,0.4-0.9,1-0.9s1,0.4,1,0.9c0,0.5-0.4,0.9-1,0.9S330.4,175.4,330.4,174.9z M330.6,177.3
				h1.6v8.4c0,0.2-0.2,0.4-0.4,0.4h-1.2V177.3z"/>
			<path class="st0" d="M338,181c0-2.4,1.4-3.9,3.7-3.9c2.3,0,3.7,1.5,3.7,3.9v1.4c0,2.4-1.4,3.9-3.7,3.9s-3.7-1.5-3.7-3.9V181z
				 M339.6,182.3c0,1.6,0.5,2.7,2.1,2.7c1.5,0,2.1-1,2.1-2.7v-1.2c0-1.6-0.5-2.7-2.1-2.7c-1.5,0-2.1,1-2.1,2.7V182.3z"/>
			<path class="st0" d="M351.2,177.3h1.3l0.1,0.9c0.8-0.7,1.7-1.1,2.6-1.1c1.9,0,2.9,1.2,2.9,3v5.6c0,0.2-0.2,0.4-0.4,0.4h-1.2v-5.7
				c0-1.3-0.4-1.9-1.6-1.9c-0.8,0-1.4,0.4-2.1,1v6.6h-1.6V177.3z"/>
			<path class="st0" d="M368.9,185.2c-0.7,0.7-1.5,1.1-2.5,1.1c-1.8,0-2.8-1.1-2.8-2.7c0-1.9,1.6-2.6,3.8-2.6h1.3v-0.6
				c0-1.3-0.5-2-1.8-2c-0.9,0-1.5,0.2-2.4,0.4l-0.4-1.3c1-0.3,1.8-0.5,2.7-0.5c2.3,0,3.4,1.3,3.4,3.1v5.8H369L368.9,185.2z
				 M368.7,182.3h-1.2c-1.4,0-2.4,0.3-2.4,1.4c0,0.8,0.5,1.3,1.5,1.3c0.7,0,1.5-0.4,2.1-0.9V182.3z"/>
			<path class="st0" d="M376.3,173.8h1.6v10.5c0,0.5,0.2,0.7,0.5,0.7l-0.3,1.3c-1-0.1-1.8-0.4-1.8-1.8V173.8z"/>
			<path class="st0" d="M391.5,184.3c1,0.3,2,0.6,3,0.6c1.5,0,2.2-0.8,2.2-2c0-2.7-5.3-1.9-5.3-5.7c0-2,1.6-3.2,3.8-3.2
				c1,0,1.8,0.2,2.8,0.6l-0.4,1.3c-0.9-0.3-1.5-0.5-2.4-0.5c-1.4,0-2.1,0.7-2.1,1.8c0,2.4,5.3,1.9,5.3,5.7c0,2-1.5,3.3-3.9,3.3
				c-1.2,0-2.1-0.3-3.3-0.6L391.5,184.3z"/>
			<path class="st0" d="M407.7,173.5h1.5l-3.7,13.2H404L407.7,173.5z"/>
			<path class="st0" d="M415.7,176c0.3-1.1,1.1-2,2.2-2c1.1,0,1.9,0.8,2.2,2l2.7,10.1h-1.6l-0.9-3.3h-4.8l-0.9,3.3h-1.6L415.7,176z
				 M420,181.4l-1.3-5.2c-0.1-0.4-0.3-0.7-0.7-0.7s-0.6,0.3-0.7,0.7l-1.3,5.2H420z"/>
		</g>
	</g>
</g>
</svg>
