<?xml version="1.0" encoding="utf-8"?>
<!-- Generator: Adobe Illustrator 25.3.1, SVG Export Plug-In . SVG Version: 6.00 Build 0)  -->
<svg version="1.1" id="Layer_1" xmlns="http://www.w3.org/2000/svg" xmlns:xlink="http://www.w3.org/1999/xlink" x="0px" y="0px"
	 viewBox="0 0 500 300" style="enable-background:new 0 0 500 300;" xml:space="preserve">
<style type="text/css">
	.st0{fill:#281470;}
	.st1{fill:#FF7815;}
</style>
<g>
	<g>
		<path class="st0" d="M263.8,179.1h-9.4l-2.8,5.2h-5l13.4-23.6h5.4l3.8,23.6h-4.6L263.8,179.1z M263.2,175.1l-1.4-9.5l-5.7,9.5
			H263.2z"/>
		<path class="st0" d="M275.8,167.2h4.4l-0.5,2.2c1.1-0.9,2.1-1.6,3.1-2c1-0.4,2-0.6,3-0.6c1.4,0,2.5,0.4,3.3,1.2
			c0.8,0.8,1.2,1.9,1.2,3.2c0,0.6-0.2,1.7-0.5,3.4l-2,9.7h-4.6l2-9.7c0.3-1.5,0.5-2.3,0.5-2.6c0-0.6-0.2-1.1-0.5-1.4
			c-0.3-0.3-0.8-0.5-1.5-0.5c-0.7,0-1.4,0.3-2.3,0.9c-0.8,0.6-1.5,1.3-2,2.3c-0.3,0.7-0.7,2-1.2,4.1l-1.5,7h-4.6L275.8,167.2z"/>
		<path class="st0" d="M308.1,184.3h-4.4l0.4-1.9c-0.8,0.8-1.7,1.4-2.5,1.7c-0.8,0.3-1.7,0.5-2.7,0.5c-1.8,0-3.2-0.6-4.3-1.8
			c-1.1-1.2-1.7-3-1.7-5.4c0-2.7,0.8-5.2,2.3-7.4c1.5-2.2,3.6-3.3,6.1-3.3c2.3,0,4,0.9,5.2,2.7l1.9-8.9h4.6L308.1,184.3z
			 M297.4,177.3c0,1.2,0.3,2.2,0.9,2.9c0.6,0.7,1.4,1,2.3,1c0.8,0,1.6-0.3,2.3-0.9c0.7-0.6,1.3-1.5,1.7-2.6c0.4-1.2,0.7-2.3,0.7-3.4
			c0-1.2-0.3-2.2-1-3c-0.7-0.8-1.4-1.1-2.3-1.1c-1.4,0-2.5,0.8-3.3,2.3S297.4,175.6,297.4,177.3z"/>
		<path class="st0" d="M315.8,167.2h4.3l-0.7,3.3c1.6-2.5,3.4-3.7,5.2-3.7c0.7,0,1.4,0.2,2.1,0.5l-1.8,3.8c-0.4-0.2-0.9-0.2-1.3-0.2
			c-0.8,0-1.6,0.3-2.4,0.9c-0.8,0.6-1.5,1.4-1.9,2.4c-0.5,1-0.9,2.6-1.4,4.8l-1.1,5.4h-4.6L315.8,167.2z"/>
		<path class="st0" d="M331.9,172l-4.5-0.4c0.5-1.5,1.4-2.7,2.7-3.6c1.3-0.9,3-1.3,5.1-1.3c2.2,0,3.8,0.4,4.9,1.3
			c1.1,0.9,1.6,2,1.6,3.2c0,0.5,0,1.1-0.1,1.6c-0.1,0.6-0.4,2.1-1,4.6c-0.5,2-0.7,3.5-0.7,4.3c0,0.7,0.1,1.5,0.4,2.4h-4.5
			c-0.2-0.6-0.3-1.3-0.3-1.9c-0.7,0.8-1.5,1.3-2.3,1.7c-0.9,0.4-1.8,0.6-2.7,0.6c-1.4,0-2.6-0.5-3.5-1.4c-0.9-0.9-1.4-2.1-1.4-3.6
			c0-1.6,0.5-2.9,1.5-3.9c1-1,2.8-1.6,5.4-1.8c2.2-0.2,3.7-0.4,4.4-0.7c0.2-0.6,0.3-1.2,0.3-1.5c0-0.5-0.2-0.9-0.6-1.2
			c-0.4-0.3-1-0.5-1.8-0.5c-0.8,0-1.5,0.2-2,0.5C332.4,170.9,332,171.4,331.9,172z M336.3,176.3c-0.3,0.1-0.7,0.1-1.1,0.2
			c-2.3,0.3-3.8,0.7-4.5,1.2c-0.5,0.4-0.8,0.9-0.8,1.6c0,0.5,0.2,1,0.6,1.4c0.4,0.4,0.9,0.6,1.5,0.6c0.7,0,1.4-0.2,2-0.5
			c0.6-0.3,1.1-0.8,1.4-1.3c0.3-0.5,0.6-1.4,0.8-2.5L336.3,176.3z"/>
		<path class="st0" d="M359.5,184.3h-4.4l0.4-1.9c-0.8,0.8-1.7,1.4-2.5,1.7c-0.8,0.3-1.7,0.5-2.7,0.5c-1.8,0-3.2-0.6-4.3-1.8
			c-1.1-1.2-1.7-3-1.7-5.4c0-2.7,0.8-5.2,2.3-7.4c1.5-2.2,3.6-3.3,6.1-3.3c2.3,0,4,0.9,5.2,2.7l1.9-8.9h4.6L359.5,184.3z
			 M348.8,177.3c0,1.2,0.3,2.2,0.9,2.9c0.6,0.7,1.4,1,2.3,1c0.8,0,1.6-0.3,2.3-0.9c0.7-0.6,1.3-1.5,1.7-2.6c0.4-1.2,0.7-2.3,0.7-3.4
			c0-1.2-0.3-2.2-1-3c-0.7-0.8-1.4-1.1-2.3-1.1c-1.4,0-2.5,0.8-3.3,2.3S348.8,175.6,348.8,177.3z"/>
		<path class="st0" d="M367.4,167.2h4.6l-3.6,17.1h-4.6L367.4,167.2z M368.8,160.7h4.6l-0.9,4.2h-4.6L368.8,160.7z"/>
		<path class="st0" d="M376.7,167.2h4.4l-0.5,2.2c1.1-0.9,2.1-1.6,3.1-2c0.9-0.4,2-0.6,3-0.6c1.4,0,2.5,0.4,3.3,1.2
			c0.8,0.8,1.2,1.9,1.2,3.2c0,0.6-0.2,1.7-0.5,3.4l-2,9.7h-4.6l2-9.7c0.3-1.5,0.5-2.3,0.5-2.6c0-0.6-0.2-1.1-0.5-1.4
			c-0.3-0.3-0.8-0.5-1.5-0.5c-0.7,0-1.4,0.3-2.3,0.9c-0.8,0.6-1.5,1.3-2,2.3c-0.3,0.7-0.7,2-1.2,4.1l-1.5,7h-4.6L376.7,167.2z"/>
		<path class="st0" d="M399.7,172l-4.5-0.4c0.5-1.5,1.4-2.7,2.7-3.6c1.3-0.9,3-1.3,5.1-1.3c2.2,0,3.8,0.4,4.9,1.3
			c1.1,0.9,1.6,2,1.6,3.2c0,0.5,0,1.1-0.1,1.6c-0.1,0.6-0.4,2.1-1,4.6c-0.5,2-0.7,3.5-0.7,4.3c0,0.7,0.1,1.5,0.4,2.4h-4.5
			c-0.2-0.6-0.3-1.3-0.3-1.9c-0.7,0.8-1.5,1.3-2.3,1.7c-0.9,0.4-1.8,0.6-2.7,0.6c-1.4,0-2.6-0.5-3.5-1.4c-0.9-0.9-1.4-2.1-1.4-3.6
			c0-1.6,0.5-2.9,1.5-3.9c1-1,2.8-1.6,5.4-1.8c2.2-0.2,3.7-0.4,4.4-0.7c0.2-0.6,0.3-1.2,0.3-1.5c0-0.5-0.2-0.9-0.6-1.2
			c-0.4-0.3-1-0.5-1.8-0.5c-0.8,0-1.5,0.2-2,0.5C400.2,170.9,399.9,171.4,399.7,172z M404.1,176.3c-0.3,0.1-0.7,0.1-1.1,0.2
			c-2.3,0.3-3.8,0.7-4.5,1.2c-0.5,0.4-0.8,0.9-0.8,1.6c0,0.5,0.2,1,0.6,1.4c0.4,0.4,0.9,0.6,1.5,0.6c0.7,0,1.4-0.2,2-0.5
			c0.6-0.3,1.1-0.8,1.4-1.3c0.3-0.5,0.6-1.4,0.8-2.5L404.1,176.3z"/>
	</g>
</g>
<g>
	<g>
		<path class="st0" d="M222.2,144.8h-9.4L210,150h-5l13.4-23.6h5.4l3.8,23.6H223L222.2,144.8z M221.6,140.9l-1.4-9.5l-5.7,9.5H221.6
			z M223.1,120.2h4.9l-5.2,4.8h-3.1L223.1,120.2z"/>
		<path class="st0" d="M230.3,150.9l4.9,0.7c0,0.5,0.1,0.9,0.2,1.1c0.2,0.3,0.4,0.5,0.8,0.6c0.4,0.2,0.9,0.3,1.5,0.3
			c1,0,1.8-0.2,2.4-0.6c0.4-0.3,0.8-0.8,1.1-1.5c0.2-0.4,0.4-1.3,0.7-2.7l0.2-0.8c-1.6,1.3-3.3,2-5,2c-1.7,0-3.1-0.6-4.1-1.8
			c-1.1-1.2-1.6-2.9-1.6-5.2c0-2,0.4-3.9,1.1-5.5c0.7-1.7,1.8-2.9,3.1-3.8c1.3-0.9,2.7-1.3,4-1.3c1.1,0,2.2,0.3,3.1,0.9
			c0.9,0.6,1.7,1.4,2.2,2.5l0.6-3h4.3l-3,14.3c-0.5,2.3-0.9,3.9-1.2,4.9c-0.3,1-0.7,1.8-1.1,2.3c-0.4,0.6-1,1.1-1.6,1.5
			c-0.7,0.4-1.4,0.7-2.3,0.8c-0.9,0.2-1.9,0.3-2.9,0.3c-2.4,0-4.2-0.4-5.5-1.2c-1.2-0.8-1.9-2.2-1.9-4.1
			C230.2,151.4,230.2,151.2,230.3,150.9z M235.7,142.7c0,1.3,0.3,2.3,0.9,3c0.6,0.7,1.3,1,2.2,1c0.8,0,1.6-0.3,2.3-0.9
			c0.8-0.6,1.3-1.5,1.7-2.6c0.4-1.1,0.6-2.2,0.6-3.3c0-1.2-0.3-2.2-1-2.9c-0.7-0.7-1.4-1.1-2.3-1.1c-0.8,0-1.6,0.3-2.3,1
			c-0.7,0.7-1.3,1.7-1.7,3C235.9,140.9,235.7,141.8,235.7,142.7z"/>
		<path class="st0" d="M254.2,132.9h4.6l-2.1,10.1c-0.3,1.2-0.4,2-0.4,2.3c0,0.5,0.2,0.9,0.5,1.3c0.4,0.4,0.8,0.5,1.4,0.5
			c0.4,0,0.8-0.1,1.2-0.2c0.4-0.2,0.8-0.4,1.2-0.7c0.4-0.3,0.8-0.7,1.1-1.1c0.3-0.4,0.6-0.9,0.9-1.6c0.2-0.5,0.4-1.3,0.7-2.4
			l1.7-8.2h4.6l-3.6,17.1h-4.3l0.5-2.3c-1.9,1.8-3.9,2.7-6.2,2.7c-1.4,0-2.5-0.4-3.3-1.2s-1.2-1.9-1.2-3.2c0-0.6,0.2-1.8,0.5-3.5
			L254.2,132.9z"/>
		<path class="st0" d="M277.4,137.7l-4.5-0.4c0.5-1.5,1.4-2.7,2.7-3.6c1.3-0.9,3-1.3,5.1-1.3c2.2,0,3.8,0.4,4.9,1.3
			c1.1,0.9,1.6,2,1.6,3.2c0,0.5,0,1.1-0.1,1.6c-0.1,0.6-0.4,2.1-1,4.6c-0.5,2-0.7,3.5-0.7,4.3c0,0.7,0.1,1.5,0.4,2.4h-4.5
			c-0.2-0.6-0.3-1.3-0.3-1.9c-0.7,0.8-1.5,1.3-2.3,1.7c-0.9,0.4-1.8,0.6-2.7,0.6c-1.4,0-2.6-0.5-3.5-1.4c-0.9-0.9-1.4-2.1-1.4-3.6
			c0-1.6,0.5-2.9,1.5-3.9c1-1,2.8-1.6,5.4-1.8c2.2-0.2,3.7-0.4,4.4-0.7c0.2-0.6,0.3-1.2,0.3-1.5c0-0.5-0.2-0.9-0.6-1.2
			c-0.4-0.3-1-0.5-1.8-0.5c-0.8,0-1.5,0.2-2,0.5C277.9,136.6,277.6,137.1,277.4,137.7z M281.8,142c-0.3,0.1-0.7,0.1-1.1,0.2
			c-2.3,0.3-3.8,0.7-4.5,1.2c-0.5,0.4-0.8,0.9-0.8,1.6c0,0.5,0.2,1,0.6,1.4c0.4,0.4,0.9,0.6,1.5,0.6c0.7,0,1.4-0.2,2-0.5
			c0.6-0.3,1.1-0.8,1.4-1.3c0.3-0.5,0.6-1.4,0.8-2.5L281.8,142z"/>
		<path class="st0" d="M288.6,145.2l4.5-0.7c0.4,0.9,0.9,1.6,1.5,2c0.6,0.4,1.4,0.6,2.4,0.6c1.1,0,1.9-0.2,2.5-0.7
			c0.4-0.3,0.7-0.7,0.7-1.2c0-0.3-0.1-0.6-0.3-0.8c-0.2-0.2-0.9-0.5-1.9-0.9c-2.8-0.9-4.5-1.7-5.2-2.2c-1-0.8-1.6-1.9-1.6-3.3
			c0-1.4,0.5-2.5,1.5-3.5c1.4-1.4,3.5-2,6.3-2c2.2,0,3.9,0.4,5,1.2c1.1,0.8,1.8,1.9,2.1,3.3l-4.3,0.7c-0.2-0.6-0.6-1.1-1.1-1.4
			c-0.7-0.4-1.5-0.6-2.5-0.6c-1,0-1.7,0.2-2.1,0.5c-0.4,0.3-0.6,0.7-0.6,1.1c0,0.4,0.2,0.8,0.6,1.1c0.3,0.2,1.1,0.5,2.6,0.9
			c2.3,0.7,3.8,1.3,4.5,1.9c1.1,0.9,1.6,2,1.6,3.2c0,1.6-0.7,3-2,4.2c-1.4,1.2-3.3,1.8-5.8,1.8c-2.5,0-4.4-0.5-5.7-1.4
			C290,148.2,289.1,146.9,288.6,145.2z"/>
		<path class="st0" d="M332.6,150h-4.4l0.4-1.9c-0.8,0.8-1.7,1.4-2.5,1.7c-0.8,0.3-1.7,0.5-2.7,0.5c-1.8,0-3.2-0.6-4.3-1.8
			c-1.1-1.2-1.7-3-1.7-5.4c0-2.7,0.8-5.2,2.3-7.4c1.5-2.2,3.6-3.3,6.1-3.3c2.3,0,4,0.9,5.2,2.7l1.9-8.9h4.6L332.6,150z M321.9,143.1
			c0,1.2,0.3,2.2,0.9,2.9c0.6,0.7,1.4,1,2.3,1c0.8,0,1.6-0.3,2.3-0.9c0.7-0.6,1.3-1.5,1.7-2.6c0.4-1.2,0.7-2.3,0.7-3.4
			c0-1.2-0.3-2.2-1-3c-0.7-0.8-1.4-1.1-2.3-1.1c-1.4,0-2.5,0.8-3.3,2.3C322.3,139.7,321.9,141.3,321.9,143.1z"/>
		<path class="st0" d="M353.6,142.9H342c0,0.2,0,0.3,0,0.4c0,1.1,0.3,2.1,1,2.8c0.7,0.7,1.4,1,2.4,1c1.5,0,2.7-0.8,3.6-2.4l4.1,0.7
			c-0.8,1.7-1.9,2.9-3.2,3.7c-1.3,0.8-2.9,1.3-4.5,1.3c-2.3,0-4.2-0.7-5.6-2.2c-1.4-1.5-2.2-3.4-2.2-5.8c0-2.3,0.7-4.4,2-6.3
			c1.8-2.5,4.3-3.7,7.6-3.7c2.1,0,3.8,0.6,5,1.9c1.2,1.3,1.9,3.1,1.9,5.4C353.9,141,353.8,142,353.6,142.9z M349.7,140.1
			c0-0.2,0-0.4,0-0.5c0-1.3-0.3-2.2-0.9-2.9s-1.3-1-2.3-1c-1,0-1.8,0.4-2.6,1.1c-0.8,0.7-1.3,1.8-1.5,3.2H349.7z"/>
	</g>
</g>
<path class="st0" d="M113,167.4c0-33.3,77.4-60.3,172.8-60.3c58.8,0,110.8,10.2,142,25.9c-21.9-19-92.6-31.2-176-28.7
	c-100.3,3-181,26.2-180.3,51.9c0.4,12.3,19.5,23,50.4,30.4C116.1,180.6,113,174.1,113,167.4z"/>
<path class="st1" d="M318.8,205.7c-76.5,5.2-140.2-14.8-142.2-44.8c-0.6-9,4.4-17.9,13.9-26.1c-33.8,7.9-55.9,20.9-55.9,35.7
	c0,24,58.3,43.5,130.1,43.5c36.5,0,69.4-5,93-13.1C345.4,203.1,332.3,204.8,318.8,205.7z"/>
</svg>
