<?xml version="1.0" encoding="utf-8"?>
<!-- Generator: Adobe Illustrator 25.3.1, SVG Export Plug-In . SVG Version: 6.00 Build 0)  -->
<svg version="1.1" id="Layer_1" xmlns="http://www.w3.org/2000/svg" xmlns:xlink="http://www.w3.org/1999/xlink" x="0px" y="0px"
	 viewBox="0 0 500 300" style="enable-background:new 0 0 500 300;" xml:space="preserve">
<style type="text/css">
	.st0{fill:#EA1D25;}
</style>
<path class="st0" d="M384.8,125.1c0,1.9-0.2,4.2-0.6,5.4c-1.5-0.2-3-0.2-4.8-0.2c-1.5,0-3.1,0.1-4.6,0.3v24.5h-6.3v-28.6
	c2.7-0.9,7.2-1.6,10.8-1.6C381.2,124.9,383.4,125,384.8,125.1 M342.5,137.6h14.2c0-4.7-2.5-7.4-6.9-7.4
	C345.4,130.2,343,132.7,342.5,137.6 M362.7,142.9h-20.1c0.8,5.1,3.8,7.6,9.4,7.6c3.4,0,6.9-0.7,10.1-2.2c-0.2,1.7-0.6,3.8-1,5.7
	c-2.9,1.3-5.9,1.8-9.3,1.8c-10.5,0-15.6-5.8-15.6-15.6c0-8.5,3.9-15.3,14-15.3c9,0,12.9,5.9,12.9,13.1
	C363.1,139.8,362.9,141.2,362.7,142.9 M324.8,148.5v-17.6c-1.7-0.3-3.4-0.6-5-0.6c-6.2,0-9.2,3.9-9.2,10.4c0,5.8,2.3,10,8,10
	C321.1,150.7,323.1,149.8,324.8,148.5 M331.1,115.1v40.1h-5.8l-0.3-3.7c-1.6,2.7-4.1,4.4-8.2,4.4c-7.6,0-12.6-5.5-12.6-15.1
	c0-10.1,5.4-15.8,16-15.8c1.7,0,3.2,0.2,4.7,0.5v-9.4C326.8,115.2,329,115.1,331.1,115.1 M299.1,135.9v19.2h-6.3V137
	c0-4.5-1.5-6.7-7.8-6.7c-1.5,0-3.3,0.2-5,0.5v24.4h-6.3v-28.6c4-1,8.4-1.6,11.4-1.6C295.8,124.9,299.1,129,299.1,135.9 M260.6,148.6
	v-18c-1.3-0.2-2.7-0.3-4.5-0.3c-6.5,0-9.6,4-9.6,10.4c0,5.8,2.3,10,8,10C256.9,150.7,259,149.9,260.6,148.6 M266.9,126.5v28.6h-5.8
	l-0.3-3.4c-1.6,2.5-4.1,4.1-8.1,4.1c-7.6,0-12.6-5.5-12.6-15.1c0-10.1,5.4-15.8,16-15.8C260.2,124.9,263.6,125.4,266.9,126.5
	 M233.1,150.4c1.8,0,3.5-0.3,4.9-0.9c-0.2,1.7-0.4,3.7-0.7,5.3c-1.7,0.7-3.5,0.9-5.3,0.9c-6.1,0-10-2.8-10-9.8V116
	c1.9-0.6,4.4-0.9,6.3-0.9v10.8h10c-0.1,1.9-0.3,3.7-0.6,5.4h-9.4v14C228.3,149,230.1,150.4,233.1,150.4 M215.7,135.9v19.2h-6.3V137
	c0-4.5-1.5-6.7-7.8-6.7c-1.5,0-3.3,0.2-5,0.5v24.4h-6.3v-28.6c4-1,8.4-1.6,11.4-1.6C212.3,124.9,215.7,129,215.7,135.9 M177.2,148.6
	v-18c-1.3-0.2-2.7-0.3-4.5-0.3c-6.5,0-9.6,4-9.6,10.4c0,5.8,2.3,10,8,10C173.5,150.7,175.5,149.9,177.2,148.6 M183.5,126.5v28.6
	h-5.8l-0.3-3.4c-1.6,2.5-4.1,4.1-8.1,4.1c-7.6,0-12.6-5.5-12.6-15.1c0-10.1,5.4-15.8,16-15.8C176.8,124.9,180.1,125.4,183.5,126.5
	 M126.3,153.9c0.1-2.3,0.5-3.9,1.1-5.8c3.2,1.5,7.3,2.2,10.5,2.2c5.3,0,8.3-1.7,8.3-5.1c0-3.3-2.2-4.9-7.6-7.2l-2.9-1.3
	c-5.4-2.3-9-5.4-9-11.4c0-6.5,4.5-10.7,13.8-10.7c3.7,0,7.2,0.5,10.5,1.7c-0.2,2.3-0.6,4.1-1.1,5.7c-3.1-1.1-6.8-1.7-9.4-1.7
	c-5,0-7.3,1.9-7.3,5c0,3,2.2,4.7,6.2,6.4l3.1,1.3c7.3,3.1,10.3,6.4,10.3,11.9c0,6.6-5,11.1-14.7,11.1
	C133.3,156.1,129.5,155.4,126.3,153.9 M97.5,125.7c-0.1-2.1-0.7-4.2-1.8-6l-9.5-16.5c-0.7-1.3-1.2-2.6-1.5-4l-0.4,0.7
	c-2.4,4.1-2.4,9.1,0,13.2l7.6,13.2c2.4,4.1,2.4,9.1,0,13.2l-0.4,0.7c-0.3-1.4-0.8-2.7-1.5-4l-7-12.1l-4.5-7.7
	c-0.7-1.3-1.2-2.6-1.5-4l-0.4,0.7c-2.4,4.1-2.4,9.1,0,13.2l7.7,13.3c2.4,4.1,2.4,9.1,0,13.2l-0.4,0.7c-0.3-1.4-0.8-2.7-1.5-4
	l-9.5-16.5c-1.3-2.2-1.9-4.7-1.8-7.2c-10.2,2.7-17.3,8.3-17.3,14.9c0,9.1,13.6,16.5,30.5,16.5c16.8,0,30.5-7.4,30.5-16.5
	C114.8,134,107.7,128.3,97.5,125.7 M446.2,194.8c-0.1,0.7-0.2,1.6-0.3,2.3c-1.2,0.4-2.3,0.6-3.5,0.6c-3.7,0-6-1.9-6-6.2v-20.9
	c0.8-0.3,1.9-0.4,2.7-0.4v7.2h7c0,0.9-0.1,1.7-0.3,2.4H439v11.4c0,2.9,1.4,4.2,3.8,4.2C443.9,195.4,445.1,195.2,446.2,194.8
	 M431.5,184.2v13.1h-2.7v-12.6c0-3.6-1.4-5.5-6.1-5.5c-1.4,0-3,0.2-4.5,0.5v17.5h-2.7v-19.4c2.6-0.7,5.1-1.1,7.3-1.1
	C429.3,176.8,431.5,179.5,431.5,184.2 M396.7,185.8h11.8v-0.2c0-3.8-1.9-6.4-5.7-6.4C398.9,179.2,397,181.8,396.7,185.8 M411,188.2
	h-14.3c0.3,4.7,2.8,7.1,7.2,7.1c2.1,0,4.4-0.5,6.5-1.7c-0.1,0.7-0.2,1.7-0.4,2.6c-1.9,1.1-4,1.5-6.2,1.5c-6.5,0-9.9-3.9-9.9-10.6
	c0-5.8,2.6-10.3,9-10.3c5.8,0,8.3,4,8.3,9C411.2,186.6,411.1,187.5,411,188.2 M390.1,184.2v13.1h-2.7v-12.7c0-3.5-1.7-5.4-5.7-5.4
	c-1.8,0-3.5,0.4-5.2,1.1c0.4,1,0.7,2.3,0.7,3.8v13.1h-2.7v-12.7c0-3.8-1.6-5.3-5.7-5.3c-1.5,0-3.1,0.2-4.6,0.5v17.5h-2.7v-19.4
	c2.6-0.7,5.2-1.1,7.6-1.1c2.7,0,4.7,0.5,6.1,1.6c2.1-1,4.4-1.6,6.8-1.6C387.8,176.8,390.1,179.5,390.1,184.2 M342.7,185.8h11.8v-0.2
	c0-3.8-1.9-6.4-5.7-6.4C344.9,179.2,343,181.7,342.7,185.8 M357,188.2h-14.3c0.3,4.7,2.8,7.1,7.2,7.1c2.1,0,4.4-0.5,6.5-1.7
	c-0.1,0.7-0.2,1.7-0.4,2.6c-1.9,1.1-4,1.5-6.2,1.5c-6.5,0-9.9-3.9-9.9-10.6c0-5.8,2.6-10.3,9-10.3c5.8,0,8.3,4,8.3,9
	C357.2,186.6,357.1,187.4,357,188.2 M333.9,193.5v-13.8c-1.2-0.3-2.4-0.5-3.8-0.5c-5.2,0-7.6,3-7.6,8.2c0,5,2.2,8.1,6.4,8.1
	C331,195.5,332.6,194.8,333.9,193.5 M336.6,177.9v18.6c0,5.4-2.8,8.7-9.3,8.7c-2,0-4-0.3-5.8-1.1c0-0.7,0.1-1.7,0.3-2.4
	c1.8,0.9,4,1.2,5.5,1.2c4.2,0,6.6-1.7,6.6-6v-1c-1.3,1.1-3,1.9-5.2,1.9c-5.5,0-8.9-3.7-8.9-10.3c0-6.8,3.4-10.6,10.3-10.6
	C332.6,176.8,334.6,177.1,336.6,177.9 M308,195.5c2,0,3.6-0.7,4.9-2v-13.8c-1.2-0.3-2.4-0.5-3.8-0.5c-5.2,0-7.6,3-7.6,8.2
	C301.6,192.4,303.8,195.5,308,195.5 M315.6,177.9v19.4h-2.5l-0.1-1.5c-1.3,1.2-3.1,2-5.3,2c-5.5,0-8.9-3.7-8.9-10.3
	c0-6.8,3.4-10.6,10.3-10.6C311.5,176.8,313.6,177.1,315.6,177.9 M294.8,184.2v13.1h-2.7v-12.6c0-3.6-1.4-5.5-6.1-5.5
	c-1.4,0-3,0.2-4.5,0.5v17.5h-2.7v-19.4c2.6-0.7,5.1-1.1,7.3-1.1C292.6,176.8,294.8,179.5,294.8,184.2 M265.9,195.5
	c2,0,3.6-0.7,4.9-2v-13.8c-1.2-0.3-2.4-0.5-3.8-0.5c-5.2,0-7.6,3-7.6,8.2C259.5,192.4,261.7,195.5,265.9,195.5 M273.5,177.9v19.4
	H271l-0.1-1.5c-1.3,1.2-3.1,2-5.3,2c-5.5,0-8.9-3.7-8.9-10.3c0-6.8,3.4-10.6,10.3-10.6C269.5,176.8,271.5,177.1,273.5,177.9
	 M252.9,197.3h-2.8l-0.8-12.1c-0.2-3.7-0.4-7.3-0.5-10.9c-1.4,4-3,8.1-4.5,11.8l-4.5,11.2h-2.1l-4.8-12.2c-1.5-3.7-2.9-7.4-4-10.7
	c-0.2,3.4-0.4,7.5-0.7,11l-0.9,11.9h-2.8l2.1-26.7c0.9-0.3,2.5-0.4,3.3-0.4l8.9,22.8l8.8-22.4c1-0.3,2.5-0.4,3.4-0.4L252.9,197.3
	 M214.9,194.8c-0.1,0.7-0.2,1.6-0.3,2.3c-1.2,0.4-2.3,0.6-3.5,0.6c-3.7,0-6-1.9-6-6.2v-20.9c0.8-0.3,1.9-0.4,2.7-0.4v7.2h7
	c0,0.9-0.1,1.7-0.3,2.4h-6.7v11.4c0,2.9,1.4,4.2,3.8,4.2C212.6,195.4,213.9,195.2,214.9,194.8 M186.6,185.8h11.8v-0.2
	c0-3.8-1.9-6.4-5.7-6.4C188.8,179.2,186.9,181.7,186.6,185.8 M200.9,188.2h-14.3c0.3,4.7,2.8,7.1,7.2,7.1c2.1,0,4.4-0.5,6.5-1.7
	c-0.1,0.7-0.2,1.7-0.4,2.6c-1.9,1.1-4,1.5-6.2,1.5c-6.5,0-9.9-3.9-9.9-10.6c0-5.8,2.6-10.3,9-10.3c5.8,0,8.3,4,8.3,9
	C201.1,186.6,201,187.4,200.9,188.2 M167.1,196.2c0-1.1,0.2-1.8,0.4-2.4c1.8,1,4.3,1.5,6.3,1.5c3,0,4.8-0.9,4.8-3.1
	c0-2.3-2.1-3.1-4-3.7l-1.8-0.5c-3.4-1-5.3-2.8-5.3-5.9c0-3.4,2.6-5.3,7-5.3c2.2,0,4.3,0.3,6.1,1c0,0.7-0.2,1.5-0.4,2.3
	c-1.8-0.7-3.8-1-5.7-1c-3,0-4.5,1-4.5,2.9c0,2.2,1.5,2.8,3.9,3.6l1.8,0.6c3.1,1,5.4,2.5,5.4,5.9c0,3.5-2.7,5.6-7.4,5.6
	C171.2,197.7,169,197.3,167.1,196.2 M150.2,196.2c0-1.1,0.2-1.8,0.4-2.4c1.8,1,4.3,1.5,6.3,1.5c3,0,4.8-0.9,4.8-3.1
	c0-2.3-2.1-3.1-4-3.7l-1.8-0.5c-3.5-1-5.4-2.8-5.4-5.9c0-3.4,2.6-5.3,7-5.3c2.2,0,4.3,0.3,6.1,1c0,0.7-0.2,1.5-0.4,2.3
	c-1.8-0.7-3.8-1-5.7-1c-3,0-4.5,1-4.5,2.9c0,2.2,1.5,2.8,3.9,3.6l1.8,0.6c3.1,1,5.4,2.5,5.4,5.9c0,3.5-2.7,5.6-7.4,5.6
	C154.3,197.7,152,197.3,150.2,196.2 M142.5,188.2l-5.1-15.1l-5.2,15.1H142.5 M143.4,190.7h-12l-2.2,6.5h-2.9l9.3-26.7
	c1-0.2,2.2-0.3,3.4-0.3l9.5,27h-2.9L143.4,190.7"/>
</svg>
