<?xml version="1.0" encoding="utf-8"?>
<!-- Generator: Adobe Illustrator 25.3.1, SVG Export Plug-In . SVG Version: 6.00 Build 0)  -->
<svg version="1.1" id="Layer_1" xmlns="http://www.w3.org/2000/svg" xmlns:xlink="http://www.w3.org/1999/xlink" x="0px" y="0px"
	 viewBox="0 0 500 300" style="enable-background:new 0 0 500 300;" xml:space="preserve">
<style type="text/css">
	.st0{fill:#89714D;}
</style>
<g>
	<g>
		<g>
			<path class="st0" d="M104.4,211.1v0.3H101l6.9,17.6l5.2-13.1l-1.8-4.5h-2.2v-0.3h9.8v0.3h-3.4l6.8,17.6l7-17.6h-2.7v-0.3h5.4v0.3
				h-2.3l-9.1,22.7h-0.3l-7.1-17.8l-7.1,17.8h-0.3l-9.1-22.7h-2.2v-0.3H104.4z"/>
			<path class="st0" d="M143.1,211.1v0.3h-2.8V233h2.8v0.3h-9.5V233h2.8v-21.5h-2.8v-0.3H143.1z"/>
			<path class="st0" d="M152.6,211.1l11,15.7v-15.3h-2.8v-0.3h6v0.3h-2.8v22.1h-0.2l-14-19.9V233h2.8v0.3h-6V233h2.8v-21.5h-2.8
				v-0.3H152.6z"/>
			<path class="st0" d="M188.1,230.2c-2.1,2.2-5.1,3.3-8.6,3.3c-1.2,0-2.6-0.1-3.4-0.1h-6.2V233h2.8v-21.5h-2.8v-0.3h5.9
				c0.9,0,2.5-0.1,3.7-0.1c3.1,0,6.1,1.1,8.4,3.5c2.2,2.3,3.4,5.2,3.4,8.2C191.2,225.2,190.3,228,188.1,230.2z M176.5,232.9
				c1,0.1,2.1,0.2,3.1,0.2c4.7,0,7.1-3,7.1-10.8c0-4.3-0.6-6.9-1.8-8.6c-1.2-1.7-3-2.5-5.7-2.5c-0.4,0-0.9,0-1.5,0.1
				c-0.6,0-1.1,0.1-1.3,0.1V232.9z"/>
			<path class="st0" d="M208.1,210.7h0.2v6.2h-0.2c-1.3-4.4-3-6-5.3-6c-2.2,0-4.1,1.3-4.1,3.7c0,2.6,1.5,3.8,6.3,5.9
				c1.4,0.6,2.6,1.2,3.3,1.8c2,1.5,2.2,3.2,2.2,4.3c0,3.7-3.4,7.2-7.4,7.2c-3.2,0-4.1-1.2-5.8-1.2c-0.7,0-1.1,0.3-1.3,0.9h-0.2v-7.9
				h0.2c0.7,4.6,3.8,7.9,7.1,7.9c2.9,0,5.1-1.6,5.1-4.2c0-2-1.1-2.8-2.7-3.8c-1.7-1-3.7-1.7-5.8-2.9c-2.4-1.3-3.2-2.8-3.2-5.2
				c0-3.6,2.8-6.9,6.3-6.9c1.8,0,3.4,1,4.2,1C207.6,211.5,208,211.3,208.1,210.7z"/>
			<path class="st0" d="M225.6,233.9c-5.4,0-10.7-5-10.7-11.7c0-6.7,5.2-11.7,10.7-11.7c5.6,0,10.7,5,10.7,11.7
				C236.3,228.7,231.1,233.9,225.6,233.9z M230.4,231.1c1.1-1.9,1.4-5.7,1.4-8.9c0-3.3-0.4-7.2-1.6-9.1c-1-1.5-2.4-2.2-4.7-2.2
				c-2,0-3.4,0.6-4.3,1.7c-1.5,1.7-1.9,5.9-1.9,9.6c0,3.6,0.4,7.5,1.7,9.3c1,1.4,2.4,2.1,4.6,2.1
				C227.9,233.5,229.5,232.7,230.4,231.1z"/>
			<path class="st0" d="M251.6,221.5v0.1c2,0.3,3.6,0.8,4.7,1.8c1.3,1.2,1.7,2.5,1.7,6c0,3.1,0.6,3.6,1.8,3.6c0.7,0,1-0.2,1.7-0.7
				l0.2,0.3c-0.9,0.7-1.5,0.9-2.8,0.9c-3.2,0-5.2-1.5-5.2-5.7c0-3.5-0.2-4.5-1-5.2c-0.7-0.6-1.6-0.9-2.7-0.9h-3.5V233h2.8v0.3h-9.5
				V233h2.8v-21.5h-2.8v-0.3h5.7c0.9,0,2.3-0.1,3.4-0.1c4.6,0,8.2,2.1,8.2,5.7C257.1,219.1,255,220.8,251.6,221.5z M246.6,221.5h3.5
				c2,0,3-1.4,3-4.7c0-3.6-1.3-5.4-4.2-5.4c-0.7,0-1.8,0.1-2.3,0.2V221.5z"/>
			<path class="st0" d="M289.1,211.1v0.3h-3.2v10.2h8.9v-10.2h-3.2v-0.3h9.8v0.3h-2.8V233h2.8v0.3h-9.8V233h3.2v-11h-8.9v11h3.2v0.3
				h-9.8V233h2.8v-21.5h-2.8v-0.3H289.1z"/>
			<path class="st0" d="M316.4,233.9c-5.4,0-10.7-5-10.7-11.7c0-6.7,5.2-11.7,10.7-11.7c5.6,0,10.7,5,10.7,11.7
				C327.2,228.7,321.9,233.9,316.4,233.9z M321.3,231.1c1.1-1.9,1.4-5.7,1.4-8.9c0-3.3-0.4-7.2-1.6-9.1c-1-1.5-2.4-2.2-4.7-2.2
				c-2,0-3.4,0.6-4.3,1.7c-1.5,1.7-1.9,5.9-1.9,9.6c0,3.6,0.4,7.5,1.7,9.3c1,1.4,2.4,2.1,4.6,2.1
				C318.8,233.5,320.3,232.7,321.3,231.1z"/>
			<path class="st0" d="M350.2,211.1v7.5h-0.2c-0.8-4.7-3.5-7.1-7.1-7.1h-0.3V233h2.8v0.3h-9.5V233h2.8v-21.5h-0.4
				c-3.7,0-6.4,2.7-7.1,7.1h-0.2v-7.5H350.2z"/>
			<path class="st0" d="M370.1,211.1v5.4h-0.2c-1.3-3.9-3.5-5-6.4-5h-3.2v10.2h0.7c3.3,0,4.5-1.7,4.8-4.3h0.2v9.1h-0.2
				c-0.3-2.8-1.7-4.4-4.9-4.4h-0.6v11h4.8c3.3,0,5.4-1.8,6.7-5.9h0.2v6.2h-18.4V233h2.8v-21.5h-2.8v-0.3H370.1z"/>
			<path class="st0" d="M385.9,211.1v0.3h-2.8V233h2.8v0.3h-9.5V233h2.8v-21.5h-2.8v-0.3H385.9z"/>
			<path class="st0" d="M402.9,210.7h0.2v6.2h-0.2c-1.3-4.4-3-6-5.3-6c-2.2,0-4.1,1.3-4.1,3.7c0,2.6,1.5,3.8,6.3,5.9
				c1.4,0.6,2.6,1.2,3.3,1.8c2,1.5,2.2,3.2,2.2,4.3c0,3.7-3.4,7.2-7.4,7.2c-3.2,0-4.1-1.2-5.8-1.2c-0.7,0-1.1,0.3-1.3,0.9h-0.2v-7.9
				h0.2c0.7,4.6,3.8,7.9,7.1,7.9c2.9,0,5.1-1.6,5.1-4.2c0-2-1.1-2.8-2.7-3.8c-1.7-1-3.7-1.7-5.8-2.9c-2.4-1.3-3.2-2.8-3.2-5.2
				c0-3.6,2.8-6.9,6.3-6.9c1.8,0,3.4,1,4.2,1C402.4,211.5,402.8,211.3,402.9,210.7z"/>
		</g>
	</g>
	<g>
		<g>
			<path class="st0" d="M228.6,95.2v1.2h-9.3l18.4,51.8h0.2l11.9-32.9L243,96.5h-7.5v-1.2h26.8v1.2h-9.7l18.4,51.8h0.2l18.7-51.8
				h-9.6v-1.2h19.1v1.2h-8l-23.1,63.6H266l-15.4-42.8h-0.2l-15.5,42.8h-2.4l-22.8-63.6h-8v-1.2H228.6z"/>
		</g>
	</g>
	<path class="st0" d="M251,190.8l0.6-0.2l2.7-0.9c0.9-0.2,1.8-0.5,2.6-0.8c0.3-1.3,1.1-3.7,2.7-6.1c2.5-3.6,5.7-6.3,5.7-6.3
		c0,0,0.9,3.4-1.3,7.3c-1,1.7-2.5,3.1-3.9,4.1c1.7-0.6,3.3-1.2,4.9-1.8c2.4-1,4.8-2.1,7.1-3.2c0-1.5,0.3-4.5,1.6-7.7
		c1.9-4.5,5-8.1,5-8.2c0,0,1.8,3.7,0.1,8.5c-0.8,2.3-2.3,4.3-3.7,5.7c0.6-0.3,1.2-0.7,1.8-1c2.8-1.7,5.5-3.5,8-5.4
		c-0.1-1.1-0.2-3.5,0.7-6.2c1.2-3.7,3.6-6.7,3.6-6.7c0,0,1.5,2.9,0.4,6.8c-0.4,1.6-1.3,3-2.1,4.1c2.5-2.1,4.8-4.3,7-6.7
		c-0.3-1-0.9-3.4-0.6-6.4c0.5-3.8,2.2-7.2,2.2-7.3c0,0,2,2.6,1.7,6.6c-0.2,1.9-0.9,3.8-1.6,5.2c2.3-2.6,4.4-5.4,6.2-8.3
		c-0.5-1-1.3-2.9-1.5-5.4c-0.3-3.6,0.8-7,0.8-7c0,0,2.3,2,2.7,5.7c0.2,1.5,0,2.9-0.3,4.2c0.9-1.5,1.8-3.1,2.6-4.7c0.5-1,1-2,1.4-3
		c-0.7-0.9-1.7-2.6-2.3-4.8c-0.8-3.4-0.3-6.9-0.3-7c0,0,2.5,1.6,3.4,5.1c0.3,1.3,0.4,2.6,0.3,3.8c1.2-3.2,2.2-6.5,2.9-9.8
		c-0.7-0.7-1.9-2-2.7-3.8c-1.3-2.9-1.4-6.1-1.4-6.1c0,0,2.4,1,3.8,4c0.4,0.9,0.7,1.8,0.8,2.7c0.5-3.3,0.8-6.6,0.9-10
		c-0.8-0.5-1.8-1.4-2.7-2.7c-1.6-2.4-2.2-5.2-2.2-5.2c0,0,2.3,0.5,4,2.9c0.4,0.5,0.6,1,0.9,1.5c-0.1-2.7-0.4-5.5-0.8-8.2
		c-1-0.4-2.7-1.2-4.3-2.8c-2.4-2.4-3.9-5.8-3.9-5.8c0,0,2.8,0.1,5.4,2.6c0.9,0.9,1.6,1.9,2.2,2.9c-0.8-3.7-1.8-7.2-3.2-10.7
		c-0.9-0.2-2.1-0.6-3.5-1.4c-2.3-1.5-4-3.9-4-3.9c0,0,2.2-0.3,4.6,1.2c0.7,0.4,1.3,0.9,1.8,1.5c-1.3-3.1-2.9-6-4.7-8.9
		c-0.7,0-1.7-0.2-2.9-0.7c-2.1-0.9-3.8-2.6-3.8-2.6c0,0,1.7-0.6,3.9,0.3c0.5,0.2,0.9,0.4,1.3,0.7c-1.4-2.1-3-4.1-4.7-6
		c-0.6,0-1.4-0.2-2.2-0.6c-1.6-0.8-3-2.1-3-2.1c0,0,1.4-0.4,3.1,0.3c0.6,0.3,1.1,0.6,1.6,1c0.2-0.2,0.5-0.2,0.8-0.1
		c-0.2-0.6-0.4-1.4-0.5-2.2c-0.2-1.9,0.4-3.2,0.4-3.2c0,0,1.3,1.9,1.4,3.8c0.1,1.1-0.2,2-0.4,2.5c1.8,2.1,3.5,4.3,5.1,6.6
		c-0.2-0.7-0.5-1.6-0.6-2.4c-0.3-2.4,0.4-4,0.4-4c0,0,1.7,2.3,1.9,4.8c0.2,1.6-0.2,2.8-0.5,3.4c1.9,2.9,3.5,6,4.9,9.1
		c-0.1-0.9-0.2-1.9-0.2-2.8c0.1-2.9,1.3-4.8,1.3-4.8c0,0,1.5,3.2,1.3,6.1c-0.1,2-0.9,3.3-1.4,4c1.4,3.5,2.5,7,3.3,10.7
		c0.1-1.1,0.3-2.4,0.6-3.6c1-3.5,3.1-5.5,3.1-5.5c0,0,0.9,4.2-0.2,7.8c-0.7,2.4-2.1,3.8-2.9,4.5c0.1,0.5,0.2,1.1,0.3,1.6
		c0.4,2.8,0.6,5.5,0.6,8.3c0.3-1,0.7-2.2,1.2-3.2c1.4-2.7,3.4-4,3.5-4c0,0,0.1,3.6-1.5,6.4c-1.1,1.9-2.4,2.8-3.2,3.3
		c-0.1,3.5-0.4,7-1,10.5c0.5-1,1.1-2.1,1.9-3c2.1-2.7,4.6-3.6,4.6-3.6c0,0-0.7,3.9-2.9,6.6c-1.5,1.8-3.2,2.5-4.1,2.8
		c-0.7,3.4-1.8,6.8-3,10.1c0.8-1,1.7-2.1,2.8-3.1c2.8-2.5,5.8-3,5.8-3c0,0-1.5,4.2-4.5,6.6c-2.1,1.7-4.1,2.2-5.2,2.3
		c-0.3,0.7-0.6,1.4-0.9,2.1c-0.9,1.9-1.9,3.8-2.9,5.6c0.9-0.8,2-1.7,3.2-2.5c3.3-2.1,6.4-2.2,6.4-2.2c0,0-2.2,4.1-5.7,6.1
		c-2.3,1.4-4.4,1.5-5.6,1.4c-1.6,2.5-3.4,5-5.4,7.3c1.1-0.6,2.3-1.3,3.5-1.8c3.9-1.5,7.1-1.1,7.1-1.1c0,0-3.2,3.9-7.3,5.3
		c-2.6,0.9-4.7,0.7-6,0.4c-2.3,2.5-4.8,4.8-7.4,7c1.3-0.5,3-1.1,4.6-1.4c4.1-0.8,7.2,0.3,7.2,0.3c0,0-3.9,3.2-8.2,3.9
		c-2.9,0.4-5-0.3-6.2-0.8c-2,1.5-4,2.9-6.1,4.3c-1.2,0.7-2.3,1.4-3.5,2.1c1.9-0.6,4.2-1.2,6.5-1.6c5.4-0.8,9.3,0.6,9.3,0.7
		c0.1,0-5.2,4.1-11,4.6c-4.3,0.4-7.2-1-8.4-1.8c-3.8,1.9-7.7,3.5-11.9,4.9c1.7-0.2,3.8-0.5,5.8-0.4c4.8,0.1,8,1.8,8,1.8
		c0.1,0-5.2,2.8-10.4,2.4c-3.8-0.2-6.2-1.9-7.1-2.6c-0.5,0.1-1,0.3-1.5,0.4l-1.7,0.5l-4.8,1.8l-4,2.4c-1.2,0.8-2.5,1.7-3.3,2.9
		c-0.1,0.1-0.2,0.3-0.3,0.4c-0.6,0.9-1.5,2.2-2.7,1.9c-0.4-0.1-0.5-0.3-0.6-0.4c-0.1-0.2-0.1-0.5,0.1-0.9c0.1-0.2,0.2-0.4,0.4-0.6
		c0.6-0.7,1.3-1.2,2.1-1.7c0.3-0.2,0.6-0.4,0.9-0.6c6.7-5.2,8.2-5.2,8.3-5.3L251,190.8z M251.5,189.4c0.1,0.1,1.6,0.1,8.3,5.3
		c0.3,0.2,0.6,0.4,0.9,0.6c0.7,0.5,1.5,1,2.1,1.7c0.2,0.2,0.3,0.4,0.4,0.6c0.2,0.3,0.2,0.6,0.1,0.9c-0.1,0.1-0.2,0.3-0.6,0.4
		c-1.1,0.3-2.1-1.1-2.7-1.9c-0.1-0.2-0.2-0.3-0.3-0.4c-0.9-1.1-2.1-2-3.3-2.9l-4-2.4l-4.8-1.8l-1.7-0.5c-0.5-0.1-1-0.3-1.5-0.4
		c-0.9,0.8-3.3,2.4-7.1,2.6c-5.2,0.3-10.4-2.4-10.4-2.4c0,0,3.2-1.8,8-1.8c2,0,4.1,0.2,5.8,0.4c-4.2-1.4-8.1-3.1-11.9-4.9
		c-1.2,0.7-4.1,2.2-8.4,1.8c-5.7-0.5-11-4.6-11-4.6c0,0,3.9-1.4,9.3-0.7c2.3,0.3,4.6,1,6.5,1.6c-1.2-0.7-2.4-1.4-3.5-2.1
		c-2.1-1.3-4.1-2.8-6.1-4.3c-1.1,0.5-3.3,1.2-6.2,0.8c-4.3-0.6-8.2-3.9-8.2-3.9c0,0,3.1-1.1,7.2-0.3c1.7,0.3,3.3,0.9,4.6,1.4
		c-2.7-2.2-5.1-4.6-7.4-7c-1.2,0.3-3.4,0.5-6-0.4c-4.1-1.4-7.3-5.3-7.3-5.3c0,0,3.3-0.5,7.1,1.1c1.3,0.5,2.5,1.2,3.5,1.8
		c-2-2.3-3.8-4.8-5.4-7.3c-1.1,0.1-3.2-0.1-5.6-1.4c-3.5-2-5.8-6.1-5.7-6.1c0,0,3.1,0.1,6.4,2.2c1.2,0.8,2.3,1.7,3.2,2.5
		c-1.1-1.8-2-3.7-2.9-5.6c-0.3-0.7-0.6-1.4-0.9-2.1c-1.1-0.1-3.1-0.6-5.2-2.3c-3-2.5-4.5-6.6-4.5-6.6c0,0,2.9,0.5,5.8,3
		c1.1,1,2,2.1,2.8,3.1c-1.3-3.3-2.3-6.7-3-10.1c-0.9-0.3-2.6-1.1-4.1-2.8c-2.2-2.7-2.9-6.6-2.9-6.6c0,0,2.5,1,4.6,3.6
		c0.8,1,1.4,2.1,1.9,3c-0.6-3.5-1-7-1-10.5c-0.8-0.4-2.2-1.4-3.2-3.3c-1.5-2.8-1.5-6.4-1.5-6.4c0,0,2,1.3,3.5,4
		c0.6,1.1,1,2.2,1.2,3.2c0-2.8,0.2-5.6,0.6-8.3c0.1-0.5,0.2-1.1,0.3-1.6c-0.8-0.7-2.1-2.1-2.9-4.5c-1.1-3.6-0.2-7.8-0.2-7.8
		c0,0,2.1,1.9,3.1,5.5c0.3,1.2,0.5,2.5,0.6,3.6c0.8-3.7,1.9-7.2,3.3-10.7c-0.5-0.7-1.2-2-1.4-4c-0.2-3,1.3-6.1,1.3-6.1
		c0,0,1.2,1.9,1.3,4.8c0,1-0.1,2-0.2,2.8c1.4-3.2,3.1-6.2,4.9-9.1c-0.3-0.6-0.7-1.8-0.5-3.4c0.3-2.4,1.9-4.8,1.9-4.8
		c0,0,0.7,1.7,0.4,4c-0.1,0.9-0.4,1.7-0.6,2.4c1.6-2.3,3.3-4.5,5.1-6.6c-0.2-0.5-0.5-1.4-0.4-2.5c0.1-1.9,1.4-3.9,1.4-3.8
		c0,0,0.6,1.3,0.4,3.2c-0.1,0.8-0.3,1.6-0.5,2.2c0.3-0.1,0.6-0.1,0.8,0.1c0.5-0.4,1-0.8,1.6-1c1.7-0.7,3.1-0.3,3.1-0.3
		c0,0-1.3,1.4-3,2.1c-0.9,0.4-1.7,0.5-2.2,0.6c-1.7,1.9-3.2,3.9-4.7,6c0.4-0.3,0.8-0.5,1.3-0.7c2.2-0.9,3.9-0.3,3.9-0.3
		c0,0-1.7,1.7-3.8,2.6c-1.1,0.5-2.2,0.6-2.9,0.7c-1.8,2.8-3.4,5.8-4.7,8.9c0.5-0.5,1.1-1.1,1.8-1.5c2.4-1.5,4.6-1.2,4.6-1.2
		c0,0-1.7,2.4-4,3.9c-1.3,0.9-2.6,1.3-3.5,1.4c-1.4,3.5-2.4,7.1-3.2,10.7c0.6-1,1.3-2,2.2-2.9c2.6-2.4,5.4-2.6,5.4-2.6
		c0,0-1.5,3.3-3.9,5.8c-1.6,1.6-3.3,2.4-4.3,2.8c-0.4,2.7-0.7,5.4-0.8,8.2c0.2-0.5,0.5-1,0.9-1.5c1.7-2.4,4.1-2.9,4-2.9
		c0,0-0.7,2.9-2.2,5.2c-0.9,1.3-2,2.2-2.7,2.7c0,3.3,0.3,6.7,0.9,10c0.2-0.9,0.4-1.8,0.8-2.7c1.4-2.9,3.8-4,3.8-4
		c0,0-0.1,3.2-1.4,6.1c-0.8,1.8-1.9,3.1-2.7,3.8c0.7,3.3,1.7,6.6,2.9,9.8c-0.1-1.2,0-2.5,0.3-3.8c0.9-3.5,3.4-5.1,3.4-5.1
		c0,0,0.5,3.5-0.3,7c-0.5,2.3-1.6,3.9-2.3,4.8c0.4,1,0.9,2,1.4,3c0.8,1.6,1.7,3.2,2.6,4.7c-0.3-1.2-0.5-2.7-0.3-4.2
		c0.4-3.7,2.7-5.7,2.7-5.7c0,0,1,3.4,0.8,7c-0.2,2.5-1,4.4-1.5,5.4c1.9,2.9,4,5.7,6.2,8.3c-0.7-1.4-1.5-3.2-1.6-5.2
		c-0.3-4,1.7-6.6,1.7-6.6c0,0,1.8,3.4,2.2,7.3c0.3,2.9-0.3,5.3-0.6,6.4c2.2,2.4,4.5,4.6,7,6.7c-0.8-1.1-1.7-2.6-2.1-4.1
		c-1.1-3.9,0.4-6.8,0.4-6.8c0,0,2.4,3.1,3.6,6.7c0.9,2.7,0.8,5.1,0.7,6.2c2.5,1.9,5.2,3.8,8,5.4c0.6,0.4,1.2,0.7,1.8,1
		c-1.4-1.5-2.9-3.4-3.7-5.7c-1.7-4.8,0.1-8.6,0.1-8.5c0,0,3.1,3.7,5,8.2c1.3,3.2,1.6,6.2,1.6,7.7c2.3,1.2,4.7,2.3,7.1,3.2
		c1.6,0.6,3.2,1.2,4.9,1.8c-1.4-1-2.9-2.4-3.9-4.1c-2.3-3.9-1.3-7.3-1.3-7.3c0,0,3.2,2.7,5.7,6.3c1.6,2.4,2.4,4.8,2.7,6.1
		c0.9,0.3,1.7,0.5,2.6,0.8l2.7,0.9l0.6,0.2L251.5,189.4z"/>
</g>
</svg>
