<?xml version="1.0" encoding="utf-8"?>
<!-- Generator: Adobe Illustrator 25.3.1, SVG Export Plug-In . SVG Version: 6.00 Build 0)  -->
<svg version="1.1" id="Layer_1" xmlns="http://www.w3.org/2000/svg" xmlns:xlink="http://www.w3.org/1999/xlink" x="0px" y="0px"
	 viewBox="0 0 500 300" style="enable-background:new 0 0 500 300;" xml:space="preserve">
<style type="text/css">
	.st0{fill:#232323;}
	.st1{fill:url(#SVGID_1_);}
	.st2{fill:url(#SVGID_2_);}
	.st3{fill:url(#SVGID_3_);}
	.st4{fill:url(#SVGID_4_);}
	.st5{fill:#ED1C24;}
</style>
<g>
	<g>
		<path class="st0" d="M95.1,164.2V163c0-0.6-0.6-1-1.1-0.8c-0.7,0.2-1.5,0.3-2.3,0.3c-3.2,0-5.5-2.1-5.5-8.3c0-6.2,2.4-8.3,5.5-8.3
			c1.2,0,2.4,0.3,3.4,0.9v-0.7h1.3c0.5,0,0.9,0.4,0.9,0.9v16.6c0,4.3-2.2,5.5-6.1,5.5c-1.4,0-2.4-0.1-3.5-0.3V168
			c0.9,0.1,2,0.2,2.9,0.2C93.6,168.2,95.1,167.5,95.1,164.2z M95.1,160.4v-12.3c0-0.4-0.3-0.7-0.7-0.8c-0.6-0.2-1.2-0.3-1.8-0.3
			c-2.6,0-3.9,1.2-3.9,7.2c0,6.1,1.4,7.3,3.9,7.3c0.7,0,1.3-0.1,1.9-0.3C94.9,161.1,95.1,160.8,95.1,160.4z"/>
		<path class="st0" d="M100.4,147c0-0.5,0.4-0.9,0.9-0.9h1.3v0.9c1-0.7,2.1-0.9,3.3-0.9c0.4,0,0.9,0,1.4,0.1v0.9c-0.4,0-0.9,0-1.3,0
			c-0.9,0-1.8,0.1-2.7,0.3c-0.4,0.1-0.6,0.5-0.6,0.8v13.2c0,0.5-0.4,0.9-0.9,0.9h-0.6c-0.5,0-0.9-0.4-0.9-0.9V147z"/>
		<path class="st0" d="M109,157.9V147c0-0.5,0.4-0.9,0.9-0.9h0.6c0.5,0,0.9,0.4,0.9,0.9v10.8c0,2.6,1,3.6,3.3,3.6
			c0.8,0,1.6-0.1,2.3-0.3c0.3-0.1,0.6-0.5,0.6-0.8V147c0-0.5,0.4-0.9,0.9-0.9h0.6c0.5,0,0.9,0.4,0.9,0.9v14.5c0,0.5-0.4,0.9-0.9,0.9
			h-1.4v-1c-0.9,0.7-2.5,1.2-4,1.2C110.8,162.6,109,161.4,109,157.9z"/>
		<path class="st0" d="M125,163.1v5c0,0.5-0.4,0.9-0.9,0.9h-0.6c-0.5,0-0.9-0.4-0.9-0.9v-21c0-0.5,0.4-0.9,0.9-0.9h1.4v0.7
			c1-0.6,2.2-0.9,3.4-0.9c3.2,0,5.6,2.1,5.6,8.3s-2.4,8.3-5.6,8.3c-0.8,0-1.5-0.1-2.2-0.3C125.6,162.1,125,162.5,125,163.1z
			 M131.5,154.3c0-6-1.4-7.2-4-7.2c-0.7,0-1.3,0.1-1.9,0.3c-0.4,0.1-0.6,0.4-0.6,0.8v12.3c0,0.4,0.2,0.7,0.6,0.8
			c0.6,0.2,1.2,0.3,1.9,0.3C130.1,161.6,131.5,160.3,131.5,154.3z"/>
		<path class="st0" d="M136,154.3c0-6.1,2.3-8.3,5.8-8.3c3.5,0,5.8,2.2,5.8,8.3c0,6.2-2.3,8.3-5.8,8.3
			C138.3,162.6,136,160.5,136,154.3z M145.2,154.3c0-5.6-1-7.4-3.4-7.4c-2.5,0-3.4,1.7-3.4,7.4c0,5.7,0.9,7.4,3.4,7.4
			C144.2,161.7,145.2,159.9,145.2,154.3z"/>
	</g>
	<g>
		<path class="st0" d="M137.5,188.3c0-7-2-9.7-8-9.7c-2.9,0-5.5,0.8-7.7,1.9c-0.4,0.2-0.5,0.6-0.4,1c0.5,1.8,0.8,4.1,0.8,6.7V224
			c0,0.5-0.4,0.9-0.9,0.9h-8.3c-0.5,0-0.9-0.4-0.9-0.9v-35.6c0-7-1.6-9.7-8.3-9.7c-2.3,0-4.4,0.4-6.4,1.2c-0.3,0.1-0.5,0.5-0.5,0.8
			V224c0,0.5-0.4,0.9-0.9,0.9h-8.4c-0.5,0-0.9-0.4-0.9-0.9v-48.6c0-0.5,0.4-0.9,0.9-0.9h8c0.5,0,0.9,0.4,0.9,0.9v0.9
			c0,0.7,0.8,1.1,1.4,0.7c2.6-1.9,6.3-3.1,10.5-3.1c5.3,0,9,1.2,11.3,4.4c0.3,0.4,0.9,0.4,1.3,0.1c3.5-2.9,8.3-4.5,13.2-4.5
			c8,0,13.1,3.7,13.1,14.4V224c0,0.5-0.4,0.9-0.9,0.9h-8.3c-0.5,0-0.9-0.4-0.9-0.9V188.3z"/>
		<path class="st0" d="M155.1,209.8c0-11.5,5.8-15.5,16.5-15.5h7.5c0.5,0,0.9-0.4,0.9-0.9v-6.2c0-7.7-3.3-9.5-10.6-9.5
			c-2.9,0-5.9,0.2-8.4,0.4c-0.5,0.1-1-0.3-1-0.9v-1.5c0-0.4,0.3-0.8,0.7-0.9c3.7-0.6,7.5-1.1,11.7-1.1c11,0,17.2,2.9,17.2,13.7V224
			c0,0.5-0.4,0.9-0.9,0.9H181c-0.5,0-0.9-0.4-0.9-0.9v-0.1c0-0.7-0.7-1.1-1.3-0.7c-2.4,1.3-5.6,2.2-9.4,2.2
			C160.1,225.3,155.1,220.5,155.1,209.8z M180,219.4v-21.2c0-0.5-0.4-0.9-0.9-0.9h-5.8c-5.9,0-8.3,2.1-8.3,11.9
			c0,9.6,1.9,12.1,7.9,12.1c2.8,0,5.1-0.6,6.5-1.1C179.8,220.1,180,219.8,180,219.4z"/>
		<path class="st0" d="M200.1,174.4h7.6c0.5,0,0.9,0.4,0.9,0.9v0.6c0,0.7,0.8,1.1,1.4,0.7c2.5-1.6,5.5-2.3,8.7-2.3
			c1.2,0,2.6,0.2,3.9,0.4c0.4,0.1,0.7,0.4,0.7,0.9v2.1c0,0.5-0.4,0.9-0.9,0.9c-1.1,0-2.1,0-3.2,0c-3.3,0-6.2,0.3-9.4,1.2
			c-0.4,0.1-0.6,0.5-0.6,0.8V224c0,0.5-0.4,0.9-0.9,0.9h-8.3c-0.5,0-0.9-0.4-0.9-0.9v-48.6C199.3,174.8,199.7,174.4,200.1,174.4z"/>
		<path class="st0" d="M230.2,155h8.3c0.5,0,0.9,0.4,0.9,0.9v9c0,0.5-0.4,0.9-0.9,0.9h-8.3c-0.5,0-0.9-0.4-0.9-0.9v-9
			C229.3,155.4,229.7,155,230.2,155z M230.2,174.4h8.3c0.5,0,0.9,0.4,0.9,0.9V224c0,0.5-0.4,0.9-0.9,0.9h-8.3
			c-0.5,0-0.9-0.4-0.9-0.9v-48.6C229.3,174.8,229.7,174.4,230.2,174.4z"/>
		<path class="st0" d="M250.1,174.4h7.9c0.5,0,0.9,0.4,0.9,0.9v0.7c0,0.7,0.7,1.1,1.3,0.7c2.8-1.7,6.9-3,11.3-3
			c8.4,0,14.3,3.6,14.3,14.7V224c0,0.5-0.4,0.9-0.9,0.9h-8.3c-0.5,0-0.9-0.4-0.9-0.9v-35.3c0-7.3-2.7-10.1-9-10.1
			c-2.6,0-4.8,0.5-7,1.3c-0.4,0.1-0.6,0.5-0.6,0.8V224c0,0.5-0.4,0.9-0.9,0.9h-8.3c-0.5,0-0.9-0.4-0.9-0.9v-48.6
			C249.2,174.8,249.6,174.4,250.1,174.4z"/>
		<path class="st0" d="M321.9,229.7v-5.9c0-0.6-0.7-1.1-1.2-0.8c-2.8,1.4-5.9,2-9.3,2c-10.2,0-17.4-6.7-17.4-25.7
			c0-18.9,7.4-25.6,17.4-25.6c3.5,0,6.8,0.7,9.5,2.3c0.6,0.3,1.3-0.1,1.3-0.7v-0.1c0-0.5,0.4-0.9,0.9-0.9h7.8c0.5,0,0.9,0.4,0.9,0.9
			v52.3c0,13.9-7.5,17.7-20.8,17.7c-4.2,0-7.7-0.5-11-1c-0.4-0.1-0.7-0.4-0.7-0.9v-1.6c0-0.5,0.4-0.9,1-0.9c2.7,0.3,5.7,0.4,8.5,0.4
			C317.5,241.4,321.9,239.8,321.9,229.7z M321.9,218.9V180c0-0.4-0.2-0.7-0.6-0.8c-1.8-0.6-3.9-1.2-6.1-1.2c-7,0-10.8,3.5-10.8,21.3
			c0,18.1,3.8,21.5,10.8,21.5c2.2,0,4.3-0.4,6.1-1.1C321.7,219.6,321.9,219.2,321.9,218.9z"/>
		<path class="st0" d="M339.6,209.8c0-11.5,5.8-15.5,16.5-15.5h7.5c0.5,0,0.9-0.4,0.9-0.9v-6.2c0-7.7-3.3-9.5-10.6-9.5
			c-2.9,0-5.9,0.2-8.4,0.4c-0.5,0.1-1-0.3-1-0.9v-1.5c0-0.4,0.3-0.8,0.7-0.9c3.7-0.6,7.5-1.1,11.7-1.1c11,0,17.2,2.9,17.2,13.7V224
			c0,0.5-0.4,0.9-0.9,0.9h-7.8c-0.5,0-0.9-0.4-0.9-0.9v-0.1c0-0.7-0.7-1.1-1.3-0.7c-2.4,1.3-5.6,2.2-9.4,2.2
			C344.6,225.3,339.6,220.5,339.6,209.8z M364.5,219.4v-21.2c0-0.5-0.4-0.9-0.9-0.9h-5.8c-5.9,0-8.3,2.1-8.3,11.9
			c0,9.6,1.9,12.1,7.9,12.1c2.8,0,5.1-0.6,6.5-1.1C364.3,220.1,364.5,219.8,364.5,219.4z M361,149.9h7.6c0.7,0,1.1,0.8,0.7,1.3
			l-10.1,15.9c-0.2,0.3-0.4,0.4-0.7,0.4h-1.5c-0.6,0-1-0.5-0.8-1.1l3.9-15.9C360.2,150.2,360.6,149.9,361,149.9z"/>
	</g>
	<g>
		<linearGradient id="SVGID_1_" gradientUnits="userSpaceOnUse" x1="154.1557" y1="141.1859" x2="268.6164" y2="63.0104">
			<stop  offset="0" style="stop-color:#ED1C24"/>
			<stop  offset="1" style="stop-color:#8E0F15"/>
		</linearGradient>
		<path class="st1" d="M253.8,87.5c0,0,10.3-11.7,9.8-25.6c0,0,0.1-5.4-8-3.2l-98.4,65.9c-4.9,3.2-6.3,9.7-3.4,14.8v0
			c3.2,5.5,10.5,7.1,15.7,3.5L251,87.2C251,87.2,252.8,85.7,253.8,87.5z"/>
		<linearGradient id="SVGID_2_" gradientUnits="userSpaceOnUse" x1="268.1155" y1="52.4738" x2="258.0855" y2="143.3344">
			<stop  offset="0" style="stop-color:#ED1C24"/>
			<stop  offset="1" style="stop-color:#8E0F15"/>
		</linearGradient>
		<path class="st2" d="M269,139c0,0-9.8-1-8.2-10.8c1.7-9.8,15.8-36.4,15.8-36.4s10.1-17.5,9-23.5c-1.1-6-6.5-14.8-18.8-13.2
			c-9.4,1.2-11.2,3.7-11.2,3.7s9.2-2.8,8,4.9s-1.5,12.4-9.8,23.9c-8.3,11.5-13.5,28.5-12.5,35.3C242.3,129.6,246.4,143.4,269,139z"
			/>
		<linearGradient id="SVGID_3_" gradientUnits="userSpaceOnUse" x1="260.5511" y1="91.8237" x2="363.173" y2="91.8237">
			<stop  offset="0" style="stop-color:#ED1C24"/>
			<stop  offset="1" style="stop-color:#8E0F15"/>
		</linearGradient>
		<path class="st3" d="M269,139c0,0,11.3,0.9,39.5-29.4c35.3-34.6,46-39.2,46-36.6c0,0,17.7-31.1,2.4-28.2c0,0-17.3,4.9-48.5,32.9
			s-41.5,46.3-42.3,35.6C266.1,113.4,251.8,137.5,269,139z"/>
		<linearGradient id="SVGID_4_" gradientUnits="userSpaceOnUse" x1="363.3323" y1="42.4888" x2="355.3673" y2="135.1194">
			<stop  offset="0" style="stop-color:#ED1C24"/>
			<stop  offset="1" style="stop-color:#8E0F15"/>
		</linearGradient>
		<path class="st4" d="M356.9,44.9c0,0,13.9-7.9,23.2,6.8c11.7,18.6-40.9,78.2-12.8,87.3c0,0-33.9,8.6-30.5-18.4
			C340.1,93.5,376.5,40.6,356.9,44.9z"/>
		<path class="st5" d="M439.6,70.4c1.9-3.1-1.2-6.4-3.8-3.8c-5.9,5.9-12.8,12.3-19.5,17.7c-22.4,17.6-56.5,39.4-53.6,26.4
			c0,0-11.6,23.8,4.6,28.3C367.2,139,402.1,130.9,439.6,70.4z"/>
	</g>
</g>
</svg>
