<?xml version="1.0" encoding="utf-8"?>
<!-- Generator: Adobe Illustrator 25.3.1, SVG Export Plug-In . SVG Version: 6.00 Build 0)  -->
<svg version="1.1" id="Layer_1" xmlns="http://www.w3.org/2000/svg" xmlns:xlink="http://www.w3.org/1999/xlink" x="0px" y="0px"
	 viewBox="0 0 500 300" style="enable-background:new 0 0 500 300;" xml:space="preserve">
<style type="text/css">
	.st0{fill:url(#SVGID_1_);}
	.st1{fill:#1575B3;}
	.st2{fill:#E7C34D;}
</style>
<g>
	<radialGradient id="SVGID_1_" cx="112.3919" cy="150.5834" r="6.449" gradientUnits="userSpaceOnUse">
		<stop  offset="0" style="stop-color:#FFE249"/>
		<stop  offset="1" style="stop-color:#E4C164"/>
	</radialGradient>
	<circle class="st0" cx="112.4" cy="150.6" r="6.4"/>
	<path class="st1" d="M138.6,158.5c0.4,2,7-24.3-16.1-26.9c-14.2-0.2-15.2,11.7-15.2,11.7s18-7.5,26.1,0.8
		C139.8,150.6,138.6,158.5,138.6,158.5z"/>
	<path class="st1" d="M90.4,163.4c-1.7-1.1,11.9,22.5,31.1,6.9c10.8-10.6,3.1-19.7,3.1-19.7s-8.3,18.8-20.2,19.1
		C95.2,169.9,90.4,163.4,90.4,163.4z"/>
	<path class="st1" d="M101,124.5c1.3-1.4-23.1,7.7-12,27.9c7.9,11.6,17.8,5.8,17.8,5.8s-16.1-10.4-14.2-21.6
		C94.1,127.9,101,124.5,101,124.5z"/>
	<g>
		<path class="st1" d="M181.3,163c-2.2,0.7-6.3,1.6-10.6,1.6c-5.6,0-9.9-1.3-12.9-3.9c-2.9-2.5-4.6-6.4-4.6-10.8
			c0-9.4,7.5-15.3,18.3-15.3c4.1,0,7.2,0.7,8.8,1.4l-1.4,4.6c-1.8-0.7-4-1.3-7.5-1.3c-6.8,0-11.6,3.6-11.6,10.3
			c0,6.6,4.5,10.4,11.1,10.4c2,0,3.6-0.2,4.3-0.5v-7.1h-5.6v-4.5h11.7V163z"/>
		<path class="st1" d="M186.2,149.9c0-2.9-0.1-5-0.2-6.9h5.5l0.2,4h0.2c1.2-3,4-4.5,6.5-4.5c0.6,0,0.9,0,1.4,0.1v5.3
			c-0.5-0.1-1.1-0.2-1.8-0.2c-2.8,0-4.8,1.6-5.3,3.9c-0.1,0.5-0.1,1-0.1,1.6v11h-6.3V149.9z"/>
		<path class="st1" d="M216.7,164.3l-0.4-2.3h-0.1c-1.5,1.7-3.9,2.8-6.9,2.8c-4.8,0-7.5-3.1-7.5-6.4c0-5.4,5.4-8.1,14-8.1V150
			c0-1.3-0.6-3.5-4.7-3.5c-2.3,0-4.8,0.7-6.4,1.6l-1.2-3.7c1.8-0.9,4.9-1.9,8.7-1.9c7.7,0,9.9,4.3,9.9,9v7.6c0,2,0.1,3.8,0.4,5.1
			H216.7z M215.8,154c-4.1,0-7.9,0.8-7.9,3.8c0,2,1.5,2.9,3.3,2.9c2.2,0,3.9-1.3,4.5-2.8c0.1-0.4,0.2-0.8,0.2-1.2V154z"/>
		<path class="st1" d="M240.6,164.3l-0.4-2.3H240c-1.5,1.7-3.9,2.8-6.9,2.8c-4.8,0-7.5-3.1-7.5-6.4c0-5.4,5.4-8.1,14-8.1V150
			c0-1.3-0.6-3.5-4.7-3.5c-2.3,0-4.8,0.7-6.4,1.6l-1.2-3.7c1.8-0.9,4.9-1.9,8.7-1.9c7.7,0,9.9,4.3,9.9,9v7.6c0,2,0.1,3.8,0.4,5.1
			H240.6z M239.8,154c-4.1,0-7.9,0.8-7.9,3.8c0,2,1.5,2.9,3.3,2.9c2.2,0,3.9-1.3,4.5-2.8c0.1-0.4,0.2-0.8,0.2-1.2V154z"/>
		<path class="st1" d="M251.2,133.3h6.3v31h-6.3V133.3z"/>
		<path class="st2" d="M280.8,150.8h-12.5v9.8h14v3.7h-19v-29.4h18.2v3.7h-13.3v8.6h12.5V150.8z"/>
		<path class="st2" d="M287.4,149.1c0-2.3-0.1-4.2-0.2-6h4.4l0.3,3.4h0.1c1.1-1.8,3.8-3.8,7.7-3.8c3.6,0,8.3,2,8.3,9v12.6H303v-12.1
			c0-3.3-1.4-5.9-5.1-5.9c-2.6,0-4.6,1.7-5.3,3.6c-0.2,0.5-0.3,1.1-0.3,1.8v12.6h-4.9V149.1z"/>
		<path class="st2" d="M317.8,154.7c0.1,4.7,3.6,6.6,7.7,6.6c2.9,0,4.8-0.5,6.5-1l0.8,3.1c-1.7,0.7-4.4,1.3-8,1.3
			c-7.4,0-11.8-4.3-11.8-10.7c0-6.2,4.1-11.4,11.2-11.4c7.7,0,9.9,5.9,9.9,10.1c0,0.9-0.1,1.6-0.2,2H317.8z M329.5,151.6
			c0-2.2-1-5.8-5.5-5.8c-4.1,0-5.8,3.3-6.1,5.8H329.5z"/>
		<path class="st2" d="M339.3,149.8c0-2.6-0.1-4.7-0.2-6.7h4.3l0.2,4.1h0.2c1.1-2.9,3.8-4.6,6.5-4.6c0.5,0,0.8,0,1.3,0.1v4.2
			c-0.5-0.1-0.9-0.1-1.6-0.1c-2.9,0-5,1.9-5.6,4.6c-0.1,0.5-0.2,1.1-0.2,1.7v11.2h-4.9V149.8z"/>
		<path class="st2" d="M378.1,143.1c-0.1,1.5-0.2,3.2-0.2,5.9v12.2c0,4.7-1.1,7.7-3.4,9.7c-2.4,1.9-5.7,2.6-8.8,2.6
			c-2.9,0-6-0.6-8-1.7l1.2-3.4c1.5,0.9,4,1.7,6.9,1.7c4.2,0,7.3-2,7.3-7v-2.1h-0.1c-1.3,1.9-3.8,3.4-7.2,3.4c-5.9,0-10-4.4-10-10.3
			c0-7.1,5.1-11.2,10.6-11.2c3.9,0,6.1,1.8,7.1,3.5h0.1l0.2-3H378.1z M373,151.5c0-0.6-0.1-1.1-0.2-1.6c-0.7-2.1-2.6-3.8-5.5-3.8
			c-3.8,0-6.5,2.9-6.5,7.6c0,3.9,2.2,7.2,6.5,7.2c2.5,0,4.7-1.4,5.5-3.7c0.2-0.6,0.3-1.3,0.3-2V151.5z"/>
		<path class="st2" d="M389.9,137.2c0,1.4-1.1,2.6-3,2.6c-1.7,0-2.9-1.2-2.9-2.6c0-1.4,1.2-2.6,2.9-2.6
			C388.7,134.6,389.9,135.7,389.9,137.2z M384.5,164.3v-21.2h4.9v21.2H384.5z"/>
		<path class="st2" d="M409.4,164.3l-0.4-2.5h-0.1c-1.3,1.7-3.9,3-7.1,3c-4.8,0-7.3-3-7.3-6.2c0-5.2,5.1-8,14.1-7.9v-0.4
			c0-1.6-0.6-4.4-5.1-4.4c-2.2,0-4.6,0.6-6.2,1.6l-1.1-2.9c1.9-1.1,4.8-1.9,8.1-1.9c7.3,0,9.2,4.4,9.2,8.8v7.8
			c0,1.9,0.1,3.7,0.4,5.1H409.4z M408.7,153.7c-4.5-0.1-9.2,0.7-9.2,4.4c0,2.3,1.7,3.4,3.8,3.4c2.8,0,4.7-1.6,5.3-3.3
			c0.1-0.4,0.2-0.8,0.2-1.2V153.7z"/>
	</g>
</g>
</svg>
