<?xml version="1.0" encoding="utf-8"?>
<!-- Generator: Adobe Illustrator 25.3.1, SVG Export Plug-In . SVG Version: 6.00 Build 0)  -->
<svg version="1.1" id="Layer_1" xmlns="http://www.w3.org/2000/svg" xmlns:xlink="http://www.w3.org/1999/xlink" x="0px" y="0px"
	 viewBox="0 0 500 300" style="enable-background:new 0 0 500 300;" xml:space="preserve">
<style type="text/css">
	.st0{fill:#009286;}
	.st1{fill:#F3C000;}
	.st2{fill:#868686;}
</style>
<g>
	<polygon id="polygon649" class="st0" points="132.2,114.2 63.5,114.2 63.5,171.6 97.8,206 97.8,137 132.2,171.3 	"/>
	<polygon id="polygon651" class="st1" points="132.2,171.6 97.8,206 97.8,137 	"/>
	<path id="path653" class="st2" d="M422.7,119.1c-13.9,0-13.9,10.1-13.9,20.8s0,20.8,13.9,20.8s13.9-10.1,13.9-20.8
		S436.5,119.1,422.7,119.1L422.7,119.1z M167.1,120l-11,40.1h8.1l2.3-9h11.6l2.3,9h9l-11-40.1H167.1z M196.3,120v40.1H211
		c3.5,0,12.4-0.6,12.4-10.7c0-5.5-1.4-9.2-7.5-10.1c4.6-0.9,6.9-4.3,6.9-9c0-8.7-5.2-10.4-11.6-10.4H196.3z M233.3,120v40.1h7.8
		v-29.5h0.3l11,29.5h11V120h-7.8v27.7L244.8,120H233.3z M295.6,120l-11,40.1h8.1l2.3-9h11.6l2.3,9h9L306.6,120H295.6z M324.5,120
		v40.1h8.1v-30.9h0.3l7.2,30.9h8.1l7.8-30.9v30.9h8.1V120h-13l-6.6,27.4l-6.4-27.4H324.5z M375,120.2v39.8h8.4v-16.7h2.3
		c6.4,0,6.1,4,6.1,9c0,2.6-0.3,5.2,0.9,7.8h8.1c-0.9-1.7-0.9-9.2-0.9-11.8c0-7.2-5.5-7.8-7.2-7.8c5.5-0.9,7.5-4.6,7.5-9.8
		c0-6.9-3.8-10.4-9.5-10.4L375,120.2z M422.7,125.4c4.6,0,5.2,4.3,5.2,14.7s-0.3,14.7-5.2,14.7c-4.6,0-5.2-4.3-5.2-14.7
		S418.1,125.4,422.7,125.4z M204.7,126h5.2c2.9,0,4.9,2.3,4.9,5.2c0,3.8-2.6,5.2-4.3,5.2h-5.8V126z M383.4,126h3.8
		c2.6,0,4.3,1.4,4.3,5.2c0,2.6-0.9,5.8-4.3,5.8h-3.8V126z M172,127.8l4.3,17.3h-8.1L172,127.8z M300.5,127.8l4.3,17.3h-8.1
		L300.5,127.8z M276.6,131.6l-5.3,5.3l5.3,5.3l5.3-5.3L276.6,131.6z M204.7,142.5h4.9c4.3,0,5.5,2.3,5.5,5.8c0,5.5-4,5.8-5.8,5.8
		h-4.6V142.5z"/>
</g>
</svg>
