<?xml version="1.0" encoding="utf-8"?>
<!-- Generator: Adobe Illustrator 25.3.1, SVG Export Plug-In . SVG Version: 6.00 Build 0)  -->
<svg version="1.1" id="Layer_1" xmlns="http://www.w3.org/2000/svg" xmlns:xlink="http://www.w3.org/1999/xlink" x="0px" y="0px"
	 viewBox="0 0 500 300" style="enable-background:new 0 0 500 300;" xml:space="preserve">
<style type="text/css">
	.st0{fill:#005D8D;}
	.st1{fill:#72BF44;}
</style>
<g>
	<g>
		<g>
			<path class="st0" d="M118.5,84.4l5.6-29.7h5.9l5.2,13.8c1.3,3.6,2,6.3,2.7,9.3l0.1,0c0.1-2.9,0.5-5.8,1.3-10l2.5-13h4.8
				l-5.6,29.7h-5.2l-5.3-14c-1.4-3.9-2.1-6.3-2.8-9.5l-0.1,0c-0.3,2.8-0.9,6.5-1.8,10.9l-2.4,12.7H118.5z"/>
			<path class="st0" d="M161.1,84.4c0-1.3,0.2-3,0.4-4.8h-0.1c-2.1,4-5,5.3-7.7,5.3c-3.8,0-6.3-3-6.3-7.3c0-7.3,5.1-15.1,15.1-15.1
				c2.3,0,4.8,0.4,6.5,1l-2.2,11.2c-0.6,3.2-1,7.2-0.9,9.8H161.1z M163.2,66.7c-0.5-0.1-1.2-0.2-2.1-0.2c-4.7,0-8.4,5.3-8.4,10.2
				c0,2.2,0.8,4.1,3.1,4.1c2.4,0,5.3-3,6.3-8.4L163.2,66.7z"/>
			<path class="st0" d="M171.3,79.6c1.1,0.6,3.2,1.4,5.1,1.4c2.1,0,3.3-1.2,3.3-2.6c0-1.3-0.7-2.2-2.8-3.3c-2.5-1.3-4.2-3.1-4.2-5.6
				c0-4.1,3.6-7,8.7-7c2.2,0,4.1,0.5,5,1.1l-1.3,3.7c-0.8-0.4-2.3-1-4-1c-1.9,0-3.2,1-3.2,2.5c0,1.2,0.9,2,2.8,3
				c2.4,1.3,4.4,3,4.4,5.8c0,4.7-3.9,7.3-9.1,7.3c-2.5,0-4.9-0.7-6-1.6L171.3,79.6z"/>
			<path class="st0" d="M203.5,83.7c-1.2,0.6-3.4,1.2-6.1,1.2c-5.4,0-8.7-3.5-8.7-8.6c0-7.5,5.7-13.8,13.6-13.8
				c1.9,0,3.6,0.5,4.4,0.8l-1.3,4c-0.8-0.3-1.8-0.7-3.2-0.7c-5,0-8.1,4.6-8.1,9c0,3.2,1.8,5,4.7,5c2,0,3.5-0.5,4.6-1L203.5,83.7z"/>
			<path class="st0" d="M223.5,83.2c-2.1,1.1-5,1.7-7.6,1.7c-5.9,0-8.8-3.6-8.8-8.9c0-6.5,4.8-13.5,12.1-13.5c4.2,0,6.9,2.4,6.9,6
				c0,5.5-5.8,7.3-14.1,7.1c-0.1,0.8,0.1,2.2,0.6,3c0.8,1.5,2.4,2.2,4.4,2.2c2.4,0,4.4-0.6,5.9-1.4L223.5,83.2z M218.6,66.3
				c-3.2,0-5.3,2.9-5.9,5.5c5.3,0.1,8.7-0.7,8.7-3.2C221.3,67.2,220.2,66.3,218.6,66.3z"/>
			<path class="st0" d="M227.8,84.4l2.8-14.8c0.5-2.6,0.8-4.8,1.1-6.6h4.6l-0.5,3.8h0.1c2-2.9,4.7-4.3,7.7-4.3
				c3.1,0,5.5,1.8,5.5,5.9c0,1-0.2,2.4-0.4,3.5l-2.4,12.5h-5.1l2.3-12.1c0.1-0.8,0.3-1.7,0.3-2.6c0-1.8-0.7-3.1-2.7-3.1
				c-2.3,0-5.3,2.8-6.2,7.8l-1.9,9.9H227.8z"/>
			<path class="st0" d="M262.9,57.1l-1.1,5.9h4.8l-0.8,3.9h-4.8l-1.7,8.7c-0.2,1-0.4,2.1-0.4,3c0,1.2,0.5,1.9,1.9,1.9
				c0.6,0,1.2,0,1.7-0.1l-0.5,4c-0.7,0.3-2.1,0.4-3.3,0.4c-3.5,0-5.1-1.9-5.1-4.4c0-1.2,0.1-2.4,0.5-4l1.9-9.6h-2.9l0.8-3.9h2.9
				l0.9-4.6L262.9,57.1z"/>
			<path class="st0" d="M283.2,83.2c-2.1,1.1-5,1.7-7.6,1.7c-5.9,0-8.8-3.6-8.8-8.9c0-6.5,4.8-13.5,12.1-13.5c4.2,0,6.9,2.4,6.9,6
				c0,5.5-5.8,7.3-14.1,7.1c-0.1,0.8,0.1,2.2,0.6,3c0.8,1.5,2.4,2.2,4.4,2.2c2.4,0,4.4-0.6,5.9-1.4L283.2,83.2z M278.3,66.3
				c-3.2,0-5.3,2.9-5.9,5.5c5.3,0.1,8.7-0.7,8.7-3.2C281,67.2,280,66.3,278.3,66.3z"/>
			<path class="st0" d="M288,79.6c1.1,0.6,3.2,1.4,5.1,1.4c2.1,0,3.3-1.2,3.3-2.6c0-1.3-0.7-2.2-2.8-3.3c-2.5-1.3-4.2-3.1-4.2-5.6
				c0-4.1,3.6-7,8.7-7c2.2,0,4.1,0.5,5,1.1l-1.3,3.7c-0.8-0.4-2.3-1-4-1c-1.9,0-3.2,1-3.2,2.5c0,1.2,0.9,2,2.8,3
				c2.4,1.3,4.4,3,4.4,5.8c0,4.7-3.9,7.3-9.1,7.3c-2.5,0-4.9-0.7-6-1.6L288,79.6z"/>
		</g>
	</g>
	<g>
		<g>
			<path class="st1" d="M148.8,175.4l-4.8-15c-1.5-4.6-2.6-8.3-4-13.3h-0.2c-2.6,4.6-4.6,8.5-7.7,14l-8.2,14.3h-21.9l29-40
				l-13.6-38.2h19.3l4.1,13.8c1.3,4.9,2.4,8.4,3.6,13.3h0.3c3-5.6,4.9-9.3,7.3-13.5l7.9-13.6h21.7l-28.1,38.4l14.8,39.8H148.8z"/>
			<path class="st1" d="M175.1,175.4l10.8-56.9h18.2l-10.8,56.9H175.1z M188.4,103.4c0-6,4.8-10.1,10.3-10.1c5.2,0,9,3.4,9,8.7
				c0,6.4-4.9,10-10.6,10C192.1,112.1,188.4,108.7,188.4,103.4z"/>
			<path class="st1" d="M206.8,175.4l7.1-38c1.5-7.4,2.4-13.8,3.2-19h16.1l-1,9.1h0.2c5.4-7.3,12.3-10.4,19.6-10.4
				c9.8,0,14.6,6.1,14.6,15.5c0,2.6-0.5,6.9-1,9.6l-6.3,33h-18.2l5.9-31.2c0.4-2,0.6-4.2,0.6-6.2c0-3.6-1.2-6.2-5-6.2
				c-5.1,0-10.7,6.5-13,18.8l-4.7,24.8H206.8z"/>
			<path class="st1" d="M277.2,182.2c3.1,1.8,10.3,3,14.9,3c8,0,14-3.5,16.1-14l0.8-4h-0.2c-4.3,5.2-9.1,7.6-15.5,7.6
				c-11.3,0-18.4-9-18.4-20.4c-0.1-18.6,13.1-37.2,38.5-37.2c8.4,0,15.4,1.4,21.7,4l-8.5,46.9c-1.9,10.1-5.1,19.7-12.1,25.2
				c-6.3,4.9-14.6,6.4-22.5,6.4c-7.7,0-14.9-1.4-18.8-3.6L277.2,182.2z M315.3,131.9c-1.2-0.5-3.3-0.8-5.3-0.8
				c-9.2,0-15.9,10.5-15.9,20.6c0,5.6,2.6,9.2,7,9.2c4.8,0,9.7-5.2,11.4-14.5L315.3,131.9z"/>
			<path class="st1" d="M401.5,118.5l-7.1,38c-1.5,7.4-2.4,13.8-3.2,19h-16.1l1-8.9l-0.2-0.1c-6,7.4-12.8,10.3-19.5,10.3
				c-9.5,0-14.5-5.5-14.5-15.8c0-3.2,0.4-6.7,1.1-10.7l6-31.7h18.2l-5.7,30.2c-0.5,2.5-0.8,5.3-0.8,7.3c0,3.2,1.3,5.9,5,5.9
				c5.3,0,10.6-6.5,12.7-17.6l4.9-25.8H401.5z"/>
		</g>
	</g>
	<g>
		<g>
			<path class="st0" d="M324.9,63.1l-3.1,16.1c-0.3,1.7-0.6,3.6-0.7,5.2H318l0.3-2.6h-0.1c-1.3,2-3.1,2.9-5,2.9
				c-2.6,0-4.4-2.1-4.4-5.4c0-5.1,3.7-9.8,9.1-9.8c0.7,0,1.6,0.1,2.3,0.4l1.3-6.8H324.9z M319.6,72.7c-0.4-0.3-1.1-0.6-2-0.6
				c-3,0-5.2,3.3-5.2,6.6c0,1.8,0.7,3.1,2.3,3.1c1.5,0,3.4-1.7,4-4.7L319.6,72.7z"/>
			<path class="st0" d="M339.6,75.5c0,5-3.5,9.2-8.4,9.2c-3.7,0-6-2.5-6-6c0-4.9,3.5-9.2,8.4-9.2C337.5,69.5,339.6,72.3,339.6,75.5z
				 M328.8,78.6c0,2,1.1,3.4,2.8,3.4c2.6,0,4.3-3.6,4.3-6.5c0-1.5-0.7-3.4-2.8-3.4C330.4,72.2,328.8,75.9,328.8,78.6z"/>
		</g>
	</g>
	<path class="st0" d="M119.3,215.4c0,0,30.2-2.1,65.4-25.5s70.6-0.8,79.5,11.2c0,0-24-12-42.4-12C189,189.3,167.9,221.1,119.3,215.4
		z"/>
	<g>
		<path class="st0" d="M169.1,198.1c4.2-2.2,8.5-4.7,13-7.6c-13.6-2.2-25.7-3.1-33.1-3.5c-31.7-1.5-50.5,7.9-50.5,7.9
			C127.1,192.2,150,193.9,169.1,198.1z"/>
		<path class="st0" d="M362.8,208.1c-17.4,9.7-50.6,15.6-64.6,16.2c-28.6,1.4-50.9-16-88.1-27.5c-3-0.9-6-1.8-9.1-2.5
			c-5.7,2.1-11.3,4.8-17,7.6c47.8,14.7,70.1,43.8,108,43.3c69.9-1,107.6-56.7,107.6-56.7C393.7,189.3,382.2,197.4,362.8,208.1z"/>
	</g>
</g>
</svg>
