<?xml version="1.0" encoding="utf-8"?>
<!-- Generator: Adobe Illustrator 25.3.1, SVG Export Plug-In . SVG Version: 6.00 Build 0)  -->
<svg version="1.1" id="Layer_1" xmlns="http://www.w3.org/2000/svg" xmlns:xlink="http://www.w3.org/1999/xlink" x="0px" y="0px"
	 viewBox="0 0 500 300" style="enable-background:new 0 0 500 300;" xml:space="preserve">
<style type="text/css">
	.st0{fill:#00421E;}
	.st1{fill:#C3BE02;}
	.st2{fill:#E3F2C7;}
</style>
<g>
	<rect x="129.9" y="151.8" class="st0" width="240.2" height="74.3"/>
	<path class="st1" d="M177.9,106.4c0,0-31.7-25.5-28.6-41.3s17.8-12.4,28.6-7.2c0,0,6.7-12.9,16-11.9s21.7,18.8,5.7,53.9
		c0,0,12.9-16.8,11.1-39.2c-1.8-22.5-15.9-24-21.9-24c-4.7,0-12.8,10-13.9,13.7c0,0-20.4-9.3-29.9,1.5s1,29.7,10.1,36.9
		S177.9,106.4,177.9,106.4z"/>
	<path class="st1" d="M194.2,98.1c0,0,18.8-23,47.7-23.7c28.9-0.8,25.3,25.3,7,35.4c0,0,9,9.8,6.7,19.9
		c-2.3,10.1-22.2,35.4-64.5-9.8c0,0,22.4,21.1,41,19.9c18.6-1.2,21.7-20.1,8.8-33.3c0,0,12.9-8,11.1-18.8
		C250.2,76.7,225.9,71.5,194.2,98.1z"/>
	<path class="st1" d="M198.8,110.1c0,0,1,40.9-17.3,40.9s-19.6-11.5-21.6-20.5c0,0-24.8-0.4-21.9-9.2s3.4-18.6,50.1-20.6
		c0,0-34.6-3.4-46.9,5.7s-22.6,30.2,14.6,30.2c0,0,5.7,22,23.2,21.5S204.5,134.7,198.8,110.1z"/>
	<g>
		<g>
			<path class="st2" d="M157.6,177.1c0-3.1-1.1-4.6-3.2-4.6c-0.6,0-1,0-1.3,0.1c-0.7,0.1-1.2,0.2-1.7,0.2s-1-0.2-1.4-0.6
				s-0.6-0.9-0.6-1.5c0-1.4,0.9-2.2,2.6-2.2c0,0,0.3,0,0.9,0.1c6.2,0.4,9.1,0.6,8.7,0.6h0.6l14.9-0.4c0.3,0,1.4-0.1,3.2-0.2
				c0.7,0,1.3-0.1,1.8-0.1c2.1,0,3.2,1,3.2,2.9c0,0.3-0.1,1.4-0.2,3.2c-0.1,1.3-0.1,2.5-0.1,3.7c0,1.4,0,2.5,0.1,3
				c0.1,1.2,0.2,2.1,0.2,2.7c0,1.6-0.7,2.4-2.2,2.4s-2.2-1.1-2.2-3.3v-3.2c0-3.5-0.7-5.5-2.2-6.2c-1.1-0.5-3.8-0.7-8.3-0.7
				c-2.9,0-4.7,0.1-5.2,0.2c-1.8,0.5-2.7,1.7-2.7,3.8v2.8c0,0.3,0,0.8,0,1.4s0,1,0,1.2v0.8c0,1.7,0.4,2.6,1.1,2.9
				c0.3,0.1,0.8,0.1,1.5,0.1h2.5c2.6,0,3.9-0.9,3.9-2.7c0-0.5-0.1-1.1-0.2-1.9c-0.1-0.8-0.2-1.5-0.2-2.1c0-1.7,0.7-2.5,2.2-2.5
				s2.2,0.9,2.2,2.7c0,0.3-0.1,1.6-0.4,3.8c-0.2,1.9-0.3,3.6-0.3,5c0,0.8,0.1,2.3,0.2,4.4c0,0.3,0.1,1.1,0.3,2.2
				c0.1,0.9,0.2,1.6,0.2,2.2c0,1.5-0.7,2.2-2.2,2.2c-1.4,0-2.2-0.9-2.2-2.6c0-0.5,0.1-1.1,0.2-2c0.1-0.9,0.2-1.5,0.2-2
				c0-1.8-1.2-2.7-3.5-2.7h-2.8c-1.2,0-1.9,0.2-2.2,0.6c-0.3,0.4-0.4,1.3-0.4,2.7v3.8c0,0.7,0,1.6,0.1,2.7c0,1.4,0.1,2.3,0.1,2.7
				c0,1.7,0.4,2.7,1,3.1c0.5,0.3,1.5,0.4,3.2,0.4h8.4c2.4,0,4.1-0.4,5-1.1c0.9-0.7,1.4-2.1,1.4-4.1c0-0.6,0-1.5-0.1-2.8
				c-0.1-1.2-0.1-2.1-0.1-2.8c0-1.9,0.7-2.8,2.2-2.8s2.3,1,2.3,2.9c0,0.7,0,1.9-0.1,3.4s-0.1,2.7-0.1,3.4c0,0.6,0,1.4,0.1,2.6
				c0.1,1.1,0.1,2,0.1,2.6c0,1.9-1,2.9-2.9,2.9c-0.5,0-1.2,0-2.2-0.1c-0.5,0-1.4-0.1-2.7-0.1c0.3,0-1.3,0-4.8-0.1s-6.6-0.1-9.1-0.1
				c-3.9,0-7.7,0.1-11.4,0.4c-0.2,0-0.4,0-0.6,0.1c-0.2,0-0.3,0-0.4,0c-1.7,0-2.6-0.7-2.6-2.2c0-1.3,0.6-2,1.9-2
				c0.2,0,0.8,0,1.7,0.1c0.5,0.1,0.9,0.2,1.3,0.2c2.1,0,3.2-1.6,3.2-4.7v-24.8L157.6,177.1L157.6,177.1z"/>
			<path class="st2" d="M209,167.5c4,0,7.4,1.3,9.9,3.9v-0.9c0-1.6,0.6-2.5,1.9-2.5c1.4,0,2.1,0.9,2.1,2.7v0.4
				c0,0.1-0.1,0.7-0.2,1.9s-0.2,2.5-0.2,4.2c0,0.2,0,0.9,0.1,2l0.2,2.5c0,0.2,0.1,0.5,0.1,0.9c0,2-0.8,3-2.3,3
				c-1.6,0-2.4-0.8-2.4-2.5v-0.3l0.1-1.7c0-0.6,0.1-1,0.1-1.4c0-2.5-0.8-4.4-2.5-5.8c-1.7-1.4-4-2.1-6.9-2.1c-2.7,0-4.8,0.7-6.4,2
				c-1.6,1.3-2.4,3.1-2.4,5.3c0,2.6,1.2,4.5,3.5,5.8c1.3,0.7,3.6,1.3,6.9,1.8c4.9,0.8,8.3,1.9,10.1,3.2c2.7,2,4.1,4.9,4.1,8.6
				c0,3.9-1.4,7-4.2,9.5c-2.8,2.4-6.4,3.7-10.8,3.7c-4.7,0-8.6-1.5-11.7-4.5c0,0.2,0,0.3,0,0.5s0,0.3,0,0.4c0.2,0.7,0.2,1.1,0.2,1.3
				c0,1.5-0.8,2.3-2.3,2.3c-1.7,0-2.5-0.9-2.5-2.6c0-0.2,0.1-0.4,0.2-0.5l0.2-3.2c0.1-1.6,0.2-2.6,0.2-3.1c0-0.8-0.1-2.1-0.3-3.7
				c-0.2-1.7-0.3-2.9-0.3-3.7c0-1.9,0.8-2.8,2.4-2.8c1.6,0,2.4,0.9,2.4,2.8v1.1c0,0.3,0,0.8,0,1.4c0,3.1,1,5.6,3,7.4
				c2,1.8,4.7,2.8,8,2.8c3.1,0,5.6-0.7,7.5-2.2s2.8-3.5,2.8-6.1c0-3.9-2.5-6.3-7.4-7.2l-3.5-0.6c-3.5-0.6-6.2-1.3-8.2-2.2
				c-1.8-0.8-3.2-2-4.2-3.7c-1.1-1.7-1.6-3.6-1.6-5.7c0-3.6,1.3-6.6,4-8.9C201.4,168.6,204.8,167.5,209,167.5z"/>
			<path class="st2" d="M249.3,202c0,3.1,1.1,4.6,3.2,4.6c0.3,0,0.8,0,1.5-0.1s1.2-0.1,1.5-0.1c0.5,0,1,0.2,1.4,0.6
				c0.4,0.4,0.6,0.8,0.6,1.4c0,1.4-0.9,2.1-2.8,2.1c-0.1,0-0.2,0-0.4,0s-0.4-0.1-0.4-0.1l-3-0.4c-1.2-0.2-2.5-0.2-3.9-0.2
				c-1.6,0-3,0.1-4.2,0.2l-3.1,0.4c-0.1,0-0.3,0-0.4,0.1c-0.2,0-0.4,0-0.4,0c-1.8,0-2.7-0.7-2.7-2.1c0-1.3,0.7-2,2-2
				c0.3,0,0.8,0,1.5,0.1s1.2,0.1,1.5,0.1c2.1,0,3.1-1.5,3.1-4.6v-4.3v-5.5V187v-10.1c0-2.9-1.5-4.4-4.5-4.4h-1.9
				c-3,0-4.5,1.4-4.5,4.3c0,1,0,1.7,0.1,2.1l0.2,2.3c0,0.4,0.1,0.9,0.1,1.5c0,2.6-0.8,3.9-2.4,3.9c-1.5,0-2.3-1-2.3-2.9
				c0-0.5,0.1-1.5,0.2-2.8c0.1-2,0.1-3.2,0.1-3.8c0-1,0-2.1-0.1-3.2c-0.1-2.2-0.2-3.1-0.2-2.8c0-1.7,0.8-2.6,2.4-2.6
				c0.6,0,1.9,0.1,4,0.2c0.2,0,1.9,0.1,5.1,0.2h7.1c0.8,0,3,0,6.6-0.1c0.8,0,2.1-0.1,4-0.2c1.7-0.1,3-0.2,4-0.2
				c2.1,0,3.1,0.8,3.1,2.5v0.1c0,0.4-0.1,1.2-0.2,2.3c-0.1,1.1-0.2,2.3-0.3,3.6v0.7c0,0.6,0.1,1.6,0.2,2.9c0.2,1.7,0.2,2.8,0.2,3.2
				c0,1.7-0.8,2.5-2.4,2.5c-1.6,0-2.4-1-2.4-3.1c0-0.7,0.1-1.9,0.2-3.3c0.1-1.5,0.2-2.6,0.2-3.3c0-2.9-1.6-4.3-4.9-4.3h-1.7
				c-1.5,0-2.6,0.3-3.3,1c-0.7,0.6-1,1.7-1.1,3.2l-0.2,4.3V202H249.3z"/>
			<path class="st2" d="M300,187.3c-1.2,0.6-2.7,1.1-4.6,1.5c2.4,0.5,4.1,1.4,5,2.7c0.9,1.4,1.4,3.6,1.4,6.7v2.8c0,0.2,0,0.4,0,0.7
				c0,3,0.9,4.4,2.8,4.4c1.9,0,2.9-1.8,2.9-5.3V199v-1.5v-0.9c0-1.2,0.1-2,0.2-2.5c0.3-0.7,1-1,1.9-1c1.5,0,2.2,0.9,2.2,2.6
				c0,0,0,0.5-0.1,1.4v1.3c0,0.9,0,1.4,0,1.7v1.6c0,0.2-0.1,0.6-0.1,1.1c0,2.4-0.7,4.3-2,5.6s-3.2,2-5.6,2c-4.9,0-7.3-2.5-7.3-7.4
				v-1.9V199v-1.4c0-2.8-0.5-4.6-1.6-5.5c-1-0.9-3.2-1.3-6.5-1.3h-5.7c-1.3,0-2,0.8-2,2.4v4.8c0,3.1,0,4.8,0.1,5.2
				c0.4,2.1,1.4,3.1,3.1,3.1c0.6,0,1,0,1.3-0.1c0.7-0.1,1.2-0.1,1.6-0.1c1.3,0,2,0.7,2,2c0,1.4-0.9,2.2-2.7,2.2l-0.9-0.1l-3.3-0.4
				c-1.3-0.2-2.4-0.2-3.4-0.2c-1.2,0-2.7,0.1-4.3,0.3l-3,0.4c-0.7,0.1-1,0.1-0.9,0.1c-1.8,0-2.7-0.7-2.7-2.2c0-1.3,0.6-2,1.9-2
				c0.2,0,0.8,0,1.7,0.1c0.5,0.1,0.9,0.2,1.3,0.2c2.1,0,3.2-1.6,3.2-4.7V177c0-3.1-1.1-4.6-3.2-4.6c-0.3,0-0.8,0-1.5,0.1
				s-1.2,0.1-1.5,0.1c-0.5,0-1-0.2-1.4-0.6c-0.4-0.4-0.6-0.8-0.6-1.4c0-1.4,0.9-2.1,2.7-2.1c0.2,0,0.5,0,0.9,0.1l3.2,0.3
				c0.8,0.1,1.9,0.1,3.1,0.1c1.3,0,2.7,0,4.3-0.1l4.7-0.2c1.6-0.1,3-0.1,4.3-0.1c9.1,0,13.6,3.5,13.6,10.4
				C304.7,183.1,303.1,185.9,300,187.3z M282.8,186.9h5.8c3.5,0,6.1-0.5,7.8-1.5c2.1-1.2,3.2-3.2,3.2-6c0-4.7-3.2-7.1-9.7-7.1
				c-3.4,0-5.8,0.3-7,0.8s-1.9,1.5-1.9,3.1v2v7.1c0,0.7,0.1,1.1,0.4,1.3C281.6,186.8,282.1,186.9,282.8,186.9z"/>
			<path class="st2" d="M321.1,177.1c0-3.1-1.1-4.6-3.2-4.6c-0.6,0-1,0-1.3,0.1c-0.7,0.1-1.2,0.2-1.7,0.2s-1-0.2-1.4-0.6
				c-0.4-0.4-0.6-0.9-0.6-1.5c0-1.4,0.9-2.2,2.6-2.2c0,0,0.3,0,0.9,0.1c6.2,0.4,9.1,0.6,8.7,0.6h0.6l14.9-0.4c0.3,0,1.4-0.1,3.2-0.2
				c0.7,0,1.3-0.1,1.8-0.1c2.1,0,3.2,1,3.2,2.9c0,0.3-0.1,1.4-0.2,3.2c-0.1,1.3-0.1,2.5-0.1,3.7c0,1.4,0,2.5,0.1,3
				c0.1,1.2,0.2,2.1,0.2,2.7c0,1.6-0.7,2.4-2.2,2.4s-2.2-1.1-2.2-3.3v-3.2c0-3.5-0.7-5.5-2.2-6.2c-1.1-0.5-3.8-0.7-8.3-0.7
				c-2.9,0-4.7,0.1-5.2,0.2c-1.8,0.5-2.7,1.7-2.7,3.8v2.8c0,0.3,0,0.8,0,1.4s0,1,0,1.2v0.8c0,1.7,0.4,2.6,1.1,2.9
				c0.3,0.1,0.8,0.1,1.5,0.1h2.5c2.6,0,3.9-0.9,3.9-2.7c0-0.5-0.1-1.1-0.2-1.9c-0.1-0.8-0.2-1.5-0.2-2.1c0-1.7,0.7-2.5,2.2-2.5
				s2.2,0.9,2.2,2.7c0,0.3-0.1,1.6-0.4,3.8c-0.2,1.9-0.3,3.6-0.3,5c0,0.8,0.1,2.3,0.2,4.4c0,0.3,0.1,1.1,0.3,2.2
				c0.1,0.9,0.2,1.6,0.2,2.2c0,1.5-0.7,2.2-2.2,2.2c-1.4,0-2.2-0.9-2.2-2.6c0-0.5,0.1-1.1,0.2-2c0.1-0.9,0.2-1.5,0.2-2
				c0-1.8-1.2-2.7-3.5-2.7h-2.8c-1.2,0-1.9,0.2-2.2,0.6c-0.3,0.4-0.4,1.3-0.4,2.7v3.8c0,0.7,0,1.6,0.1,2.7c0,1.4,0.1,2.3,0.1,2.7
				c0,1.7,0.4,2.7,1,3.1c0.5,0.3,1.5,0.4,3.2,0.4h8.4c2.4,0,4.1-0.4,5-1.1c0.9-0.7,1.4-2.1,1.4-4.1c0-0.6,0-1.5-0.1-2.8
				c-0.1-1.2-0.1-2.1-0.1-2.8c0-1.9,0.7-2.8,2.2-2.8s2.3,1,2.3,2.9c0,0.7,0,1.9-0.1,3.4c-0.1,1.5-0.1,2.7-0.1,3.4
				c0,0.6,0,1.4,0.1,2.6c0.1,1.1,0.1,2,0.1,2.6c0,1.9-1,2.9-2.9,2.9c-0.5,0-1.2,0-2.2-0.1c-0.5,0-1.4-0.1-2.7-0.1
				c0.3,0-1.3,0-4.8-0.1s-6.6-0.1-9.1-0.1c-3.9,0-7.7,0.1-11.4,0.4c-0.2,0-0.4,0-0.6,0.1c-0.2,0-0.3,0-0.4,0c-1.7,0-2.6-0.7-2.6-2.2
				c0-1.3,0.6-2,1.9-2c0.2,0,0.8,0,1.7,0.1c0.5,0.1,0.9,0.2,1.3,0.2c2.1,0,3.2-1.6,3.2-4.7v-24.8L321.1,177.1L321.1,177.1z"/>
		</g>
	</g>
	<g>
		<path class="st1" d="M149,247.3l-1-2.7c-0.1-0.3-0.2-0.5-0.4-0.6c-0.1-0.1-0.4-0.1-0.7-0.1h-5c-0.4,0-0.6,0.1-0.8,0.2
			s-0.3,0.5-0.5,1.1l-0.8,2.2c-0.1,0.2-0.1,0.4-0.1,0.6c0,0.6,0.4,0.9,1.1,0.9c0.2,0,0.5,0,0.8-0.1c0.3,0,0.6-0.1,0.8-0.1
			c0.8,0,1.1,0.3,1.1,1c0,0.6-0.4,0.9-1.3,0.9c-0.1,0-0.4,0-0.6-0.1l-1.4-0.2c-0.3,0-0.7,0-1.3,0c-0.7,0-1.1,0-1.4,0l-1.2,0.1
			c-0.5,0.1-0.9,0.1-1.1,0.1c-0.7,0-1.1-0.3-1.1-0.9c0-0.7,0.4-1,1.1-1c0.1,0,0.3,0,0.3,0.1h0.4c0.5,0,0.9-0.2,1.1-0.6
			c0.1-0.1,0.3-0.6,0.6-1.3l5.2-14.1c0.3-0.8,0.9-1.2,1.8-1.2c0.9,0,1.4,0.4,1.7,1.2l5,13.9c0.3,0.9,0.6,1.5,0.9,1.7
			c0.3,0.3,0.6,0.4,1.1,0.4c0.1,0,0.3,0,0.3,0l0.8-0.1c0.7,0,1.1,0.3,1.1,0.9c0,0.7-0.4,1-1.1,1c-0.2,0-0.5,0-0.8-0.1
			c-1.2-0.1-2.1-0.2-2.6-0.2c-0.7,0-1.8,0.1-3.4,0.2c-0.4,0-0.7,0.1-0.9,0.1c-0.7,0-1.1-0.3-1.1-1s0.4-1,1.2-1c0.2,0,0.4,0,0.7,0.1
			c0.3,0,0.6,0.1,0.7,0.1c0.6,0,0.9-0.3,0.9-0.8C149.2,248,149.1,247.7,149,247.3z M146.9,241.6l-2.5-7.7l-2.6,7.7
			c0,0.1-0.1,0.2-0.1,0.2c0,0.2,0.1,0.3,0.4,0.3h4.5c0.2,0,0.3-0.1,0.3-0.2C147,241.8,147,241.7,146.9,241.6z"/>
		<path class="st1" d="M164.7,233.8L169,248l4.7-15.1c0.2-0.8,0.7-1.2,1.3-1.2h0.1c0.2,0,0.4,0,0.7,0.1c0.4,0.1,0.6,0.1,0.7,0.1
			c0.3,0,0.7,0.1,1.2,0.1c0.6,0,1,0,1.3-0.1l1-0.2c0.1,0,0.2,0,0.3,0c0.9,0,1.3,0.3,1.3,1c0,0.6-0.3,0.9-0.9,0.9
			c-0.2,0-0.4,0-0.7-0.1c-0.3,0-0.5-0.1-0.7-0.1c-1,0-1.4,0.7-1.4,2.1v2v2.5v2.4v4.4c0,1.4,0.5,2.1,1.4,2.1c0.2,0,0.4,0,0.6-0.1
			c0.4,0,0.7-0.1,0.7-0.1c0.6,0,0.9,0.3,0.9,0.9c0,0.7-0.4,1-1.2,1c0,0-0.1,0-0.4-0.1c-1.3-0.1-2.4-0.2-3.3-0.2
			c-0.9,0-1.7,0.1-2.5,0.2c-0.3,0.1-0.6,0.1-0.9,0.1c-0.7,0-1.1-0.3-1.1-0.9c0-0.6,0.4-1,1.1-1c0.2,0,0.3,0,0.4,0
			c0.4,0,0.7,0.1,0.7,0.1c0.7,0,1.1-0.7,1.3-2.1c0-0.3,0.1-1.2,0.1-2.9c0-0.6,0-1.5,0.1-2.7v-2.5v-5c0-0.1,0-0.2-0.1-0.2
			s-0.1,0.1-0.2,0.2l-5.2,16c-0.2,0.7-0.7,1.1-1.6,1.1c-0.5,0-0.8-0.1-1.1-0.2c-0.2-0.1-0.4-0.4-0.5-0.9l-5.1-16
			c-0.1-0.1-0.1-0.2-0.2-0.2c-0.1,0-0.1,0.1-0.1,0.2l0.2,13c0,1.4,0.4,2,1.1,2c0.2,0,0.5,0,0.8,0h0.3c0.7,0,1.1,0.3,1.1,1
			s-0.4,1-1.1,1c-0.1,0-0.3,0-0.6-0.1c-0.4-0.1-0.8-0.1-1.3-0.2c-0.4-0.1-0.8-0.1-1.4-0.1c-1,0-1.7,0-2,0.1l-1.2,0.2
			c0,0-0.1,0-0.2,0c-0.1,0-0.1,0-0.2,0c-0.9,0-1.3-0.3-1.3-1c0-0.3,0.1-0.5,0.3-0.7s0.4-0.3,0.6-0.3c0.2,0,0.4,0,0.7,0.1
			s0.5,0.1,0.6,0.1c1,0,1.4-0.7,1.4-2.1v-11.3c0-1.4-0.5-2.1-1.4-2.1c-0.1,0-0.4,0-0.7,0.1c-0.3,0-0.5,0.1-0.7,0.1
			c-0.6,0-0.9-0.3-0.9-0.9c0-0.6,0.4-1,1.3-1c0.1,0,0.2,0,0.4,0l1,0.1c0.5,0.1,0.9,0.1,1.4,0.1c0.4,0,0.8,0,1.4-0.1
			c0.6-0.1,1-0.1,1.3-0.1c0.7,0,1.2,0.5,1.5,1.4L164.7,233.8z"/>
		<path class="st1" d="M199.9,236.2c0,1.9-1.1,3.2-3.2,4c0.8,0.2,1.4,0.5,1.9,0.8c1.5,0.9,2.3,2.2,2.3,3.9s-0.7,3.1-2,4.1
			s-3.1,1.5-5.3,1.5c-0.8,0-1.8,0-3.1-0.1c-1.2-0.1-2.1-0.1-2.7-0.1c-0.5,0-1,0-1.4,0.1l-1.3,0.2c0,0-0.1,0-0.2,0
			c-0.1,0-0.2,0-0.2,0c-0.8,0-1.2-0.4-1.2-1s0.3-0.9,0.9-0.9c0.1,0,0.4,0,0.8,0.1c0.2,0,0.4,0.1,0.6,0.1c1,0,1.4-0.7,1.4-2.1v-11.3
			c0-1.4-0.5-2.1-1.4-2.1c-0.2,0-0.4,0-0.6,0.1c-0.3,0.1-0.6,0.1-0.8,0.1c-0.6,0-0.9-0.3-0.9-0.9c0-0.7,0.4-1,1.3-1h0.4l1.4,0.2
			c0.4,0.1,0.9,0.1,1.6,0.1c0.7,0,1.7-0.1,3-0.2c0.9-0.1,1.8-0.1,2.8-0.1c1.9,0,3.4,0.4,4.4,1.2
			C199.3,233.7,199.9,234.8,199.9,236.2z M189.1,237.4c0,1,0.1,1.6,0.3,1.8s0.7,0.4,1.5,0.4h1.6c3.3,0,5-1.1,5-3.2
			c0-2-1.4-2.9-4.1-2.9c-1.9,0-3.1,0.1-3.5,0.4c-0.4,0.2-0.7,0.9-0.7,1.9v1.6H189.1z M189.1,243.1v3.1c0,1.2,0.2,2,0.6,2.2
			c0.4,0.3,1.5,0.4,3.4,0.4c3.5,0,5.2-1.3,5.2-3.9c0-2.4-1.7-3.6-5-3.6H191c-1,0-1.6,0.2-1.7,0.7
			C189.2,242.2,189.1,242.6,189.1,243.1z"/>
		<path class="st1" d="M207,235.5c0-1.4-0.5-2.1-1.4-2.1c-0.3,0-0.5,0-0.6,0.1c-0.3,0.1-0.6,0.1-0.8,0.1s-0.4-0.1-0.6-0.3
			c-0.2-0.2-0.3-0.4-0.3-0.7c0-0.7,0.4-1,1.2-1c0.1,0,0.2,0,0.4,0l1.5,0.2c0.6,0.1,1.1,0.1,1.7,0.1c0.6,0,1.2,0,1.9-0.1l1.3-0.2
			c0.1,0,0.3,0,0.4,0c0.8,0,1.2,0.3,1.2,1c0,0.3-0.1,0.5-0.3,0.7s-0.4,0.3-0.6,0.3c-0.2,0-0.4,0-0.8-0.1c-0.1,0-0.3-0.1-0.6-0.1
			c-1,0-1.4,0.7-1.4,2.1v11.2c0,1.4,0.5,2.1,1.4,2.1c0.1,0,0.3,0,0.6-0.1c0.4-0.1,0.6-0.1,0.8-0.1c0.6,0,0.9,0.3,0.9,0.9
			c0,0.7-0.4,1-1.2,1c0,0-0.1,0-0.2,0c-0.1,0-0.1,0-0.2,0l-1.5-0.2c-0.5-0.1-1-0.1-1.5-0.1c-0.8,0-1.5,0-2.1,0.1l-1.3,0.2
			c0,0-0.1,0-0.2,0c-0.1,0-0.2,0-0.2,0c-0.8,0-1.2-0.3-1.2-1c0-0.6,0.3-0.9,0.9-0.9c0.1,0,0.3,0,0.8,0.1c0.2,0.1,0.4,0.1,0.6,0.1
			c1,0,1.4-0.7,1.4-2.1L207,235.5L207,235.5z"/>
		<path class="st1" d="M218.2,235.5c0-1.4-0.5-2.1-1.4-2.1c-0.3,0-0.5,0-0.6,0.1c-0.3,0.1-0.6,0.1-0.8,0.1s-0.4-0.1-0.6-0.3
			c-0.2-0.2-0.3-0.4-0.3-0.7c0-0.7,0.4-1,1.2-1c0,0,0.2,0,0.4,0c2.8,0.2,4.1,0.3,3.9,0.3h0.3l6.7-0.2c0.1,0,0.6,0,1.5-0.1
			c0.3,0,0.6,0,0.8,0c1,0,1.5,0.4,1.5,1.3c0,0.1,0,0.6-0.1,1.4c0,0.6-0.1,1.1-0.1,1.7c0,0.7,0,1.1,0,1.4c0.1,0.5,0.1,0.9,0.1,1.2
			c0,0.7-0.3,1.1-1,1.1s-1-0.5-1-1.5v-1.5c0-1.6-0.3-2.5-1-2.8c-0.5-0.2-1.7-0.3-3.7-0.3c-1.3,0-2.1,0-2.3,0.1
			c-0.8,0.2-1.2,0.8-1.2,1.7v1.3c0,0.2,0,0.4,0,0.6c0,0.3,0,0.4,0,0.6v0.4c0,0.7,0.2,1.2,0.5,1.3c0.1,0,0.3,0.1,0.7,0.1h1.1
			c1.2,0,1.7-0.4,1.7-1.2c0-0.2,0-0.5-0.1-0.9c0-0.4-0.1-0.7-0.1-1c0-0.7,0.3-1.1,1-1.1s1,0.4,1,1.2c0,0.1-0.1,0.7-0.2,1.7
			c-0.1,0.9-0.2,1.6-0.2,2.3c0,0.4,0,1,0.1,2c0,0.1,0.1,0.5,0.1,1c0.1,0.4,0.1,0.7,0.1,1c0,0.7-0.3,1-1,1s-1-0.4-1-1.2
			c0-0.2,0-0.5,0.1-0.9c0-0.4,0.1-0.7,0.1-0.9c0-0.8-0.5-1.2-1.6-1.2h-1.3c-0.5,0-0.9,0.1-1,0.3s-0.2,0.6-0.2,1.2v1.7
			c0,0.3,0,0.7,0,1.2c0,0.6,0,1,0,1.2c0,0.7,0.2,1.2,0.4,1.4c0.2,0.1,0.7,0.2,1.5,0.2h3.8c1.1,0,1.9-0.2,2.3-0.5
			c0.4-0.3,0.6-0.9,0.6-1.8c0-0.3,0-0.7,0-1.2s0-1,0-1.2c0-0.8,0.3-1.3,1-1.3s1,0.4,1,1.3c0,0.3,0,0.8,0,1.5s0,1.2,0,1.5
			s0,0.6,0,1.2c0,0.5,0,0.9,0,1.2c0,0.9-0.4,1.3-1.3,1.3c-0.2,0-0.5,0-1-0.1c-0.2,0-0.6,0-1.2,0c0.1,0-0.6,0-2.2-0.1
			c-1.6,0-3-0.1-4.1-0.1c-1.8,0-3.5,0.1-5.2,0.2c-0.1,0-0.2,0-0.3,0s-0.2,0-0.2,0c-0.8,0-1.2-0.3-1.2-1c0-0.6,0.3-0.9,0.9-0.9
			c0.1,0,0.3,0,0.8,0.1c0.2,0.1,0.4,0.1,0.6,0.1c1,0,1.4-0.7,1.4-2.1v-11.3H218.2z"/>
		<path class="st1" d="M241.7,233l7.5,15.7v-11.3c0-1.5,0-2.3,0-2.4c-0.2-1-0.6-1.5-1.4-1.5c-0.1,0-0.4,0-0.7,0.1
			c-0.3,0-0.5,0.1-0.7,0.1s-0.5-0.1-0.6-0.3c-0.2-0.2-0.3-0.4-0.3-0.6c0-0.7,0.4-1,1.3-1c0.2,0,0.3,0,0.4,0l1.3,0.2
			c0.6,0.1,1.1,0.1,1.6,0.1s1.1-0.1,1.9-0.2c0.3,0,0.6-0.1,1-0.1c0,0,0.1,0,0.2,0c0.1,0,0.1,0,0.2,0c0.8,0,1.2,0.3,1.2,1
			c0,0.6-0.4,0.9-1.1,0.9c-0.1,0-0.2,0-0.3,0h-0.3c-0.6,0-0.9,0.1-1.1,0.4c-0.2,0.2-0.3,0.8-0.3,1.6v1.6v2.9v7.5
			c0,1.3-0.1,2.2-0.4,2.7s-0.8,0.8-1.5,0.8c-0.9,0-1.7-0.7-2.3-2l-7.4-15.3v13c0,1.4,0.5,2.1,1.4,2.1c0.1,0,0.4,0,0.7,0s0.5,0,0.7,0
			c0.6,0,0.9,0.3,0.9,0.9c0,0.6-0.4,1-1.3,1c0,0-0.1,0-0.2,0c-0.1,0-0.2,0-0.2,0l-1.1-0.2c-0.6-0.1-1.2-0.1-1.8-0.1
			c-0.5,0-1.1,0-1.9,0.1l-1.4,0.2c0,0-0.1,0-0.2,0c-0.1,0-0.2,0-0.2,0c-0.8,0-1.2-0.3-1.2-1c0-0.6,0.3-0.9,0.9-0.9
			c0.1,0,0.3,0,0.8,0.1c0.2,0.1,0.4,0.1,0.6,0.1c1,0,1.4-0.7,1.4-2.1v-2v-2.5V240v-4.4c0-1.4-0.5-2.1-1.4-2.1c-0.1,0-0.3,0-0.6,0.1
			c-0.4,0.1-0.6,0.1-0.8,0.1c-0.6,0-0.9-0.3-0.9-0.9c0-0.7,0.4-1,1.2-1c0.1,0,0.3,0,0.4,0c0.9,0.1,1.6,0.1,2.2,0.1
			c0.3,0,0.7,0,1.3-0.1s1-0.1,1.3-0.1c0.6,0,1,0.2,1.1,0.6L241.7,233z"/>
		<path class="st1" d="M265.4,246.8c0,1.4,0.5,2.1,1.4,2.1c0.1,0,0.4,0,0.7-0.1c0.3,0,0.5-0.1,0.7-0.1s0.5,0.1,0.6,0.3
			c0.2,0.2,0.3,0.4,0.3,0.6c0,0.6-0.4,1-1.3,1c0,0-0.1,0-0.2,0c-0.1,0-0.2,0-0.2,0l-1.4-0.2c-0.5-0.1-1.1-0.1-1.8-0.1
			s-1.3,0-1.9,0.1l-1.4,0.2c-0.1,0-0.1,0-0.2,0c-0.1,0-0.2,0-0.2,0c-0.8,0-1.2-0.3-1.2-1c0-0.6,0.3-0.9,0.9-0.9c0.1,0,0.4,0,0.7,0.1
			c0.3,0,0.5,0.1,0.7,0.1c0.9,0,1.4-0.7,1.4-2.1v-2v-2.5V240v-4.6c0-1.3-0.7-2-2-2h-0.9c-1.3,0-2,0.7-2,2c0,0.5,0,0.8,0,1l0.1,1
			c0,0.2,0,0.4,0,0.7c0,1.2-0.4,1.8-1.1,1.8s-1-0.4-1-1.3c0-0.2,0-0.7,0.1-1.3c0-0.9,0.1-1.5,0.1-1.7c0-0.5,0-1,0-1.5
			c-0.1-1-0.1-1.4-0.1-1.3c0-0.8,0.4-1.2,1.1-1.2c0.3,0,0.9,0,1.8,0.1c0.1,0,0.9,0,2.3,0.1h3.2c0.4,0,1.4,0,3,0c0.4,0,1,0,1.8-0.1
			c0.8,0,1.4-0.1,1.8-0.1c0.9,0,1.4,0.4,1.4,1.1v0.1c0,0.2,0,0.5-0.1,1c0,0.5-0.1,1-0.2,1.6v0.3c0,0.3,0,0.7,0.1,1.3
			c0.1,0.8,0.1,1.3,0.1,1.5c0,0.8-0.4,1.1-1.1,1.1s-1.1-0.5-1.1-1.4c0-0.3,0-0.8,0.1-1.5c0.1-0.7,0.1-1.2,0.1-1.5
			c0-1.3-0.7-1.9-2.2-1.9h-0.8c-0.7,0-1.2,0.1-1.5,0.4c-0.3,0.3-0.5,0.8-0.5,1.4l-0.1,2L265.4,246.8L265.4,246.8z"/>
		<path class="st1" d="M287.5,247.3l-1-2.7c-0.1-0.3-0.2-0.5-0.3-0.6s-0.4-0.1-0.7-0.1h-5c-0.4,0-0.6,0.1-0.8,0.2
			c-0.2,0.1-0.3,0.5-0.5,1.1l-0.8,2.2c-0.1,0.2-0.1,0.4-0.1,0.6c0,0.6,0.4,0.9,1.1,0.9c0.2,0,0.5,0,0.8-0.1c0.3,0,0.6-0.1,0.8-0.1
			c0.8,0,1.1,0.3,1.1,1c0,0.6-0.4,0.9-1.3,0.9c-0.1,0-0.4,0-0.6-0.1l-1.4-0.2c-0.3,0-0.7,0-1.3,0c-0.7,0-1.1,0-1.4,0l-1.2,0.1
			c-0.5,0.1-0.9,0.1-1.1,0.1c-0.7,0-1.1-0.3-1.1-0.9c0-0.7,0.4-1,1.1-1c0.1,0,0.3,0,0.3,0.1h0.4c0.5,0,0.9-0.2,1.1-0.6
			c0.1-0.1,0.3-0.6,0.6-1.3l5.2-14.1c0.3-0.8,0.9-1.2,1.8-1.2c0.9,0,1.4,0.4,1.7,1.2l5,13.9c0.3,0.9,0.6,1.5,0.9,1.7
			c0.3,0.3,0.6,0.4,1.1,0.4c0.1,0,0.3,0,0.3,0l0.8-0.1c0.7,0,1.1,0.3,1.1,0.9c0,0.7-0.4,1-1.1,1c-0.2,0-0.5,0-0.8-0.1
			c-1.2-0.1-2.1-0.2-2.6-0.2c-0.7,0-1.8,0.1-3.4,0.2c-0.4,0-0.7,0.1-0.9,0.1c-0.7,0-1.1-0.3-1.1-1s0.4-1,1.2-1c0.2,0,0.4,0,0.7,0.1
			c0.3,0,0.6,0.1,0.7,0.1c0.6,0,0.9-0.3,0.9-0.8C287.7,248,287.7,247.7,287.5,247.3z M285.5,241.6l-2.5-7.7l-2.6,7.7
			c0,0.1-0.1,0.2-0.1,0.2c0,0.2,0.1,0.3,0.4,0.3h4.5c0.2,0,0.3-0.1,0.3-0.2C285.5,241.8,285.5,241.7,285.5,241.6z"/>
		<path class="st1" d="M300.9,246.4c0,1.1,0.1,1.7,0.3,1.9s0.4,0.3,0.7,0.3c0.3,0,0.9,0.1,1.8,0.1h2.5c1.3,0,2.1-0.2,2.6-0.5
			s0.6-1,0.6-2.1c0-0.3,0-0.6,0-1c0-0.7-0.1-1.2-0.1-1.3c0-0.8,0.3-1.2,1-1.2c0.8,0,1.2,0.4,1.2,1.1c0,0.2,0,0.4,0,0.5l-0.2,1.4
			c-0.1,0.4-0.1,0.8-0.1,1.3c0,0.3,0,0.6,0.1,1.2c0,0.5,0.1,0.9,0.1,1.2c0,0.8-0.5,1.3-1.4,1.3c-0.2,0-0.6,0-1.3-0.1
			c-0.4,0-1.1-0.1-2.1-0.1h-2.1h-4.6c-0.4,0-1.2,0-2.2,0.1c-0.2,0-0.4,0-0.8,0c-0.4,0-0.6,0-0.9,0c-0.8,0-1.2-0.3-1.2-1
			c0-0.6,0.3-0.9,0.9-0.9c0.1,0,0.4,0,0.7,0.1c0.3,0.1,0.5,0.1,0.7,0.1c1,0,1.4-0.7,1.4-2.1v-11.2c0-1.4-0.5-2.1-1.4-2.1
			c-0.3,0-0.5,0-0.6,0.1c-0.3,0.1-0.6,0.1-0.8,0.1s-0.4-0.1-0.6-0.3s-0.3-0.4-0.3-0.7c0-0.7,0.4-1,1.2-1c0.1,0,0.3,0,0.4,0l1.5,0.2
			c0.8,0.1,1.4,0.1,1.8,0.1c0.5,0,1.1,0,1.8-0.1l1.3-0.2c0.1,0,0.3,0,0.4,0c0.8,0,1.3,0.3,1.3,1c0,0.3-0.1,0.5-0.3,0.7
			c-0.2,0.2-0.4,0.3-0.6,0.3s-0.4,0-0.8-0.1c-0.1,0-0.3-0.1-0.6-0.1c-1,0-1.4,0.7-1.4,2.1v10.9H300.9z"/>
		<path class="st1" d="M328.9,231.2c1.8,0,3.3,0.6,4.5,1.8v-0.4c0-0.7,0.3-1.1,0.9-1.1c0.6,0,1,0.4,1,1.2v0.2c0,0,0,0.3-0.1,0.8
			c-0.1,0.5-0.1,1.1-0.1,1.9c0,0.1,0,0.4,0.1,0.9l0.1,1.1c0,0.1,0,0.2,0,0.4c0,0.9-0.3,1.3-1,1.3s-1.1-0.4-1.1-1.1V238l0.1-0.8
			c0-0.3,0-0.5,0-0.6c0-1.1-0.4-2-1.1-2.6s-1.8-0.9-3.1-0.9c-1.2,0-2.2,0.3-2.9,0.9c-0.7,0.6-1.1,1.4-1.1,2.4c0,1.2,0.5,2,1.6,2.6
			c0.6,0.3,1.6,0.6,3.1,0.8c2.2,0.4,3.7,0.8,4.6,1.5c1.2,0.9,1.8,2.2,1.8,3.9c0,1.8-0.6,3.2-1.9,4.3s-2.9,1.7-4.9,1.7
			c-2.1,0-3.9-0.7-5.3-2c0,0.1,0,0.2,0,0.2s0,0.1,0,0.2c0.1,0.3,0.1,0.5,0.1,0.6c0,0.7-0.3,1-1,1s-1.1-0.4-1.1-1.2
			c0-0.1,0-0.2,0.1-0.2l0.1-1.5c0.1-0.7,0.1-1.2,0.1-1.4c0-0.4,0-0.9-0.1-1.7c-0.1-0.7-0.1-1.3-0.1-1.7c0-0.8,0.4-1.3,1.1-1.3
			s1.1,0.4,1.1,1.3v0.5c0,0.2,0,0.4,0,0.6c0,1.4,0.4,2.5,1.3,3.4c0.9,0.9,2.1,1.2,3.6,1.2c1.4,0,2.5-0.3,3.4-1
			c0.8-0.7,1.3-1.6,1.3-2.7c0-1.8-1.1-2.9-3.4-3.3l-1.6-0.3c-1.6-0.3-2.8-0.6-3.7-1c-0.8-0.4-1.4-0.9-1.9-1.7s-0.7-1.6-0.7-2.6
			c0-1.6,0.6-3,1.8-4C325.4,231.7,327,231.2,328.9,231.2z"/>
		<path class="st1" d="M344.6,232.9l-8,20.5c-0.2,0.6-0.5,1.3-0.8,2.1c-0.2,0.5-0.4,0.7-0.8,0.7h-0.9c-0.3,0-0.4-0.1-0.4-0.3
			c0-0.1,0-0.2,0.1-0.3l0.3-0.7l0.3-0.8l7.3-18.6c0.2-0.5,0.5-1.4,1-2.6l0.4-1.1c0.1-0.4,0.4-0.6,0.8-0.6h0.8c0.2,0,0.4,0.1,0.4,0.3
			c0,0.1-0.1,0.3-0.3,0.8C344.7,232.5,344.6,232.7,344.6,232.9z"/>
		<path class="st1" d="M359,247.3l-1-2.7c-0.1-0.3-0.2-0.5-0.3-0.6s-0.4-0.1-0.7-0.1h-5c-0.4,0-0.6,0.1-0.8,0.2
			c-0.2,0.1-0.3,0.5-0.5,1.1l-0.8,2.2c-0.1,0.2-0.1,0.4-0.1,0.6c0,0.6,0.4,0.9,1.1,0.9c0.2,0,0.5,0,0.8-0.1c0.3,0,0.6-0.1,0.8-0.1
			c0.8,0,1.1,0.3,1.1,1c0,0.6-0.4,0.9-1.3,0.9c-0.1,0-0.4,0-0.6-0.1l-1.4-0.2c-0.3,0-0.7,0-1.3,0c-0.7,0-1.1,0-1.4,0l-1.2,0.1
			c-0.5,0.1-0.9,0.1-1.1,0.1c-0.7,0-1.1-0.3-1.1-0.9c0-0.7,0.4-1,1.1-1c0.1,0,0.3,0,0.3,0.1h0.4c0.5,0,0.9-0.2,1.1-0.6
			c0.1-0.1,0.3-0.6,0.6-1.3l5.2-14.1c0.3-0.8,0.9-1.2,1.8-1.2c0.9,0,1.4,0.4,1.7,1.2l5,13.9c0.3,0.9,0.6,1.5,0.9,1.7
			c0.3,0.3,0.6,0.4,1.1,0.4c0.1,0,0.3,0,0.3,0l0.8-0.1c0.7,0,1.1,0.3,1.1,0.9c0,0.7-0.4,1-1.1,1c-0.2,0-0.5,0-0.8-0.1
			c-1.2-0.1-2.1-0.2-2.6-0.2c-0.7,0-1.8,0.1-3.4,0.2c-0.4,0-0.7,0.1-0.9,0.1c-0.7,0-1.1-0.3-1.1-1s0.4-1,1.2-1c0.2,0,0.4,0,0.7,0.1
			c0.3,0,0.6,0.1,0.7,0.1c0.6,0,0.9-0.3,0.9-0.8C359.2,248,359.1,247.7,359,247.3z M356.9,241.6l-2.5-7.7l-2.6,7.7
			c0,0.1-0.1,0.2-0.1,0.2c0,0.2,0.1,0.3,0.4,0.3h4.5c0.2,0,0.3-0.1,0.3-0.2C357,241.8,357,241.7,356.9,241.6z"/>
	</g>
	<rect x="129.9" y="258.6" class="st0" width="240.2" height="4.6"/>
</g>
</svg>
