<?xml version="1.0" encoding="utf-8"?>
<!-- Generator: Adobe Illustrator 25.3.1, SVG Export Plug-In . SVG Version: 6.00 Build 0)  -->
<svg version="1.1" id="Layer_1" xmlns="http://www.w3.org/2000/svg" xmlns:xlink="http://www.w3.org/1999/xlink" x="0px" y="0px"
	 viewBox="0 0 500 300" style="enable-background:new 0 0 500 300;" xml:space="preserve">
<g>
	<path d="M365.7,77.8c-15.8,0-27.7,1.8-41.8,30.6c-14.2,28.8-19.4,28.9-19.4,28.9V82.5c0,0-24.5,6.9-33.1,30.6
		c-8.6,23.7-17.8,24.1-17.8,24.1V82.5c0,0-24.5,6.9-33.1,30.6c-6.2,17-12.6,22.1-15.8,23.5V83.2c-22.6,6.1-31.1,27.4-31.1,27.4
		c-20.3,37.2-25.9,41.4-31.1,41.4s-11.9-3.6-11.9-10.1c0-6.4,2.5-12.9,9.1-13.3c6.6-0.5,13,3,13,3V78.6c-21.7-4.9-61.3,12-61.3,59.4
		s36.2,59.6,52.1,59.6s27.7-1.8,41.8-30.6c9.3-19,14.8-25.5,17.5-27.8v53c0,0,21.1-5.1,33.4-29.7c12.4-24.5,12.5-20.2,17.5-21.6
		v51.2c0,0,21.1-5.1,33.4-29.7c12.4-24.5,12.5-20.2,17.5-21.6v51.2c22.6-6.1,31.1-27.4,31.1-27.4c20.3-37.2,25.9-41.4,31.1-41.4
		s11.9,3.6,11.9,10.1c0,6.4-2.5,12.9-9.1,13.3c-6.6,0.5-13-3-13-3v52.9c21.7,4.9,61.3-12,61.3-59.4S381.5,77.8,365.7,77.8z"/>
	<g>
		<path d="M75.3,207.6h5.3c1.2,0,2.1,0.1,2.7,0.3c0.8,0.2,1.6,0.7,2.2,1.3c0.6,0.6,1.1,1.4,1.4,2.3c0.3,0.9,0.5,2,0.5,3.4
			c0,1.2-0.1,2.2-0.4,3.1c-0.4,1-0.9,1.9-1.5,2.5c-0.5,0.5-1.2,0.9-2,1.1c-0.6,0.2-1.5,0.3-2.6,0.3h-5.5V207.6z M78.2,210.1v9.5h2.2
			c0.8,0,1.4,0,1.8-0.1c0.5-0.1,0.9-0.3,1.2-0.6c0.3-0.3,0.6-0.7,0.8-1.4c0.2-0.6,0.3-1.5,0.3-2.6s-0.1-2-0.3-2.6s-0.5-1.1-0.8-1.4
			c-0.4-0.3-0.8-0.6-1.3-0.7c-0.4-0.1-1.2-0.1-2.4-0.1H78.2z"/>
		<path d="M89.3,222v-14.4h10.6v2.4h-7.7v3.2h7.2v2.4h-7.2v3.9h8v2.4H89.3z"/>
		<path d="M101.4,217.3l2.8-0.3c0.2,0.9,0.5,1.6,1,2.1c0.5,0.4,1.2,0.7,2.1,0.7c0.9,0,1.6-0.2,2.1-0.6c0.5-0.4,0.7-0.9,0.7-1.4
			c0-0.3-0.1-0.6-0.3-0.9c-0.2-0.2-0.5-0.4-1-0.6c-0.3-0.1-1.1-0.3-2.3-0.6c-1.6-0.4-2.6-0.9-3.3-1.4c-0.9-0.8-1.3-1.8-1.3-2.9
			c0-0.7,0.2-1.4,0.6-2.1c0.4-0.6,1-1.1,1.8-1.5c0.8-0.3,1.7-0.5,2.8-0.5c1.8,0,3.2,0.4,4.1,1.2c0.9,0.8,1.4,1.8,1.4,3.2l-2.9,0.1
			c-0.1-0.7-0.4-1.3-0.8-1.6c-0.4-0.3-1-0.5-1.8-0.5c-0.8,0-1.5,0.2-2,0.5c-0.3,0.2-0.5,0.5-0.5,0.9c0,0.3,0.1,0.6,0.4,0.9
			c0.4,0.3,1.3,0.6,2.7,1c1.4,0.3,2.5,0.7,3.1,1c0.7,0.4,1.2,0.8,1.6,1.5c0.4,0.6,0.6,1.4,0.6,2.3c0,0.8-0.2,1.6-0.7,2.3
			c-0.5,0.7-1.1,1.3-1.9,1.6c-0.8,0.3-1.9,0.5-3.1,0.5c-1.8,0-3.2-0.4-4.2-1.3C102.2,220.1,101.6,218.9,101.4,217.3z"/>
		<path d="M118.3,222v-11.9H114v-2.4h11.4v2.4h-4.2V222H118.3z"/>
		<path d="M126.7,222v-14.4h2.9V222H126.7z"/>
		<path d="M131.9,222v-14.2h2.9v11.8h7.2v2.4H131.9z"/>
		<path d="M156.6,222h-3.2l-1.3-3.3h-5.7l-1.2,3.3h-3.1l5.6-14.4h3.1L156.6,222z M151.2,216.3l-2-5.3l-1.9,5.3H151.2z"/>
		<path d="M157.6,222v-14.4h6.1c1.5,0,2.6,0.1,3.3,0.4c0.7,0.3,1.3,0.7,1.7,1.4s0.6,1.4,0.6,2.3c0,1.1-0.3,2-0.9,2.7
			c-0.6,0.7-1.6,1.1-2.8,1.3c0.6,0.4,1.1,0.8,1.6,1.2c0.4,0.4,1,1.2,1.6,2.3l1.8,2.8H167l-2.1-3.1c-0.7-1.1-1.3-1.8-1.5-2.1
			c-0.3-0.3-0.6-0.5-0.9-0.6c-0.3-0.1-0.8-0.2-1.5-0.2h-0.6v6H157.6z M160.5,213.7h2.1c1.4,0,2.3-0.1,2.6-0.2
			c0.3-0.1,0.6-0.3,0.8-0.6c0.2-0.3,0.3-0.6,0.3-1.1c0-0.5-0.1-0.9-0.4-1.2c-0.3-0.3-0.6-0.5-1.1-0.6c-0.2,0-0.9,0-2.1,0h-2.3V213.7
			z"/>
		<path d="M171.5,222v-14.4h2.9V222H171.5z"/>
		<path d="M189.6,222h-3.2l-1.3-3.3h-5.7l-1.2,3.3h-3.1l5.6-14.4h3.1L189.6,222z M184.3,216.3l-2-5.3l-1.9,5.3H184.3z"/>
		<path d="M189.9,217.3l2.8-0.3c0.2,0.9,0.5,1.6,1,2.1c0.5,0.4,1.2,0.7,2.1,0.7c0.9,0,1.6-0.2,2.1-0.6c0.5-0.4,0.7-0.9,0.7-1.4
			c0-0.3-0.1-0.6-0.3-0.9c-0.2-0.2-0.5-0.4-1-0.6c-0.3-0.1-1.1-0.3-2.3-0.6c-1.6-0.4-2.6-0.9-3.3-1.4c-0.9-0.8-1.3-1.8-1.3-2.9
			c0-0.7,0.2-1.4,0.6-2.1c0.4-0.6,1-1.1,1.8-1.5c0.8-0.3,1.7-0.5,2.8-0.5c1.8,0,3.2,0.4,4.1,1.2c0.9,0.8,1.4,1.8,1.4,3.2l-2.9,0.1
			c-0.1-0.7-0.4-1.3-0.8-1.6c-0.4-0.3-1-0.5-1.8-0.5c-0.8,0-1.5,0.2-2,0.5c-0.3,0.2-0.5,0.5-0.5,0.9c0,0.3,0.1,0.6,0.4,0.9
			c0.4,0.3,1.3,0.6,2.7,1c1.4,0.3,2.5,0.7,3.1,1c0.7,0.4,1.2,0.8,1.6,1.5c0.4,0.6,0.6,1.4,0.6,2.3c0,0.8-0.2,1.6-0.7,2.3
			c-0.5,0.7-1.1,1.3-1.9,1.6c-0.8,0.3-1.9,0.5-3.1,0.5c-1.8,0-3.2-0.4-4.2-1.3S190.1,218.9,189.9,217.3z"/>
		<path d="M208.5,222v-14.4h4.3l2.6,9.8l2.6-9.8h4.3V222h-2.7v-11.3l-2.8,11.3h-2.8l-2.8-11.3V222H208.5z"/>
		<path d="M224.8,222v-14.4h10.6v2.4h-7.7v3.2h7.2v2.4h-7.2v3.9h8v2.4H224.8z"/>
		<path d="M237.7,222v-14.2h2.9v11.8h7.2v2.4H237.7z"/>
		<path d="M249.4,222v-14.4h2.9v5.6h5.7v-5.6h2.9V222H258v-6.3h-5.7v6.3H249.4z"/>
		<path d="M262.8,214.9c0-1.5,0.2-2.7,0.7-3.7c0.3-0.7,0.8-1.4,1.3-2c0.6-0.6,1.2-1,1.9-1.3c0.9-0.4,1.9-0.6,3.1-0.6
			c2.1,0,3.8,0.7,5.1,2c1.3,1.3,1.9,3.1,1.9,5.5c0,2.3-0.6,4.1-1.9,5.4c-1.3,1.3-2.9,2-5.1,2c-2.1,0-3.8-0.7-5.1-2
			C263.4,219,262.8,217.2,262.8,214.9z M265.8,214.8c0,1.6,0.4,2.9,1.1,3.7c0.8,0.8,1.7,1.3,2.9,1.3c1.2,0,2.1-0.4,2.8-1.2
			c0.7-0.8,1.1-2.1,1.1-3.7c0-1.6-0.4-2.9-1.1-3.7c-0.7-0.8-1.7-1.2-2.9-1.2s-2.2,0.4-2.9,1.2C266.1,211.9,265.8,213.1,265.8,214.8z
			"/>
		<path d="M278.5,222v-14.4h6.1c1.5,0,2.6,0.1,3.3,0.4c0.7,0.3,1.3,0.7,1.7,1.4s0.6,1.4,0.6,2.3c0,1.1-0.3,2-0.9,2.7
			s-1.6,1.1-2.8,1.3c0.6,0.4,1.1,0.8,1.6,1.2c0.4,0.4,1,1.2,1.7,2.3l1.8,2.8h-3.5l-2.1-3.1c-0.7-1.1-1.3-1.8-1.5-2.1
			c-0.3-0.3-0.6-0.5-0.9-0.6c-0.3-0.1-0.8-0.2-1.5-0.2h-0.6v6H278.5z M281.4,213.7h2.1c1.4,0,2.3-0.1,2.6-0.2s0.6-0.3,0.8-0.6
			c0.2-0.3,0.3-0.6,0.3-1.1c0-0.5-0.1-0.9-0.4-1.2c-0.3-0.3-0.6-0.5-1.1-0.6c-0.2,0-0.9,0-2.1,0h-2.3V213.7z"/>
		<path d="M305.4,222h-3.2l-1.3-3.3h-5.7l-1.2,3.3H291l5.6-14.4h3.1L305.4,222z M300.1,216.3l-2-5.3l-1.9,5.3H300.1z"/>
		<path d="M306.4,222v-14.4h4.3l2.6,9.8l2.6-9.8h4.3V222h-2.7v-11.3l-2.8,11.3h-2.8l-2.8-11.3V222H306.4z"/>
		<path d="M322.6,222v-14.4h10.6v2.4h-7.7v3.2h7.2v2.4h-7.2v3.9h8v2.4H322.6z"/>
		<path d="M335.5,222v-14.4h2.8l5.9,9.6v-9.6h2.7V222H344l-5.8-9.4v9.4H335.5z"/>
		<path d="M352.7,222v-11.9h-4.3v-2.4h11.4v2.4h-4.2V222H352.7z"/>
		<path d="M360.3,214.9c0-1.5,0.2-2.7,0.7-3.7c0.3-0.7,0.8-1.4,1.3-2c0.6-0.6,1.2-1,1.9-1.3c0.9-0.4,1.9-0.6,3.1-0.6
			c2.1,0,3.8,0.7,5.1,2c1.3,1.3,1.9,3.1,1.9,5.5c0,2.3-0.6,4.1-1.9,5.4c-1.3,1.3-2.9,2-5.1,2c-2.1,0-3.8-0.7-5.1-2
			C360.9,219,360.3,217.2,360.3,214.9z M363.3,214.8c0,1.6,0.4,2.9,1.1,3.7s1.7,1.3,2.9,1.3c1.2,0,2.1-0.4,2.8-1.2
			c0.7-0.8,1.1-2.1,1.1-3.7c0-1.6-0.4-2.9-1.1-3.7c-0.7-0.8-1.7-1.2-2.9-1.2s-2.2,0.4-2.9,1.2C363.6,211.9,363.3,213.1,363.3,214.8z
			"/>
		<path d="M375.2,217.3l2.8-0.3c0.2,0.9,0.5,1.6,1,2.1c0.5,0.4,1.2,0.7,2.1,0.7c0.9,0,1.6-0.2,2.1-0.6c0.5-0.4,0.7-0.9,0.7-1.4
			c0-0.3-0.1-0.6-0.3-0.9c-0.2-0.2-0.5-0.4-1-0.6c-0.3-0.1-1.1-0.3-2.3-0.6c-1.6-0.4-2.6-0.9-3.3-1.4c-0.9-0.8-1.3-1.8-1.3-2.9
			c0-0.7,0.2-1.4,0.6-2.1c0.4-0.6,1-1.1,1.8-1.5c0.8-0.3,1.7-0.5,2.8-0.5c1.8,0,3.2,0.4,4.1,1.2c0.9,0.8,1.4,1.8,1.4,3.2l-2.9,0.1
			c-0.1-0.7-0.4-1.3-0.8-1.6c-0.4-0.3-1-0.5-1.8-0.5c-0.8,0-1.5,0.2-2,0.5c-0.3,0.2-0.5,0.5-0.5,0.9c0,0.3,0.1,0.6,0.4,0.9
			c0.4,0.3,1.3,0.6,2.7,1c1.4,0.3,2.5,0.7,3.1,1c0.7,0.4,1.2,0.8,1.6,1.5c0.4,0.6,0.6,1.4,0.6,2.3c0,0.8-0.2,1.6-0.7,2.3
			c-0.5,0.7-1.1,1.3-1.9,1.6c-0.8,0.3-1.9,0.5-3.1,0.5c-1.8,0-3.2-0.4-4.2-1.3S375.4,218.9,375.2,217.3z"/>
		<path d="M393.2,217.3l2.8-0.3c0.2,0.9,0.5,1.6,1,2.1c0.5,0.4,1.2,0.7,2.1,0.7c0.9,0,1.6-0.2,2.1-0.6c0.5-0.4,0.7-0.9,0.7-1.4
			c0-0.3-0.1-0.6-0.3-0.9c-0.2-0.2-0.5-0.4-1-0.6c-0.3-0.1-1.1-0.3-2.3-0.6c-1.6-0.4-2.6-0.9-3.3-1.4c-0.9-0.8-1.3-1.8-1.3-2.9
			c0-0.7,0.2-1.4,0.6-2.1c0.4-0.6,1-1.1,1.8-1.5c0.8-0.3,1.7-0.5,2.8-0.5c1.8,0,3.2,0.4,4.1,1.2c0.9,0.8,1.4,1.8,1.4,3.2l-2.9,0.1
			c-0.1-0.7-0.4-1.3-0.8-1.6c-0.4-0.3-1-0.5-1.8-0.5c-0.8,0-1.5,0.2-2,0.5c-0.3,0.2-0.5,0.5-0.5,0.9c0,0.3,0.1,0.6,0.4,0.9
			c0.4,0.3,1.3,0.6,2.7,1c1.4,0.3,2.5,0.7,3.1,1c0.7,0.4,1.2,0.8,1.6,1.5c0.4,0.6,0.6,1.4,0.6,2.3c0,0.8-0.2,1.6-0.7,2.3
			c-0.5,0.7-1.1,1.3-1.9,1.6c-0.8,0.3-1.9,0.5-3.1,0.5c-1.8,0-3.2-0.4-4.2-1.3S393.4,218.9,393.2,217.3z"/>
		<path d="M406.8,222v-2.8h2.8v2.8H406.8z"/>
		<path d="M424.8,222h-3.2l-1.3-3.3h-5.7l-1.2,3.3h-3.1l5.6-14.4h3.1L424.8,222z M419.5,216.3l-2-5.3l-1.9,5.3H419.5z"/>
		<path d="M425.8,222v-2.8h2.8v2.8H425.8z"/>
	</g>
</g>
</svg>
