<?xml version="1.0" encoding="utf-8"?>
<!-- Generator: Adobe Illustrator 25.3.1, SVG Export Plug-In . SVG Version: 6.00 Build 0)  -->
<svg version="1.1" id="Layer_1" xmlns="http://www.w3.org/2000/svg" xmlns:xlink="http://www.w3.org/1999/xlink" x="0px" y="0px"
	 viewBox="0 0 500 300" style="enable-background:new 0 0 500 300;" xml:space="preserve">
<style type="text/css">
	.st0{fill:#24272A;}
	.st1{fill:url(#SVGID_1_);}
	.st2{fill:url(#SVGID_2_);}
	.st3{fill:url(#SVGID_3_);}
</style>
<g>
	<g>
		<path class="st0" d="M185.3,139.1c7.5,0,15,0,22.5,0c0,1.8,0,3.5,0,5.4c-5.3,0-10.5,0-15.9,0c0,1.3,0,2.4,0,3.6c5,0,10,0,15.1,0
			c0,1.7,0,3.4,0,5.2c-5,0-10,0-14.9,0c-0.7,2.4,0.4,3.9,2.8,3.9c3.9,0,7.8,0,11.6,0c0.4,0,0.8,0,1.3,0c0,1.9,0,3.6,0,5.4
			c-0.2,0-0.4,0.1-0.6,0.1c-4.7,0-9.4,0-14.2-0.1c-4.9-0.2-7.7-2.9-7.8-7.8c-0.1-5.1-0.1-10.1-0.1-15.2
			C185.2,139.5,185.3,139.3,185.3,139.1z"/>
		<path class="st0" d="M221,155.9c3.8,1.7,7.6,2.2,11.5,2c1.3,0,2.6-0.3,3.9-0.5c0.9-0.2,1.8-0.7,1.6-1.7c-0.1-0.6-0.9-1.2-1.6-1.4
			c-2.4-0.6-4.8-0.9-7.2-1.4c-1.6-0.3-3.2-0.7-4.7-1.3c-2.3-0.9-3.8-2.6-4.1-5.2c-0.3-2.8,0.9-4.8,3.3-6.2c2.2-1.3,4.7-1.7,7.2-1.8
			c3.6-0.1,7.2,0.2,10.7,1c0.7,0.2,0.9,0.4,0.9,1.1c-0.1,1.4,0,2.8,0,4c-4-0.3-7.9-0.6-11.9-0.8c-0.9,0-1.8,0.1-2.6,0.4
			c-0.5,0.2-1.1,0.8-1.1,1.2c-0.1,0.4,0.5,1.1,1,1.2c1.3,0.4,2.6,0.7,3.9,1c2.8,0.6,5.7,1.1,8.4,1.9c4,1.2,5.7,5,4.1,8.7
			c-0.8,1.8-2.3,3-4.1,3.7c-3.6,1.5-7.5,1.6-11.3,1.2c-2.4-0.2-4.7-0.8-7-1.3c-0.3-0.1-0.7-0.6-0.8-0.9
			C221,159.4,221,157.8,221,155.9z"/>
		<path class="st0" d="M284.3,162.7c1.7-3.3,3.3-6.4,4.9-9.4c2.3-4.4,4.7-8.9,7-13.3c0.4-0.7,0.8-1,1.6-1c1.2,0.1,2.5,0.1,3.7,0
			c0.8,0,1.2,0.2,1.5,0.9c3.8,7.4,7.7,14.7,11.6,22.1c0.1,0.2,0.2,0.4,0.3,0.7c-2.4,0-4.6,0-6.9,0c-0.3,0-0.7-0.5-0.9-0.9
			c-2.4-4.9-4.7-9.8-7.1-14.7c-0.1-0.2-0.2-0.5-0.5-0.9c-0.7,1.4-1.3,2.7-1.9,3.9c-1.9,3.9-3.8,7.8-5.6,11.7
			c-0.3,0.7-0.7,0.9-1.5,0.9C288.6,162.7,286.5,162.7,284.3,162.7z"/>
		<path class="st0" d="M387.3,162.7c-2.3,0-4.6,0-6.8,0c-0.4,0-0.8-0.6-1-1.1c-2.3-4.8-4.7-9.6-7-14.5c-0.1-0.2-0.2-0.5-0.5-0.9
			c-0.2,0.4-0.4,0.7-0.6,1c-2.3,4.9-4.7,9.7-7,14.6c-0.3,0.7-0.7,0.9-1.4,0.9c-2,0-4.1,0-6.3,0c0.4-0.9,0.8-1.6,1.2-2.4
			c3.6-6.8,7.2-13.6,10.7-20.4c0.3-0.7,0.7-1,1.5-0.9c1.3,0.1,2.7,0,4,0c0.4,0,0.9,0.3,1.1,0.6c4,7.6,8,15.2,12,22.8
			C387.3,162.4,387.3,162.5,387.3,162.7z"/>
		<path class="st0" d="M280.1,139.1c0,1.8,0,3.5,0,5.3c-3.2,0-6.3,0-9.6,0c0,6.1,0,12.1,0,18.2c-2.3,0-4.4,0-6.7,0c0-6,0-12,0-18.1
			c-3.4,0-6.6,0-10,0c0-1.8,0-3.6,0-5.4C262.6,139.1,271.3,139.1,280.1,139.1z"/>
		<path class="st0" d="M418.7,155.2c0.3-0.2,0.4-0.3,0.6-0.4c3.2-1.8,4.1-4.8,3.8-8.2c-0.3-3.1-1.9-5.2-4.7-6.4
			c-1.2-0.5-2.5-0.9-3.8-0.9c-5.4-0.1-10.9-0.1-16.3-0.2c-0.1,0-0.1,0.1-0.2,0.1c0,7.8,0,15.6,0,23.4c2.2,0,4.4,0,6.6,0
			c0-2.1,0-4.1,0-6.2c2.4,0,4.6,0,6.9,0c0.3,0,0.7,0.4,0.9,0.7c1.1,1.6,2.1,3.3,3.3,4.9c0.3,0.4,0.9,0.7,1.4,0.7
			c1.6,0.1,3.2,0,4.8,0c0.7,0,1.3,0,2.2,0C422.2,160.1,420.4,157.6,418.7,155.2z M413,151c-2.7,0.2-5.4,0-8.3,0c0-2.2,0-4.3,0-6.5
			c0.2,0,0.4-0.1,0.5-0.1c2.5,0,5,0,7.5,0c2.4,0.1,3.8,1.2,3.9,3.1C416.7,149.5,415.4,150.8,413,151z"/>
		<path class="st0" d="M342.8,139.6c-5.6-0.7-11.3-0.4-17-0.5c-0.1,0-0.1,0.1-0.3,0.1c0,7.8,0,15.6,0,23.4c2.2,0,4.4,0,6.6,0
			c0-2,0-3.9,0-6c2.4,0,4.7,0.1,7,0c1.6-0.1,3.3-0.3,4.9-0.7c2.6-0.7,4.8-2.2,5.6-5C351,146.5,349.9,140.5,342.8,139.6z M340.6,151
			c-2.7,0.2-5.5,0.1-8.4,0.1c0-2.1,0-4.3,0-6.3c2.8,0,5.6-0.2,8.3,0.1c2,0.2,2.9,1.4,2.9,3.1C343.5,149.5,342.6,150.8,340.6,151z"/>
	</g>
	<g>
		<linearGradient id="SVGID_1_" gradientUnits="userSpaceOnUse" x1="71.8966" y1="187.9966" x2="151.6559" y2="108.2373">
			<stop  offset="0" style="stop-color:#70DFC0"/>
			<stop  offset="0.5" style="stop-color:#8BDA8E"/>
			<stop  offset="1" style="stop-color:#6ED24B"/>
		</linearGradient>
		<path class="st1" d="M89.9,194.3h-14v-34.4c0-7.7,6.2-13.9,13.9-13.9h6.1v-26.4c0-7.7,6.2-13.9,13.9-13.9h54.5v34.4
			c0,7.7-6.2,13.9-13.9,13.9h-46.5v26.4C103.8,188.1,97.6,194.3,89.9,194.3z M83.8,186.3h6.1c3.3,0,5.9-2.7,5.9-5.9V154h-6.1
			c-3.3,0-5.9,2.7-5.9,5.9V186.3z M103.8,146h46.5c3.3,0,5.9-2.7,5.9-5.9v-26.4h-46.5c-3.3,0-5.9,2.7-5.9,5.9V146z"/>
		<linearGradient id="SVGID_2_" gradientUnits="userSpaceOnUse" x1="99.8239" y1="146.1371" x2="99.8239" y2="138.1541">
			<stop  offset="0" style="stop-color:#000000;stop-opacity:0.2"/>
			<stop  offset="0.1413" style="stop-color:#000000;stop-opacity:0.1717"/>
			<stop  offset="1" style="stop-color:#000000;stop-opacity:0"/>
		</linearGradient>
		<rect x="95.8" y="138" class="st2" width="8" height="8"/>
		
			<linearGradient id="SVGID_3_" gradientUnits="userSpaceOnUse" x1="-966.5338" y1="895.9437" x2="-966.5338" y2="887.9608" gradientTransform="matrix(-1 0 0 -1 -866.71 1049.8066)">
			<stop  offset="0" style="stop-color:#000000;stop-opacity:0.2"/>
			<stop  offset="0.1413" style="stop-color:#000000;stop-opacity:0.1717"/>
			<stop  offset="1" style="stop-color:#000000;stop-opacity:0"/>
		</linearGradient>
		<polygon class="st3" points="95.8,154 103.8,154 103.8,162 95.8,162 		"/>
	</g>
</g>
</svg>
