<?xml version="1.0" encoding="utf-8"?>
<!-- Generator: Adobe Illustrator 25.3.1, SVG Export Plug-In . SVG Version: 6.00 Build 0)  -->
<svg version="1.1" id="Layer_1" xmlns="http://www.w3.org/2000/svg" xmlns:xlink="http://www.w3.org/1999/xlink" x="0px" y="0px"
	 viewBox="0 0 500 300" style="enable-background:new 0 0 500 300;" xml:space="preserve">
<style type="text/css">
	.st0{fill:url(#Caminho_8_1_);}
	.st1{fill:#D9000D;}
	.st2{fill:#FFFFFF;}
</style>
<g id="Grupo_36" transform="matrix(3.7983599,0,0,3.7983599,-498.7929,-217.0201)">
	
		<linearGradient id="Caminho_8_1_" gradientUnits="userSpaceOnUse" x1="170.6221" y1="110.8138" x2="230.2129" y2="110.8138" gradientTransform="matrix(5.0207 0 0 -2.8736 -699.1481 415.1066)">
		<stop  offset="6.000000e-03" style="stop-color:#FFBE00"/>
		<stop  offset="0.253" style="stop-color:#FFF9C6"/>
		<stop  offset="0.297" style="stop-color:#F9EEB4"/>
		<stop  offset="0.385" style="stop-color:#EAD187"/>
		<stop  offset="0.508" style="stop-color:#D3A440"/>
		<stop  offset="0.596" style="stop-color:#C18209"/>
		<stop  offset="0.824" style="stop-color:#EBC464"/>
		<stop  offset="0.871" style="stop-color:#F5D378"/>
		<stop  offset="1" style="stop-color:#FFF9C6"/>
	</linearGradient>
	<path id="Caminho_8" class="st0" d="M235.4,77.9c-0.2-1.1-0.9-2.1-1.9-2.6c-0.8-0.4-1.8-0.6-2.7-0.5c-2.7,0-6,0.5-11.4,0.7
		c-10,0.4-26-1.2-36.1-1.3c-9.1-0.1-15.4,0-18.8,2.5c-1.8,1.4-7.1,6.3-7.1,21c0,4.9,0.9,11.5,4.1,16.9c1.1,1.8,2.9,3.8,4.1,4.3
		c1.4,0.6,3.3,0.5,5.3-0.1c3.9-1.3,10.9-4.2,20.6-5.3c14.1-1.7,25.4-3.2,36.1-8.9c3.9-1.9,6.7-5.5,7.7-9.7c0.5-1.9,0.8-5.9,0.8-10
		C236.2,82.4,235.9,80.1,235.4,77.9L235.4,77.9z"/>
	<path id="Caminho_9" class="st1" d="M235.5,78.4c-0.1-1-0.7-1.9-1.6-2.5c-0.8-0.4-1.8-0.6-2.7-0.5c-2.7,0-6.5,1-11.9,1.2
		c-10,0.4-21.6-0.2-31.6-0.3c-10-0.1-18.7,0.4-23,2.9c-2.8,1.6-7.3,7-7.3,18.3c0,4.1,0.3,10.5,4.2,17.1c0.9,1.5,1.6,2.2,2.6,2.3
		c1.1,0.2,2.6-0.3,4.1-0.9c3.8-1.3,10.3-3.7,22.8-5c11.3-1.2,25.5-2.9,35.7-8c4.1-1.7,7.2-5.2,8.4-9.5c0.5-1.8,1-4.5,1-8.5
		C236.3,82.9,236,80.6,235.5,78.4z"/>
	<path id="Caminho_10" class="st2" d="M165.8,95c-0.8-4.9-1.6-6.9-2.8-7.9c-0.2-0.2-0.4-0.1-0.5,0.1c-0.5,2.8,0.6,5.4,1.9,11.7
		c0.5,2.6,0.7,5.3,0.6,8c0,0.2,0.2,0.3,0.3,0C166.1,104.4,166.3,98.3,165.8,95L165.8,95z M198.4,100.1c-3.1,1.3-6.3,2.3-9.6,3
		c-5.4,1.2-14.5,2-18.9,6.7c-0.2,0.2,0,0.3,0.2,0.2c1.5-0.9,6.2-3.4,16.5-4.4c7.6-0.6,11.3-3.8,12.1-5.3
		C198.7,100.1,198.6,100,198.4,100.1L198.4,100.1z M189.5,108.4c-6-1.1-13.4-0.1-15.5,1c-0.2,0.1-0.1,0.3,0.1,0.2
		c2.7-0.7,5.5-0.8,8.2-0.3c2.4,0.5,5,0.3,7.3-0.7C189.6,108.6,189.6,108.4,189.5,108.4z M182.2,92.4c-0.4-1.2-1.5-1.7-3.8-0.7
		c1.4-1.4,2.1-3.4,2-5.4c-0.4-2.5-2-2.1-3.4-1.7c-1.3,0.4-3.5,2.2-4.6,3.7c0.4-2.8,1.1-5.6,1.9-8.4c0.2-0.5-0.1-0.7-0.5-0.2
		c-1.9,1.9-3.6,5.2-4.3,7.5c-1.3,3.9-1.2,5.5-1.7,12.8c-0.4,5.4-0.9,9.3-2.1,11.3c-0.1,0.2,0.1,0.3,0.2,0.1c1.3-1.3,2.2-2.8,2.7-4.5
		C181.8,104.5,182.9,94.4,182.2,92.4L182.2,92.4z M171.4,94.4c0.3-2.6,1.4-6.4,5.8-7.2c0.5-0.1,0.7,0.1,0.7,0.5
		c-0.6,4.1-3.1,5.9-6.1,7C171.5,94.7,171.4,94.7,171.4,94.4L171.4,94.4z M169.6,105.1c-0.2,0.1-0.3,0-0.3-0.3
		c0.7-3.6,1.4-6.2,2.6-7.5c1.6-1.6,3.6-2.6,5.8-2.9c1.5-0.2,1.4,0.2,1.1,1.5C177.9,101,173.7,104.1,169.6,105.1L169.6,105.1z
		 M231.4,84c-0.4,0.5-0.8,0.9-1.3,1.3c0-0.4-0.2-0.9-0.5-1.2c-0.7-0.8-2-0.5-2.7,0c-2.3,1.5-2.6,3.9-2.7,4.9c-0.5,0.8-1.3,1.5-2.2,2
		c-0.7,0.3-1.4,0.4-1.3-1c0-1.1,0.8-3.1,1.6-3.8c0.3-0.2,0.8-0.5,0.9,0.1c0,0.3-0.1,0.4-0.1,0.6c0,0.3,0.2,0.4,0.4,0.3
		c0.3-0.1,0.8-0.8,0.8-1.4c0-0.7-0.5-1-1.1-1c-0.9,0-2.1,0.6-3.1,1.9c-0.8,1-1.2,2.3-1.4,3.6c-0.5,0.8-1.3,1.5-2.2,1.9
		c-0.7,0.3-1.4,0.4-1.3-1c0-1.1,0.8-3.1,1.6-3.8c0.3-0.2,0.8-0.5,0.9,0.1c0,0.3-0.1,0.4-0.1,0.6c0,0.3,0.2,0.4,0.4,0.3
		c0.3-0.1,0.8-0.8,0.8-1.4c0-0.7-0.5-1-1.1-1c-0.9,0-2.1,0.6-3.1,1.9c-0.9,1.2-1.4,2.7-1.4,4.2c-0.4,0.6-1.4,1.6-1.5,1.2
		c-0.2-0.4,0.2-1.8,0.4-3.3c0.1-0.4,0.2-0.6,0.2-1.1c0.1-0.6-0.3-1.1-0.9-1.2c-0.7-0.2-0.9,0.2-1.1,1c-0.1,0.8-0.3,1.6-0.4,2.4
		c-0.3,0.9-0.7,1.8-1.3,2.5c-0.8,1-1.2,0.6-0.9-0.8c0.1-0.5,0.6-2.8,0.6-3.1c0.1-0.6-0.3-1.1-0.9-1.3c-0.7-0.2-0.9,0.2-1,0.9
		c-0.1,0.4-0.8,4-0.8,4c-0.4,1.4-1.4,1.6-1.7,1.4c-0.2-0.1-0.1-1,0.2-2.8c0.7-3.8,0.9-5.6,1-6.5c0-0.6-0.4-1-0.9-1.1
		c-0.8-0.2-0.8,0.5-0.9,1.3c-0.1,0.5-0.3,2.2-0.6,3.7c-0.8-0.2-1.7,0-2.3,0.5c-1.4,1.1-2.3,2.7-2.5,4.4c-0.1,0.4-0.1,0.8-0.1,1.2
		c-0.2,0.6-1.2,1.5-1.4,1.1c-0.2-0.4,0.2-1.8,0.4-3.3c0.1-0.4,0.2-0.6,0.2-1.1c0.1-0.6-0.3-1.1-0.9-1.2c-0.7-0.2-0.9,0.2-1.1,1
		c-0.1,0.8-0.3,1.6-0.4,2.4c-0.3,0.9-0.7,1.8-1.3,2.5c-0.8,1-1.2,0.6-0.9-0.8c0.1-0.5,0.6-2.8,0.6-3.1c0.1-0.6-0.3-1.1-0.9-1.3
		c-0.7-0.2-0.9,0.2-1,0.9c-0.1,0.4-0.8,4-0.8,4c-0.4,1.4-1.4,1.6-1.7,1.4c-0.5-0.4-0.1-1.9,0.2-3.5c0.3-1.4-0.3-2.8-2.8-1.9
		c-1,0.4-2.9,1.8-3.5,4.9c-0.2,1.1-0.1,3.2,2.1,2.9c1-0.2,1.8-0.9,2.2-1.8c0.3,0.9,1.1,1.1,1.9,0.8c0.7-0.3,1.4-0.9,1.7-1.6
		c0.1,0.9,1.4,1.1,2.2,0.7c0.7-0.4,1.3-1,1.7-1.7c0.1,1,1.2,1.1,2,0.9c0.8-0.3,1.2-0.9,1.7-1.5c0.3,0.8,1.3,0.9,2.1,0.7
		c1-0.2,1.5-1,1.9-1.7c0.2,0.9,1.2,1,1.9,0.8c0.7-0.3,1.3-0.9,1.7-1.6c0.1,0.9,1.4,1.1,2.2,0.7c0.7-0.4,1.3-1,1.7-1.7
		c0.1,1,1.2,1.1,2,0.9c0.8-0.3,1.4-0.9,1.8-1.6c0.6,1.1,2,0.9,2.9,0.4c1-0.5,1.8-1.3,2.5-2.2c0.4,1.7,2.1,1.4,3,1
		c1-0.5,1.9-1.3,2.5-2.2c0.1,0.5,0.5,1,1,1.2c1,0.5,2.4-0.1,3.1-0.8c0.8-0.8,1.3-1.8,1.5-2.8c0.1-0.3,0.1-0.6,0.2-1
		c0.6-0.4,1-0.9,1.3-1.5C231.9,84.2,231.8,83.5,231.4,84L231.4,84z M185.8,98.7c-0.7,0.7-1.1,0.6-1.2-0.4c-0.1-1.3,0.5-3.4,1.9-4.3
		c0.6-0.4,0.7,0,0.7,0.2C187.4,95.8,186.9,97.5,185.8,98.7L185.8,98.7z M202.5,90.9c0,0.7-0.3,3.2-1.6,4.6c-0.5,0.5-1,0.7-1.1-0.6
		c0-1.2,0.6-3.4,2.1-4.3C202.5,90.2,202.5,90.8,202.5,90.9L202.5,90.9z M228.4,85.1c0.1,0.3,0.1,0.6,0.1,1c-0.3,0.1-0.7,0.1-1.1,0
		c-0.5-0.3,0.1-1,0.3-1.1C228.2,84.6,228.3,84.8,228.4,85.1L228.4,85.1z M227.9,89c-0.9,1.8-1.3,1.2-1.5,0.5c-0.2-1,0-2.1,0.4-3
		c0.1,0.1,0.2,0.2,0.3,0.3c0.4,0.3,0.9,0.4,1.4,0.4C228.4,87.8,228.2,88.4,227.9,89L227.9,89z M231,89.7h0.1c0.1,0,0.2,0.1,0.2,0.1
		c0,0,0,0,0,0c0,0.1,0,0.2,0.1,0.2h0.2c0-0.1-0.1-0.1-0.1-0.2c0-0.1-0.1-0.2-0.2-0.2v0c0.1,0,0.2-0.1,0.2-0.2c0-0.1,0-0.2-0.1-0.2
		c-0.1-0.1-0.2-0.1-0.3-0.1c-0.1,0-0.2,0-0.4,0v0.9h0.2L231,89.7z M231,89.3c0,0,0.1,0,0.1,0c0.1,0,0.2,0.1,0.2,0.1
		c0,0.1-0.1,0.1-0.2,0.1H231L231,89.3z M231.2,88.6c-0.5,0-1,0.4-1,0.9c0,0.5,0.4,1,0.9,1c0,0,0,0,0.1,0c0.5,0,0.9-0.4,0.9-0.9
		C232.1,89.1,231.7,88.6,231.2,88.6C231.2,88.6,231.2,88.6,231.2,88.6z M231.2,88.8c0.4,0,0.8,0.3,0.8,0.7c0,0.4-0.3,0.8-0.7,0.8
		c-0.4,0-0.8-0.3-0.8-0.7c0,0,0,0,0,0C230.5,89.2,230.8,88.9,231.2,88.8C231.2,88.8,231.2,88.8,231.2,88.8L231.2,88.8z"/>
</g>
</svg>
