<?xml version="1.0" encoding="utf-8"?>
<!-- Generator: Adobe Illustrator 25.3.1, SVG Export Plug-In . SVG Version: 6.00 Build 0)  -->
<svg version="1.1" id="Layer_1" xmlns="http://www.w3.org/2000/svg" xmlns:xlink="http://www.w3.org/1999/xlink" x="0px" y="0px"
	 viewBox="0 0 500 300" style="enable-background:new 0 0 500 300;" xml:space="preserve">
<style type="text/css">
	.st0{fill:#C5DB00;}
	.st1{fill:#00ACCE;}
</style>
<g>
	<path class="st0" d="M95.5,126.5c-10.3,10.6-11.8,20.4-4.7,33.7c5.6,10.6,14,19,22.8,26.9c9.5,8.5,19.9,16,30.6,22.9
		c0.9,0.6,2.1,0.8,2.6,2c-0.5,0.8-1.3,0.4-1.9,0.4c-13.9,0-27.8,0-41.7,0c-1.4,0-2.6-0.2-3.8-1.2c-9.3-7.7-18-16.1-24.5-26.5
		C68.4,174,65,162.6,70,150.1c4.3-10.7,12.6-17.6,22.4-23c0.5-0.3,1-0.5,1.5-0.8S95,126,95.5,126.5z"/>
	<path class="st1" d="M99.9,144.8c2.6-4.4,4.4-8.8,5-13.5c1.4-11.1-3.3-19.7-11-27C87,97.7,78.8,93.1,70,89.4
		c-1-0.4-2.1-0.9-3.1-1.9c0.9,0,1.9,0,2.8,0c14.8,0,29.6,0.1,44.4-0.1c2.3,0,3.8,0.8,5.1,2.6c6,8.1,7.6,16.9,4.2,26.4
		c-4.2,11.9-12.5,20.6-22.2,28.4C101,144.9,100.7,144.8,99.9,144.8z"/>
	<path class="st0" d="M97,212.5c-10.6,0-20.4,0-30.3,0c-1.1,0-1.6-0.5-2.1-1.4c-7.1-13.7-8.6-28-4.6-43.5
		C64.3,189.4,79.2,201.7,97,212.5z"/>
	<g>
		<path class="st1" d="M139.8,159.7c0-9.7,6.6-18.5,18.4-18.5c11.8,0,18.4,9.3,18.4,18.5v5.8c0,1.1-0.9,2.1-2,2.1h-24.8v2
			c0,4.2,1.5,10,9.6,10c4.7,0,8.4-0.9,13-2.2l2.1,7.9c-5.2,1.6-9.7,2.8-15.1,2.8c-13.6,0-19.6-9.1-19.6-18.5L139.8,159.7
			L139.8,159.7z M166.6,160.4V159c0-4.6-2.1-9.3-8.4-9.3c-6.3,0-8.4,4.8-8.4,9.3v1.5h16.8V160.4z"/>
		<path class="st1" d="M185.4,142.2h8.4l0.5,4.1c3.9-3.4,8.2-5.3,12.4-5.3c9.4,0,14.5,5.7,14.5,15.2v28.5c0,1.3-0.8,2.1-2.1,2.1
			h-7.9v-29.2c0-5.5-1.7-8-6.5-8c-3.4,0-6.3,1.6-9.4,4.4v32.8h-10v-44.6H185.4z"/>
		<path class="st1" d="M230,159.7c0-9.7,6.6-18.5,18.4-18.5s18.4,9.3,18.4,18.5v5.8c0,1.1-0.9,2.1-2,2.1H240v2c0,4.2,1.5,10,9.6,10
			c4.7,0,8.4-0.9,13-2.2l2.1,7.9c-5.2,1.6-9.7,2.8-15.1,2.8c-13.6,0-19.6-9.1-19.6-18.5V159.7z M256.8,160.4V159
			c0-4.6-2.1-9.3-8.4-9.3c-6.3,0-8.4,4.8-8.4,9.3v1.5h16.8V160.4z"/>
		<path class="st1" d="M275.6,142.2h8.2l0.9,5.8c2.6-3.7,6.9-6.8,11.3-6.8c1.4,0,2.9,0.2,4.3,0.5l-1.4,8.4c-1-0.3-2.2-0.3-3.4-0.3
			c-3.7,0-7.6,3.5-9.9,6.3v30.8h-10V142.2z"/>
		<path class="st1" d="M307,157c0-10.9,6.7-17.1,17.4-17.1c5.5,0,9.6,0.8,13.6,2l-1.6,7.5c-3.6-0.9-6.5-1.5-10.7-1.5
			c-6.5,0-9.2,3.2-9.2,9.8v12.4c0,6.8,2.7,9.8,9.2,9.8c2.8,0,5.4-0.5,7.5-1.1v-15.2l8.7-0.7V185c-5.7,1.6-11.1,3-17.4,3
			c-10.7,0-17.4-6.1-17.4-17.2L307,157L307,157z"/>
		<path class="st1" d="M351.4,140.9h9.4v44.3c0,1.1-0.7,1.7-1.8,1.7h-7.6L351.4,140.9L351.4,140.9z"/>
		<path class="st1" d="M372.1,176.9c3.8,1.5,7.6,2.6,11.5,2.6c4.7,0,6.4-2,6.4-5.1c0-7.8-19-4.4-19-20.2c0-8.1,7.1-13.1,16.1-13.1
			c3.9,0,7.7,0.7,11.5,2.3l-2.4,7.9c-3-1-5.8-1.8-8.9-1.8c-4,0-5.9,1.9-5.9,4.7c0,7.1,19,5,19,20.2c0,8.3-6.9,13.6-16.7,13.6
			c-4.9,0-9.3-1-13.8-2.8L372.1,176.9z"/>
		<path class="st1" d="M433.2,182.7c-3,3.4-6.8,5.3-11.6,5.3c-9,0-14.7-5.3-14.7-14.1c0-10,8.7-13.6,20.1-13.6h5.2v-2
			c0-5.6-1.9-8.6-8-8.6c-4.6,0-7.8,0.8-12.2,2.2l-2.2-8c5.1-1.7,9.1-2.7,14.3-2.7c11.9,0,18,7,18,16.5v29.2h-8.3L433.2,182.7z
			 M432.1,167.6h-4.5c-5.9,0-10.6,1-10.6,6.3c0,3.4,2.1,5.6,6.3,5.6c3.2,0,6.5-1.5,8.8-4L432.1,167.6L432.1,167.6z"/>
	</g>
	<g>
		<path class="st1" d="M141.9,122.1c0-3.4,2.1-5.3,5.3-5.3c1.7,0,2.9,0.2,4.1,0.6l-0.5,2.3c-1.1-0.3-1.9-0.5-3.2-0.5
			c-1.7,0-2.7,0.7-2.7,3.1v3.8c0,2.3,1,3.1,2.7,3.1c0.9,0,1.4-0.1,2.1-0.3v-4.8l2.9-0.2v6.9c-1.7,0.5-3.4,0.9-5.3,0.9
			c-3.3,0-5.3-1.9-5.3-5.3v-4.3H141.9z"/>
		<path class="st1" d="M156.4,117.6c1.6-0.5,3.1-0.9,4.6-0.9c3.2,0,4.9,2.3,4.9,4.8c0,1.3-0.7,3.3-2.7,4.2l2.6,5.6h-3.2l-2.3-5.2h-1
			v5.2h-3L156.4,117.6L156.4,117.6z M160.8,123.8c1.4,0,2.1-0.9,2.1-2.3c0-1.3-0.5-2.3-1.9-2.3c-0.6,0-1.1,0.1-1.7,0.2v4.3h1.5
			V123.8z"/>
		<path class="st1" d="M168.9,117h3v9.3c0,1.4,0.7,2.9,2.6,2.9c1.8,0,2.5-1.5,2.5-2.9V117h3v8.9c0,3.5-1.9,5.7-5.5,5.7
			c-3.5,0-5.5-2.1-5.5-5.7V117H168.9z"/>
		<path class="st1" d="M183.7,117h4.2c3.3,0,5.2,2.2,5.2,4.7c0,2.6-1.8,4.7-5.2,4.7h-1.2v4.9h-3V117z M187.7,124
			c1.5,0,2.2-1,2.2-2.3c0-1.2-0.7-2.2-2.2-2.2h-1.1v4.5H187.7z"/>
		<path class="st1" d="M195.7,122.9c0-3.5,2.1-6.1,5.8-6.1s5.8,2.6,5.8,6.1v2.6c0,3.5-2.1,6.1-5.8,6.1s-5.8-2.6-5.8-6.1V122.9z
			 M204.2,125.3v-2.2c0-2.1-0.6-3.9-2.7-3.9c-2.2,0-2.7,1.8-2.7,3.9v2.2c0,2.1,0.6,3.9,2.7,3.9C203.6,129.2,204.2,127.4,204.2,125.3
			z"/>
	</g>
</g>
</svg>
