<?xml version="1.0" encoding="utf-8"?>
<!-- Generator: Adobe Illustrator 25.3.1, SVG Export Plug-In . SVG Version: 6.00 Build 0)  -->
<svg version="1.1" id="Layer_1" xmlns="http://www.w3.org/2000/svg" xmlns:xlink="http://www.w3.org/1999/xlink" x="0px" y="0px"
	 viewBox="0 0 500 300" style="enable-background:new 0 0 500 300;" xml:space="preserve">
<style type="text/css">
	.st0{fill:#41AD3E;}
	.st1{fill:#D52E25;}
</style>
<g>
	<g>
		<path d="M70.6,122.6v-2.8h9.2v6.6c-0.9,0.7-2.2,1.3-3.9,1.8c-1.7,0.5-3.4,0.8-5.2,0.8c-2.2,0-4.1-0.4-5.8-1.1
			c-1.6-0.7-2.9-1.8-3.7-3.1c-0.8-1.3-1.2-2.8-1.2-4.4c0-1.7,0.5-3.3,1.4-4.6c0.9-1.3,2.3-2.4,4.1-3.1c1.4-0.5,3-0.8,5.1-0.8
			c2.6,0,4.7,0.4,6.2,1.3s2.4,2.1,2.9,3.6l-4.2,0.6c-0.3-0.8-0.9-1.5-1.7-1.9c-0.8-0.5-1.9-0.7-3.1-0.7c-1.9,0-3.4,0.5-4.5,1.4
			c-1.1,0.9-1.7,2.3-1.7,4.1c0,2,0.6,3.4,1.7,4.4c1.1,1,2.6,1.5,4.4,1.5c0.9,0,1.8-0.1,2.7-0.4c0.9-0.3,1.7-0.6,2.3-1v-2.1H70.6z"/>
		<path d="M83.8,128.7v-16.5h9c2.3,0,3.9,0.1,4.9,0.4s1.8,0.8,2.5,1.6c0.6,0.8,0.9,1.6,0.9,2.6c0,1.2-0.5,2.3-1.4,3.1
			c-0.9,0.8-2.3,1.3-4.2,1.5c0.9,0.4,1.7,0.9,2.3,1.4c0.6,0.5,1.4,1.4,2.4,2.7l2.6,3.2h-5.1l-3.1-3.6c-1.1-1.3-1.9-2.1-2.3-2.4
			c-0.4-0.3-0.8-0.6-1.3-0.7c-0.5-0.1-1.2-0.2-2.2-0.2h-0.9v6.9H83.8z M88.1,119.2h3.2c2.1,0,3.3-0.1,3.8-0.2
			c0.5-0.1,0.9-0.4,1.2-0.7c0.3-0.3,0.4-0.7,0.4-1.2c0-0.6-0.2-1-0.6-1.3c-0.4-0.3-0.9-0.6-1.6-0.6c-0.3,0-1.4-0.1-3.1-0.1h-3.3
			V119.2z"/>
		<path d="M105.2,112.2h4.3v9c0,1.4,0.1,2.3,0.2,2.8c0.2,0.7,0.6,1.2,1.3,1.6c0.7,0.4,1.6,0.6,2.8,0.6c1.2,0,2.1-0.2,2.7-0.6
			c0.6-0.4,1-0.9,1.1-1.4c0.1-0.6,0.2-1.5,0.2-2.8v-9.1h4.3v8.7c0,2-0.1,3.4-0.3,4.2c-0.2,0.8-0.7,1.5-1.3,2.1
			c-0.6,0.6-1.5,1-2.5,1.3c-1,0.3-2.4,0.5-4.1,0.5c-2,0-3.6-0.2-4.6-0.5c-1-0.4-1.9-0.8-2.5-1.4c-0.6-0.6-1-1.2-1.2-1.8
			c-0.3-0.9-0.4-2.3-0.4-4.2V112.2z"/>
		<path d="M126.6,128.7v-16.5h6.9c2.6,0,4.3,0.1,5.1,0.2c1.2,0.2,2.2,0.8,3,1.6c0.8,0.8,1.2,1.9,1.2,3.2c0,1-0.2,1.9-0.7,2.6
			c-0.5,0.7-1.1,1.2-1.8,1.6c-0.7,0.4-1.5,0.7-2.2,0.8c-1,0.2-2.5,0.2-4.4,0.2h-2.8v6.2H126.6z M130.8,115v4.7h2.3
			c1.7,0,2.8-0.1,3.4-0.3c0.6-0.2,1-0.4,1.3-0.8c0.3-0.4,0.5-0.8,0.5-1.3c0-0.6-0.2-1.1-0.7-1.5c-0.5-0.4-1-0.6-1.7-0.7
			c-0.5-0.1-1.5-0.1-3.1-0.1H130.8z"/>
		<path d="M145.4,120.5c0-1.7,0.3-3.1,1-4.2c0.5-0.8,1.1-1.6,2-2.3c0.8-0.7,1.7-1.2,2.7-1.5c1.3-0.4,2.8-0.7,4.6-0.7
			c3.1,0,5.6,0.8,7.5,2.3c1.9,1.5,2.8,3.6,2.8,6.3c0,2.7-0.9,4.8-2.8,6.3c-1.9,1.5-4.3,2.3-7.5,2.3c-3.2,0-5.7-0.7-7.5-2.2
			C146.4,125.2,145.4,123.2,145.4,120.5z M149.8,120.4c0,1.9,0.6,3.3,1.7,4.3c1.1,1,2.5,1.4,4.2,1.4c1.7,0,3.1-0.5,4.2-1.4
			c1.1-1,1.6-2.4,1.6-4.3c0-1.9-0.5-3.3-1.6-4.2s-2.5-1.4-4.2-1.4c-1.8,0-3.2,0.5-4.3,1.4C150.4,117.1,149.8,118.5,149.8,120.4z"/>
	</g>
	<g>
		<g>
			<path class="st0" d="M59.4,172.6v-33.7h35.9v5.7H69.2v7.5h18.2v5.7H69.2v9.2h27.1v5.7H59.4z"/>
			<path class="st0" d="M98.8,161.6l9.5-0.6c0.6,2.2,1.7,3.9,3.5,4.9s4.1,1.6,7.1,1.6c3.2,0,5.5-0.5,7.1-1.4c1.6-0.9,2.4-2,2.4-3.3
				c0-0.8-0.3-1.5-1-2c-0.7-0.6-1.8-1-3.5-1.5c-1.1-0.3-3.8-0.8-7.8-1.5c-5.2-0.9-8.9-2-11-3.3c-3-1.9-4.5-4.1-4.5-6.8
				c0-1.7,0.7-3.3,2.1-4.8c1.4-1.5,3.4-2.6,6-3.4c2.6-0.8,5.8-1.2,9.5-1.2c6.1,0,10.7,0.9,13.7,2.8c3.1,1.9,4.7,4.3,4.8,7.4
				l-9.8,0.3c-0.4-1.7-1.3-3-2.7-3.7c-1.4-0.8-3.4-1.1-6.2-1.1c-2.8,0-5.1,0.4-6.7,1.2c-1,0.5-1.6,1.2-1.6,2.1c0,0.8,0.5,1.5,1.5,2
				c1.2,0.7,4.2,1.5,9,2.3c4.8,0.8,8.3,1.6,10.6,2.4c2.3,0.8,4.1,2,5.4,3.4c1.3,1.5,1.9,3.2,1.9,5.4c0,1.9-0.8,3.7-2.3,5.4
				c-1.5,1.7-3.7,2.9-6.5,3.8c-2.8,0.8-6.3,1.2-10.5,1.2c-6.1,0-10.8-1-14.1-3C101.4,168.3,99.5,165.4,98.8,161.6z"/>
			<path class="st0" d="M154.3,172.6v-28h-12.5v-5.7H176v5.7h-13.1v28H154.3z"/>
		</g>
	</g>
	<path class="st0" d="M188.6,144.1v28.6h-8.8v-34.5h27.5c4.7,0,8.4,3.8,8.4,8.4v1.6c0,4.7-3.8,8.4-8.4,8.4l0,0l30,42.9h-10.7
		l-32.2-46.7h8.3c2.4,0,4.3-1.9,4.3-4.3v0c0-2.4-1.9-4.3-4.3-4.3L188.6,144.1z"/>
	<path class="st0" d="M236.3,172.8c-9.3,0-16.9-7.6-16.9-16.9v-17.8h8V156c0,4.9,4,8.9,8.9,8.9s8.9-4,8.9-8.9v-17.8h8V156
		C253.1,165.3,245.6,172.8,236.3,172.8z"/>
	<path class="st0" d="M312.9,172.8c-9.3,0-16.9-7.6-16.9-16.9v-17.8h8V156c0,4.9,4,8.9,8.9,8.9s8.9-4,8.9-8.9v-17.8h8V156
		C329.8,165.3,322.2,172.8,312.9,172.8z"/>
	<polygon class="st1" points="192.8,153.5 225.2,199.5 192.8,199.5 	"/>
	<path class="st0" d="M270,172.4v-28h-12.5v-5.7h34.2v5.7h-13.1v28H270z"/>
	<path class="st0" d="M372.6,172.6l-11.1-16.2c2.5-0.6,4.4-1.4,5.9-2.5c2.1-1.6,3.2-3.7,3.2-6.3c0-2-0.7-3.8-2.1-5.3
		c-1.4-1.5-3.3-2.6-5.6-3.2c-2.3-0.6-6.1-0.9-11.3-0.9h-18.1v33.7h9.8v-14.1h2c0.2,0,0.5,0,0.7,0v0h6.2l10.3,14.8H372.6z
		 M343.2,152.4v-8.6h7.6c4,0,3.9,0,4.7,0.1c1.6,0.2,2.8,0.6,3.7,1.3c0.9,0.7,1.3,1.6,1.3,2.8c0,1-0.3,1.9-1,2.5
		c-0.7,0.7-1.6,1.2-2.7,1.4c-1.2,0.3-1.6,0.4-6.3,0.4H343.2z"/>
	<path class="st0" d="M397,138.2l-21.8,34.4h9.1l2.9-5h19.5l2.9,5h9.3L397,138.2z M391.3,160.9l5.7-9.1l5.8,9.1H391.3z"/>
	<g>
		<g>
			<path class="st0" d="M420.8,172.4v-33.5h9.8v27.8h21.9v5.7H420.8z"/>
		</g>
	</g>
</g>
</svg>
