<?xml version="1.0" encoding="utf-8"?>
<!-- Generator: Adobe Illustrator 25.2.3, SVG Export Plug-In . SVG Version: 6.00 Build 0)  -->
<svg version="1.1" id="Layer_1" xmlns="http://www.w3.org/2000/svg" xmlns:xlink="http://www.w3.org/1999/xlink" x="0px" y="0px"
	 viewBox="0 0 500 300" style="enable-background:new 0 0 500 300;" xml:space="preserve">
<style type="text/css">
	.st0{fill:url(#SVGID_1_);}
	.st1{fill:#FFFFFF;}
	.st2{fill:#EE2319;}
	.st3{fill:url(#SVGID_2_);}
	.st4{opacity:0.7;fill:url(#SVGID_3_);}
</style>
<radialGradient id="SVGID_1_" cx="249.0345" cy="150.5588" r="81.3282" gradientUnits="userSpaceOnUse">
	<stop  offset="0" style="stop-color:#F8A53B"/>
	<stop  offset="0.4889" style="stop-color:#F8A33A"/>
	<stop  offset="0.665" style="stop-color:#F79C34"/>
	<stop  offset="0.7905" style="stop-color:#F6912B"/>
	<stop  offset="0.892" style="stop-color:#F5801E"/>
	<stop  offset="0.9779" style="stop-color:#F36A0D"/>
	<stop  offset="1" style="stop-color:#F26308"/>
</radialGradient>
<circle class="st0" cx="249" cy="150.6" r="81.4"/>
<g>
	<path class="st1" d="M221.9,112.5h7.8V157c0,4.9,1.9,5.8,4.4,5.8c0.7,0,6.4-0.1,6.4-0.1v6.9c0,0-6.2,0.2-7.6,0.2
		c-4.4,0-11-1.2-11-11.5V112.5z"/>
	<path class="st1" d="M280.4,128.7h7.2v3.5c0,1.6-0.2,3-0.2,3h0.2c0,0,3.5-7.4,13.7-7.4c11,0,17.9,8.7,17.9,21.4
		c0,13-7.8,21.4-18.5,21.4c-9,0-12.5-6.7-12.5-6.7H288c0,0,0.2,1.5,0.2,3.6v18.3h-7.8V128.7z M299.5,163.8c6.5,0,11.8-5.3,11.8-14.6
		c0-8.9-4.8-14.6-11.5-14.6c-6.1,0-11.8,4.3-11.8,14.7C287.9,156.5,292,163.8,299.5,163.8z"/>
	<path class="st1" d="M263.5,163.3c-1.1,0.3-2.4,0.4-3.7,0.4c-7.3,0-13.6-4.5-14.1-13.5h29.8c0,0,0.2-2.3,0.2-3.4
		c0-10.6-6.1-19.1-17.7-19.1c-11.6,0-20.4,8.4-20.4,21.4c0,12.1,8.8,21.4,21.6,21.4c2.4,0,4.7-0.4,6.6-0.9L263.5,163.3z M258,133.9
		c5.2,0,9.6,3.4,9.9,10.4H246C247.1,137.6,252,133.9,258,133.9z"/>
	<path class="st1" d="M209,128.7v3.8c0,0.7,0.1,1.3,0.1,1.3H209c0,0-3-6.1-12.8-6.1c-11.3,0-17.8,8.7-17.8,20.4
		c0,11.8,6.9,20.9,18.2,20.9c5.9,0,9.7-2.3,12.1-6.4h0.2c0,0-0.1,1.3-0.1,2.6v3c0,8.3-5.8,11.5-12.9,11.5c-1.2,0-2.4-0.1-3.6-0.3
		l-1.3,6.6c1.7,0.3,3.4,0.5,5.1,0.5c10.3,0,20.6-5.2,20.6-18.7v-39.2H209z M198.1,162.3c-7.3,0-11.9-5.8-11.9-14.3
		c0-8.3,4-13.5,11.1-13.5c6.4,0,11.5,3.1,11.5,13.7C208.9,158.9,203.7,162.3,198.1,162.3z"/>
</g>
<g>
	<path class="st2" d="M249,61.8c-49,0-88.7,39.7-88.7,88.7c0,49,39.7,88.7,88.7,88.7c49,0,88.7-39.7,88.7-88.7
		C337.8,101.5,298,61.8,249,61.8z M268.1,233.9c-1.4-0.1-2.6-0.6-3.5-1.5c-2.6-2.6-1.9-7.7,1.3-13.2c1.6-2.7,0.7-6.2-2-7.7
		c-3.5-1.9-8.7-3.2-14.4-3.2c-6.4,0-12,1.5-15.5,3.8c-2.5,1.6-3.3,5-1.7,7.5c3.6,5.7,4.5,11.3,1.8,14c-0.3,0.3-0.6,0.5-1,0.7
		c-41.7-8-72.8-46.4-69.1-91.2c3.4-41.5,37.1-74.8,78.6-77.9c50.1-3.8,92,35.9,92,85.2C334.5,191.1,306.1,225.2,268.1,233.9z"/>
	<path class="st1" d="M233,234.5c0.4-0.2,0.7-0.4,1-0.7c2.7-2.7,1.8-8.3-1.8-14c-1.6-2.5-0.8-5.9,1.7-7.5c3.5-2.3,9.2-3.8,15.5-3.8
		c5.7,0,10.9,1.2,14.4,3.2c2.7,1.5,3.5,5,2,7.7c-3.2,5.4-3.8,10.6-1.3,13.2c0.9,0.9,2.1,1.4,3.5,1.5c38-8.7,66.4-42.7,66.4-83.3
		c0-47.1-38.3-85.5-85.5-85.5c-2.2,0-4.4,0.1-6.6,0.2c-41.5,3.1-75.1,36.5-78.6,77.9C160.2,188.1,191.2,226.5,233,234.5
		 M231.5,230.1c-39.8-8.8-67-45.5-63.6-86.5c3.3-39.4,35.5-71.3,74.9-74.3c2.1-0.2,4.2-0.2,6.3-0.2c0,0,0,0,0,0
		c21.7,0,42.2,8.5,57.6,23.9c15.4,15.4,23.9,35.9,23.9,57.6c0,37.4-26.3,70.6-62.6,79.2c-0.3-0.1-0.5-0.2-0.6-0.3
		c-0.8-0.8-0.7-3.9,1.9-8.4c1.3-2.3,1.7-5,1-7.5c-0.7-2.5-2.3-4.5-4.5-5.7c-4.3-2.4-10.1-3.7-16.3-3.7c-6.9,0-13.4,1.6-17.7,4.5
		c-4.3,2.8-5.6,8.7-2.9,13C231.2,225.7,231.7,228.7,231.5,230.1L231.5,230.1z"/>
</g>
<radialGradient id="SVGID_2_" cx="251.6067" cy="69.0635" r="90.1964" gradientUnits="userSpaceOnUse">
	<stop  offset="0" style="stop-color:#FFFFFF"/>
	<stop  offset="0.8587" style="stop-color:#FFFFFF;stop-opacity:0.1413"/>
	<stop  offset="1" style="stop-color:#FFFFFF;stop-opacity:0"/>
</radialGradient>
<ellipse class="st3" cx="249" cy="115.6" rx="62.5" ry="44.6"/>
<radialGradient id="SVGID_3_" cx="249.0345" cy="65.0766" r="52.8531" gradientUnits="userSpaceOnUse">
	<stop  offset="0" style="stop-color:#FFFFFF"/>
	<stop  offset="0.8587" style="stop-color:#FFFFFF;stop-opacity:0.1413"/>
	<stop  offset="1" style="stop-color:#FFFFFF;stop-opacity:0"/>
</radialGradient>
<ellipse class="st4" cx="249" cy="94.5" rx="39.4" ry="23.5"/>
</svg>
