<?xml version="1.0" encoding="utf-8"?>
<!-- Generator: Adobe Illustrator 25.3.1, SVG Export Plug-In . SVG Version: 6.00 Build 0)  -->
<svg version="1.1" id="Layer_1" xmlns="http://www.w3.org/2000/svg" xmlns:xlink="http://www.w3.org/1999/xlink" x="0px" y="0px"
	 viewBox="0 0 500 300" style="enable-background:new 0 0 500 300;" xml:space="preserve">
<style type="text/css">
	.st0{fill-rule:evenodd;clip-rule:evenodd;}
</style>
<g>
	<polygon class="st0" points="199.1,131.6 201.7,131.6 201.7,168.5 199.1,168.5 199.1,169.7 209.4,169.7 209.4,168.5 206.8,168.5 
		206.8,131.6 209.4,131.6 209.4,130.4 199.1,130.4 	"/>
	<path class="st0" d="M272,149.9c-1.3-0.5-2.6-0.9-3.8-1c0.8-0.1,1.8-0.4,2.9-0.9c1.1-0.5,2.2-1.4,3.2-2.8c0.5-0.7,0.9-1.5,1.2-2.4
		c0.3-0.9,0.4-2.1,0.5-3.4c0-1.1-0.2-2.3-0.5-3.3c-0.4-1.1-0.9-2-1.7-2.9c-1.3-1.3-2.8-2-4.4-2.3c-1.6-0.3-3-0.4-4.3-0.4h-9.5v1.2
		h2.6v36.9h-2.6v1.2h9c1.1,0,2.2-0.1,3.5-0.2c1.2-0.1,2.5-0.5,3.7-1.1c1.2-0.6,2.3-1.5,3.3-2.8c0.5-0.6,0.9-1.5,1.4-2.7
		c0.5-1.2,0.7-2.6,0.7-4.4c0-2.6-0.6-4.5-1.5-5.8C274.6,151.3,273.4,150.4,272,149.9z M263.3,131.6c1.5-0.1,2.7,0,3.8,0.3
		c1.1,0.2,1.9,0.9,2.5,2.1c0.6,1.1,0.9,3,0.9,5.7c0,2.9-0.3,4.9-0.8,6.2c-0.5,1.2-1.3,2-2.4,2.3c-1.1,0.3-2.4,0.4-4,0.3V131.6z
		 M270.5,165.6c-0.6,1.4-1.6,2.2-2.8,2.5c-1.2,0.3-2.7,0.4-4.4,0.3v-18.9c1.9-0.1,3.4,0.1,4.5,0.3c1.1,0.3,2,1,2.6,2.2
		c0.4,0.8,0.7,1.8,0.8,2.9c0.1,1.1,0.2,2.4,0.1,3.9C271.4,162,271.1,164.2,270.5,165.6z"/>
	<path class="st0" d="M327,130.4h-2.1l-8.3,34.6c-0.3,1.5-0.7,2.4-1.3,2.9c-0.5,0.4-1.4,0.6-2.7,0.6v1.2h7.6v-1.2
		c-0.7,0.1-1.3,0-1.7-0.1c-0.5-0.1-0.7-0.5-0.7-1.1c0-0.6,0.1-1.1,0.3-1.6l1.5-6.6h8.6l2.2,9.4h-2.7v1.2h10.6v-1.2h-2.6L327,130.4z
		 M319.9,157.8l4.2-18l3.9,18H319.9z"/>
	<path class="st0" d="M362.9,131.6c1-0.1,1.8,0.1,2.2,0.3c0.5,0.3,0.7,1,0.7,2.2v27.1l-12.5-30.8h-8.5v1.2c1,0,1.7,0,2.2,0.2
		c0.5,0.2,0.7,0.8,0.7,1.8v32.3c0,1.1-0.2,1.9-0.6,2.2c-0.4,0.3-1.2,0.5-2.3,0.4v1.2h7.3v-1.2c-1.3,0.1-2.1-0.1-2.5-0.4
		c-0.4-0.4-0.5-1.1-0.5-2.2v-31.7l14.4,35.5h3.6V134c0-1.1,0.2-1.8,0.7-2.1c0.5-0.2,1.2-0.3,2.2-0.3v-1.2h-7.2V131.6z"/>
	<path class="st0" d="M119.5,163.5c0,2.9-2.2,5-5,5l-5.7,0v-36.9h2.7v-1.2H101v1.2h2.6v36.9H101v1.2h20l0-11.9h-1.5
		C119.4,159.9,119.5,161.4,119.5,163.5z"/>
	<path class="st0" d="M189.8,163.5c0,2.9-2.2,5-5,5l-5.7,0v-36.9h2.7v-1.2h-10.5v1.2h2.6v36.9h-2.6v1.2h20l0-11.9h-1.5
		C189.8,159.9,189.8,161.4,189.8,163.5z"/>
	<path class="st0" d="M149.6,163.5c0,2.9-2.2,5-5,5l-5.3,0l-1.7,0h-0.9v-17.8h1.2c2.5,0.3,4.4,2.3,4.4,4.9c0,0.3,0-0.6,0,1.6h1.5
		v-14.4h-1.5c0,2.2,0,1.4,0,1.7c0,2.7-1.9,4.7-4.4,4.9l-1.2,0v-17.9h2.7l3,0c2.9,0,5,2.1,5,5c0,2.1,0,3.6,0,5.8h1.5l0-11.9h-20v0.8
		v0.4h2.6v36.9h-2.6v1.2h22.3l0-11.9h-1.5C149.6,159.9,149.6,161.4,149.6,163.5z"/>
	<path class="st0" d="M233.2,149.4c-1.1-1.1-2.4-2.1-3.8-3.2c-1.8-1.4-3.3-2.5-4.3-3.5c-1.1-0.9-1.8-1.9-2.3-2.7
		c-0.4-0.9-0.7-1.9-0.6-3.1c0-1.7,0.5-3.1,1.5-4.1c0.9-1,2.1-1.5,3.5-1.5c1.6,0.1,2.9,0.7,3.8,1.9c0.9,1.2,1.6,2.6,2,4.2
		c0.4,1.6,0.8,3.1,1,4.4h1.4l-0.2-11.5h-1.2l0.1,4.8c-0.4-0.7-1.4-3.2-3.1-4.3c-1.3-0.8-2.1-1-3.7-1c-1.7,0-3.1,0.5-4.3,1.5
		c-1.2,0.9-2.2,2.2-2.9,3.7c-0.7,1.5-1,3.1-1,4.8c0,2,0.4,3.7,1.1,5.1c0.7,1.4,1.6,2.6,2.6,3.6c1.1,1,2.2,1.9,3.4,2.8
		c2.4,1.7,4.3,3.4,5.7,4.9c1.4,1.6,2.1,3.5,2.2,5.7c0,1.9-0.5,3.5-1.5,4.7c-1,1.3-2.3,1.9-4.1,2c-0.9,0-1.8-0.2-2.8-0.7
		c-0.9-0.5-1.8-1.4-2.6-2.7c-0.9-1.4-1.5-2.9-1.9-4.4c-0.3-1.5-0.6-3-0.7-4.5h-1.4v13.3h1.2l0-5.6c0.2,0.4,1.1,2.2,2.8,3.9
		c0.7,0.8,1.3,1.1,2.2,1.5c0.9,0.5,2,0.7,3.3,0.7c1.9,0,3.5-0.6,4.8-1.7c1.3-1.1,2.3-2.6,3-4.3c0.7-1.8,1-3.6,1-5.6
		c0-2.1-0.4-3.9-1-5.3C235.3,151.7,234.4,150.5,233.2,149.4z"/>
	<path class="st0" d="M304.5,163.5c0,2.9-2.2,5-5,5l-5.7,0v-36.9h2.7v-1.2H286v1.2h2.6v36.9H286v1.2h20l0-11.9h-1.5
		C304.4,159.9,304.5,161.4,304.5,163.5z"/>
	<path class="st0" d="M397.8,156.5c-0.3,1.7-0.7,3.5-1.2,5.4c-0.5,1.9-1.2,3.5-2.1,4.8c-0.9,1.3-2.1,2-3.6,2.1
		c-2-0.1-3.4-1.2-4.1-3.5c-0.7-2.2-1-5.1-1.1-8.7c-0.1-2-0.1-3.9-0.1-5.9c0-2.2,0-4.3,0.1-6.3c0.1-2,0.2-3.7,0.3-4.9
		c0.1-1.5,0.4-2.9,0.7-4.1c0.4-1.2,0.9-2.3,1.7-3.1c0.3-0.3,0.8-0.6,1.2-0.8c0.5-0.2,1.1-0.4,1.7-0.4c1.4,0,2.6,0.7,3.6,2.1
		c0.9,1.2,1.5,2.6,1.9,4.2c0.4,1.6,0.7,3.1,0.9,4.6h1.2l-0.1-11.6h-1.1l0,4.9c-0.4-0.6-1.3-3.3-3.1-4.4c-1.1-0.7-1.9-1-3.3-1
		c-2.2,0-4.3,1-6,2.8c-1.8,1.8-3.2,4.3-4.2,7.4c-1,3.1-1.6,6.5-1.6,10.3c0,2,0.2,4.1,0.5,6.4c0.4,2.3,1,4.4,1.8,6.4
		c0.4,1,1.1,2,1.9,3.1c0.8,1.1,1.8,2,2.9,2.8c1.1,0.8,2.4,1.2,3.9,1.2c1.6-0.1,2.4-0.3,3.6-1.1c1.9-1.2,3-4.1,3.4-4.8l-0.1,5.3h1.2
		l0.3-13.1H397.8z"/>
</g>
</svg>
