<?xml version="1.0" encoding="utf-8"?>
<!-- Generator: Adobe Illustrator 25.3.1, SVG Export Plug-In . SVG Version: 6.00 Build 0)  -->
<svg version="1.1" id="Layer_1" xmlns="http://www.w3.org/2000/svg" xmlns:xlink="http://www.w3.org/1999/xlink" x="0px" y="0px"
	 viewBox="0 0 500 300" style="enable-background:new 0 0 500 300;" xml:space="preserve">
<style type="text/css">
	.st0{fill-rule:evenodd;clip-rule:evenodd;fill:#FFF100;}
	.st1{fill-rule:evenodd;clip-rule:evenodd;fill:#231F20;}
	.st2{fill-rule:evenodd;clip-rule:evenodd;fill:#EC1C24;}
	.st3{fill-rule:evenodd;clip-rule:evenodd;fill:#FFFFFF;}
</style>
<g>
	<path class="st0" d="M49.6,116.6h400.8c4.1,0,7.4,2.4,7.4,5.3v56.3c0,2.9-3.3,5.3-7.4,5.3H49.6c-4.1,0-7.4-2.4-7.4-5.3v-56.3
		C42.2,118.9,45.5,116.6,49.6,116.6z"/>
	<path class="st1" d="M80.8,156.3l10.6,0.5c-0.3,3.6-1.6,6.6-3.7,9.2c-3.3,4-8.1,5.9-14.6,5.9c-5.3,0-9.6-1.3-12.8-3.9
		c-4.6-3.7-6.9-9.5-6.9-17.4c0-8.2,2.5-14.1,7.4-17.8c3.1-2.4,7.3-3.5,12.5-3.5c6.6,0,11.5,2,14.6,6c1.8,2.4,3,5.7,3.3,9.9L80.7,146
		c-0.2-3.1-0.8-5.2-1.7-6.4c-1.3-1.9-3.2-2.8-5.7-2.8c-2.7,0-4.7,1.2-6,3.5c-1.2,2.1-1.8,5.8-1.8,11.1c0,4.5,0.5,7.7,1.6,9.7
		c1.3,2.3,3.3,3.5,6.3,3.5C77.5,164.5,80,161.8,80.8,156.3z M108,130h11.6l15,41.3h-11.8l-2.6-8.5h-14.7l-2.6,8.5H92.3L108,130z
		 M118,155.6l-5.3-16.8l-5.1,16.8H118z M170.9,139l-9.5,2.9c-1.4-3.4-3.9-5.1-7.4-5.1c-1.4,0-2.5,0.3-3.5,0.8c-1.3,0.7-2,1.8-2,3
		c0,1.3,0.8,2.3,2.3,3.1c1.1,0.6,3.3,1.4,6.7,2.4c4.2,1.3,7.3,2.5,9.3,3.7c3.4,2.2,5.1,5.2,5.1,8.9c0,4.1-1.9,7.4-5.6,9.9
		c-3.3,2.2-7.6,3.3-12.9,3.3c-9.5,0-15.5-3.8-18.2-11.3l10-2.3c0.6,1.7,1.3,2.9,2.1,3.8c1.5,1.6,3.6,2.4,6.4,2.4
		c1.8,0,3.3-0.3,4.5-1c1.4-0.8,2.1-1.9,2.1-3.4c0-1.3-0.6-2.3-1.9-3.1c-1.1-0.7-2.9-1.4-5.4-2.1c-3.8-1.1-6.3-1.9-7.6-2.4
		c-5.4-2.4-8.2-5.9-8.2-10.4c0-3.9,1.6-7,4.8-9.3c3-2.2,7-3.3,12-3.3c4.7,0,8.6,1,11.6,2.9c1.9,1.2,3.3,2.7,4.3,4.6
		C170.3,137.5,170.6,138.2,170.9,139z M189.1,130h11.6l15,41.3h-11.8l-2.6-8.5h-14.7l-2.6,8.5h-10.6L189.1,130z M199.1,155.6
		l-5.3-16.8l-5.1,16.8H199.1z"/>
	<path class="st1" d="M263.1,128.8h12.4l8.3,32.4l8.6-32.4h10.2l-13.2,42.7l-13.3-0.2L263.1,128.8z M306.5,128.8h11.8v42.5h-11.8
		V128.8z M328.6,128.8h12.8c3.6,0,6.5,0.2,8.7,0.6c6.1,1,10.5,3.6,13,7.6c2.1,3.4,3.2,7.6,3.2,12.7c0,5.3-1.1,9.7-3.4,13.3
		c-2.6,4.1-6.6,6.7-11.9,7.8c-1.7,0.3-4.4,0.5-8.1,0.5h-14.2V128.8z M340.4,136.1v27.9h2c2,0,3.5-0.2,4.6-0.5
		c4.5-1.4,6.7-6,6.7-13.9c0-5.4-1.2-9.1-3.5-11.2c-1.2-1.1-2.6-1.7-4.2-2c-0.8-0.1-2-0.2-3.6-0.2H340.4z M374,128.8h32.8v7.3h-20.9
		v9.8h16.3v7.3h-16.3v10.4h20.9v7.6H374V128.8z M430.5,128.1c5.4,0,9.7,1.4,12.9,4.1c4.3,3.7,6.4,9.6,6.4,17.8
		c0,8.1-2.1,14.1-6.4,17.8c-3.2,2.7-7.6,4.1-13.1,4.1c-5.6,0-9.9-1.4-13.1-4.1c-4.3-3.7-6.4-9.6-6.4-17.6
		C410.7,135.5,417.3,128.1,430.5,128.1z M430.3,135.7c-3.2,0-5.2,1.6-6.2,4.7c-0.6,2-0.9,5.2-0.9,9.5c0,5,0.4,8.5,1.3,10.5
		c1.1,2.6,3,3.9,5.8,3.9c3.1,0,5.1-1.6,6.2-4.7c0.6-2,0.9-5.2,0.9-9.6c0-4.9-0.4-8.4-1.2-10.4C435.1,137,433.1,135.7,430.3,135.7z"
		/>
	<circle class="st2" cx="238.7" cy="150" r="26.5"/>
	<path class="st3" d="M238.7,121.5L238.7,121.5c7.8,0,15,3.2,20.1,8.4c5.2,5.2,8.4,12.3,8.4,20.1v0v0c0,7.8-3.2,15-8.4,20.1
		c-5.2,5.2-12.3,8.4-20.1,8.4h0h0c-7.8,0-15-3.2-20.1-8.4c-5.2-5.2-8.4-12.3-8.4-20.1v0v0c0-7.8,3.2-15,8.4-20.1
		C223.7,124.7,230.8,121.5,238.7,121.5L238.7,121.5z M238.7,125.5L238.7,125.5L238.7,125.5c-6.7,0-12.9,2.8-17.3,7.2
		c-4.4,4.4-7.2,10.6-7.2,17.3v0v0c0,6.7,2.8,12.9,7.2,17.3c4.4,4.4,10.6,7.2,17.3,7.2h0h0c6.7,0,12.9-2.8,17.3-7.2
		c4.4-4.4,7.2-10.6,7.2-17.3v0v0c0-6.7-2.8-12.9-7.2-17.3C251.6,128.3,245.4,125.5,238.7,125.5z"/>
	<path class="st3" d="M246.7,150.5l7,1.6c-0.4,1.3-0.7,2.3-1.1,3.1c-0.3,0.8-0.8,1.7-1.4,2.8l3.4,2.3c0.4,0.3,0.9,0.6,1.6,1
		l-4.9,5.6c-0.9-0.5-1.8-1-2.8-1.6c-1-0.6-1.8-1.2-2.6-1.6c-1.6,1-3.1,1.8-4.7,2.3c-2.2,0.6-4.6,1-7.4,1c-4.3,0-7.5-0.9-9.7-2.7
		s-3.2-4-3.2-6.5c0-1.8,0.6-3.6,1.9-5.2c1.2-1.6,3.3-3,6.1-4.2c-1.2-1.4-2-2.7-2.4-3.7c-0.4-1.1-0.7-2.1-0.7-3.2
		c0-2.3,0.9-4.2,2.6-5.7c1.8-1.5,4.4-2.2,8-2.2c3.6,0,6.3,0.7,8,2.1c1.7,1.4,2.6,3.1,2.6,5.1c0,1.1-0.3,2.2-0.8,3.2
		c-0.5,1-1.1,1.8-1.9,2.5c-0.7,0.6-2.1,1.6-4,2.8c1.6,1.6,3.2,3,4.9,4.4C246,152.4,246.4,151.5,246.7,150.5z M236.3,144.8
		c1.2-0.6,2.1-1.3,2.7-2.1c0.6-0.7,1-1.5,1-2.1c0-0.7-0.3-1.3-0.8-1.8c-0.5-0.5-1.3-0.7-2.2-0.7c-0.9,0-1.7,0.3-2.2,0.8
		c-0.6,0.5-0.9,1.2-0.9,1.9C233.9,141.7,234.7,143,236.3,144.8z M233.1,152.6c-1.2,0.9-2.1,1.6-2.5,2.2c-0.4,0.6-0.6,1.3-0.6,2
		c0,1.1,0.5,2,1.4,2.9c0.9,0.8,2.1,1.3,3.6,1.3c1.6,0,3.4-0.6,5.4-1.9C238.6,157.6,236.1,155.5,233.1,152.6z"/>
	<path class="st1" d="M449.8,169.4h-0.7v1.4h0.7c0.4,0,0.7-0.1,0.9-0.2c0.2-0.1,0.2-0.3,0.2-0.5c0-0.3-0.1-0.4-0.3-0.5
		C450.4,169.5,450.2,169.4,449.8,169.4z M449.9,169c0.5,0,0.9,0.1,1.2,0.3c0.3,0.2,0.4,0.4,0.4,0.8c0,0.3-0.1,0.5-0.2,0.7
		c-0.2,0.2-0.4,0.3-0.7,0.3l0.9,1.8h-0.7l-0.8-1.7h-0.9v1.7h-0.6V169H449.9z M452.8,171c0-0.4-0.1-0.8-0.2-1.2
		c-0.1-0.4-0.4-0.7-0.6-1c-0.3-0.3-0.6-0.5-1-0.6c-0.4-0.2-0.7-0.2-1.2-0.2c-0.4,0-0.8,0.1-1.1,0.2c-0.4,0.1-0.7,0.4-1,0.6
		c-0.3,0.3-0.5,0.6-0.7,1c-0.2,0.4-0.2,0.7-0.2,1.1c0,0.4,0.1,0.8,0.2,1.1c0.2,0.4,0.4,0.7,0.7,1c0.3,0.3,0.6,0.5,1,0.6
		c0.4,0.2,0.7,0.2,1.1,0.2c0.4,0,0.8-0.1,1.1-0.2c0.4-0.2,0.7-0.4,1-0.7c0.3-0.3,0.5-0.6,0.6-0.9C452.7,171.8,452.8,171.4,452.8,171
		z M449.8,167.7c0.5,0,0.9,0.1,1.3,0.3c0.4,0.2,0.8,0.4,1.1,0.7c0.3,0.3,0.5,0.7,0.7,1.1c0.2,0.4,0.2,0.8,0.2,1.3
		c0,0.5-0.1,0.9-0.2,1.3c-0.2,0.4-0.4,0.8-0.7,1.1c-0.3,0.3-0.7,0.6-1.1,0.7c-0.4,0.2-0.8,0.3-1.3,0.3c-0.4,0-0.9-0.1-1.3-0.3
		c-0.4-0.2-0.8-0.4-1.1-0.7c-0.3-0.3-0.6-0.7-0.7-1.1c-0.2-0.4-0.2-0.8-0.2-1.3c0-0.4,0.1-0.9,0.3-1.3c0.2-0.4,0.4-0.8,0.7-1.1
		c0.3-0.3,0.7-0.6,1.1-0.7C448.9,167.7,449.3,167.7,449.8,167.7z"/>
</g>
</svg>
