<?xml version="1.0" encoding="utf-8"?>
<!-- Generator: Adobe Illustrator 25.2.3, SVG Export Plug-In . SVG Version: 6.00 Build 0)  -->
<svg version="1.1" id="Layer_1" xmlns="http://www.w3.org/2000/svg" xmlns:xlink="http://www.w3.org/1999/xlink" x="0px" y="0px"
	 viewBox="0 0 500 300" style="enable-background:new 0 0 500 300;" xml:space="preserve">
<style type="text/css">
	.st0{fill:#EC1C24;}
	.st1{fill:#18305B;}
	.st2{fill:#FFFFFF;}
</style>
<g>
	<g>
		<path class="st0" d="M271.2,124.6c9-23.7,20.1-39.1,20.1-39.1c-19,12-33.1,17.4-40.8,19.7C226.6,96.1,211.1,85,211.1,85
			c12.7,20.2,18,34.8,20.1,42.2c-8.9,22.7-19.4,37.3-19.4,37.3c18.1-11.4,31.7-16.8,39.7-19.4c23.9,9.1,39.4,20.2,39.4,20.2
			C279,146.3,273.6,132.3,271.2,124.6z"/>
		<g>
			<path class="st1" d="M268.1,109.5V140c26.2-11.3,48.6-14.5,48.6-14.5C284.4,119.1,269.8,110.5,268.1,109.5z"/>
			<path class="st1" d="M234.8,140v-30.5c-1.7,1-16.3,9.6-48.6,16C186.2,125.5,208.6,128.7,234.8,140z"/>
			<path class="st1" d="M236.3,108.3h30.5c-1-1.7-9.6-16.3-16-48.6C250.8,59.7,247.6,82.1,236.3,108.3z"/>
			<path class="st1" d="M251,190.1c0,0,3.2-22.4,14.5-48.6H235C236.1,143.2,244.6,157.8,251,190.1z"/>
		</g>
		<circle class="st2" cx="250.9" cy="125.2" r="24.6"/>
		<circle class="st0" cx="250.9" cy="125.2" r="21.3"/>
		<g>
			<path class="st2" d="M236.9,123.2c0-6.2,3.6-9,8.2-9c2.9,0,5.4,1.2,6.8,3.5c1.4-2.3,3.8-3.5,6.8-3.5c4.7,0,8.2,2.8,8.2,9v11.2
				h-4.7v-11.2c0-3.2-1.7-4.5-4-4.5c-2.3,0-3.9,1.4-3.9,4.5v11.2h-4.7v-11.2c0-3.2-1.7-4.5-4-4.5c-2.3,0-4,1.3-4,4.5v11.2h-4.7
				V123.2z"/>
		</g>
	</g>
	<g>
		<g>
			<path class="st1" d="M141.5,217.7c0-11.9,6.9-17.2,15.9-17.2c5.7,0,10.3,2.4,13.1,6.8c2.7-4.4,7.4-6.8,13.1-6.8
				c9,0,15.9,5.4,15.9,17.2v21.6h-9.1v-21.6c0-6.2-3.2-8.7-7.7-8.7c-4.4,0-7.6,2.6-7.6,8.7v21.6h-9.1v-21.6c0-6.1-3.3-8.7-7.7-8.7
				c-4.4,0-7.7,2.5-7.7,8.7v21.6h-9.1V217.7z"/>
			<path class="st1" d="M202.3,220.8c0-12,8.4-20.3,20.5-20.3c11.9,0,20.2,8,20.2,20.2v18.6h-8.4v-7.4c-2.3,5.6-7.4,8.4-13.4,8.4
				C212,240.3,202.3,233.8,202.3,220.8z M233.8,220.4c0-6.7-4.4-11.4-11.1-11.4c-6.7,0-11.2,4.8-11.2,11.4c0,6.7,4.5,11.4,11.2,11.4
				C229.4,231.8,233.8,227.1,233.8,220.4z"/>
			<path class="st1" d="M274.4,220.1v-35.2h9.1V207c2.7-4.2,7.2-6.5,12.6-6.5c9.2,0,18.9,6.6,18.9,19.5c0,12-8.4,20.3-20.5,20.3
				C282.6,240.3,274.4,232.4,274.4,220.1z M305.8,220.4c0-6.7-4.5-11.4-11.2-11.4c-6.7,0-11.1,4.8-11.1,11.4
				c0,6.7,4.4,11.4,11.1,11.4C301.3,231.8,305.8,227.1,305.8,220.4z"/>
			<path class="st1" d="M317.9,220.8c0-12,8.4-20.3,20.5-20.3c11.9,0,20.2,8,20.2,20.2v18.6h-8.4v-7.4c-2.3,5.6-7.4,8.4-13.4,8.4
				C327.6,240.3,317.9,233.8,317.9,220.8z M349.4,220.4c0-6.7-4.4-11.4-11.1-11.4c-6.7,0-11.2,4.8-11.2,11.4
				c0,6.7,4.5,11.4,11.2,11.4C344.9,231.8,349.4,227.1,349.4,220.4z"/>
		</g>
		<path class="st1" d="M263.6,200.4c-4.6,0-8.5,1.6-11.7,4.8c-3.2,3.2-4.8,7.1-4.8,11.7v22.9h9.2v-22.9c0-2,0.7-3.8,2.1-5.2
			c1.4-1.4,3.2-2.1,5.2-2.1h6.7v-9.2H263.6z"/>
	</g>
</g>
<g>
</g>
<g>
</g>
<g>
</g>
<g>
</g>
<g>
</g>
<g>
</g>
<g>
</g>
<g>
</g>
<g>
</g>
<g>
</g>
<g>
</g>
<g>
</g>
<g>
</g>
<g>
</g>
<g>
</g>
</svg>
