<?xml version="1.0" encoding="utf-8"?>
<!-- Generator: Adobe Illustrator 25.3.1, SVG Export Plug-In . SVG Version: 6.00 Build 0)  -->
<svg version="1.1" id="Layer_1" xmlns="http://www.w3.org/2000/svg" xmlns:xlink="http://www.w3.org/1999/xlink" x="0px" y="0px"
	 viewBox="0 0 500 300" style="enable-background:new 0 0 500 300;" xml:space="preserve">
<style type="text/css">
	.st0{fill:#008BCD;}
	.st1{fill:url(#SVGID_1_);}
	.st2{fill:#8F8F8F;}
</style>
<g>
	<g>
		<path class="st0" d="M71.4,156.4v-41.6h13.4l7,14.6c0.4,0.9,0.8,1.9,1.3,3s1,2.4,1.6,3.9l1.4,3.7c-0.5-3.6-0.9-6.7-1.2-9.3
			c-0.3-2.6-0.4-4.7-0.4-6.5v-9.3H108v41.6H94.6L87.5,141c-0.7-1.6-1.4-3.2-2-4.6c-0.6-1.4-1.1-2.8-1.6-4.1c0.3,2.9,0.5,5.5,0.6,7.7
			s0.2,4.1,0.2,5.7v10.6H71.4V156.4z"/>
		<path class="st0" d="M114,156.4v-41.6h26.1v9.8H128v6.1h10.8v9.4H128v6.4h12.1v10L114,156.4L114,156.4z"/>
		<path class="st0" d="M162.9,156.4h-14v-31.6h-7.7v-10H171v10h-8v31.6H162.9z"/>
		<path class="st0" d="M220.2,156.4h-13.5l-3.2-14.6c-0.6-2.8-1.1-5.3-1.4-7.3c-0.2-1-0.3-1.9-0.4-2.6c-0.1-0.7-0.2-1.2-0.2-1.6
			c-0.1,0.7-0.3,2.1-0.5,4.1c-0.1,1-0.2,2.1-0.4,3.2c-0.2,1.1-0.3,2.3-0.6,3.6l-2.7,15.1h-13.7L172,114.8h13.9l2.3,11.5
			c0.9,4.6,1.5,8.1,1.8,10.7l0.5,3.8l0.4-3.3c0.5-3.8,1.1-7.4,1.8-10.9l2.6-11.9h12.1l2.4,10c1.1,4.7,2.1,10.2,2.9,16.5
			c0.2-2.9,0.5-5.4,0.8-7.6c0.3-2.2,0.6-4.2,1-6l2.6-12.9h13.7L220.2,156.4z"/>
		<path class="st0" d="M325.6,156.4h-15.2l-6.9-14.8c-0.1-0.3-0.2-0.6-0.4-1c-0.2-0.4-0.4-0.9-0.6-1.5l0.1,2.7v14.5h-14v-41.6H303
			c6.3,0,11.1,1,14.2,3c4,2.6,6,6.2,6,10.9c0,5-2.7,8.5-8,10.4L325.6,156.4z M302.7,134h0.9c1.6,0,3-0.5,4-1.5s1.6-2.2,1.6-3.8
			c0-3.1-2-4.7-6.1-4.7h-0.5v10H302.7z"/>
		<path class="st0" d="M363,156.4h-15.2l-9.3-19.2l0.4,19.2h-14v-41.6h14l-0.4,17.8l8.3-17.8h14.8l-11.2,20.1L363,156.4z"/>
		<path class="st0" d="M361.6,156.4v-41.6h26.1v9.8h-12.1v6.1h10.8v9.4h-10.8v6.4h12.1v10L361.6,156.4L361.6,156.4z"/>
		<path class="st0" d="M426.6,156.4h-15.2l-6.9-14.8c-0.1-0.3-0.2-0.6-0.4-1c-0.2-0.4-0.4-0.9-0.6-1.5l0.1,2.7v14.5h-14v-41.6H404
			c6.3,0,11.1,1,14.2,3c4,2.6,6,6.2,6,10.9c0,5-2.7,8.5-8,10.4L426.6,156.4z M403.6,134h0.9c1.6,0,3-0.5,4-1.5s1.6-2.2,1.6-3.8
			c0-3.1-2-4.7-6.1-4.7h-0.5v10H403.6z"/>
	</g>
	
		<radialGradient id="SVGID_1_" cx="264.163" cy="177.2255" r="47.5861" gradientTransform="matrix(1 0 0 -1 0 302)" gradientUnits="userSpaceOnUse">
		<stop  offset="0" style="stop-color:#F4EDF5"/>
		<stop  offset="0.1025" style="stop-color:#D4C9D9"/>
		<stop  offset="0.2334" style="stop-color:#B2A3BA"/>
		<stop  offset="0.3694" style="stop-color:#9683A1"/>
		<stop  offset="0.5099" style="stop-color:#806A8D"/>
		<stop  offset="0.6567" style="stop-color:#70597F"/>
		<stop  offset="0.814" style="stop-color:#674E77"/>
		<stop  offset="1" style="stop-color:#644B74"/>
	</radialGradient>
	<circle class="st1" cx="258.2" cy="134.7" r="32.8"/>
</g>
<g>
	<path class="st2" d="M88.7,171.6v5.4h-4.2v21.5h-7V177h-4.1v-5.4H88.7z"/>
	<path class="st2" d="M129.7,171.6h11.7v5.4h-4.7v5.1h4.4v5.1h-4.4v5.9h5.1v5.4h-12.1V171.6z"/>
	<path class="st2" d="M190.2,171.6v21.5h4.2v5.4h-11.2v-26.9H190.2z"/>
	<path class="st2" d="M235.6,171.6h11.7v5.4h-4.7v5.1h4.4v5.1h-4.4v5.9h5.1v5.4h-12.1V171.6z"/>
	<path class="st2" d="M305.4,183.3h-7v-4.7c0-1.4-0.1-2.2-0.2-2.5c-0.1-0.3-0.5-0.5-1-0.5c-0.6,0-0.9,0.2-1.1,0.6s-0.2,1.3-0.2,2.7
		v12.5c0,1.3,0.1,2.2,0.2,2.6s0.5,0.6,1,0.6c0.5,0,0.9-0.2,1-0.6c0.2-0.4,0.2-1.3,0.2-2.8v-3.4h7v1c0,2.8-0.2,4.8-0.6,5.9
		c-0.4,1.2-1.3,2.2-2.6,3.1c-1.3,0.9-3,1.3-5,1.3c-2,0-3.7-0.4-5.1-1.1s-2.2-1.8-2.6-3.1c-0.4-1.3-0.6-3.3-0.6-5.9v-7.9
		c0-1.9,0.1-3.4,0.2-4.4c0.1-1,0.5-1.9,1.2-2.8c0.7-0.9,1.6-1.6,2.7-2.1c1.2-0.5,2.5-0.8,4-0.8c2.1,0,3.8,0.4,5.1,1.2s2.2,1.8,2.6,3
		c0.4,1.2,0.6,3,0.6,5.5V183.3z"/>
	<path class="st2" d="M363.3,187.3c0,2.7-0.1,4.6-0.2,5.7c-0.1,1.1-0.5,2.2-1.2,3.1c-0.7,0.9-1.6,1.6-2.7,2.1s-2.5,0.7-4,0.7
		c-1.4,0-2.7-0.2-3.9-0.7c-1.1-0.5-2.1-1.2-2.8-2.1s-1.1-2-1.2-3.1s-0.2-3-0.2-5.8v-4.6c0-2.7,0.1-4.6,0.2-5.7
		c0.1-1.1,0.5-2.1,1.2-3.1c0.7-0.9,1.6-1.6,2.7-2.1s2.5-0.7,4-0.7c1.4,0,2.7,0.2,3.9,0.7c1.1,0.5,2.1,1.2,2.8,2.1s1.1,2,1.2,3.1
		s0.2,3,0.2,5.8V187.3z M356.3,178.5c0-1.3-0.1-2-0.2-2.4c-0.1-0.3-0.4-0.5-0.9-0.5c-0.4,0-0.6,0.1-0.8,0.4
		c-0.2,0.3-0.3,1.1-0.3,2.5v12.6c0,1.6,0.1,2.5,0.2,2.9c0.1,0.4,0.4,0.5,0.9,0.5c0.5,0,0.8-0.2,0.9-0.6s0.2-1.4,0.2-3V178.5z"/>
	<path class="st2" d="M426.9,171.6v26.9h-6.1l0-18.1l-2.4,18.1H414l-2.6-17.7l0,17.7h-6.1v-26.9h9c0.3,1.6,0.5,3.5,0.8,5.7l1,6.8
		l1.6-12.6H426.9z"/>
</g>
</svg>
