<?xml version="1.0" encoding="UTF-8"?>
<svg id="Layer_1" xmlns="http://www.w3.org/2000/svg" version="1.1" viewBox="0 0 500 300">
  <!-- Generator: Adobe Illustrator 29.8.4, SVG Export Plug-In . SVG Version: 2.1.1 Build 6)  -->
  <defs>
    <style>
      .st0 {
        font-family: AllumiStd-Bold, 'Allumi Std';
        font-size: 36px;
        font-weight: 700;
        letter-spacing: 0em;
      }

      .st0, .st1 {
        fill: #abbcc6;
      }

      .st0, .st2 {
        isolation: isolate;
      }
    </style>
  </defs>
  <g>
    <path class="st1" d="M63.4,184.3c-1.9,1.9-4.4,2.4-8.6,2.4h-3.3v7.3h-5v-24.7h9c3.5,0,6,.4,7.9,2.2,1.5,1.4,2.1,3.7,2.1,6.4.1,2.9-.6,5.1-2.1,6.4h0ZM55.3,173.3h-3.7v9.5h3.7c3.7,0,5.3-1.5,5.3-4.8,0-3.7-2.1-4.7-5.3-4.7Z"/>
    <path class="st1" d="M86,194l-5.1-9h-3.7v8.9h-5v-24.7h8.7c3.3,0,6,.4,7.9,2.1,1.5,1.4,2.1,3.3,2.1,5.8,0,2.3-.6,4.4-2.2,5.8-.7.7-1.6,1.2-2.7,1.4l5.7,9.6-5.7.1h0ZM80.7,173.3h-3.5v8.1h3.5c3.7,0,5.2-1.3,5.2-4.1,0-3.1-1.9-4-5.2-4Z"/>
    <path class="st1" d="M116.7,171.5c2.5,2.1,3.6,5.8,3.6,10.2s-1.1,8.2-3.6,10.3c-2.3,2-5.3,2.6-8.5,2.6s-6.2-.6-8.5-2.6c-2.5-2.1-3.7-5.8-3.7-10.2s1.1-8.1,3.6-10.3c2.3-2,5.3-2.6,8.5-2.6s6.3.6,8.6,2.6h0ZM115.2,181.8c0-5.8-2.1-8.9-7.1-8.9s-7.1,2.7-7.1,8.6,2.2,8.9,7.1,8.9,7.1-2.7,7.1-8.6Z"/>
    <path class="st1" d="M135.3,186.1c0,2.3-.2,4.8-1.9,6.5-1.4,1.5-3.6,1.9-5.7,1.9-1.3,0-3.2-.1-4.5-.3v-4c.9.1,2.1.3,3.1.3,3.1,0,4-1.3,4-4.8v-16.3h4.9l.1,16.7h0Z"/>
    <path class="st1" d="M143.3,194v-24.7h16v4h-11.1v6h10.1v3.9h-10.1v6.6h11.6v4h-16.5v.2Z"/>
    <path class="st1" d="M171.2,194v-20.6h-8.1v-4h21.2v4h-8.1v20.6h-5,0Z"/>
    <path class="st1" d="M206.6,171.5c2.5,2.1,3.6,5.8,3.6,10.2s-1.1,8.2-3.6,10.3c-2.3,2-5.3,2.6-8.5,2.6s-6.2-.6-8.5-2.6c-2.5-2.1-3.7-5.8-3.7-10.2s1.1-8.1,3.6-10.3c2.3-2,5.3-2.6,8.5-2.6s6.2.6,8.6,2.6h0ZM205.1,181.8c0-5.8-2.1-8.9-7.1-8.9s-7.1,2.7-7.1,8.6,2.2,8.9,7.1,8.9,7.1-2.7,7.1-8.6Z"/>
    <g class="st2">
      <text class="st0" transform="translate(228 194)"><tspan x="0" y="0">BULLDOZER</tspan></text>
    </g>
  </g>
  <g>
    <path class="st1" d="M175.5,217.3c-2.4,0-4.2-1.5-4.2-4.5,0-2.6.8-5.5,3.1-7.1,1.3-.9,2.6-1,3.9-1,.9,0,1.9.1,2.9.2l-.2,1.4c-.9-.1-1.8-.2-2.6-.2-3.9,0-5.1,3.1-5.1,6.5,0,1.7.8,3.2,3.1,3.2,1.2,0,2.8-.3,3.9-.8l-.3,1.4c-1.5.6-3,.9-4.5.9h0Z"/>
    <path class="st1" d="M193.9,216.1c-1.1.9-2.3,1.2-4,1.2-2.9,0-5-1.4-5-4.6,0-2.5.8-5.3,2.6-6.7,1.1-.8,2.3-1.2,4-1.2,2.9,0,5,1.4,5,4.6,0,2.5-.8,5.2-2.6,6.7ZM191.4,206.1c-3.5,0-4.6,3.3-4.6,6.4,0,2.2,1.2,3.3,3.4,3.3,3.5,0,4.6-3.3,4.6-6.4.1-2.2-1.3-3.3-3.4-3.3Z"/>
    <path class="st1" d="M208.9,217.1l-4.4-9.7h0l-1.7,9.7h-1.5l2.1-12.1h1.9l4.2,9.5h0l1.7-9.5h1.5l-2.1,12.1h-1.7Z"/>
    <path class="st1" d="M220.2,212.1l-.9,5h-1.7l2.1-12.1h7.5l-.2,1.4h-5.8l-.8,4.3h5.1l-.2,1.3h-5.1v.1h0Z"/>
    <path class="st1" d="M231.5,217.1l2.1-12.1h1.7l-2.1,12.1h-1.7Z"/>
    <path class="st1" d="M249.7,215.3c-1.1,1.1-2.6,1.8-4.6,1.8h-4.9l2.1-12.1h4.5c3,0,4.9,1.7,4.9,4.7,0,2.2-.7,4.2-2,5.6ZM246.5,206.4h-2.6l-1.7,9.3h2.9c3.1,0,5-2.3,5-5.7-.2-2.3-1.3-3.6-3.6-3.6h0Z"/>
    <path class="st1" d="M256.4,217.1l2.1-12.1h7.1l-.2,1.4h-5.4l-.7,3.8h5.1l-.2,1.3h-5.1l-.8,4.1h6.1l-.2,1.4h-7.7l-.1.1h0Z"/>
    <path class="st1" d="M278,217.1l-4.4-9.7h0l-1.7,9.7h-1.5l2.1-12.1h1.9l4.2,9.5h0l1.7-9.5h1.5l-2.1,12.1h-1.7Z"/>
    <path class="st1" d="M290.8,217.3c-2.4,0-4.2-1.5-4.2-4.5,0-2.6.8-5.5,3.1-7.1,1.3-.9,2.6-1,3.9-1,.9,0,1.9.1,2.9.2l-.2,1.4c-.9-.1-1.8-.2-2.6-.2-3.9,0-5.1,3.1-5.1,6.5,0,1.7.8,3.2,3.1,3.2,1.2,0,2.8-.3,3.9-.8l-.3,1.4c-1.6.6-3.1.9-4.5.9h0Z"/>
    <path class="st1" d="M300.8,217.1l2.1-12.1h1.7l-2.1,12.1h-1.7Z"/>
    <path class="st1" d="M317.2,217.1l-.6-3.3h-5.2l-1.8,3.3h-1.6l6.6-12.1h2l2.3,12.1h-1.7,0ZM315.4,206.7h0l-3.2,5.7h4.2l-1-5.7Z"/>
    <path class="st1" d="M324.3,217.1l2.1-12.1h1.7l-1.9,10.6h6.1l-.3,1.4-7.7.1h0Z"/>
  </g>
  <g>
    <polygon class="st1" points="217.1 103.4 239.9 126.1 262.7 103.4 258.1 98.8 239.9 117 235.3 112.5 235.3 112.5 230.8 107.9 230.8 107.9 226.2 103.4 258.1 71.5 262.7 76 262.7 76 285.4 98.8 285.4 98.8 290 103.4 253.6 139.8 258.1 144.3 299.1 103.4 258.1 62.4 217.1 103.4"/>
    <polygon class="st1" points="239.9 107.9 253.6 94.3 253.6 94.3 258.1 89.7 271.8 103.4 271.6 103.5 271.6 103.5 267.4 107.8 267.2 107.9 267.2 107.9 239.9 135.2 239.1 134.5 239.1 134.5 208.1 103.5 208.1 103.5 208 103.4 244.4 66.9 239.9 62.4 198.9 103.4 239.9 144.4 280.9 103.4 258.1 80.6 235.3 103.4 239.9 107.9"/>
  </g>
</svg>