<?xml version="1.0" encoding="utf-8"?>
<!-- Generator: Adobe Illustrator 25.2.3, SVG Export Plug-In . SVG Version: 6.00 Build 0)  -->
<svg version="1.1" id="Layer_1" xmlns="http://www.w3.org/2000/svg" xmlns:xlink="http://www.w3.org/1999/xlink" x="0px" y="0px"
	 viewBox="0 0 500 300" style="enable-background:new 0 0 500 300;" xml:space="preserve">
<style type="text/css">
	.st0{fill:#ABBCC6;}
</style>
<g>
	<path class="st0" d="M73.6,184.3c-1.9,1.9-4.4,2.4-8.6,2.4h-3.3v7.3h-5v-24.7h9c3.5,0,6,0.4,7.9,2.2c1.5,1.4,2.1,3.7,2.1,6.4
		C75.8,180.8,75.1,183,73.6,184.3z M65.5,173.3h-3.7v9.5h3.7c3.7,0,5.3-1.5,5.3-4.8C70.8,174.3,68.7,173.3,65.5,173.3z"/>
	<path class="st0" d="M96.2,194l-5.1-9c-0.3,0-0.6,0-1,0h-2.7v8.9h-5v-24.7h8.7c3.3,0,6,0.4,7.9,2.1c1.5,1.4,2.1,3.3,2.1,5.8
		c0,2.3-0.6,4.4-2.2,5.8c-0.7,0.7-1.6,1.2-2.7,1.4l5.7,9.6L96.2,194L96.2,194z M90.9,173.3h-3.5v8.1h3.5c3.7,0,5.2-1.3,5.2-4.1
		C96.1,174.2,94.2,173.3,90.9,173.3z"/>
	<path class="st0" d="M126.9,171.5c2.5,2.1,3.6,5.8,3.6,10.2c0,4.5-1.1,8.2-3.6,10.3c-2.3,2-5.3,2.6-8.5,2.6s-6.2-0.6-8.5-2.6
		c-2.5-2.1-3.7-5.8-3.7-10.2s1.1-8.1,3.6-10.3c2.3-2,5.3-2.6,8.5-2.6C121.6,168.9,124.6,169.5,126.9,171.5z M125.4,181.8
		c0-5.8-2.1-8.9-7.1-8.9s-7.1,2.7-7.1,8.6c0,5.8,2.2,8.9,7.1,8.9C123.4,190.4,125.4,187.7,125.4,181.8z"/>
	<path class="st0" d="M145.5,186.1c0,2.3-0.2,4.8-1.9,6.5c-1.4,1.5-3.6,1.9-5.7,1.9c-1.3,0-3.2-0.1-4.5-0.3v-4
		c0.9,0.1,2.1,0.3,3.1,0.3c3.1,0,4-1.3,4-4.8v-16.3h4.9L145.5,186.1L145.5,186.1z"/>
	<path class="st0" d="M153.5,194v-24.7h16v4h-11.1v6h10.1v3.9h-10.1v6.6H170v4h-16.5V194z"/>
	<path class="st0" d="M181.4,194v-20.6h-8.1v-4h21.2v4h-8.1V194H181.4z"/>
	<path class="st0" d="M216.8,171.5c2.5,2.1,3.6,5.8,3.6,10.2c0,4.5-1.1,8.2-3.6,10.3c-2.3,2-5.3,2.6-8.5,2.6s-6.2-0.6-8.5-2.6
		c-2.5-2.1-3.7-5.8-3.7-10.2s1.1-8.1,3.6-10.3c2.3-2,5.3-2.6,8.5-2.6C211.5,168.9,214.4,169.5,216.8,171.5z M215.3,181.8
		c0-5.8-2.1-8.9-7.1-8.9s-7.1,2.7-7.1,8.6c0,5.8,2.2,8.9,7.1,8.9C213.3,190.4,215.3,187.7,215.3,181.8z"/>
	<path class="st0" d="M249.7,193.1c-1.8,1.2-4.1,1.4-7,1.4c-1.9,0-4.3-0.1-7-0.4V190c2.2,0.3,4.5,0.5,6.4,0.5c1.5,0,2.9-0.1,3.9-0.5
		c1.2-0.5,1.8-1.5,1.8-2.7c0-1.6-0.8-2.4-2.4-3c-1.2-0.4-2.5-0.7-3.8-1.1c-3.9-1.1-5.9-2.9-5.9-6.9c0-2.4,0.9-4.8,3-6
		c1.8-1.2,4-1.4,6.6-1.4c1.8,0,4,0.1,6.4,0.4v4c-2-0.3-4.2-0.5-5.9-0.5c-1.3,0-2.4,0-3.5,0.4c-1.2,0.5-1.6,1.5-1.6,2.6
		c0,1.5,0.8,2.3,2.3,2.8c1.1,0.3,2.3,0.6,3.6,1c4.1,1,6.3,3,6.3,7.2C252.8,189.3,251.9,191.8,249.7,193.1z"/>
	<path class="st0" d="M263.3,194v-20.6h-8.1v-4h21.2v4h-8.1V194H263.3z"/>
	<path class="st0" d="M283.3,192c-1.8-1.9-2.2-4.5-2.2-8.6v-14h5V184c0,2.1,0.2,3.6,1,4.8c0.9,1.2,2.5,1.7,4.3,1.7s3.4-0.5,4.4-1.8
		c0.8-1.1,1-2.5,1-4.5v-14.7h4.8v14c0,4-0.3,6.7-2.2,8.6c-2.1,2.2-4.9,2.6-8,2.6C288.2,194.5,285.4,194.2,283.3,192z"/>
	<path class="st0" d="M314.5,194v-20.6h-8.1v-4h21.2v4h-8.1V194H314.5z"/>
	<path class="st0" d="M338.6,194v-20.6h-8.1v-4h21.2v4h-8.1V194H338.6z"/>
	<path class="st0" d="M364.4,194.5c-3.2,0-5.9-0.8-7.9-2.8c-2.3-2.4-3.2-5.9-3.2-10c0-3.9,1.2-8.1,4.2-10.5c2.4-1.9,5.3-2.3,8.8-2.3
		c2.3,0,4.5,0.2,7,0.4v4.2c-2-0.2-4.4-0.4-6.6-0.4c-6.1,0-8.4,2.7-8.4,8.7c0,5.4,2.1,8.7,6.7,8.7c1.4,0,3.2-0.3,4.9-0.7v-5.5H364
		v-3.8h10v12.3C370.5,193.9,367.1,194.5,364.4,194.5z"/>
	<path class="st0" d="M396.9,194l-2-5.7h-9.8l-2,5.7H378l9-24.7h6.2l9,24.7H396.9z M390.1,174H390l-3.6,10.4h7.2L390.1,174z"/>
	<path class="st0" d="M421.1,194l-5.1-9c-0.3,0-0.6,0-1,0h-2.7v8.9h-5v-24.7h8.7c3.3,0,6,0.4,7.9,2.1c1.5,1.4,2.1,3.3,2.1,5.8
		c0,2.3-0.6,4.4-2.2,5.8c-0.7,0.7-1.6,1.2-2.7,1.4l5.7,9.6L421.1,194L421.1,194z M415.7,173.3h-3.5v8.1h3.5c3.7,0,5.2-1.3,5.2-4.1
		C420.9,174.2,419.1,173.3,415.7,173.3z"/>
	<path class="st0" d="M437.3,194v-20.6h-8.1v-4h21.2v4h-8.1V194H437.3z"/>
</g>
<g>
	<path class="st0" d="M175.5,217.3c-2.4,0-4.2-1.5-4.2-4.5c0-2.6,0.8-5.5,3.1-7.1c1.3-0.9,2.6-1,3.9-1c0.9,0,1.9,0.1,2.9,0.2
		l-0.2,1.4c-0.9-0.1-1.8-0.2-2.6-0.2c-3.9,0-5.1,3.1-5.1,6.5c0,1.7,0.8,3.2,3.1,3.2c1.2,0,2.8-0.3,3.9-0.8l-0.3,1.4
		C178.5,217,177,217.3,175.5,217.3z"/>
	<path class="st0" d="M193.9,216.1c-1.1,0.9-2.3,1.2-4,1.2c-2.9,0-5-1.4-5-4.6c0-2.5,0.8-5.3,2.6-6.7c1.1-0.8,2.3-1.2,4-1.2
		c2.9,0,5,1.4,5,4.6C196.5,211.9,195.7,214.6,193.9,216.1z M191.4,206.1c-3.5,0-4.6,3.3-4.6,6.4c0,2.2,1.2,3.3,3.4,3.3
		c3.5,0,4.6-3.3,4.6-6.4C194.9,207.2,193.5,206.1,191.4,206.1z"/>
	<path class="st0" d="M208.9,217.1l-4.4-9.7l0,0l-1.7,9.7h-1.5l2.1-12.1h1.9l4.2,9.5l0,0l1.7-9.5h1.5l-2.1,12.1H208.9z"/>
	<path class="st0" d="M220.2,212.1l-0.9,5h-1.7l2.1-12.1h7.5l-0.2,1.4h-5.8l-0.8,4.3h5.1l-0.2,1.3h-5.1V212.1z"/>
	<path class="st0" d="M231.5,217.1l2.1-12.1h1.7l-2.1,12.1H231.5z"/>
	<path class="st0" d="M249.7,215.3c-1.1,1.1-2.6,1.8-4.6,1.8h-4.9l2.1-12.1h4.5c3,0,4.9,1.7,4.9,4.7
		C251.7,211.9,251,213.9,249.7,215.3z M246.5,206.4h-2.6l-1.7,9.3h2.9c3.1,0,5-2.3,5-5.7C249.9,207.7,248.8,206.4,246.5,206.4z"/>
	<path class="st0" d="M256.4,217.1l2.1-12.1h7.1l-0.2,1.4H260l-0.7,3.8h5.1l-0.2,1.3h-5.1l-0.8,4.1h6.1l-0.2,1.4h-7.7L256.4,217.1
		L256.4,217.1z"/>
	<path class="st0" d="M278,217.1l-4.4-9.7l0,0l-1.7,9.7h-1.5l2.1-12.1h1.9l4.2,9.5l0,0l1.7-9.5h1.5l-2.1,12.1H278z"/>
	<path class="st0" d="M290.8,217.3c-2.4,0-4.2-1.5-4.2-4.5c0-2.6,0.8-5.5,3.1-7.1c1.3-0.9,2.6-1,3.9-1c0.9,0,1.9,0.1,2.9,0.2
		l-0.2,1.4c-0.9-0.1-1.8-0.2-2.6-0.2c-3.9,0-5.1,3.1-5.1,6.5c0,1.7,0.8,3.2,3.1,3.2c1.2,0,2.8-0.3,3.9-0.8l-0.3,1.4
		C293.7,217,292.2,217.3,290.8,217.3z"/>
	<path class="st0" d="M300.8,217.1l2.1-12.1h1.7l-2.1,12.1H300.8z"/>
	<path class="st0" d="M317.2,217.1l-0.6-3.3h-5.2l-1.8,3.3H308l6.6-12.1h2l2.3,12.1H317.2z M315.4,206.7L315.4,206.7l-3.2,5.7h4.2
		L315.4,206.7z"/>
	<path class="st0" d="M324.3,217.1l2.1-12.1h1.7l-1.9,10.6h6.1L332,217L324.3,217.1L324.3,217.1z"/>
</g>
<g>
	<g>
		<polygon class="st0" points="217.1,103.4 239.9,126.1 262.7,103.4 258.1,98.8 239.9,117 235.3,112.5 235.3,112.5 230.8,107.9 
			230.8,107.9 226.2,103.4 258.1,71.5 262.7,76 262.7,76 285.4,98.8 285.4,98.8 290,103.4 253.6,139.8 258.1,144.3 299.1,103.4 
			258.1,62.4 		"/>
		<polygon class="st0" points="239.9,107.9 253.6,94.3 253.6,94.3 258.1,89.7 271.8,103.4 271.6,103.5 271.6,103.5 267.4,107.8 
			267.2,107.9 267.2,107.9 239.9,135.2 239.1,134.5 239.1,134.5 208.1,103.5 208.1,103.5 208,103.4 244.4,66.9 239.9,62.4 
			198.9,103.4 239.9,144.4 280.9,103.4 258.1,80.6 235.3,103.4 		"/>
	</g>
</g>
</svg>
